%TF.GenerationSoftware,KiCad,Pcbnew,7.0.1*%
%TF.CreationDate,2023-05-04T02:21:34+01:00*%
%TF.ProjectId,wiikey_dip,7769696b-6579-45f6-9469-702e6b696361,rev?*%
%TF.SameCoordinates,Original*%
%TF.FileFunction,Legend,Bot*%
%TF.FilePolarity,Positive*%
%FSLAX46Y46*%
G04 Gerber Fmt 4.6, Leading zero omitted, Abs format (unit mm)*
G04 Created by KiCad (PCBNEW 7.0.1) date 2023-05-04 02:21:34*
%MOMM*%
%LPD*%
G01*
G04 APERTURE LIST*
G04 APERTURE END LIST*
%TO.C,G\u002A\u002A\u002A*%
G36*
X164265453Y-85400335D02*
G01*
X164259127Y-85491841D01*
X164204319Y-85696018D01*
X164108900Y-85925225D01*
X163974944Y-86175691D01*
X163804526Y-86443646D01*
X163599718Y-86725319D01*
X163362596Y-87016940D01*
X163095231Y-87314738D01*
X162694286Y-87741060D01*
X162867898Y-87723708D01*
X162869589Y-87723539D01*
X162966651Y-87715940D01*
X163025710Y-87720947D01*
X163065214Y-87743695D01*
X163103613Y-87789319D01*
X163106842Y-87793720D01*
X163148497Y-87869087D01*
X163165608Y-87935786D01*
X163150117Y-88011606D01*
X163087215Y-88128676D01*
X162979982Y-88264616D01*
X162832764Y-88416107D01*
X162649907Y-88579831D01*
X162435758Y-88752470D01*
X162194664Y-88930706D01*
X161930971Y-89111220D01*
X161649026Y-89290695D01*
X161353175Y-89465811D01*
X161047765Y-89633251D01*
X160737143Y-89789697D01*
X160722389Y-89796792D01*
X160598834Y-89856512D01*
X160496397Y-89906554D01*
X160425375Y-89941856D01*
X160396068Y-89957354D01*
X160394864Y-89959396D01*
X160411382Y-89991166D01*
X160461050Y-90050448D01*
X160534727Y-90127943D01*
X160623269Y-90214353D01*
X160717535Y-90300379D01*
X160808382Y-90376722D01*
X161070973Y-90555710D01*
X161373271Y-90701691D01*
X161689563Y-90798984D01*
X162011322Y-90845709D01*
X162330024Y-90839987D01*
X162637143Y-90779936D01*
X162726787Y-90752004D01*
X162853815Y-90706123D01*
X162983037Y-90650713D01*
X163119924Y-90582504D01*
X163269947Y-90498227D01*
X163438577Y-90394613D01*
X163631283Y-90268394D01*
X163853538Y-90116299D01*
X164110810Y-89935061D01*
X164408572Y-89721410D01*
X164486903Y-89665181D01*
X164770351Y-89468563D01*
X165017148Y-89309918D01*
X165231614Y-89187124D01*
X165418073Y-89098057D01*
X165580844Y-89040593D01*
X165724250Y-89012611D01*
X165852613Y-89011987D01*
X165953459Y-89028387D01*
X166030404Y-89064669D01*
X166069262Y-89128064D01*
X166080000Y-89228041D01*
X166069142Y-89324631D01*
X166014288Y-89487105D01*
X165917592Y-89661251D01*
X165784047Y-89836803D01*
X165729141Y-89900283D01*
X165681216Y-89959124D01*
X165666406Y-89987495D01*
X165681394Y-89993437D01*
X165722858Y-89984989D01*
X165737047Y-89981953D01*
X165817802Y-89969669D01*
X165930318Y-89956945D01*
X166054823Y-89946097D01*
X166133168Y-89940719D01*
X166227307Y-89937590D01*
X166287322Y-89943664D01*
X166327459Y-89961067D01*
X166361966Y-89991923D01*
X166374347Y-90006211D01*
X166417703Y-90106426D01*
X166416933Y-90168910D01*
X166416112Y-90235514D01*
X166371545Y-90389324D01*
X166285975Y-90563707D01*
X166161371Y-90754514D01*
X165999705Y-90957594D01*
X165802947Y-91168798D01*
X165748076Y-91222905D01*
X165572641Y-91383651D01*
X165388269Y-91532037D01*
X165180184Y-91679424D01*
X164933605Y-91837175D01*
X164658638Y-92006491D01*
X164757600Y-92268417D01*
X164881934Y-92640074D01*
X165009225Y-93171203D01*
X165086196Y-93723091D01*
X165100416Y-94038627D01*
X165111711Y-94289243D01*
X165094733Y-94715062D01*
X165023836Y-95260883D01*
X164899173Y-95792730D01*
X164722286Y-96306286D01*
X164494720Y-96797233D01*
X164218020Y-97261255D01*
X163893730Y-97694035D01*
X163670231Y-97961356D01*
X163767973Y-98153970D01*
X163822349Y-98258852D01*
X163978296Y-98540239D01*
X164149761Y-98826079D01*
X164328958Y-99104527D01*
X164508099Y-99363738D01*
X164679396Y-99591866D01*
X164835062Y-99777067D01*
X164908237Y-99855435D01*
X165109264Y-100046547D01*
X165313929Y-100201587D01*
X165530883Y-100324214D01*
X165768778Y-100418088D01*
X166036262Y-100486869D01*
X166341988Y-100534218D01*
X166694604Y-100563793D01*
X166845543Y-100573380D01*
X167033364Y-100589922D01*
X167172454Y-100610891D01*
X167267907Y-100638801D01*
X167324818Y-100676166D01*
X167348281Y-100725502D01*
X167345505Y-100761723D01*
X167343389Y-100789322D01*
X167315238Y-100870141D01*
X167278468Y-100941451D01*
X167169052Y-101083338D01*
X167021006Y-101217713D01*
X166846319Y-101334493D01*
X166656983Y-101423598D01*
X166596411Y-101447801D01*
X166533121Y-101478041D01*
X166508572Y-101497212D01*
X166511830Y-101502577D01*
X166551425Y-101524965D01*
X166621570Y-101551012D01*
X166643808Y-101558768D01*
X166737054Y-101605113D01*
X166822302Y-101665774D01*
X166884495Y-101728650D01*
X166908572Y-101781641D01*
X166890096Y-101828817D01*
X166844286Y-101886669D01*
X166785762Y-101937149D01*
X166623021Y-102032125D01*
X166419068Y-102106150D01*
X166182508Y-102158792D01*
X165921950Y-102189618D01*
X165646002Y-102198196D01*
X165363271Y-102184093D01*
X165082365Y-102146878D01*
X164811892Y-102086118D01*
X164560459Y-102001381D01*
X164546476Y-101995658D01*
X164232478Y-101836001D01*
X163938055Y-101624198D01*
X163662623Y-101359442D01*
X163405601Y-101040927D01*
X163282813Y-100849409D01*
X164137143Y-100849409D01*
X164151429Y-100864421D01*
X164165715Y-100849409D01*
X164151429Y-100834397D01*
X164137143Y-100849409D01*
X163282813Y-100849409D01*
X163166406Y-100667844D01*
X162944457Y-100239387D01*
X162739171Y-99754748D01*
X162549967Y-99213120D01*
X162548615Y-99208870D01*
X162505874Y-99075393D01*
X162469868Y-98964630D01*
X162444346Y-98888008D01*
X162433060Y-98856955D01*
X162425447Y-98857213D01*
X162376824Y-98873362D01*
X162293868Y-98906607D01*
X162188682Y-98952230D01*
X162169796Y-98960599D01*
X162025429Y-99020788D01*
X161872989Y-99079194D01*
X161742505Y-99124240D01*
X161648241Y-99155681D01*
X161581134Y-99184851D01*
X161552840Y-99210812D01*
X161554239Y-99239131D01*
X161568239Y-99276446D01*
X161598158Y-99361187D01*
X161638185Y-99477306D01*
X161683583Y-99611176D01*
X161744462Y-99808774D01*
X161832023Y-100158151D01*
X161911299Y-100556480D01*
X161981410Y-100997298D01*
X162041474Y-101474139D01*
X162090613Y-101980537D01*
X162127946Y-102510028D01*
X162152593Y-103056146D01*
X162154368Y-103108914D01*
X162166362Y-103392771D01*
X162181128Y-103623476D01*
X162199372Y-103806909D01*
X162221804Y-103948951D01*
X162249130Y-104055485D01*
X162282057Y-104132391D01*
X162294227Y-104152876D01*
X162349253Y-104235692D01*
X162424311Y-104340385D01*
X162506834Y-104449239D01*
X162599797Y-104571924D01*
X162676928Y-104685689D01*
X162738555Y-104796608D01*
X162786401Y-104912538D01*
X162822191Y-105041338D01*
X162847647Y-105190866D01*
X162864493Y-105368981D01*
X162874453Y-105583540D01*
X162879250Y-105842403D01*
X162880608Y-106153428D01*
X162879113Y-106373759D01*
X162877824Y-106563607D01*
X162872782Y-106751632D01*
X162864815Y-107048765D01*
X162840890Y-107477969D01*
X162805723Y-107852975D01*
X162758986Y-108175541D01*
X162700355Y-108447423D01*
X162629502Y-108670379D01*
X162546103Y-108846165D01*
X162449829Y-108976539D01*
X162340356Y-109063257D01*
X162327825Y-109069628D01*
X162222220Y-109097191D01*
X162062157Y-109107917D01*
X161847972Y-109101798D01*
X161580000Y-109078827D01*
X161484008Y-109058058D01*
X161382156Y-108997144D01*
X161324606Y-108904056D01*
X161316604Y-108823937D01*
X161434633Y-108823937D01*
X161447320Y-108868235D01*
X161457922Y-108890297D01*
X161495557Y-108935144D01*
X161525153Y-108926313D01*
X161537143Y-108864230D01*
X161541824Y-108816353D01*
X161572119Y-108721734D01*
X161622276Y-108631936D01*
X161682575Y-108559909D01*
X161743299Y-108518606D01*
X161794728Y-108520976D01*
X161798630Y-108523598D01*
X161822124Y-108555110D01*
X161801253Y-108602159D01*
X161768957Y-108652509D01*
X161706259Y-108778941D01*
X161691255Y-108873483D01*
X161723940Y-108935733D01*
X161804311Y-108965292D01*
X161844203Y-108967493D01*
X161873687Y-108947651D01*
X161880000Y-108885031D01*
X161881810Y-108862878D01*
X161908663Y-108781271D01*
X161957466Y-108699209D01*
X162015053Y-108635892D01*
X162068255Y-108610520D01*
X162081025Y-108612649D01*
X162105512Y-108646714D01*
X162100650Y-108707890D01*
X162066623Y-108777417D01*
X162033386Y-108840124D01*
X162030892Y-108915565D01*
X162078122Y-108969747D01*
X162119426Y-108988459D01*
X162188325Y-108992399D01*
X162263166Y-108955377D01*
X162356852Y-108872909D01*
X162418475Y-108795768D01*
X162499932Y-108637557D01*
X162571411Y-108428086D01*
X162631336Y-108172249D01*
X162678131Y-107874941D01*
X162682307Y-107840119D01*
X162696133Y-107704963D01*
X162709733Y-107545501D01*
X162722511Y-107372247D01*
X162733872Y-107195718D01*
X162743219Y-107026428D01*
X162749958Y-106874895D01*
X162753491Y-106751632D01*
X162753224Y-106667155D01*
X162748560Y-106631981D01*
X162746832Y-106631661D01*
X162715969Y-106654155D01*
X162653313Y-106713013D01*
X162565072Y-106802005D01*
X162457452Y-106914900D01*
X162336659Y-107045469D01*
X161942902Y-107476990D01*
X161869492Y-107420764D01*
X161867208Y-107419004D01*
X161816623Y-107373633D01*
X161795184Y-107342021D01*
X161794227Y-107336894D01*
X161765715Y-107319503D01*
X161758631Y-107327047D01*
X161747109Y-107382810D01*
X161739486Y-107485715D01*
X161736569Y-107627246D01*
X161734351Y-107787751D01*
X161721709Y-108011352D01*
X161696634Y-108190106D01*
X161657687Y-108332895D01*
X161603426Y-108448605D01*
X161582419Y-108484127D01*
X161508009Y-108614125D01*
X161461136Y-108707209D01*
X161437958Y-108773704D01*
X161434633Y-108823937D01*
X161316604Y-108823937D01*
X161312584Y-108783684D01*
X161347317Y-108640921D01*
X161430030Y-108480658D01*
X161476679Y-108407051D01*
X161523922Y-108330796D01*
X161550277Y-108286053D01*
X161568770Y-108220500D01*
X161584021Y-108106682D01*
X161595511Y-107956450D01*
X161602751Y-107781595D01*
X161605253Y-107593906D01*
X161602531Y-107405174D01*
X161594095Y-107227189D01*
X161586943Y-107130001D01*
X161545236Y-106743077D01*
X161484653Y-106405017D01*
X161403364Y-106108848D01*
X161299544Y-105847598D01*
X161171363Y-105614293D01*
X161124119Y-105545299D01*
X161035719Y-105427067D01*
X160925002Y-105286701D01*
X160801525Y-105136257D01*
X160674842Y-104987795D01*
X160468212Y-104745321D01*
X160182379Y-104385891D01*
X159927131Y-104030760D01*
X159691197Y-103663942D01*
X159463308Y-103269454D01*
X159324605Y-103017394D01*
X159284779Y-103119335D01*
X159274692Y-103146348D01*
X159228263Y-103296881D01*
X159181860Y-103483967D01*
X159139495Y-103688627D01*
X159105177Y-103891877D01*
X159082917Y-104074737D01*
X159075868Y-104169945D01*
X159075304Y-104496808D01*
X159112254Y-104796859D01*
X159185658Y-105059934D01*
X159212662Y-105134944D01*
X159238507Y-105226195D01*
X159253481Y-105320280D01*
X159260300Y-105436247D01*
X159261680Y-105593144D01*
X159261486Y-105619741D01*
X159234917Y-105988310D01*
X159165015Y-106386551D01*
X159053692Y-106808135D01*
X158902858Y-107246731D01*
X158714421Y-107696011D01*
X158603659Y-107920191D01*
X158490292Y-108149643D01*
X158390246Y-108334824D01*
X158268485Y-108548571D01*
X158162992Y-108716044D01*
X158069541Y-108842154D01*
X157983906Y-108931811D01*
X157901861Y-108989927D01*
X157819179Y-109021412D01*
X157731635Y-109031176D01*
X157630308Y-109031660D01*
X157462404Y-109031455D01*
X157338942Y-109029131D01*
X157251411Y-109024062D01*
X157191301Y-109015623D01*
X157150102Y-109003187D01*
X157119303Y-108986129D01*
X157046019Y-108954507D01*
X156957415Y-108940780D01*
X156890139Y-108930837D01*
X156801385Y-108873227D01*
X156765868Y-108826866D01*
X156721923Y-108713397D01*
X156725687Y-108675077D01*
X156852613Y-108675077D01*
X156871713Y-108757779D01*
X156888456Y-108782170D01*
X156936956Y-108814018D01*
X156981528Y-108787696D01*
X157018341Y-108704591D01*
X157018740Y-108703206D01*
X157070837Y-108592541D01*
X157151635Y-108495474D01*
X157245835Y-108426560D01*
X157338138Y-108400354D01*
X157357712Y-108400851D01*
X157408947Y-108416030D01*
X157422858Y-108459830D01*
X157411119Y-108500331D01*
X157354138Y-108537429D01*
X157330935Y-108545288D01*
X157246556Y-108602614D01*
X157183412Y-108686997D01*
X157158572Y-108777488D01*
X157169194Y-108841350D01*
X157218814Y-108893829D01*
X157308234Y-108903522D01*
X157347766Y-108893476D01*
X157378935Y-108856746D01*
X157397493Y-108777340D01*
X157438269Y-108665683D01*
X157521520Y-108567817D01*
X157629714Y-108509866D01*
X157632588Y-108509105D01*
X157685167Y-108511932D01*
X157701665Y-108547802D01*
X157682285Y-108603889D01*
X157627230Y-108667370D01*
X157561201Y-108738883D01*
X157539128Y-108810157D01*
X157571429Y-108874728D01*
X157595258Y-108892157D01*
X157675018Y-108909236D01*
X157773224Y-108895786D01*
X157869341Y-108853285D01*
X157873156Y-108850714D01*
X157930934Y-108794743D01*
X158007353Y-108699446D01*
X158094136Y-108577016D01*
X158183006Y-108439648D01*
X158265686Y-108299534D01*
X158333901Y-108168867D01*
X158360606Y-108101424D01*
X158390905Y-107920191D01*
X158374831Y-107716385D01*
X158313405Y-107497267D01*
X158207645Y-107270097D01*
X158167834Y-107201012D01*
X158135643Y-107161265D01*
X158105831Y-107157938D01*
X158064458Y-107182501D01*
X158046889Y-107194049D01*
X157966203Y-107225622D01*
X157895469Y-107205849D01*
X157820862Y-107131856D01*
X157743275Y-107034279D01*
X157710679Y-107169385D01*
X157687497Y-107259056D01*
X157603344Y-107523414D01*
X157498923Y-107785259D01*
X157382365Y-108025463D01*
X157261806Y-108224904D01*
X157221527Y-108276724D01*
X157123561Y-108378471D01*
X157022148Y-108460880D01*
X156974530Y-108495804D01*
X156887613Y-108586316D01*
X156852613Y-108675077D01*
X156725687Y-108675077D01*
X156733314Y-108597426D01*
X156799130Y-108482836D01*
X156918463Y-108373508D01*
X156955090Y-108346077D01*
X157071686Y-108241329D01*
X157173671Y-108115955D01*
X157270239Y-107957334D01*
X157370580Y-107752851D01*
X157469474Y-107518759D01*
X157543939Y-107296720D01*
X157594737Y-107075130D01*
X157626385Y-106834140D01*
X157643397Y-106553901D01*
X157648789Y-106325808D01*
X157644942Y-106093141D01*
X157627990Y-105880302D01*
X157595452Y-105675259D01*
X157544852Y-105465981D01*
X157473710Y-105240439D01*
X157379547Y-104986600D01*
X157259885Y-104692435D01*
X157237142Y-104637986D01*
X157111059Y-104330726D01*
X157007810Y-104067146D01*
X156924812Y-103838745D01*
X156859478Y-103637023D01*
X156809224Y-103453479D01*
X156771466Y-103279611D01*
X156743618Y-103106918D01*
X156723097Y-102926899D01*
X156719178Y-102889551D01*
X156701352Y-102785023D01*
X156679796Y-102739912D01*
X156655665Y-102753916D01*
X156630111Y-102826731D01*
X156604291Y-102958056D01*
X156579744Y-103092755D01*
X156531301Y-103312069D01*
X156472115Y-103545265D01*
X156408471Y-103767995D01*
X156346656Y-103955912D01*
X156344806Y-103961049D01*
X156319119Y-104034466D01*
X156276849Y-104157390D01*
X156220157Y-104323457D01*
X156151202Y-104526301D01*
X156072147Y-104759556D01*
X155985152Y-105016856D01*
X155892378Y-105291837D01*
X155795986Y-105578132D01*
X155780599Y-105623898D01*
X155644647Y-106030100D01*
X155526075Y-106388467D01*
X155422570Y-106706636D01*
X155331815Y-106992242D01*
X155251496Y-107252922D01*
X155240652Y-107289480D01*
X155179298Y-107496313D01*
X155112905Y-107730049D01*
X155050002Y-107961767D01*
X154988275Y-108199104D01*
X154925408Y-108449696D01*
X154893122Y-108575567D01*
X154843274Y-108755115D01*
X154793738Y-108918451D01*
X154748841Y-109051514D01*
X154712911Y-109140240D01*
X154672034Y-109216163D01*
X154537487Y-109401218D01*
X154372861Y-109559495D01*
X154194286Y-109674382D01*
X154175908Y-109683104D01*
X154081199Y-109719643D01*
X153980488Y-109741246D01*
X153861237Y-109748870D01*
X153710908Y-109743470D01*
X153516961Y-109726002D01*
X153406679Y-109710390D01*
X153309142Y-109682354D01*
X153245533Y-109641238D01*
X153183247Y-109593369D01*
X153108572Y-109556164D01*
X153096659Y-109552338D01*
X153002588Y-109502246D01*
X152952191Y-109423435D01*
X152937332Y-109303916D01*
X152941518Y-109246835D01*
X153060459Y-109246835D01*
X153062633Y-109343885D01*
X153078862Y-109385108D01*
X153115502Y-109418046D01*
X153150259Y-109409346D01*
X153165715Y-109356822D01*
X153182756Y-109310405D01*
X153230687Y-109237923D01*
X153296828Y-109156112D01*
X153368409Y-109079584D01*
X153432662Y-109022952D01*
X153476816Y-109000827D01*
X153518699Y-109015663D01*
X153526778Y-109062752D01*
X153495506Y-109134196D01*
X153426727Y-109221861D01*
X153425175Y-109223529D01*
X153345442Y-109330605D01*
X153307559Y-109430072D01*
X153313150Y-109512940D01*
X153363836Y-109570220D01*
X153391247Y-109583532D01*
X153450340Y-109599483D01*
X153490352Y-109595223D01*
X153493941Y-109570689D01*
X153490830Y-109564362D01*
X153489958Y-109498570D01*
X153522192Y-109409533D01*
X153580107Y-109313063D01*
X153656278Y-109224973D01*
X153706856Y-109178208D01*
X153755473Y-109142181D01*
X153787652Y-109138884D01*
X153817786Y-109162772D01*
X153834424Y-109182506D01*
X153842190Y-109213659D01*
X153819686Y-109255456D01*
X153761476Y-109323409D01*
X153703645Y-109391352D01*
X153651542Y-109472809D01*
X153641033Y-109534526D01*
X153668970Y-109585419D01*
X153717648Y-109611843D01*
X153808782Y-109627192D01*
X153917302Y-109624669D01*
X154022858Y-109603248D01*
X154116642Y-109566959D01*
X154309684Y-109447477D01*
X154474336Y-109279749D01*
X154604407Y-109069458D01*
X154626910Y-109014033D01*
X154664975Y-108900863D01*
X154709837Y-108752285D01*
X154757647Y-108581160D01*
X154804557Y-108400354D01*
X154834801Y-108279971D01*
X154886206Y-108079155D01*
X154937112Y-107884327D01*
X154982958Y-107712882D01*
X155019181Y-107582210D01*
X155043931Y-107493421D01*
X155071228Y-107388126D01*
X155087272Y-107316143D01*
X155089190Y-107289480D01*
X155078731Y-107291972D01*
X155023596Y-107316206D01*
X154935728Y-107360880D01*
X154827051Y-107419378D01*
X154709488Y-107485085D01*
X154594961Y-107551385D01*
X154495394Y-107611661D01*
X154422708Y-107659298D01*
X154342797Y-107712610D01*
X154271060Y-107754007D01*
X154229793Y-107769858D01*
X154207194Y-107758199D01*
X154158095Y-107708526D01*
X154101368Y-107633089D01*
X154061376Y-107576823D01*
X154021037Y-107529234D01*
X154002665Y-107520500D01*
X154002127Y-107522398D01*
X153990106Y-107566064D01*
X153966038Y-107654111D01*
X153933122Y-107774815D01*
X153894562Y-107916451D01*
X153858175Y-108046094D01*
X153787120Y-108268405D01*
X153714442Y-108445390D01*
X153712444Y-108450255D01*
X153626483Y-108604339D01*
X153521574Y-108743354D01*
X153390053Y-108879998D01*
X153224256Y-109026966D01*
X153198913Y-109048949D01*
X153104549Y-109151145D01*
X153060459Y-109246835D01*
X152941518Y-109246835D01*
X152943612Y-109218287D01*
X152977409Y-109110938D01*
X153047450Y-109007132D01*
X153161557Y-108892519D01*
X153185828Y-108869873D01*
X153290376Y-108745422D01*
X153367040Y-108597655D01*
X153410602Y-108445390D01*
X153537143Y-108445390D01*
X153551429Y-108460402D01*
X153565715Y-108445390D01*
X153551429Y-108430378D01*
X153537143Y-108445390D01*
X153410602Y-108445390D01*
X153418405Y-108418115D01*
X153447052Y-108198344D01*
X153455566Y-107929887D01*
X153446696Y-107666803D01*
X153403361Y-107239707D01*
X153385667Y-107134344D01*
X153520240Y-107134344D01*
X153529556Y-107174764D01*
X153547710Y-107294256D01*
X153563739Y-107449712D01*
X153576566Y-107624954D01*
X153585114Y-107803805D01*
X153588304Y-107970088D01*
X153585059Y-108107624D01*
X153580806Y-108188514D01*
X153576712Y-108297652D01*
X153576072Y-108372541D01*
X153579143Y-108400354D01*
X153581136Y-108399988D01*
X153604838Y-108366124D01*
X153637564Y-108283788D01*
X153677040Y-108162275D01*
X153720993Y-108010878D01*
X153767150Y-107838893D01*
X153813238Y-107655613D01*
X153856982Y-107470334D01*
X153896109Y-107292348D01*
X153928347Y-107130951D01*
X153951422Y-106995438D01*
X153963060Y-106895102D01*
X153960988Y-106839237D01*
X153958051Y-106836082D01*
X153924084Y-106847948D01*
X153861927Y-106891548D01*
X153782322Y-106959644D01*
X153699486Y-107031268D01*
X153614862Y-107087969D01*
X153560329Y-107099159D01*
X153521955Y-107098077D01*
X153520240Y-107134344D01*
X153385667Y-107134344D01*
X153324202Y-106768338D01*
X153209482Y-106253971D01*
X153059462Y-105697879D01*
X152874405Y-105101337D01*
X152858301Y-105052898D01*
X152813877Y-104922452D01*
X152757452Y-104759736D01*
X152691679Y-104572133D01*
X152619205Y-104367025D01*
X152542682Y-104151797D01*
X152464760Y-103933831D01*
X152388089Y-103720509D01*
X152315320Y-103519216D01*
X152249101Y-103337334D01*
X152192084Y-103182247D01*
X152146919Y-103061336D01*
X152116255Y-102981986D01*
X152102743Y-102951580D01*
X152078981Y-102937839D01*
X152013836Y-102902015D01*
X151917881Y-102849957D01*
X151801564Y-102787361D01*
X151540722Y-102633940D01*
X151177063Y-102370423D01*
X150845930Y-102069191D01*
X150553125Y-101736356D01*
X150304448Y-101378030D01*
X150105702Y-101000328D01*
X150074103Y-100928371D01*
X149999087Y-100742268D01*
X149944184Y-100572606D01*
X149906481Y-100404144D01*
X149883066Y-100221640D01*
X149871027Y-100009854D01*
X149867451Y-99753546D01*
X149867453Y-99663661D01*
X149868158Y-99568859D01*
X149961763Y-99568859D01*
X149966040Y-99980356D01*
X150026110Y-100383835D01*
X150141730Y-100777064D01*
X150312656Y-101157811D01*
X150538646Y-101523845D01*
X150672734Y-101696475D01*
X150855247Y-101900543D01*
X151057582Y-102102235D01*
X151263591Y-102285541D01*
X151457124Y-102434450D01*
X151532049Y-102485122D01*
X151649584Y-102560398D01*
X151767903Y-102632164D01*
X151877126Y-102694808D01*
X151967375Y-102742722D01*
X152028769Y-102770295D01*
X152051429Y-102771917D01*
X152047161Y-102747027D01*
X152032469Y-102673880D01*
X152009773Y-102565270D01*
X151981659Y-102433719D01*
X151961762Y-102340936D01*
X151927913Y-102180872D01*
X151897227Y-102033281D01*
X151874516Y-101921188D01*
X151837143Y-101731975D01*
X151639835Y-101659748D01*
X151532254Y-101613952D01*
X151418019Y-101553155D01*
X151332692Y-101494768D01*
X151292644Y-101462584D01*
X151242632Y-101428898D01*
X151223260Y-101425949D01*
X151232169Y-101457213D01*
X151266689Y-101533458D01*
X151320911Y-101638432D01*
X151388093Y-101760016D01*
X151461495Y-101886090D01*
X151534373Y-102004533D01*
X151599988Y-102103225D01*
X151647015Y-102173888D01*
X151701382Y-102273017D01*
X151725137Y-102344553D01*
X151716562Y-102382083D01*
X151673939Y-102379195D01*
X151621903Y-102337366D01*
X151550221Y-102248425D01*
X151465546Y-102122066D01*
X151372832Y-101967309D01*
X151277031Y-101793172D01*
X151183098Y-101608674D01*
X151095987Y-101422832D01*
X151020652Y-101244665D01*
X150962046Y-101083192D01*
X150861602Y-100695198D01*
X150804911Y-100274393D01*
X150800940Y-99993735D01*
X150924495Y-99993735D01*
X150924967Y-100134825D01*
X150933211Y-100394065D01*
X150953806Y-100608048D01*
X150989803Y-100786430D01*
X151044251Y-100938866D01*
X151120200Y-101075011D01*
X151220699Y-101204520D01*
X151348799Y-101337049D01*
X151425998Y-101404494D01*
X151540464Y-101485632D01*
X151641219Y-101536767D01*
X151688012Y-101553023D01*
X151760660Y-101575975D01*
X151799575Y-101584988D01*
X151801263Y-101584398D01*
X151808946Y-101549841D01*
X151809114Y-101472566D01*
X151801629Y-101367317D01*
X151794949Y-101269696D01*
X151789115Y-101124436D01*
X151784603Y-100946670D01*
X151781764Y-100750285D01*
X151781192Y-100609220D01*
X151894508Y-100609220D01*
X151894872Y-100803907D01*
X151896994Y-101011791D01*
X151901651Y-101181599D01*
X151909571Y-101325715D01*
X151921480Y-101456522D01*
X151938105Y-101586403D01*
X151960174Y-101727741D01*
X151981843Y-101855459D01*
X152029549Y-102112373D01*
X152081160Y-102353026D01*
X152139944Y-102589251D01*
X152191846Y-102771917D01*
X152209167Y-102832879D01*
X152292097Y-103095743D01*
X152392002Y-103389673D01*
X152512148Y-103726501D01*
X152627461Y-104047738D01*
X152813349Y-104581529D01*
X152978096Y-105076376D01*
X153120530Y-105528623D01*
X153239480Y-105934616D01*
X153333775Y-106290700D01*
X153396250Y-106525379D01*
X153456362Y-106711373D01*
X153511699Y-106838518D01*
X153562474Y-106907301D01*
X153608900Y-106918207D01*
X153619847Y-106912119D01*
X153672227Y-106874614D01*
X153751213Y-106812641D01*
X153844368Y-106735833D01*
X154043127Y-106568262D01*
X154118419Y-105990632D01*
X154136257Y-105850484D01*
X154165054Y-105612690D01*
X154193074Y-105368981D01*
X154217835Y-105141136D01*
X154236856Y-104950935D01*
X154238754Y-104930589D01*
X154255383Y-104747485D01*
X154267973Y-104589408D01*
X154276043Y-104447921D01*
X154279115Y-104314589D01*
X154276709Y-104180978D01*
X154268347Y-104038651D01*
X154253548Y-103879175D01*
X154231835Y-103694113D01*
X154202727Y-103475032D01*
X154165745Y-103213494D01*
X154120411Y-102901066D01*
X154112718Y-102859075D01*
X154105322Y-102841134D01*
X154232197Y-102841134D01*
X154238113Y-102904907D01*
X154250245Y-103006319D01*
X154267128Y-103132431D01*
X154282501Y-103242418D01*
X154300382Y-103368473D01*
X154312790Y-103448360D01*
X154321599Y-103490093D01*
X154328677Y-103501687D01*
X154335897Y-103491157D01*
X154345130Y-103466516D01*
X154349564Y-103448106D01*
X154357844Y-103372520D01*
X154363574Y-103261613D01*
X154365715Y-103132252D01*
X154364936Y-103006383D01*
X154360809Y-102921000D01*
X154350766Y-102872130D01*
X154332244Y-102847706D01*
X154302677Y-102835662D01*
X154262011Y-102826552D01*
X154232463Y-102825880D01*
X154232197Y-102841134D01*
X154105322Y-102841134D01*
X154096933Y-102820786D01*
X154065146Y-102785596D01*
X154008483Y-102746224D01*
X153918073Y-102695386D01*
X153785041Y-102625799D01*
X153613006Y-102529936D01*
X153358436Y-102357814D01*
X153146719Y-102173405D01*
X152984999Y-101982451D01*
X152949107Y-101926404D01*
X152904749Y-101838476D01*
X152880761Y-101765080D01*
X152880567Y-101718267D01*
X152907592Y-101710087D01*
X152910678Y-101711744D01*
X152945857Y-101745681D01*
X153003421Y-101812403D01*
X153072570Y-101899509D01*
X153224592Y-102075121D01*
X153476217Y-102296842D01*
X153763579Y-102482278D01*
X153842494Y-102522981D01*
X153966420Y-102580877D01*
X154095259Y-102635797D01*
X154214873Y-102682059D01*
X154311121Y-102713983D01*
X154369865Y-102725886D01*
X154372432Y-102722145D01*
X154379636Y-102674298D01*
X154386505Y-102578229D01*
X154392614Y-102442657D01*
X154397541Y-102276302D01*
X154400861Y-102087884D01*
X154402976Y-101932190D01*
X154406492Y-101755327D01*
X154411084Y-101626492D01*
X154417312Y-101538608D01*
X154425739Y-101484597D01*
X154436924Y-101457381D01*
X154451429Y-101449882D01*
X154463230Y-101455387D01*
X154473223Y-101477440D01*
X154480700Y-101522278D01*
X154485943Y-101596108D01*
X154489232Y-101705142D01*
X154490849Y-101855588D01*
X154491076Y-102053656D01*
X154490193Y-102305555D01*
X154489897Y-102355365D01*
X154472744Y-103103017D01*
X154471245Y-103132252D01*
X154432544Y-103887123D01*
X154370760Y-104691092D01*
X154288860Y-105498332D01*
X154188307Y-106292252D01*
X154095404Y-106895102D01*
X154070569Y-107056260D01*
X154031277Y-107288407D01*
X154127826Y-107439062D01*
X154139776Y-107457550D01*
X154201514Y-107542658D01*
X154251178Y-107580805D01*
X154301432Y-107577231D01*
X154364935Y-107537175D01*
X154376154Y-107529290D01*
X154440462Y-107489838D01*
X154540925Y-107432410D01*
X154666130Y-107363440D01*
X154804664Y-107289359D01*
X154882156Y-107248458D01*
X155004700Y-107182401D01*
X155089014Y-107132717D01*
X155143751Y-107092475D01*
X155177564Y-107054744D01*
X155199107Y-107012596D01*
X155217031Y-106959099D01*
X155217714Y-106956905D01*
X155236798Y-106898105D01*
X155272816Y-106789284D01*
X155323722Y-106636551D01*
X155387470Y-106446014D01*
X155462013Y-106223784D01*
X155545304Y-105975967D01*
X155635298Y-105708675D01*
X155729947Y-105428014D01*
X155862194Y-105036026D01*
X155988112Y-104661614D01*
X156097308Y-104334276D01*
X156191013Y-104049063D01*
X156270458Y-103801023D01*
X156336876Y-103585207D01*
X156391498Y-103396666D01*
X156435557Y-103230449D01*
X156470283Y-103081607D01*
X156496909Y-102945189D01*
X156516666Y-102816246D01*
X156530787Y-102689827D01*
X156533835Y-102649410D01*
X156815721Y-102649410D01*
X156834425Y-102885083D01*
X156841263Y-102962335D01*
X156864818Y-103150379D01*
X156899668Y-103337492D01*
X156948473Y-103532625D01*
X157013899Y-103744727D01*
X157098607Y-103982747D01*
X157205262Y-104255635D01*
X157336527Y-104572340D01*
X157417991Y-104766749D01*
X157514104Y-105005008D01*
X157589469Y-105208539D01*
X157646766Y-105388563D01*
X157688673Y-105556298D01*
X157717870Y-105722963D01*
X157737037Y-105899776D01*
X157748852Y-106097957D01*
X157755996Y-106328723D01*
X157756856Y-106366496D01*
X157761323Y-106546211D01*
X157766197Y-106677596D01*
X157772919Y-106770586D01*
X157782928Y-106835117D01*
X157797663Y-106881124D01*
X157818565Y-106918541D01*
X157847073Y-106957304D01*
X157868579Y-106984436D01*
X157919974Y-107042159D01*
X157953104Y-107069275D01*
X157968202Y-107065758D01*
X158023934Y-107036057D01*
X158107709Y-106982643D01*
X158207991Y-106912608D01*
X158283785Y-106859882D01*
X158429950Y-106765374D01*
X158589734Y-106668553D01*
X158739988Y-106583730D01*
X158794528Y-106554662D01*
X158897998Y-106499076D01*
X158970845Y-106453067D01*
X159020184Y-106405257D01*
X159053131Y-106344267D01*
X159076802Y-106258720D01*
X159098312Y-106137237D01*
X159124776Y-105968440D01*
X159152322Y-105768970D01*
X159163216Y-105598360D01*
X159154774Y-105446550D01*
X159125850Y-105293887D01*
X159075295Y-105120718D01*
X159056706Y-105062524D01*
X159024445Y-104950492D01*
X159002468Y-104847791D01*
X158988230Y-104737074D01*
X158979186Y-104601000D01*
X158972790Y-104422222D01*
X158971867Y-104385643D01*
X158976874Y-104062607D01*
X159008687Y-103757167D01*
X159070446Y-103447976D01*
X159165289Y-103113690D01*
X159247150Y-102855986D01*
X159151364Y-102588403D01*
X159127721Y-102525481D01*
X159079243Y-102412435D01*
X159034436Y-102326472D01*
X159000638Y-102282485D01*
X158909685Y-102239046D01*
X158769148Y-102202034D01*
X158595112Y-102176170D01*
X158399513Y-102163196D01*
X158194286Y-102164851D01*
X158118158Y-102168886D01*
X157962675Y-102182311D01*
X157825207Y-102204708D01*
X157692159Y-102240112D01*
X157549935Y-102292555D01*
X157384939Y-102366072D01*
X157183575Y-102464694D01*
X156815721Y-102649410D01*
X156533835Y-102649410D01*
X156540503Y-102560983D01*
X156547045Y-102424764D01*
X156551647Y-102276221D01*
X156555538Y-102110402D01*
X156557106Y-102040936D01*
X156562241Y-101828936D01*
X156567255Y-101668765D01*
X156572950Y-101554012D01*
X156580127Y-101478263D01*
X156589587Y-101435108D01*
X156602131Y-101418133D01*
X156618560Y-101420928D01*
X156639677Y-101437079D01*
X156643382Y-101440590D01*
X156658372Y-101464847D01*
X156668807Y-101507267D01*
X156675190Y-101576218D01*
X156678023Y-101680069D01*
X156677810Y-101827191D01*
X156675053Y-102025952D01*
X156673103Y-102195751D01*
X156673209Y-102347949D01*
X156675292Y-102468281D01*
X156679186Y-102547360D01*
X156684725Y-102575799D01*
X156691028Y-102573892D01*
X156738936Y-102552170D01*
X156824569Y-102510044D01*
X156938284Y-102452315D01*
X157070439Y-102383785D01*
X157091950Y-102372588D01*
X157245731Y-102295766D01*
X157398988Y-102224050D01*
X157535025Y-102165027D01*
X157637143Y-102126284D01*
X157807343Y-102083533D01*
X158034734Y-102052060D01*
X158278713Y-102039707D01*
X158519004Y-102047403D01*
X158735329Y-102076074D01*
X158780364Y-102084836D01*
X158882705Y-102102787D01*
X158956134Y-102112819D01*
X158987102Y-102112947D01*
X158987876Y-102111122D01*
X158985896Y-102070039D01*
X158974246Y-101988182D01*
X158955042Y-101880859D01*
X158933908Y-101759523D01*
X158909464Y-101590962D01*
X158892153Y-101439370D01*
X158887902Y-101391556D01*
X158881609Y-101297721D01*
X158884472Y-101247320D01*
X158898352Y-101228506D01*
X158925108Y-101229430D01*
X158933822Y-101231912D01*
X158958264Y-101252711D01*
X158977624Y-101300953D01*
X158995180Y-101387437D01*
X159014210Y-101522961D01*
X159035354Y-101673313D01*
X159100701Y-102016287D01*
X159190267Y-102345175D01*
X159308089Y-102670353D01*
X159392061Y-102855986D01*
X159458201Y-103002200D01*
X159644641Y-103351093D01*
X159871442Y-103727411D01*
X160012641Y-103944819D01*
X160263768Y-104301209D01*
X160538583Y-104653429D01*
X160850011Y-105018532D01*
X160882541Y-105055483D01*
X160992738Y-105183652D01*
X161093472Y-105305058D01*
X161174745Y-105407480D01*
X161226554Y-105478695D01*
X161291510Y-105585467D01*
X161427423Y-105865042D01*
X161539462Y-106177117D01*
X161621854Y-106504070D01*
X161668824Y-106828280D01*
X161672389Y-106868227D01*
X161685307Y-106970386D01*
X161706441Y-107040345D01*
X161744539Y-107099478D01*
X161808348Y-107169154D01*
X161929227Y-107293818D01*
X162363596Y-106833788D01*
X162797964Y-106373759D01*
X162784404Y-105848345D01*
X162780221Y-105710719D01*
X162767409Y-105460824D01*
X162746836Y-105255588D01*
X162715703Y-105084667D01*
X162671210Y-104937716D01*
X162610558Y-104804390D01*
X162530947Y-104674347D01*
X162429578Y-104537242D01*
X162388537Y-104484847D01*
X162300586Y-104369248D01*
X162231290Y-104267944D01*
X162178062Y-104171645D01*
X162138315Y-104071064D01*
X162109463Y-103956913D01*
X162088918Y-103819905D01*
X162074095Y-103650750D01*
X162062406Y-103440163D01*
X162051265Y-103178854D01*
X162033264Y-102786940D01*
X161994787Y-102169565D01*
X161945808Y-101606798D01*
X161885861Y-101095776D01*
X161814479Y-100633636D01*
X161731194Y-100217513D01*
X161635541Y-99844545D01*
X161527051Y-99511867D01*
X161405259Y-99216617D01*
X161333482Y-99066595D01*
X161266994Y-98944219D01*
X161197610Y-98840379D01*
X161185335Y-98825326D01*
X162550167Y-98825326D01*
X162553462Y-98862457D01*
X162581056Y-98953237D01*
X162630823Y-99104536D01*
X162690552Y-99276353D01*
X162756578Y-99459060D01*
X162825237Y-99643031D01*
X162892862Y-99818639D01*
X162955791Y-99976257D01*
X163010357Y-100106259D01*
X163052896Y-100199017D01*
X163079743Y-100244905D01*
X163108073Y-100260047D01*
X163187269Y-100278587D01*
X163300294Y-100293195D01*
X163433573Y-100302967D01*
X163573530Y-100306998D01*
X163706589Y-100304381D01*
X163819175Y-100294212D01*
X163904963Y-100279752D01*
X164091837Y-100228245D01*
X164243375Y-100150722D01*
X164373542Y-100040800D01*
X164481370Y-99929400D01*
X164734184Y-100179239D01*
X164765065Y-100209257D01*
X164897253Y-100328866D01*
X165036471Y-100443102D01*
X165170677Y-100542890D01*
X165287828Y-100619155D01*
X165375881Y-100662820D01*
X165388048Y-100671699D01*
X165392522Y-100719533D01*
X165364858Y-100795360D01*
X165332847Y-100849409D01*
X165310013Y-100887962D01*
X165232947Y-100986124D01*
X165184412Y-101038002D01*
X164984857Y-101203355D01*
X164757635Y-101320442D01*
X164498759Y-101390930D01*
X164204243Y-101416486D01*
X164116210Y-101418577D01*
X164014869Y-101424331D01*
X163948061Y-101432459D01*
X163927092Y-101441924D01*
X163929487Y-101445038D01*
X163965718Y-101477837D01*
X164033848Y-101532880D01*
X164121526Y-101600120D01*
X164305687Y-101724058D01*
X164588158Y-101865895D01*
X164908572Y-101974429D01*
X164998602Y-101994976D01*
X165175049Y-102022032D01*
X165379170Y-102041893D01*
X165594202Y-102053754D01*
X165803383Y-102056813D01*
X165989951Y-102050266D01*
X166137143Y-102033311D01*
X166199580Y-102020560D01*
X166353415Y-101980015D01*
X166500615Y-101930080D01*
X166624546Y-101876786D01*
X166708572Y-101826163D01*
X166780000Y-101768466D01*
X166651429Y-101710137D01*
X166603993Y-101690216D01*
X166483917Y-101647416D01*
X166365715Y-101613068D01*
X166278343Y-101588052D01*
X166180575Y-101544270D01*
X166138943Y-101498947D01*
X166153581Y-101454401D01*
X166224621Y-101412951D01*
X166352196Y-101376912D01*
X166434496Y-101356598D01*
X166668210Y-101267617D01*
X166888710Y-101140560D01*
X167074985Y-100986768D01*
X167166021Y-100886778D01*
X167213123Y-100812102D01*
X167214898Y-100761723D01*
X167172858Y-100731703D01*
X167152500Y-100727602D01*
X167079143Y-100718665D01*
X166966238Y-100708037D01*
X166824768Y-100696715D01*
X166665715Y-100685695D01*
X166585920Y-100680267D01*
X166417265Y-100666920D01*
X166262331Y-100652321D01*
X166135570Y-100637896D01*
X166051429Y-100625071D01*
X165944506Y-100600698D01*
X165752967Y-100545343D01*
X165559622Y-100477313D01*
X165383927Y-100403691D01*
X165245334Y-100331560D01*
X165073996Y-100206117D01*
X164880660Y-100022089D01*
X164674427Y-99786537D01*
X164457519Y-99502379D01*
X164232159Y-99172536D01*
X164000570Y-98799927D01*
X163764976Y-98387470D01*
X163756228Y-98371541D01*
X163688021Y-98247691D01*
X163631141Y-98144994D01*
X163591312Y-98073747D01*
X163574256Y-98044251D01*
X163567312Y-98044584D01*
X163529531Y-98071158D01*
X163472430Y-98123919D01*
X163425727Y-98167624D01*
X163314761Y-98260679D01*
X163176078Y-98368292D01*
X163023221Y-98480375D01*
X162869733Y-98586839D01*
X162729157Y-98677597D01*
X162714139Y-98686843D01*
X162621630Y-98746858D01*
X162569931Y-98789906D01*
X162550167Y-98825326D01*
X161185335Y-98825326D01*
X161112578Y-98736106D01*
X160999149Y-98612433D01*
X160949257Y-98560151D01*
X160834553Y-98447165D01*
X160733803Y-98362727D01*
X160630608Y-98293991D01*
X160508572Y-98228111D01*
X160470733Y-98209559D01*
X160334821Y-98148475D01*
X160201282Y-98095495D01*
X160094286Y-98060406D01*
X160046913Y-98048655D01*
X159852481Y-98012830D01*
X159619387Y-97984817D01*
X159361694Y-97965744D01*
X159093463Y-97956739D01*
X158828755Y-97958929D01*
X158745303Y-97961672D01*
X158600954Y-97968099D01*
X158486761Y-97977951D01*
X158385861Y-97994372D01*
X158281391Y-98020506D01*
X158156487Y-98059497D01*
X157994286Y-98114489D01*
X157808746Y-98177088D01*
X157480272Y-98280706D01*
X157186034Y-98362059D01*
X156914603Y-98423585D01*
X156654550Y-98467720D01*
X156394444Y-98496903D01*
X156122858Y-98513570D01*
X155982422Y-98517592D01*
X155574754Y-98508320D01*
X155195801Y-98465113D01*
X154830726Y-98386512D01*
X154563063Y-98315163D01*
X154358776Y-98541155D01*
X154275908Y-98629848D01*
X154113365Y-98781682D01*
X153965687Y-98884109D01*
X153826112Y-98940332D01*
X153687875Y-98953556D01*
X153544214Y-98926983D01*
X153502871Y-98913387D01*
X153426950Y-98879761D01*
X153354357Y-98830923D01*
X153271476Y-98756845D01*
X153164692Y-98647503D01*
X153118472Y-98596923D01*
X153000468Y-98455924D01*
X152886019Y-98305208D01*
X152794514Y-98169799D01*
X152751829Y-98101578D01*
X152691510Y-98009203D01*
X152646838Y-97945883D01*
X152625244Y-97922476D01*
X152620800Y-97924461D01*
X152590367Y-97958558D01*
X152547819Y-98021473D01*
X152540662Y-98032767D01*
X152486911Y-98109988D01*
X152412256Y-98209940D01*
X152330564Y-98313953D01*
X152303761Y-98347379D01*
X152241807Y-98429672D01*
X152197872Y-98502932D01*
X152164485Y-98584103D01*
X152144852Y-98652773D01*
X152134173Y-98690127D01*
X152099465Y-98837946D01*
X152039129Y-99110325D01*
X151991058Y-99344015D01*
X151954840Y-99547709D01*
X151928846Y-99735491D01*
X151911445Y-99921448D01*
X151901009Y-100119665D01*
X151895907Y-100344227D01*
X151894508Y-100609220D01*
X151781192Y-100609220D01*
X151780949Y-100549172D01*
X151781132Y-100491107D01*
X151785405Y-100217800D01*
X151796710Y-99977809D01*
X151817033Y-99753004D01*
X151848362Y-99525254D01*
X151892682Y-99276427D01*
X151951981Y-98988392D01*
X151976116Y-98872945D01*
X151997845Y-98761346D01*
X152011023Y-98683902D01*
X152013423Y-98652773D01*
X152006674Y-98652558D01*
X151962615Y-98668967D01*
X151893439Y-98703172D01*
X151872664Y-98713840D01*
X151727448Y-98759194D01*
X151591236Y-98746259D01*
X151458568Y-98674678D01*
X151419359Y-98643838D01*
X151356899Y-98589923D01*
X151324024Y-98554583D01*
X151316758Y-98544286D01*
X151282544Y-98522577D01*
X151276130Y-98525491D01*
X151245980Y-98568204D01*
X151203754Y-98653335D01*
X151153978Y-98769888D01*
X151101175Y-98906865D01*
X151049871Y-99053271D01*
X151004589Y-99198109D01*
X150989016Y-99252644D01*
X150964290Y-99348257D01*
X150946943Y-99437255D01*
X150935631Y-99532971D01*
X150929014Y-99648735D01*
X150925750Y-99797879D01*
X150924495Y-99993735D01*
X150800940Y-99993735D01*
X150798927Y-99851452D01*
X150843249Y-99434587D01*
X150937473Y-99032015D01*
X151081198Y-98651950D01*
X151106198Y-98597118D01*
X151151380Y-98495248D01*
X151182621Y-98420893D01*
X151194286Y-98387240D01*
X151192876Y-98381481D01*
X151169270Y-98337848D01*
X151125783Y-98272878D01*
X151100828Y-98234746D01*
X151046268Y-98141909D01*
X150980672Y-98022764D01*
X150913272Y-97893777D01*
X150769263Y-97610249D01*
X150663933Y-97728647D01*
X150663386Y-97729262D01*
X150540836Y-97886262D01*
X150415629Y-98079716D01*
X150300478Y-98288362D01*
X150208098Y-98490939D01*
X150121562Y-98730741D01*
X150013523Y-99151577D01*
X149961763Y-99568859D01*
X149868158Y-99568859D01*
X149868762Y-99487652D01*
X149872965Y-99351848D01*
X149881381Y-99242312D01*
X149895325Y-99145103D01*
X149916116Y-99046284D01*
X149945068Y-98931914D01*
X149973924Y-98827700D01*
X150097986Y-98463348D01*
X150246853Y-98137002D01*
X150417151Y-97855337D01*
X150605507Y-97625028D01*
X150732124Y-97494447D01*
X150675367Y-97355498D01*
X150668413Y-97338101D01*
X150616497Y-97188099D01*
X150563194Y-97004048D01*
X150511891Y-96801066D01*
X150465978Y-96594269D01*
X150428842Y-96398774D01*
X150403872Y-96229698D01*
X150394455Y-96102158D01*
X150393579Y-96099166D01*
X150361923Y-96067411D01*
X150291551Y-96013924D01*
X150191697Y-95945388D01*
X150071594Y-95868485D01*
X150068104Y-95866320D01*
X149665831Y-95595575D01*
X149307842Y-95308956D01*
X148981648Y-94996470D01*
X148766841Y-94759781D01*
X148447467Y-94352140D01*
X148178789Y-93931669D01*
X147962417Y-93501334D01*
X147799959Y-93064099D01*
X147693028Y-92622931D01*
X147683634Y-92562865D01*
X147665015Y-92368482D01*
X147656964Y-92146634D01*
X147657962Y-92037470D01*
X147758795Y-92037470D01*
X147762944Y-92230319D01*
X147796551Y-92566298D01*
X147866683Y-92894332D01*
X147976742Y-93228587D01*
X148130132Y-93583230D01*
X148255378Y-93825759D01*
X148511952Y-94237419D01*
X148812469Y-94631922D01*
X149148590Y-94999659D01*
X149511975Y-95331018D01*
X149894286Y-95616391D01*
X149904016Y-95622863D01*
X150020880Y-95699406D01*
X150137506Y-95774000D01*
X150230000Y-95831348D01*
X150365715Y-95913051D01*
X150365874Y-95664091D01*
X150366479Y-95628771D01*
X150483762Y-95628771D01*
X150489323Y-95839975D01*
X150506757Y-96071202D01*
X150535349Y-96312955D01*
X150574382Y-96555735D01*
X150623140Y-96790044D01*
X150680907Y-97006383D01*
X150699240Y-97065329D01*
X150792200Y-97331159D01*
X150898047Y-97588613D01*
X151013028Y-97831577D01*
X151133394Y-98053936D01*
X151255394Y-98249576D01*
X151375277Y-98412384D01*
X151489292Y-98536245D01*
X151593688Y-98615046D01*
X151684715Y-98642671D01*
X151744449Y-98635829D01*
X151856420Y-98589997D01*
X151980320Y-98498942D01*
X152118814Y-98360181D01*
X152274568Y-98171231D01*
X152450248Y-97929610D01*
X152482514Y-97884336D01*
X152551167Y-97796003D01*
X152606906Y-97734815D01*
X152639995Y-97711938D01*
X152641097Y-97711971D01*
X152682028Y-97736961D01*
X152726044Y-97794503D01*
X152832723Y-97975856D01*
X153007592Y-98250015D01*
X153167537Y-98468998D01*
X153313653Y-98634251D01*
X153447034Y-98747220D01*
X153510077Y-98786607D01*
X153637367Y-98834960D01*
X153762064Y-98831433D01*
X153900321Y-98777093D01*
X154002873Y-98712694D01*
X154172069Y-98567602D01*
X154345597Y-98376911D01*
X154474571Y-98207369D01*
X154656230Y-98207369D01*
X154683367Y-98221299D01*
X154758669Y-98245506D01*
X154868292Y-98274296D01*
X154999927Y-98304690D01*
X155141266Y-98333709D01*
X155280000Y-98358373D01*
X155298369Y-98361223D01*
X155488366Y-98381787D01*
X155714799Y-98393959D01*
X155959566Y-98397735D01*
X156204567Y-98393111D01*
X156431698Y-98380083D01*
X156622858Y-98358648D01*
X156774172Y-98332609D01*
X157110236Y-98257545D01*
X157483831Y-98152602D01*
X157896964Y-98017099D01*
X158351641Y-97850358D01*
X158435249Y-97817021D01*
X158780000Y-97817021D01*
X158965715Y-97824184D01*
X159118001Y-97831414D01*
X159360487Y-97848024D01*
X159594968Y-97869813D01*
X159809160Y-97895423D01*
X159990778Y-97923495D01*
X160127539Y-97952672D01*
X160253032Y-97991036D01*
X160483547Y-98084329D01*
X160702347Y-98199715D01*
X160886719Y-98326023D01*
X160946068Y-98371528D01*
X161010796Y-98415505D01*
X161046747Y-98432506D01*
X161047714Y-98432397D01*
X161080185Y-98408418D01*
X161142061Y-98348379D01*
X161225592Y-98260757D01*
X161323028Y-98154031D01*
X161426618Y-98036679D01*
X161465054Y-97991646D01*
X161651429Y-97991646D01*
X161662020Y-97999867D01*
X161714336Y-98018648D01*
X161795693Y-98039711D01*
X161894380Y-98055103D01*
X162052998Y-98065999D01*
X162236702Y-98068310D01*
X162428184Y-98062279D01*
X162610137Y-98048147D01*
X162765256Y-98026156D01*
X162790867Y-98021155D01*
X163053879Y-97954764D01*
X163304238Y-97865520D01*
X163530830Y-97758599D01*
X163722542Y-97639176D01*
X163868262Y-97512428D01*
X163908965Y-97465837D01*
X164015547Y-97326819D01*
X164133119Y-97154770D01*
X164252269Y-96964451D01*
X164363585Y-96770624D01*
X164457655Y-96588051D01*
X164628428Y-96193069D01*
X164801627Y-95667889D01*
X164918771Y-95132594D01*
X164979687Y-94588927D01*
X164984202Y-94038627D01*
X164932141Y-93483436D01*
X164823331Y-92925095D01*
X164785869Y-92780753D01*
X164737994Y-92613478D01*
X164688245Y-92454287D01*
X164640044Y-92313138D01*
X164596813Y-92199987D01*
X164561974Y-92124795D01*
X164538948Y-92097518D01*
X164538933Y-92097518D01*
X164503155Y-92109154D01*
X164431188Y-92139610D01*
X164338596Y-92182301D01*
X164160856Y-92267084D01*
X164139386Y-92355938D01*
X164023551Y-92835315D01*
X163813526Y-93623401D01*
X163559394Y-94417019D01*
X163272244Y-95172718D01*
X162953465Y-95887395D01*
X162604447Y-96557947D01*
X162498316Y-96733019D01*
X162226578Y-97181271D01*
X161897017Y-97647155D01*
X161821248Y-97754266D01*
X161778604Y-97810470D01*
X161713216Y-97898959D01*
X161668192Y-97963031D01*
X161651429Y-97991646D01*
X161465054Y-97991646D01*
X161528613Y-97917179D01*
X161621263Y-97804010D01*
X161746238Y-97647155D01*
X161569470Y-97473121D01*
X161397245Y-97323309D01*
X161152188Y-97168201D01*
X160896598Y-97068324D01*
X160864727Y-97059704D01*
X160795743Y-97044011D01*
X160736385Y-97040001D01*
X160670653Y-97049370D01*
X160582547Y-97073814D01*
X160456068Y-97115030D01*
X160385210Y-97140093D01*
X160249844Y-97191747D01*
X160080719Y-97259194D01*
X159888756Y-97337993D01*
X159684876Y-97423704D01*
X159480000Y-97511885D01*
X158780000Y-97817021D01*
X158435249Y-97817021D01*
X158849870Y-97651699D01*
X159393657Y-97420442D01*
X159570388Y-97343832D01*
X159901865Y-97204431D01*
X160192326Y-97089519D01*
X160448482Y-96997304D01*
X160677045Y-96925993D01*
X160884727Y-96873793D01*
X161078238Y-96838912D01*
X161264293Y-96819557D01*
X161449601Y-96813936D01*
X161640875Y-96820256D01*
X161665067Y-96821772D01*
X161834573Y-96838421D01*
X161947865Y-96862388D01*
X162005409Y-96893819D01*
X162007672Y-96932854D01*
X162007237Y-96933427D01*
X161971785Y-96941351D01*
X161891455Y-96945270D01*
X161777738Y-96944956D01*
X161642126Y-96940178D01*
X161506865Y-96935375D01*
X161360984Y-96934187D01*
X161237389Y-96937262D01*
X161153448Y-96944448D01*
X161015759Y-96966145D01*
X161160850Y-97036784D01*
X161331333Y-97130614D01*
X161493288Y-97248218D01*
X161659001Y-97401376D01*
X161801822Y-97545207D01*
X161885507Y-97440925D01*
X161922658Y-97392231D01*
X161990004Y-97297263D01*
X162066511Y-97183968D01*
X162145060Y-97063501D01*
X162218531Y-96947017D01*
X162279806Y-96845671D01*
X162321765Y-96770620D01*
X162337289Y-96733019D01*
X162330408Y-96718908D01*
X162280755Y-96679826D01*
X162191472Y-96629390D01*
X162072434Y-96571978D01*
X161933517Y-96511969D01*
X161784598Y-96453741D01*
X161635553Y-96401673D01*
X161496258Y-96360144D01*
X161247389Y-96301582D01*
X160847165Y-96239783D01*
X160436136Y-96217271D01*
X160003172Y-96233638D01*
X159537143Y-96288477D01*
X159463998Y-96299884D01*
X159247056Y-96337894D01*
X159041879Y-96381555D01*
X158839424Y-96433762D01*
X158630646Y-96497411D01*
X158406502Y-96575400D01*
X158157947Y-96670624D01*
X157875938Y-96785979D01*
X157551429Y-96924362D01*
X157389633Y-96993990D01*
X157119873Y-97107578D01*
X156890066Y-97199676D01*
X156692322Y-97272465D01*
X156518747Y-97328127D01*
X156361447Y-97368845D01*
X156212530Y-97396800D01*
X156064102Y-97414175D01*
X155908271Y-97423151D01*
X155737143Y-97425910D01*
X155718579Y-97425923D01*
X155564336Y-97424159D01*
X155421731Y-97419514D01*
X155305930Y-97412642D01*
X155232099Y-97404194D01*
X155112768Y-97381674D01*
X155020040Y-97554312D01*
X155007927Y-97576652D01*
X154942254Y-97693898D01*
X154863395Y-97830368D01*
X154785833Y-97960921D01*
X154752500Y-98016971D01*
X154699453Y-98110979D01*
X154665292Y-98178382D01*
X154656230Y-98207369D01*
X154474571Y-98207369D01*
X154519164Y-98148750D01*
X154688476Y-97891249D01*
X154849237Y-97612535D01*
X154997155Y-97320738D01*
X155036481Y-97231504D01*
X155191615Y-97231504D01*
X155199248Y-97265083D01*
X155224199Y-97282956D01*
X155265715Y-97294529D01*
X155320524Y-97301806D01*
X155421731Y-97308411D01*
X155551330Y-97312892D01*
X155694286Y-97314547D01*
X155707064Y-97314543D01*
X155849296Y-97313298D01*
X155977811Y-97308612D01*
X156098650Y-97298689D01*
X156217851Y-97281736D01*
X156341453Y-97255956D01*
X156475494Y-97219555D01*
X156626014Y-97170737D01*
X156799051Y-97107708D01*
X157000643Y-97028673D01*
X157236830Y-96931836D01*
X157513651Y-96815403D01*
X157837143Y-96677578D01*
X157909293Y-96647012D01*
X158350645Y-96473808D01*
X158764380Y-96337960D01*
X159163055Y-96236694D01*
X159559226Y-96167237D01*
X159965451Y-96126814D01*
X160394286Y-96112651D01*
X160515740Y-96113127D01*
X160890010Y-96130224D01*
X161229133Y-96173410D01*
X161546873Y-96245595D01*
X161857000Y-96349687D01*
X162173280Y-96488596D01*
X162240356Y-96520543D01*
X162337021Y-96564047D01*
X162405512Y-96591544D01*
X162434125Y-96598118D01*
X162434771Y-96597249D01*
X162454987Y-96562844D01*
X162497150Y-96487760D01*
X162555517Y-96382304D01*
X162624343Y-96256785D01*
X162692526Y-96129484D01*
X162948740Y-95606344D01*
X163193094Y-95036079D01*
X163421539Y-94428610D01*
X163630024Y-93793853D01*
X163645014Y-93744441D01*
X163702445Y-93549075D01*
X163760072Y-93344552D01*
X163815796Y-93139199D01*
X163867516Y-92941341D01*
X163913134Y-92759307D01*
X163950550Y-92601422D01*
X163977664Y-92476015D01*
X163992376Y-92391411D01*
X163992588Y-92355938D01*
X163964023Y-92357113D01*
X163896891Y-92377014D01*
X163807187Y-92411692D01*
X163731706Y-92442266D01*
X163352409Y-92560597D01*
X162947883Y-92633745D01*
X162528643Y-92661469D01*
X162105205Y-92643527D01*
X161688086Y-92579676D01*
X161287799Y-92469675D01*
X161094083Y-92396900D01*
X160672186Y-92193980D01*
X160253635Y-91931417D01*
X159838732Y-91609436D01*
X159427780Y-91228262D01*
X159021082Y-90788118D01*
X158837143Y-90574582D01*
X158408572Y-90686902D01*
X158318337Y-90711171D01*
X158189951Y-90748252D01*
X158092404Y-90779748D01*
X158033954Y-90802918D01*
X158022858Y-90815018D01*
X158033998Y-90819066D01*
X158095460Y-90841028D01*
X158190072Y-90874594D01*
X158302422Y-90914289D01*
X158425840Y-90961110D01*
X158596776Y-91038024D01*
X158739947Y-91117329D01*
X158846060Y-91193674D01*
X158905822Y-91261708D01*
X158911196Y-91272102D01*
X158933475Y-91357446D01*
X158936468Y-91368912D01*
X158911548Y-91457618D01*
X158835300Y-91538894D01*
X158706587Y-91613417D01*
X158524271Y-91681862D01*
X158287217Y-91744903D01*
X157994286Y-91803217D01*
X157976988Y-91806250D01*
X157843438Y-91830265D01*
X157733246Y-91851100D01*
X157657428Y-91866613D01*
X157627000Y-91874659D01*
X157630751Y-91884791D01*
X157665200Y-91924919D01*
X157724760Y-91983078D01*
X157728059Y-91986129D01*
X157831003Y-92093867D01*
X157915702Y-92205519D01*
X157973137Y-92307582D01*
X157994286Y-92386555D01*
X157978821Y-92442840D01*
X157921538Y-92506506D01*
X157889376Y-92522619D01*
X157787038Y-92542664D01*
X157650614Y-92543529D01*
X157493432Y-92526350D01*
X157328819Y-92492265D01*
X157170103Y-92442410D01*
X157145334Y-92433115D01*
X157049795Y-92399176D01*
X156980632Y-92377661D01*
X156951413Y-92372883D01*
X156950887Y-92397193D01*
X156956802Y-92470261D01*
X156968564Y-92579669D01*
X156984951Y-92713002D01*
X156992821Y-92778249D01*
X157010678Y-92997652D01*
X157016932Y-93240119D01*
X157012189Y-93523640D01*
X157005090Y-93690779D01*
X156989510Y-93896152D01*
X156976905Y-93993932D01*
X156964594Y-94089424D01*
X156927514Y-94287617D01*
X156875441Y-94507754D01*
X156805544Y-94766857D01*
X156797350Y-94800635D01*
X156805366Y-94827632D01*
X156854060Y-94820034D01*
X156856167Y-94819475D01*
X156913782Y-94809193D01*
X157013888Y-94795676D01*
X157142986Y-94780616D01*
X157287578Y-94765705D01*
X157394063Y-94757229D01*
X157622313Y-94749844D01*
X157852696Y-94755321D01*
X158077810Y-94772374D01*
X158290250Y-94799721D01*
X158482615Y-94836078D01*
X158647502Y-94880160D01*
X158777507Y-94930683D01*
X158865229Y-94986364D01*
X158903264Y-95045920D01*
X158903704Y-95067231D01*
X158900612Y-95074516D01*
X158871883Y-95142201D01*
X158795894Y-95231727D01*
X158682297Y-95329891D01*
X158537649Y-95430775D01*
X158368510Y-95528459D01*
X158062016Y-95689425D01*
X158245917Y-95756869D01*
X158317917Y-95785054D01*
X158449140Y-95846446D01*
X158554994Y-95909290D01*
X158625688Y-95967365D01*
X158651429Y-96014451D01*
X158651264Y-96017613D01*
X158623177Y-96067631D01*
X158555533Y-96129532D01*
X158460797Y-96193535D01*
X158351429Y-96249861D01*
X158226888Y-96298517D01*
X157985183Y-96371412D01*
X157700228Y-96436433D01*
X157380426Y-96492367D01*
X157034177Y-96538001D01*
X156669886Y-96572120D01*
X156295953Y-96593512D01*
X155920782Y-96600961D01*
X155404420Y-96601064D01*
X155297873Y-96893794D01*
X155280178Y-96942455D01*
X155231325Y-97079597D01*
X155202056Y-97172811D01*
X155191615Y-97231504D01*
X155036481Y-97231504D01*
X155127935Y-97023986D01*
X155237282Y-96730408D01*
X155311993Y-96478208D01*
X155680000Y-96478208D01*
X156087143Y-96472083D01*
X156230801Y-96468957D01*
X156702385Y-96444753D01*
X157148512Y-96400326D01*
X157559378Y-96336832D01*
X157925177Y-96255426D01*
X157984979Y-96239026D01*
X158137671Y-96191926D01*
X158273087Y-96143030D01*
X158381660Y-96096308D01*
X158453821Y-96055730D01*
X158480000Y-96025265D01*
X158477093Y-96017264D01*
X158435886Y-95983946D01*
X158354789Y-95941018D01*
X158245162Y-95893539D01*
X158118366Y-95846568D01*
X157985761Y-95805165D01*
X157902648Y-95780388D01*
X157834730Y-95753108D01*
X157804091Y-95725906D01*
X157800047Y-95692288D01*
X157801209Y-95686389D01*
X157841734Y-95634816D01*
X157937143Y-95589625D01*
X158080001Y-95533369D01*
X158246934Y-95454066D01*
X158409058Y-95365045D01*
X158549781Y-95275471D01*
X158652513Y-95194506D01*
X158780000Y-95074516D01*
X158665715Y-95023503D01*
X158641185Y-95013081D01*
X158464570Y-94958657D01*
X158240615Y-94917925D01*
X157976650Y-94891939D01*
X157680000Y-94881752D01*
X157664876Y-94881685D01*
X157480637Y-94884599D01*
X157293551Y-94893582D01*
X157115615Y-94907514D01*
X156958827Y-94925277D01*
X156835185Y-94945753D01*
X156756686Y-94967823D01*
X156756248Y-94968032D01*
X156729221Y-95000125D01*
X156681862Y-95073983D01*
X156620723Y-95178829D01*
X156552356Y-95303886D01*
X156501732Y-95394189D01*
X156374924Y-95590807D01*
X156230662Y-95783330D01*
X156079396Y-95959201D01*
X155931577Y-96105862D01*
X155797655Y-96210756D01*
X155726696Y-96263203D01*
X155690341Y-96314938D01*
X155680769Y-96382012D01*
X155680000Y-96478208D01*
X155311993Y-96478208D01*
X155320903Y-96448132D01*
X155374504Y-96185288D01*
X155393790Y-95950004D01*
X155389789Y-95852387D01*
X155354518Y-95686267D01*
X155283117Y-95566642D01*
X155175899Y-95493778D01*
X155033172Y-95467940D01*
X154855249Y-95489395D01*
X154808295Y-95501050D01*
X154533320Y-95597967D01*
X154244781Y-95744369D01*
X153949464Y-95935058D01*
X153654154Y-96164832D01*
X153365637Y-96428493D01*
X153090699Y-96720839D01*
X152836126Y-97036670D01*
X152797169Y-97088129D01*
X152710016Y-97194167D01*
X152646262Y-97256978D01*
X152609500Y-97272815D01*
X152596720Y-97262371D01*
X152555604Y-97208364D01*
X152500113Y-97120538D01*
X152438541Y-97011569D01*
X152270851Y-96723589D01*
X151997517Y-96324591D01*
X151668752Y-95911069D01*
X151576081Y-95803611D01*
X151359001Y-95568885D01*
X151163578Y-95383133D01*
X150990787Y-95246964D01*
X150841605Y-95160986D01*
X150717009Y-95125809D01*
X150617975Y-95142042D01*
X150545479Y-95210293D01*
X150511127Y-95304427D01*
X150490791Y-95447089D01*
X150483762Y-95628771D01*
X150366479Y-95628771D01*
X150367536Y-95567079D01*
X150385412Y-95368843D01*
X150424647Y-95212942D01*
X150487416Y-95089088D01*
X150545490Y-95003235D01*
X150487533Y-94878923D01*
X150459030Y-94823964D01*
X150415244Y-94769846D01*
X150350461Y-94727527D01*
X150247646Y-94683096D01*
X150088451Y-94616316D01*
X149838560Y-94496673D01*
X149589107Y-94361236D01*
X149350924Y-94216704D01*
X149134844Y-94069777D01*
X148951700Y-93927153D01*
X148812327Y-93795531D01*
X148772689Y-93752859D01*
X148724442Y-93705065D01*
X148698097Y-93689991D01*
X148693638Y-93712192D01*
X148711048Y-93776225D01*
X148750309Y-93886644D01*
X148811406Y-94048005D01*
X148844096Y-94133842D01*
X148881931Y-94237418D01*
X148900524Y-94300995D01*
X148901285Y-94334330D01*
X148885622Y-94347176D01*
X148854947Y-94349291D01*
X148826150Y-94337699D01*
X148783769Y-94285092D01*
X148734427Y-94186268D01*
X148676155Y-94037130D01*
X148606983Y-93833584D01*
X148553182Y-93644852D01*
X148514665Y-93448424D01*
X148491900Y-93236076D01*
X148483369Y-92993489D01*
X148483807Y-92963459D01*
X148599725Y-92963459D01*
X148610807Y-93129916D01*
X148636668Y-93266997D01*
X148680532Y-93387854D01*
X148745626Y-93505636D01*
X148835174Y-93633493D01*
X148877603Y-93686228D01*
X149035033Y-93843068D01*
X149240736Y-94004954D01*
X149488780Y-94167875D01*
X149773235Y-94327819D01*
X150088169Y-94480778D01*
X150142810Y-94505189D01*
X150242816Y-94548435D01*
X150316437Y-94578323D01*
X150350696Y-94589480D01*
X150360292Y-94573599D01*
X150353952Y-94521927D01*
X150340890Y-94473424D01*
X150287261Y-94250342D01*
X150257923Y-94066633D01*
X150254610Y-93952813D01*
X150365710Y-93952813D01*
X150387193Y-94176526D01*
X150452480Y-94439267D01*
X150561148Y-94736639D01*
X150573998Y-94767607D01*
X150620442Y-94875784D01*
X150656435Y-94943586D01*
X150692025Y-94983032D01*
X150731572Y-95003235D01*
X150737261Y-95006141D01*
X150802193Y-95024932D01*
X150831842Y-95033680D01*
X150974145Y-95098374D01*
X151134304Y-95206708D01*
X151315972Y-95361420D01*
X151522800Y-95565248D01*
X151591891Y-95637703D01*
X151819015Y-95888015D01*
X152014765Y-96126693D01*
X152192151Y-96370282D01*
X152364183Y-96635327D01*
X152385937Y-96670569D01*
X152465098Y-96799022D01*
X152533011Y-96909537D01*
X152583046Y-96991310D01*
X152608572Y-97033538D01*
X152618752Y-97045469D01*
X152642276Y-97045150D01*
X152679742Y-97014418D01*
X152737740Y-96947248D01*
X152822858Y-96837617D01*
X153025912Y-96591048D01*
X153265196Y-96341359D01*
X153521340Y-96109724D01*
X153787480Y-95900752D01*
X154056753Y-95719051D01*
X154322293Y-95569231D01*
X154577238Y-95455899D01*
X154814722Y-95383664D01*
X155027882Y-95357136D01*
X155142392Y-95362605D01*
X155262909Y-95396081D01*
X155356263Y-95466971D01*
X155437143Y-95583398D01*
X155462629Y-95637875D01*
X155481873Y-95712994D01*
X155491597Y-95815144D01*
X155494088Y-95950004D01*
X155494286Y-95960737D01*
X155494286Y-96236132D01*
X155606302Y-96170903D01*
X155619157Y-96163116D01*
X155723469Y-96085513D01*
X155848937Y-95973466D01*
X155984117Y-95838829D01*
X156117562Y-95693453D01*
X156237826Y-95549192D01*
X156333464Y-95417898D01*
X156495370Y-95141790D01*
X156658258Y-94787672D01*
X156781607Y-94424350D01*
X156805811Y-94334120D01*
X156831502Y-94218188D01*
X156844413Y-94112578D01*
X156846931Y-93993932D01*
X156841444Y-93838889D01*
X156824228Y-93636637D01*
X156774557Y-93332653D01*
X156700513Y-93036332D01*
X156607662Y-92773049D01*
X156551027Y-92648706D01*
X156369281Y-92338822D01*
X156146499Y-92062247D01*
X155888915Y-91825058D01*
X155602765Y-91633332D01*
X155294286Y-91493146D01*
X155256071Y-91480038D01*
X155154344Y-91451163D01*
X155051023Y-91433729D01*
X154927637Y-91425301D01*
X154765715Y-91423443D01*
X154632811Y-91425068D01*
X154515071Y-91431413D01*
X154422160Y-91445149D01*
X154336652Y-91469009D01*
X154241118Y-91505727D01*
X154013390Y-91621461D01*
X153756346Y-91801379D01*
X153510557Y-92024204D01*
X153285686Y-92281051D01*
X153091396Y-92563034D01*
X153063226Y-92608503D01*
X153000845Y-92700461D01*
X152949774Y-92764212D01*
X152918972Y-92788061D01*
X152907777Y-92783199D01*
X152877853Y-92737904D01*
X152851809Y-92660461D01*
X152834639Y-92591512D01*
X152778447Y-92391406D01*
X152711147Y-92178458D01*
X152638826Y-91970481D01*
X152567568Y-91785290D01*
X152503459Y-91640699D01*
X152373030Y-91408743D01*
X152237012Y-91232623D01*
X152092490Y-91110601D01*
X151935940Y-91039704D01*
X151763837Y-91016960D01*
X151592342Y-91039631D01*
X151408140Y-91118788D01*
X151231861Y-91255484D01*
X151062551Y-91450475D01*
X150899259Y-91704520D01*
X150871542Y-91754897D01*
X150821092Y-91858402D01*
X150780387Y-91965081D01*
X150747443Y-92084405D01*
X150720279Y-92225847D01*
X150696909Y-92398877D01*
X150675351Y-92612969D01*
X150653621Y-92877593D01*
X150643834Y-92999486D01*
X150630532Y-93127126D01*
X150613380Y-93225558D01*
X150588026Y-93312531D01*
X150550114Y-93405796D01*
X150495291Y-93523101D01*
X150493886Y-93526038D01*
X150430070Y-93666297D01*
X150390874Y-93772776D01*
X150371140Y-93862580D01*
X150365710Y-93952813D01*
X150254610Y-93952813D01*
X150253349Y-93909505D01*
X150274012Y-93766165D01*
X150320389Y-93623821D01*
X150392951Y-93469679D01*
X150412102Y-93432781D01*
X150460136Y-93334276D01*
X150492130Y-93250382D01*
X150512893Y-93162460D01*
X150527237Y-93051868D01*
X150539972Y-92899963D01*
X150570644Y-92555427D01*
X150610860Y-92216678D01*
X150657688Y-91914336D01*
X150709902Y-91656256D01*
X150766277Y-91450291D01*
X150792187Y-91370390D01*
X150794454Y-91363212D01*
X150937143Y-91363212D01*
X150937213Y-91363793D01*
X150956396Y-91351257D01*
X151003035Y-91303764D01*
X151067577Y-91230997D01*
X151163627Y-91135118D01*
X151328374Y-91015754D01*
X151508310Y-90926158D01*
X151682804Y-90878162D01*
X151788614Y-90871877D01*
X151977678Y-90905518D01*
X152157527Y-90996387D01*
X152326050Y-91142867D01*
X152481138Y-91343344D01*
X152620681Y-91596202D01*
X152655150Y-91672120D01*
X152731133Y-91854096D01*
X152803665Y-92044569D01*
X152860821Y-92212917D01*
X152956882Y-92523470D01*
X153092074Y-92324385D01*
X153113366Y-92293400D01*
X153351489Y-91991768D01*
X153609101Y-91741633D01*
X153883197Y-91544211D01*
X154170771Y-91400723D01*
X154468818Y-91312387D01*
X154774333Y-91280420D01*
X155084309Y-91306042D01*
X155395742Y-91390471D01*
X155530065Y-91445707D01*
X155826540Y-91611571D01*
X156100173Y-91825998D01*
X156343921Y-92082040D01*
X156550745Y-92372747D01*
X156713603Y-92691169D01*
X156735633Y-92745540D01*
X156784208Y-92874061D01*
X156827550Y-92998227D01*
X156881911Y-93163357D01*
X156867285Y-92890129D01*
X156861366Y-92797538D01*
X156842192Y-92604466D01*
X156816419Y-92441897D01*
X156785811Y-92319672D01*
X156752132Y-92247636D01*
X156751349Y-92246631D01*
X156721205Y-92185184D01*
X156698319Y-92101856D01*
X156690078Y-92043441D01*
X156697948Y-92015742D01*
X156730112Y-92022537D01*
X156852067Y-92071473D01*
X157006442Y-92126459D01*
X157169296Y-92178684D01*
X157331672Y-92225835D01*
X157484612Y-92265601D01*
X157619158Y-92295669D01*
X157726353Y-92313728D01*
X157797238Y-92317465D01*
X157822858Y-92304570D01*
X157805157Y-92261213D01*
X157746064Y-92188037D01*
X157652758Y-92096657D01*
X157532798Y-91994400D01*
X157393739Y-91888590D01*
X157308570Y-91826624D01*
X157209741Y-91749756D01*
X157153905Y-91694096D01*
X157143399Y-91656774D01*
X157180562Y-91634917D01*
X157267729Y-91625654D01*
X157407239Y-91626114D01*
X157601429Y-91633424D01*
X157733585Y-91638328D01*
X157953117Y-91640297D01*
X158135323Y-91631147D01*
X158292852Y-91609452D01*
X158438349Y-91573790D01*
X158584460Y-91522736D01*
X158647266Y-91495749D01*
X158730543Y-91452457D01*
X158781375Y-91416252D01*
X158801635Y-91392509D01*
X158807934Y-91357446D01*
X158774213Y-91308715D01*
X158771526Y-91305618D01*
X158700469Y-91248927D01*
X158586876Y-91184198D01*
X158443209Y-91116250D01*
X158281925Y-91049903D01*
X158115484Y-90989977D01*
X157956344Y-90941293D01*
X157816966Y-90908670D01*
X157709807Y-90896928D01*
X157665197Y-90899744D01*
X157561395Y-90915631D01*
X157453009Y-90940788D01*
X157388060Y-90956169D01*
X157309981Y-90965854D01*
X157267295Y-90959124D01*
X157260998Y-90956170D01*
X157207295Y-90947432D01*
X157111235Y-90940360D01*
X156984093Y-90935619D01*
X156837143Y-90933869D01*
X156779513Y-90933563D01*
X156489157Y-90920692D01*
X156236601Y-90887052D01*
X156007635Y-90830117D01*
X155788049Y-90747359D01*
X155715032Y-90712255D01*
X155562572Y-90624568D01*
X155450996Y-90549277D01*
X158994365Y-90549277D01*
X158994495Y-90550461D01*
X159015823Y-90586672D01*
X159068432Y-90656108D01*
X159144811Y-90749270D01*
X159237447Y-90856656D01*
X159526975Y-91164792D01*
X159897455Y-91506412D01*
X160278706Y-91803128D01*
X160666299Y-92052152D01*
X161055807Y-92250696D01*
X161442802Y-92395971D01*
X161822858Y-92485187D01*
X161830338Y-92486389D01*
X161948504Y-92505030D01*
X162042427Y-92517999D01*
X162125663Y-92525823D01*
X162211769Y-92529025D01*
X162314299Y-92528130D01*
X162446810Y-92523662D01*
X162622858Y-92516147D01*
X162832730Y-92502644D01*
X163043877Y-92477546D01*
X163248123Y-92438711D01*
X163454772Y-92383260D01*
X163673130Y-92308312D01*
X163912502Y-92210986D01*
X164182192Y-92088403D01*
X164491506Y-91937682D01*
X164747009Y-91800967D01*
X165079109Y-91593935D01*
X165385704Y-91368647D01*
X165660600Y-91130590D01*
X165897604Y-90885251D01*
X166090523Y-90638117D01*
X166233164Y-90394674D01*
X166285117Y-90271687D01*
X166307481Y-90168910D01*
X166290573Y-90102191D01*
X166234407Y-90067517D01*
X166226607Y-90065624D01*
X166117877Y-90057780D01*
X165969925Y-90071011D01*
X165795166Y-90103611D01*
X165606013Y-90153875D01*
X165495848Y-90185657D01*
X165386790Y-90209432D01*
X165325491Y-90208174D01*
X165311368Y-90179444D01*
X165343839Y-90120808D01*
X165422320Y-90029828D01*
X165546228Y-89904068D01*
X165678217Y-89763525D01*
X165793546Y-89617660D01*
X165881606Y-89480326D01*
X165939412Y-89357912D01*
X165963975Y-89256809D01*
X165952310Y-89183408D01*
X165901429Y-89144101D01*
X165881194Y-89138957D01*
X165785365Y-89128611D01*
X165676747Y-89140117D01*
X165551404Y-89175492D01*
X165405403Y-89236753D01*
X165234812Y-89325915D01*
X165035696Y-89444994D01*
X164804123Y-89596008D01*
X164536157Y-89780971D01*
X164227866Y-90001900D01*
X164175764Y-90039811D01*
X164028544Y-90147579D01*
X163898489Y-90243711D01*
X163793084Y-90322617D01*
X163719814Y-90378708D01*
X163686164Y-90406396D01*
X163622263Y-90457238D01*
X163516857Y-90524505D01*
X163382895Y-90601061D01*
X163232732Y-90680383D01*
X163078721Y-90755949D01*
X162933217Y-90821236D01*
X162808572Y-90869724D01*
X162772226Y-90882160D01*
X162650545Y-90921200D01*
X162550054Y-90946041D01*
X162451182Y-90959652D01*
X162334355Y-90965002D01*
X162180000Y-90965059D01*
X161996568Y-90957928D01*
X161647534Y-90908967D01*
X161323174Y-90811409D01*
X161016972Y-90662398D01*
X160722413Y-90459074D01*
X160432981Y-90198578D01*
X160257391Y-90022384D01*
X159790124Y-90216302D01*
X159676523Y-90263041D01*
X159512687Y-90329118D01*
X159363145Y-90387963D01*
X159240804Y-90434517D01*
X159158572Y-90463725D01*
X159084472Y-90491329D01*
X159019391Y-90524151D01*
X158994365Y-90549277D01*
X155450996Y-90549277D01*
X155408351Y-90520500D01*
X155270682Y-90412835D01*
X155167877Y-90314362D01*
X155160688Y-90306452D01*
X155104248Y-90256480D01*
X155060734Y-90236052D01*
X155038277Y-90223956D01*
X155022858Y-90174352D01*
X154998836Y-90125462D01*
X154926666Y-90070227D01*
X154815307Y-90014726D01*
X154673813Y-89962288D01*
X154511235Y-89916242D01*
X154336624Y-89879917D01*
X154159031Y-89856643D01*
X153947561Y-89837859D01*
X153852977Y-90104509D01*
X153789410Y-90273060D01*
X153691767Y-90501028D01*
X153588994Y-90710563D01*
X153487690Y-90888465D01*
X153394458Y-91021533D01*
X153315356Y-91106683D01*
X153157345Y-91220671D01*
X152987154Y-91278459D01*
X152809648Y-91278782D01*
X152629689Y-91220377D01*
X152545443Y-91167385D01*
X152428237Y-91071464D01*
X152300717Y-90949360D01*
X152175282Y-90813044D01*
X152064329Y-90674485D01*
X151978461Y-90557481D01*
X151767196Y-90557481D01*
X151555931Y-90557481D01*
X151468684Y-90674485D01*
X151448784Y-90700371D01*
X151377226Y-90788064D01*
X151286557Y-90894325D01*
X151191601Y-91001655D01*
X151124292Y-91077690D01*
X151019427Y-91206499D01*
X150977412Y-91270631D01*
X150957491Y-91301038D01*
X150937143Y-91363212D01*
X150794454Y-91363212D01*
X150814339Y-91300251D01*
X150822858Y-91270631D01*
X150814621Y-91268306D01*
X150764843Y-91265059D01*
X150684957Y-91263784D01*
X150647707Y-91262286D01*
X150543309Y-91245735D01*
X150460550Y-91216776D01*
X150380129Y-91157142D01*
X150279703Y-91057726D01*
X150172089Y-90932431D01*
X150068445Y-90794272D01*
X149979930Y-90656260D01*
X149976613Y-90650541D01*
X149922636Y-90562511D01*
X149878980Y-90500009D01*
X149854822Y-90476241D01*
X149816084Y-90491175D01*
X149742555Y-90533653D01*
X149647913Y-90595129D01*
X149544867Y-90667014D01*
X149446127Y-90740719D01*
X149364402Y-90807656D01*
X149307144Y-90860875D01*
X149117856Y-91080057D01*
X148948027Y-91344672D01*
X148803666Y-91644360D01*
X148690782Y-91968767D01*
X148658935Y-92090070D01*
X148635957Y-92206391D01*
X148620196Y-92332907D01*
X148609587Y-92486231D01*
X148602066Y-92682979D01*
X148600197Y-92754478D01*
X148599725Y-92963459D01*
X148483807Y-92963459D01*
X148487556Y-92706339D01*
X148492706Y-92583325D01*
X148523068Y-92243742D01*
X148578530Y-91943017D01*
X148662802Y-91668129D01*
X148779591Y-91406058D01*
X148932607Y-91143781D01*
X148962150Y-91100275D01*
X149076413Y-90955600D01*
X149214988Y-90805284D01*
X149363729Y-90663125D01*
X149508491Y-90542923D01*
X149635127Y-90458476D01*
X149709965Y-90414621D01*
X149770837Y-90372758D01*
X149794218Y-90347784D01*
X149783024Y-90302054D01*
X149749604Y-90225007D01*
X149703108Y-90136365D01*
X149652858Y-90052626D01*
X149608177Y-89990285D01*
X149578385Y-89965839D01*
X149537791Y-89968611D01*
X149428846Y-89987240D01*
X149292020Y-90019551D01*
X149144181Y-90061002D01*
X149002194Y-90107050D01*
X148882925Y-90153153D01*
X148823454Y-90180001D01*
X148536152Y-90340773D01*
X148295577Y-90533626D01*
X148100735Y-90760227D01*
X147950630Y-91022245D01*
X147844269Y-91321346D01*
X147780655Y-91659199D01*
X147758795Y-92037470D01*
X147657962Y-92037470D01*
X147659084Y-91914687D01*
X147670978Y-91690008D01*
X147692250Y-91489961D01*
X147722504Y-91331915D01*
X147732997Y-91293415D01*
X147850094Y-90973841D01*
X148010662Y-90692974D01*
X148214906Y-90450608D01*
X148463031Y-90246535D01*
X148755244Y-90080549D01*
X149091749Y-89952442D01*
X149141862Y-89937606D01*
X149259909Y-89905868D01*
X149358035Y-89883741D01*
X149418911Y-89875308D01*
X149478356Y-89871875D01*
X149518107Y-89856185D01*
X149533399Y-89819701D01*
X149524635Y-89753861D01*
X149492218Y-89650104D01*
X149436550Y-89499871D01*
X149369071Y-89312914D01*
X149275242Y-89013663D01*
X149197459Y-88714912D01*
X149136831Y-88424389D01*
X149094468Y-88149818D01*
X149071482Y-87898926D01*
X149070729Y-87832844D01*
X149172533Y-87832844D01*
X149193989Y-88093496D01*
X149244464Y-88405648D01*
X149323950Y-88769420D01*
X149328854Y-88789506D01*
X149400359Y-89045461D01*
X149490781Y-89316133D01*
X149596226Y-89593485D01*
X149712798Y-89869481D01*
X149836604Y-90136088D01*
X149963748Y-90385268D01*
X150090336Y-90608986D01*
X150212473Y-90799207D01*
X150326265Y-90947895D01*
X150427818Y-91047015D01*
X150530553Y-91115600D01*
X150635181Y-91152615D01*
X150740255Y-91144707D01*
X150864142Y-91093849D01*
X150951456Y-91039926D01*
X151063908Y-90944069D01*
X151183934Y-90812025D01*
X151315353Y-90639083D01*
X151461984Y-90420529D01*
X151627648Y-90151650D01*
X151681466Y-90067478D01*
X151743374Y-89992436D01*
X151786598Y-89971509D01*
X151805593Y-89985001D01*
X151851985Y-90041799D01*
X151912079Y-90131962D01*
X151977651Y-90243771D01*
X152019011Y-90317052D01*
X152164931Y-90552285D01*
X152312272Y-90756289D01*
X152454478Y-90920506D01*
X152584992Y-91036379D01*
X152733926Y-91122768D01*
X152882112Y-91159770D01*
X153023534Y-91141012D01*
X153159710Y-91065637D01*
X153292161Y-90932790D01*
X153422404Y-90741614D01*
X153551958Y-90491253D01*
X153613805Y-90351437D01*
X153761884Y-89962755D01*
X153847726Y-89687445D01*
X153976977Y-89687445D01*
X153982181Y-89689452D01*
X154029753Y-89698752D01*
X154115406Y-89711955D01*
X154225472Y-89726890D01*
X154231076Y-89727612D01*
X154491097Y-89772385D01*
X154717759Y-89837279D01*
X154932890Y-89928515D01*
X155009306Y-89966300D01*
X155077152Y-90000360D01*
X155108795Y-90016943D01*
X155126330Y-90008825D01*
X155159042Y-89965911D01*
X155177057Y-89939386D01*
X155228700Y-89868702D01*
X155305987Y-89765480D01*
X155402781Y-89637709D01*
X155512941Y-89493381D01*
X155630329Y-89340486D01*
X155748805Y-89187014D01*
X155862229Y-89040955D01*
X155883036Y-89014364D01*
X157335490Y-89014364D01*
X157500602Y-89131529D01*
X157597271Y-89196468D01*
X157731708Y-89279918D01*
X157857859Y-89352065D01*
X157872106Y-89359673D01*
X157968097Y-89407936D01*
X158044700Y-89441591D01*
X158086430Y-89453748D01*
X158101267Y-89450894D01*
X158134576Y-89437634D01*
X158186903Y-89410934D01*
X158263241Y-89367879D01*
X158368583Y-89305554D01*
X158507923Y-89221044D01*
X158686255Y-89111433D01*
X158908572Y-88973807D01*
X159091326Y-88858415D01*
X159503642Y-88583007D01*
X159895171Y-88300614D01*
X160257535Y-88017661D01*
X160582359Y-87740576D01*
X160861264Y-87475785D01*
X160871361Y-87465508D01*
X160994997Y-87331364D01*
X161095648Y-87206740D01*
X161168256Y-87099073D01*
X161207760Y-87015804D01*
X161209100Y-86964373D01*
X161204850Y-86958504D01*
X161149481Y-86935706D01*
X161050225Y-86937814D01*
X160913329Y-86963129D01*
X160745041Y-87009949D01*
X160551607Y-87076573D01*
X160339276Y-87161301D01*
X160114294Y-87262432D01*
X159789112Y-87425379D01*
X159386579Y-87646782D01*
X158961273Y-87899580D01*
X158522669Y-88177922D01*
X158080239Y-88475961D01*
X157643459Y-88787847D01*
X157335490Y-89014364D01*
X155883036Y-89014364D01*
X155964463Y-88910301D01*
X156049368Y-88803041D01*
X156110803Y-88727167D01*
X156229121Y-88584358D01*
X156061703Y-88506445D01*
X156014426Y-88484845D01*
X155834315Y-88411979D01*
X155660910Y-88360375D01*
X155478404Y-88326923D01*
X155270989Y-88308513D01*
X155022858Y-88302034D01*
X155000468Y-88301922D01*
X154821305Y-88302618D01*
X154686343Y-88307182D01*
X154583949Y-88316644D01*
X154502491Y-88332028D01*
X154430337Y-88354364D01*
X154369493Y-88378516D01*
X154298411Y-88412718D01*
X154263832Y-88437835D01*
X154263793Y-88437902D01*
X154251698Y-88477342D01*
X154231304Y-88563024D01*
X154205450Y-88682372D01*
X154176973Y-88822804D01*
X154152531Y-88942398D01*
X154113113Y-89122050D01*
X154072977Y-89292539D01*
X154037840Y-89428956D01*
X154024580Y-89477614D01*
X153997619Y-89582277D01*
X153980678Y-89656778D01*
X153976977Y-89687445D01*
X153847726Y-89687445D01*
X153894138Y-89538593D01*
X154006648Y-89095470D01*
X154095492Y-88649905D01*
X154149206Y-88271555D01*
X154287710Y-88271555D01*
X154476712Y-88219718D01*
X154604745Y-88192493D01*
X154827888Y-88169710D01*
X155075592Y-88167790D01*
X155330563Y-88186632D01*
X155575512Y-88226135D01*
X155634428Y-88239611D01*
X155795445Y-88283588D01*
X155954338Y-88335409D01*
X156083942Y-88386504D01*
X156302168Y-88485157D01*
X156499303Y-88277094D01*
X156666565Y-88277094D01*
X156708997Y-88361485D01*
X156733491Y-88400412D01*
X156793655Y-88480380D01*
X156875717Y-88580453D01*
X156879127Y-88584358D01*
X156969303Y-88687632D01*
X157187176Y-88929388D01*
X157355017Y-88803002D01*
X157516774Y-88682506D01*
X157916842Y-88395269D01*
X158317129Y-88122474D01*
X158712781Y-87866848D01*
X159098945Y-87631116D01*
X159470765Y-87418004D01*
X159823388Y-87230239D01*
X160151959Y-87070546D01*
X160451623Y-86941651D01*
X160717527Y-86846280D01*
X160944816Y-86787159D01*
X161080206Y-86771295D01*
X161214598Y-86785755D01*
X161307629Y-86835633D01*
X161356531Y-86918040D01*
X161357360Y-86964373D01*
X161358535Y-87030091D01*
X161310874Y-87168899D01*
X161245331Y-87277837D01*
X161124334Y-87430658D01*
X160961473Y-87604260D01*
X160761511Y-87794766D01*
X160529208Y-87998300D01*
X160269325Y-88210985D01*
X159986624Y-88428945D01*
X159685865Y-88648304D01*
X159371811Y-88865185D01*
X159049221Y-89075711D01*
X158722858Y-89276006D01*
X158664039Y-89311081D01*
X158536026Y-89388601D01*
X158428226Y-89455483D01*
X158350539Y-89505534D01*
X158312869Y-89532555D01*
X158302456Y-89547174D01*
X158313218Y-89570038D01*
X158363925Y-89597356D01*
X158462275Y-89634376D01*
X158510291Y-89650105D01*
X158641994Y-89687694D01*
X158794513Y-89725940D01*
X158943692Y-89758609D01*
X158974562Y-89764508D01*
X159193594Y-89795796D01*
X159463686Y-89819053D01*
X159780000Y-89833843D01*
X160322858Y-89850575D01*
X160709630Y-89658693D01*
X160880842Y-89571884D01*
X161267783Y-89361767D01*
X161636988Y-89142191D01*
X161980967Y-88918165D01*
X162292230Y-88694699D01*
X162563288Y-88476800D01*
X162786652Y-88269480D01*
X162793174Y-88262838D01*
X162902258Y-88147643D01*
X162973079Y-88062264D01*
X163011368Y-87998947D01*
X163022858Y-87949938D01*
X163022817Y-87944943D01*
X163010637Y-87885641D01*
X162970752Y-87854957D01*
X162894442Y-87850032D01*
X162772987Y-87868005D01*
X162772121Y-87868173D01*
X162621459Y-87904061D01*
X162497264Y-87952395D01*
X162377876Y-88023812D01*
X162241634Y-88128950D01*
X162107901Y-88237195D01*
X161954340Y-88353027D01*
X161839291Y-88427521D01*
X161761605Y-88461287D01*
X161720133Y-88454934D01*
X161713728Y-88409071D01*
X161720021Y-88396042D01*
X161763605Y-88345584D01*
X161841307Y-88271218D01*
X161944789Y-88180697D01*
X162065715Y-88081772D01*
X162373420Y-87826873D01*
X162668303Y-87560462D01*
X162943216Y-87289847D01*
X163195749Y-87018585D01*
X163423489Y-86750231D01*
X163624026Y-86488342D01*
X163794950Y-86236474D01*
X163933849Y-85998183D01*
X164038312Y-85777025D01*
X164105928Y-85576557D01*
X164134287Y-85400335D01*
X164120978Y-85251915D01*
X164063588Y-85134853D01*
X164047531Y-85116364D01*
X163931979Y-85031358D01*
X163768686Y-84968323D01*
X163562164Y-84927097D01*
X163316930Y-84907517D01*
X163037497Y-84909417D01*
X162728379Y-84932636D01*
X162394092Y-84977010D01*
X162039150Y-85042375D01*
X161668067Y-85128567D01*
X161285358Y-85235425D01*
X160898499Y-85364558D01*
X160318695Y-85600832D01*
X159735579Y-85887282D01*
X159156398Y-86219357D01*
X158588394Y-86592504D01*
X158038814Y-87002171D01*
X157514900Y-87443808D01*
X157332989Y-87617588D01*
X157023899Y-87912862D01*
X156666565Y-88277094D01*
X156499303Y-88277094D01*
X156710428Y-88054266D01*
X156766353Y-87995188D01*
X156890080Y-87863536D01*
X156979312Y-87765929D01*
X157038492Y-87696387D01*
X157072069Y-87648932D01*
X157084487Y-87617588D01*
X157080192Y-87596374D01*
X157063630Y-87579312D01*
X157016449Y-87548649D01*
X156911333Y-87496116D01*
X156772974Y-87437245D01*
X156614365Y-87376906D01*
X156448496Y-87319967D01*
X156288357Y-87271296D01*
X156146941Y-87235763D01*
X156042799Y-87216376D01*
X155807337Y-87188020D01*
X155552722Y-87174077D01*
X155297560Y-87174760D01*
X155060453Y-87190286D01*
X154860005Y-87220868D01*
X154837874Y-87225772D01*
X154688072Y-87264028D01*
X154550809Y-87307126D01*
X154436965Y-87350946D01*
X154357419Y-87391367D01*
X154323053Y-87424266D01*
X154322082Y-87429055D01*
X154317178Y-87482834D01*
X154311493Y-87581582D01*
X154307357Y-87674817D01*
X154305658Y-87713105D01*
X154300303Y-87865210D01*
X154287710Y-88271555D01*
X154149206Y-88271555D01*
X154156750Y-88218417D01*
X154186502Y-87817525D01*
X154189914Y-87674817D01*
X154187066Y-87448742D01*
X154171147Y-87271389D01*
X154140965Y-87136136D01*
X154095325Y-87036362D01*
X154033037Y-86965445D01*
X153936614Y-86916084D01*
X153805873Y-86910277D01*
X153653034Y-86954888D01*
X153481270Y-87048946D01*
X153293755Y-87191482D01*
X153231354Y-87246618D01*
X153033986Y-87438922D01*
X152820923Y-87669340D01*
X152600907Y-87927022D01*
X152382678Y-88201117D01*
X152174976Y-88480776D01*
X151986542Y-88755149D01*
X151826115Y-89013385D01*
X151759215Y-89117634D01*
X151699129Y-89189429D01*
X151655932Y-89215248D01*
X151654607Y-89214868D01*
X151625609Y-89187811D01*
X151568846Y-89124243D01*
X151491888Y-89032900D01*
X151402302Y-88922518D01*
X151395536Y-88914054D01*
X151186459Y-88664263D01*
X150966790Y-88422504D01*
X150741691Y-88193077D01*
X150516325Y-87980285D01*
X150295853Y-87788429D01*
X150085438Y-87621810D01*
X149890242Y-87484729D01*
X149715427Y-87381489D01*
X149566156Y-87316390D01*
X149447590Y-87293735D01*
X149377110Y-87302814D01*
X149282386Y-87358675D01*
X149216721Y-87465553D01*
X149180107Y-87623569D01*
X149172533Y-87832844D01*
X149070729Y-87832844D01*
X149068981Y-87679440D01*
X149088077Y-87499084D01*
X149129878Y-87365586D01*
X149171080Y-87298754D01*
X149270882Y-87212911D01*
X149399820Y-87177944D01*
X149557260Y-87193745D01*
X149742573Y-87260209D01*
X149955126Y-87377229D01*
X150194286Y-87544698D01*
X150246298Y-87584096D01*
X150330987Y-87646629D01*
X150390646Y-87688480D01*
X150414798Y-87702167D01*
X150415080Y-87700975D01*
X150407079Y-87664225D01*
X150385078Y-87587503D01*
X150353192Y-87485289D01*
X150311830Y-87349106D01*
X150207128Y-86910608D01*
X150131204Y-86429782D01*
X150085100Y-85914397D01*
X150075054Y-85557089D01*
X150200683Y-85557089D01*
X150225558Y-86082435D01*
X150281073Y-86581025D01*
X150366195Y-87044241D01*
X150479893Y-87463463D01*
X150498452Y-87520146D01*
X150553974Y-87676467D01*
X150607026Y-87795275D01*
X150666876Y-87892384D01*
X150742791Y-87983604D01*
X150844038Y-88084746D01*
X150901716Y-88138962D01*
X150975444Y-88202061D01*
X151033187Y-88236769D01*
X151090711Y-88251456D01*
X151163780Y-88254492D01*
X151213033Y-88253121D01*
X151284393Y-88244988D01*
X151317948Y-88231974D01*
X151319730Y-88222410D01*
X151317989Y-88164021D01*
X151308829Y-88067553D01*
X151293533Y-87947935D01*
X151283596Y-87876615D01*
X151256744Y-87663834D01*
X151235450Y-87455656D01*
X151219329Y-87242856D01*
X151207993Y-87016211D01*
X151201053Y-86766493D01*
X151198123Y-86484478D01*
X151198814Y-86160941D01*
X151200001Y-86047754D01*
X151354215Y-86047754D01*
X151354216Y-86057235D01*
X151355542Y-86435416D01*
X151359674Y-86761991D01*
X151367073Y-87045158D01*
X151378200Y-87293118D01*
X151393514Y-87514069D01*
X151413474Y-87716211D01*
X151438542Y-87907744D01*
X151469178Y-88096867D01*
X151474976Y-88124975D01*
X151500823Y-88178807D01*
X151547466Y-88191794D01*
X151582405Y-88188586D01*
X151675404Y-88172147D01*
X151782960Y-88146474D01*
X151887359Y-88116444D01*
X151970887Y-88086936D01*
X152015830Y-88062827D01*
X152034119Y-88026100D01*
X152054854Y-87931245D01*
X152072137Y-87789823D01*
X152085654Y-87609375D01*
X152095089Y-87397445D01*
X152100128Y-87161576D01*
X152100458Y-86909310D01*
X152095763Y-86648191D01*
X152085730Y-86385761D01*
X152072669Y-86140527D01*
X152041872Y-85684922D01*
X152004734Y-85281159D01*
X151960546Y-84923914D01*
X151908598Y-84607862D01*
X151848183Y-84327681D01*
X151778591Y-84078045D01*
X151765889Y-84038263D01*
X151712893Y-83888411D01*
X151667880Y-83796092D01*
X151627926Y-83760255D01*
X151590109Y-83779846D01*
X151551502Y-83853815D01*
X151509184Y-83981109D01*
X151474296Y-84110377D01*
X151442056Y-84259104D01*
X151415738Y-84421212D01*
X151394841Y-84603360D01*
X151378868Y-84812206D01*
X151367318Y-85054410D01*
X151359692Y-85336629D01*
X151355491Y-85665525D01*
X151354215Y-86047754D01*
X151200001Y-86047754D01*
X151202740Y-85786657D01*
X151205293Y-85605382D01*
X151209852Y-85331708D01*
X151214869Y-85106076D01*
X151220728Y-84920852D01*
X151227816Y-84768403D01*
X151236519Y-84641093D01*
X151247223Y-84531289D01*
X151260313Y-84431357D01*
X151276175Y-84333662D01*
X151307151Y-84169967D01*
X151360512Y-83946086D01*
X151417868Y-83777297D01*
X151480634Y-83660533D01*
X151550226Y-83592725D01*
X151628059Y-83570804D01*
X151666406Y-83579461D01*
X151738672Y-83639130D01*
X151811329Y-83751451D01*
X151882666Y-83911684D01*
X151950974Y-84115086D01*
X152014543Y-84356914D01*
X152071662Y-84632426D01*
X152120622Y-84936879D01*
X152148800Y-85162509D01*
X152178318Y-85459078D01*
X152203412Y-85778478D01*
X152223708Y-86110414D01*
X152238833Y-86444588D01*
X152248416Y-86770705D01*
X152250067Y-86909310D01*
X152252083Y-87078467D01*
X152249462Y-87357578D01*
X152240179Y-87597741D01*
X152223862Y-87788661D01*
X152222940Y-87796249D01*
X152212032Y-87900054D01*
X152207027Y-87976585D01*
X152209008Y-88009757D01*
X152214610Y-88012837D01*
X152258933Y-87997154D01*
X152336876Y-87939637D01*
X152445322Y-87843016D01*
X152581156Y-87710023D01*
X152741259Y-87543388D01*
X153073947Y-87188652D01*
X153098402Y-86858392D01*
X153102487Y-86798968D01*
X153115200Y-86528174D01*
X153122091Y-86217862D01*
X153123402Y-85882234D01*
X153119379Y-85535491D01*
X153110265Y-85191834D01*
X153096303Y-84865465D01*
X153077739Y-84570585D01*
X153054816Y-84321395D01*
X153025631Y-84073872D01*
X152946485Y-83495198D01*
X152858279Y-82971046D01*
X152761210Y-82502126D01*
X152655469Y-82089150D01*
X152541253Y-81732829D01*
X152418756Y-81433874D01*
X152288172Y-81192997D01*
X152149695Y-81010908D01*
X152086894Y-80950683D01*
X151974997Y-80883347D01*
X151865754Y-80874387D01*
X151754643Y-80923991D01*
X151637143Y-81032349D01*
X151521927Y-81183072D01*
X151387076Y-81411027D01*
X151256642Y-81684753D01*
X151132981Y-81996499D01*
X151018448Y-82338514D01*
X150915398Y-82703045D01*
X150826186Y-83082344D01*
X150753168Y-83468657D01*
X150698698Y-83854234D01*
X150665131Y-84231324D01*
X150654704Y-84392146D01*
X150644186Y-84509943D01*
X150631804Y-84585652D01*
X150615286Y-84628413D01*
X150592365Y-84647368D01*
X150560770Y-84651655D01*
X150553778Y-84651611D01*
X150531423Y-84648102D01*
X150517184Y-84632136D01*
X150510176Y-84594220D01*
X150509516Y-84524860D01*
X150514317Y-84414565D01*
X150523697Y-84253841D01*
X150533615Y-84083625D01*
X150542471Y-83908309D01*
X150546577Y-83778966D01*
X150545809Y-83687730D01*
X150540047Y-83626738D01*
X150529170Y-83588124D01*
X150513055Y-83564026D01*
X150493934Y-83549955D01*
X150450248Y-83558902D01*
X150407235Y-83621084D01*
X150365821Y-83731764D01*
X150326931Y-83886209D01*
X150291494Y-84079684D01*
X150260435Y-84307455D01*
X150234681Y-84564788D01*
X150215159Y-84846947D01*
X150202796Y-85149198D01*
X150200683Y-85557089D01*
X150075054Y-85557089D01*
X150069856Y-85372222D01*
X150070092Y-85308718D01*
X150078231Y-84951834D01*
X150097298Y-84622620D01*
X150126430Y-84324663D01*
X150164767Y-84061550D01*
X150211446Y-83836867D01*
X150265606Y-83654204D01*
X150326386Y-83517146D01*
X150392924Y-83429281D01*
X150464358Y-83394196D01*
X150539827Y-83415479D01*
X150581378Y-83438470D01*
X150610201Y-83443993D01*
X150610836Y-83442934D01*
X150621609Y-83404284D01*
X150641012Y-83319782D01*
X150666501Y-83200900D01*
X150695534Y-83059111D01*
X150708524Y-82995972D01*
X150787424Y-82663391D01*
X150881923Y-82334679D01*
X150988733Y-82017790D01*
X151104568Y-81720676D01*
X151226140Y-81451291D01*
X151350163Y-81217588D01*
X151473349Y-81027519D01*
X151592413Y-80889038D01*
X151631090Y-80855597D01*
X151728381Y-80788998D01*
X151818563Y-80746386D01*
X151843671Y-80738820D01*
X151913138Y-80726602D01*
X151977365Y-80738338D01*
X152063487Y-80777472D01*
X152202540Y-80876926D01*
X152341369Y-81037956D01*
X152473605Y-81256371D01*
X152598867Y-81530972D01*
X152716774Y-81860560D01*
X152826942Y-82243937D01*
X152928991Y-82679905D01*
X153022540Y-83167266D01*
X153107206Y-83704820D01*
X153182608Y-84291371D01*
X153194286Y-84412464D01*
X153207908Y-84610236D01*
X153219817Y-84845657D01*
X153229809Y-85107887D01*
X153237683Y-85386081D01*
X153243236Y-85669398D01*
X153245558Y-85882234D01*
X153246265Y-85946995D01*
X153246569Y-86208029D01*
X153243946Y-86441659D01*
X153238192Y-86637041D01*
X153229106Y-86783333D01*
X153222669Y-86856869D01*
X153214255Y-86968004D01*
X153210057Y-87046558D01*
X153210912Y-87078958D01*
X153226085Y-87074689D01*
X153276892Y-87044755D01*
X153349522Y-86994877D01*
X153505186Y-86893808D01*
X153686236Y-86811784D01*
X153845705Y-86783993D01*
X153989481Y-86802683D01*
X154103265Y-86864889D01*
X154189438Y-86975225D01*
X154253283Y-87138282D01*
X154263718Y-87172606D01*
X154288315Y-87237818D01*
X154305952Y-87263696D01*
X154324203Y-87259045D01*
X154384188Y-87238038D01*
X154467684Y-87205837D01*
X154570367Y-87169293D01*
X154828908Y-87106043D01*
X155125803Y-87066934D01*
X155450843Y-87053546D01*
X155758080Y-87065438D01*
X156196337Y-87127751D01*
X156609390Y-87243586D01*
X156997975Y-87413115D01*
X157215949Y-87526810D01*
X157536745Y-87246429D01*
X157984296Y-86876973D01*
X158470972Y-86516315D01*
X158977715Y-86178239D01*
X159492632Y-85870257D01*
X160003831Y-85599884D01*
X160499420Y-85374632D01*
X160565168Y-85347807D01*
X160929993Y-85211655D01*
X161304456Y-85091777D01*
X161681760Y-84989247D01*
X162055107Y-84905139D01*
X162417702Y-84840531D01*
X162762748Y-84796495D01*
X163083448Y-84774108D01*
X163373006Y-84774444D01*
X163624625Y-84798579D01*
X163831509Y-84847587D01*
X163938874Y-84892809D01*
X164080260Y-84983529D01*
X164188862Y-85092944D01*
X164252521Y-85210570D01*
X164271251Y-85316464D01*
X164265453Y-85400335D01*
G37*
G36*
X153733086Y-94697488D02*
G01*
X153715199Y-94722799D01*
X153705339Y-94772856D01*
X153695627Y-94822163D01*
X153685470Y-94903591D01*
X153654661Y-95106911D01*
X153616801Y-95313920D01*
X153575166Y-95508768D01*
X153533035Y-95675606D01*
X153526106Y-95697260D01*
X153493686Y-95798585D01*
X153407017Y-95988888D01*
X153296012Y-96170061D01*
X153173221Y-96319917D01*
X153046252Y-96429257D01*
X152922714Y-96488880D01*
X152873285Y-96499130D01*
X152762538Y-96495936D01*
X152660463Y-96449875D01*
X152562260Y-96356908D01*
X152463128Y-96212998D01*
X152358267Y-96014107D01*
X152316331Y-95917143D01*
X152252562Y-95741759D01*
X152237149Y-95693022D01*
X152388670Y-95693022D01*
X152416537Y-95784443D01*
X152474897Y-95917185D01*
X152494867Y-95959059D01*
X152560452Y-96082876D01*
X152626422Y-96190809D01*
X152681121Y-96263298D01*
X152748247Y-96326401D01*
X152812260Y-96354649D01*
X152883689Y-96341307D01*
X152980706Y-96287863D01*
X153021054Y-96259202D01*
X153137840Y-96142638D01*
X153246389Y-95987908D01*
X153334934Y-95810853D01*
X153356443Y-95756735D01*
X153374088Y-95697260D01*
X153368766Y-95661218D01*
X153341141Y-95629097D01*
X153253883Y-95568530D01*
X153108478Y-95516022D01*
X152937106Y-95491806D01*
X152754232Y-95497648D01*
X152574324Y-95535319D01*
X152517412Y-95553829D01*
X152436169Y-95588999D01*
X152394235Y-95631635D01*
X152388670Y-95693022D01*
X152237149Y-95693022D01*
X152186609Y-95533211D01*
X152122907Y-95306633D01*
X152065891Y-95077158D01*
X152019998Y-94859922D01*
X151987141Y-94698429D01*
X151976865Y-94658800D01*
X152194286Y-94658800D01*
X152200373Y-94689418D01*
X152230000Y-94749379D01*
X152245730Y-94770777D01*
X152270477Y-94782900D01*
X152285904Y-94762116D01*
X153310580Y-94762116D01*
X153315718Y-94785721D01*
X153334665Y-94844011D01*
X153347853Y-94876578D01*
X153363853Y-94883401D01*
X153389799Y-94838479D01*
X153391121Y-94835878D01*
X153418426Y-94772856D01*
X153411118Y-94745529D01*
X153365715Y-94739598D01*
X153332772Y-94743851D01*
X153310580Y-94762116D01*
X152285904Y-94762116D01*
X152299381Y-94743959D01*
X152318106Y-94697488D01*
X152300810Y-94653380D01*
X152259651Y-94625564D01*
X152214253Y-94624694D01*
X152194286Y-94658800D01*
X151976865Y-94658800D01*
X151956791Y-94581387D01*
X151927363Y-94506350D01*
X151896043Y-94464339D01*
X151864784Y-94435894D01*
X151855203Y-94411614D01*
X151888158Y-94392935D01*
X151917404Y-94389639D01*
X151997111Y-94406441D01*
X152102444Y-94447982D01*
X152118566Y-94455409D01*
X152270041Y-94517380D01*
X152421854Y-94562833D01*
X152585249Y-94593358D01*
X152771471Y-94610545D01*
X152991762Y-94615983D01*
X153257368Y-94611262D01*
X153304332Y-94609798D01*
X153483511Y-94605029D01*
X153614251Y-94603523D01*
X153703626Y-94605619D01*
X153758708Y-94611652D01*
X153786570Y-94621961D01*
X153794286Y-94636884D01*
X153789946Y-94655910D01*
X153753180Y-94679551D01*
X153744642Y-94681136D01*
X153733086Y-94697488D01*
G37*
G36*
X155849551Y-93444546D02*
G01*
X155857420Y-93479935D01*
X155879504Y-93783728D01*
X155880000Y-94013791D01*
X155710095Y-94195126D01*
X155664221Y-94242662D01*
X155502253Y-94383995D01*
X155336953Y-94481952D01*
X155151429Y-94547176D01*
X155037206Y-94570254D01*
X154793956Y-94578190D01*
X154554963Y-94534297D01*
X154329177Y-94442764D01*
X154125547Y-94307781D01*
X153953023Y-94133536D01*
X153820556Y-93924218D01*
X153795082Y-93867300D01*
X153774215Y-93795555D01*
X153769697Y-93716730D01*
X153781049Y-93613863D01*
X153807796Y-93469992D01*
X153814655Y-93439233D01*
X154282669Y-93439233D01*
X154301853Y-93588143D01*
X154347287Y-93703992D01*
X154418561Y-93776425D01*
X154420577Y-93777550D01*
X154532078Y-93811060D01*
X154637681Y-93784844D01*
X154737388Y-93698902D01*
X154748104Y-93686053D01*
X154787427Y-93635244D01*
X154810696Y-93588778D01*
X154821278Y-93530573D01*
X154822540Y-93444546D01*
X154817850Y-93314616D01*
X154816897Y-93292582D01*
X154807943Y-93156517D01*
X154792773Y-93058322D01*
X154767116Y-92978442D01*
X154726699Y-92897323D01*
X154692586Y-92840770D01*
X154641916Y-92771380D01*
X154604413Y-92737194D01*
X154581915Y-92731836D01*
X154510008Y-92750515D01*
X154439286Y-92811560D01*
X154384072Y-92904121D01*
X154324684Y-93083662D01*
X154290143Y-93267621D01*
X154282669Y-93439233D01*
X153814655Y-93439233D01*
X153822658Y-93403345D01*
X153904073Y-93156464D01*
X154018166Y-92935042D01*
X154159171Y-92743190D01*
X154321319Y-92585023D01*
X154498845Y-92464651D01*
X154685982Y-92386188D01*
X154876962Y-92353746D01*
X155066020Y-92371438D01*
X155247387Y-92443376D01*
X155394069Y-92547118D01*
X155559773Y-92724430D01*
X155694361Y-92943516D01*
X155794641Y-93197608D01*
X155849551Y-93444546D01*
G37*
G36*
X152684620Y-93874508D02*
G01*
X152708572Y-93915971D01*
X152689845Y-93946065D01*
X152622858Y-93958983D01*
X152604549Y-93957926D01*
X152549926Y-93935524D01*
X152534281Y-93895639D01*
X152565970Y-93853734D01*
X152575474Y-93848922D01*
X152631092Y-93848159D01*
X152684620Y-93874508D01*
G37*
G36*
X152177570Y-92901614D02*
G01*
X152185330Y-93035008D01*
X152203045Y-93417061D01*
X152123265Y-93538035D01*
X152072738Y-93604801D01*
X151933406Y-93729270D01*
X151772456Y-93808994D01*
X151734509Y-93817908D01*
X151640796Y-93830330D01*
X151535610Y-93836308D01*
X151418632Y-93828749D01*
X151246553Y-93774168D01*
X151096546Y-93665568D01*
X150965472Y-93501105D01*
X150923959Y-93435054D01*
X150881678Y-93358201D01*
X150861830Y-93293104D01*
X150858596Y-93216584D01*
X150866157Y-93105462D01*
X150886070Y-92912992D01*
X151524491Y-92912992D01*
X151538395Y-93056111D01*
X151575950Y-93171881D01*
X151634278Y-93245462D01*
X151666535Y-93259770D01*
X151745142Y-93265607D01*
X151814607Y-93244410D01*
X151815907Y-93243511D01*
X151856945Y-93189773D01*
X151896125Y-93099778D01*
X151925382Y-92996175D01*
X151936654Y-92901614D01*
X151936360Y-92887158D01*
X151925867Y-92784541D01*
X151903184Y-92665257D01*
X151872150Y-92541910D01*
X151836604Y-92427103D01*
X151800382Y-92333442D01*
X151767323Y-92273529D01*
X151741266Y-92259970D01*
X151729013Y-92271783D01*
X151690653Y-92333686D01*
X151645460Y-92429300D01*
X151600376Y-92541843D01*
X151562342Y-92654537D01*
X151538301Y-92750600D01*
X151537117Y-92757362D01*
X151524491Y-92912992D01*
X150886070Y-92912992D01*
X150889871Y-92876253D01*
X150941007Y-92580804D01*
X151012657Y-92333810D01*
X151106433Y-92130137D01*
X151223945Y-91964649D01*
X151273156Y-91913294D01*
X151411261Y-91814096D01*
X151552028Y-91772265D01*
X151690021Y-91786532D01*
X151819806Y-91855632D01*
X151935945Y-91978296D01*
X152033005Y-92153259D01*
X152048770Y-92191218D01*
X152094229Y-92319177D01*
X152128334Y-92454335D01*
X152153366Y-92609893D01*
X152171604Y-92799050D01*
X152177570Y-92901614D01*
G37*
%TD*%
M02*
