M48
; DRILL file {KiCad 7.0.1} date Thu May  4 02:21:36 2023
; FORMAT={-:-/ absolute / inch / decimal}
; #@! TF.CreationDate,2023-05-04T02:21:36+01:00
; #@! TF.GenerationSoftware,Kicad,Pcbnew,7.0.1
; #@! TF.FileFunction,Plated,1,2,PTH
FMAT,2
INCH
; #@! TA.AperFunction,Plated,PTH,ViaDrill
T1C0.0157
; #@! TA.AperFunction,Plated,PTH,ComponentDrill
T2C0.0315
; #@! TA.AperFunction,Plated,PTH,ComponentDrill
T3C0.0394
%
G90
G05
T1
X5.85Y-3.275
X5.925Y-3.325
X6.225Y-3.925
X6.4Y-4.375
X6.45Y-3.775
X6.45Y-4.425
X6.475Y-3.875
X6.5Y-3.675
T2
X6.025Y-3.125
X6.025Y-3.225
X6.025Y-3.325
X6.025Y-3.425
X6.025Y-3.525
X6.025Y-3.625
X6.025Y-3.725
X6.025Y-3.825
X6.025Y-3.925
X6.025Y-4.025
X6.025Y-4.125
X6.025Y-4.225
X6.025Y-4.325
X6.025Y-4.425
X6.325Y-3.125
X6.325Y-3.225
X6.325Y-3.325
X6.325Y-3.425
X6.325Y-3.525
X6.325Y-3.625
X6.325Y-3.725
X6.325Y-3.825
X6.325Y-3.925
X6.325Y-4.025
X6.325Y-4.125
X6.325Y-4.225
X6.325Y-4.325
X6.325Y-4.425
T3
X6.6Y-3.575
X6.6Y-3.675
X6.6Y-3.775
X6.6Y-3.875
X6.6Y-3.975
X6.6Y-4.075
T0
M30
