%TF.GenerationSoftware,KiCad,Pcbnew,7.0.1*%
%TF.CreationDate,2023-05-04T02:21:34+01:00*%
%TF.ProjectId,wiikey_dip,7769696b-6579-45f6-9469-702e6b696361,rev?*%
%TF.SameCoordinates,Original*%
%TF.FileFunction,Legend,Top*%
%TF.FilePolarity,Positive*%
%FSLAX46Y46*%
G04 Gerber Fmt 4.6, Leading zero omitted, Abs format (unit mm)*
G04 Created by KiCad (PCBNEW 7.0.1) date 2023-05-04 02:21:34*
%MOMM*%
%LPD*%
G01*
G04 APERTURE LIST*
%ADD10C,0.100000*%
%ADD11C,0.187500*%
%ADD12C,0.125000*%
%ADD13C,0.150000*%
%ADD14C,0.120000*%
G04 APERTURE END LIST*
D10*
X144970476Y-77372095D02*
X144970476Y-76838761D01*
X144970476Y-76914952D02*
X145008571Y-76876857D01*
X145008571Y-76876857D02*
X145084761Y-76838761D01*
X145084761Y-76838761D02*
X145199047Y-76838761D01*
X145199047Y-76838761D02*
X145275238Y-76876857D01*
X145275238Y-76876857D02*
X145313333Y-76953047D01*
X145313333Y-76953047D02*
X145313333Y-77372095D01*
X145313333Y-76953047D02*
X145351428Y-76876857D01*
X145351428Y-76876857D02*
X145427619Y-76838761D01*
X145427619Y-76838761D02*
X145541904Y-76838761D01*
X145541904Y-76838761D02*
X145618095Y-76876857D01*
X145618095Y-76876857D02*
X145656190Y-76953047D01*
X145656190Y-76953047D02*
X145656190Y-77372095D01*
X146380000Y-76838761D02*
X146380000Y-77372095D01*
X146189524Y-76534000D02*
X145999047Y-77105428D01*
X145999047Y-77105428D02*
X146494286Y-77105428D01*
X146722857Y-77372095D02*
X147141905Y-76838761D01*
X146722857Y-76838761D02*
X147141905Y-77372095D01*
X147865714Y-77372095D02*
X147408571Y-77372095D01*
X147637143Y-77372095D02*
X147637143Y-76572095D01*
X147637143Y-76572095D02*
X147560952Y-76686380D01*
X147560952Y-76686380D02*
X147484762Y-76762571D01*
X147484762Y-76762571D02*
X147408571Y-76800666D01*
X148208572Y-77372095D02*
X148208572Y-76838761D01*
X148208572Y-76914952D02*
X148246667Y-76876857D01*
X148246667Y-76876857D02*
X148322857Y-76838761D01*
X148322857Y-76838761D02*
X148437143Y-76838761D01*
X148437143Y-76838761D02*
X148513334Y-76876857D01*
X148513334Y-76876857D02*
X148551429Y-76953047D01*
X148551429Y-76953047D02*
X148551429Y-77372095D01*
X148551429Y-76953047D02*
X148589524Y-76876857D01*
X148589524Y-76876857D02*
X148665715Y-76838761D01*
X148665715Y-76838761D02*
X148780000Y-76838761D01*
X148780000Y-76838761D02*
X148856191Y-76876857D01*
X148856191Y-76876857D02*
X148894286Y-76953047D01*
X148894286Y-76953047D02*
X148894286Y-77372095D01*
X149618096Y-76838761D02*
X149618096Y-77372095D01*
X149275239Y-76838761D02*
X149275239Y-77257809D01*
X149275239Y-77257809D02*
X149313334Y-77334000D01*
X149313334Y-77334000D02*
X149389524Y-77372095D01*
X149389524Y-77372095D02*
X149503810Y-77372095D01*
X149503810Y-77372095D02*
X149580001Y-77334000D01*
X149580001Y-77334000D02*
X149618096Y-77295904D01*
X149999049Y-77372095D02*
X149999049Y-76838761D01*
X149999049Y-76914952D02*
X150037144Y-76876857D01*
X150037144Y-76876857D02*
X150113334Y-76838761D01*
X150113334Y-76838761D02*
X150227620Y-76838761D01*
X150227620Y-76838761D02*
X150303811Y-76876857D01*
X150303811Y-76876857D02*
X150341906Y-76953047D01*
X150341906Y-76953047D02*
X150341906Y-77372095D01*
X150341906Y-76953047D02*
X150380001Y-76876857D01*
X150380001Y-76876857D02*
X150456192Y-76838761D01*
X150456192Y-76838761D02*
X150570477Y-76838761D01*
X150570477Y-76838761D02*
X150646668Y-76876857D01*
X150646668Y-76876857D02*
X150684763Y-76953047D01*
X150684763Y-76953047D02*
X150684763Y-77372095D01*
X151065716Y-77372095D02*
X151065716Y-76838761D01*
X151065716Y-76991142D02*
X151103811Y-76914952D01*
X151103811Y-76914952D02*
X151141906Y-76876857D01*
X151141906Y-76876857D02*
X151218097Y-76838761D01*
X151218097Y-76838761D02*
X151294287Y-76838761D01*
X151865716Y-77334000D02*
X151789525Y-77372095D01*
X151789525Y-77372095D02*
X151637144Y-77372095D01*
X151637144Y-77372095D02*
X151560954Y-77334000D01*
X151560954Y-77334000D02*
X151522858Y-77257809D01*
X151522858Y-77257809D02*
X151522858Y-76953047D01*
X151522858Y-76953047D02*
X151560954Y-76876857D01*
X151560954Y-76876857D02*
X151637144Y-76838761D01*
X151637144Y-76838761D02*
X151789525Y-76838761D01*
X151789525Y-76838761D02*
X151865716Y-76876857D01*
X151865716Y-76876857D02*
X151903811Y-76953047D01*
X151903811Y-76953047D02*
X151903811Y-77029238D01*
X151903811Y-77029238D02*
X151522858Y-77105428D01*
X152170477Y-76838761D02*
X152589525Y-76838761D01*
X152589525Y-76838761D02*
X152170477Y-77372095D01*
X152170477Y-77372095D02*
X152589525Y-77372095D01*
X153008572Y-76914952D02*
X152932382Y-76876857D01*
X152932382Y-76876857D02*
X152894287Y-76838761D01*
X152894287Y-76838761D02*
X152856191Y-76762571D01*
X152856191Y-76762571D02*
X152856191Y-76724476D01*
X152856191Y-76724476D02*
X152894287Y-76648285D01*
X152894287Y-76648285D02*
X152932382Y-76610190D01*
X152932382Y-76610190D02*
X153008572Y-76572095D01*
X153008572Y-76572095D02*
X153160953Y-76572095D01*
X153160953Y-76572095D02*
X153237144Y-76610190D01*
X153237144Y-76610190D02*
X153275239Y-76648285D01*
X153275239Y-76648285D02*
X153313334Y-76724476D01*
X153313334Y-76724476D02*
X153313334Y-76762571D01*
X153313334Y-76762571D02*
X153275239Y-76838761D01*
X153275239Y-76838761D02*
X153237144Y-76876857D01*
X153237144Y-76876857D02*
X153160953Y-76914952D01*
X153160953Y-76914952D02*
X153008572Y-76914952D01*
X153008572Y-76914952D02*
X152932382Y-76953047D01*
X152932382Y-76953047D02*
X152894287Y-76991142D01*
X152894287Y-76991142D02*
X152856191Y-77067333D01*
X152856191Y-77067333D02*
X152856191Y-77219714D01*
X152856191Y-77219714D02*
X152894287Y-77295904D01*
X152894287Y-77295904D02*
X152932382Y-77334000D01*
X152932382Y-77334000D02*
X153008572Y-77372095D01*
X153008572Y-77372095D02*
X153160953Y-77372095D01*
X153160953Y-77372095D02*
X153237144Y-77334000D01*
X153237144Y-77334000D02*
X153275239Y-77295904D01*
X153275239Y-77295904D02*
X153313334Y-77219714D01*
X153313334Y-77219714D02*
X153313334Y-77067333D01*
X153313334Y-77067333D02*
X153275239Y-76991142D01*
X153275239Y-76991142D02*
X153237144Y-76953047D01*
X153237144Y-76953047D02*
X153160953Y-76914952D01*
X153580001Y-76572095D02*
X154113335Y-76572095D01*
X154113335Y-76572095D02*
X153770477Y-77372095D01*
X154418097Y-77295904D02*
X154456192Y-77334000D01*
X154456192Y-77334000D02*
X154418097Y-77372095D01*
X154418097Y-77372095D02*
X154380001Y-77334000D01*
X154380001Y-77334000D02*
X154418097Y-77295904D01*
X154418097Y-77295904D02*
X154418097Y-77372095D01*
X154799049Y-76838761D02*
X154799049Y-77372095D01*
X154799049Y-76914952D02*
X154837144Y-76876857D01*
X154837144Y-76876857D02*
X154913334Y-76838761D01*
X154913334Y-76838761D02*
X155027620Y-76838761D01*
X155027620Y-76838761D02*
X155103811Y-76876857D01*
X155103811Y-76876857D02*
X155141906Y-76953047D01*
X155141906Y-76953047D02*
X155141906Y-77372095D01*
X155827621Y-77334000D02*
X155751430Y-77372095D01*
X155751430Y-77372095D02*
X155599049Y-77372095D01*
X155599049Y-77372095D02*
X155522859Y-77334000D01*
X155522859Y-77334000D02*
X155484763Y-77257809D01*
X155484763Y-77257809D02*
X155484763Y-76953047D01*
X155484763Y-76953047D02*
X155522859Y-76876857D01*
X155522859Y-76876857D02*
X155599049Y-76838761D01*
X155599049Y-76838761D02*
X155751430Y-76838761D01*
X155751430Y-76838761D02*
X155827621Y-76876857D01*
X155827621Y-76876857D02*
X155865716Y-76953047D01*
X155865716Y-76953047D02*
X155865716Y-77029238D01*
X155865716Y-77029238D02*
X155484763Y-77105428D01*
X156322858Y-77372095D02*
X156246668Y-77334000D01*
X156246668Y-77334000D02*
X156208573Y-77295904D01*
X156208573Y-77295904D02*
X156170477Y-77219714D01*
X156170477Y-77219714D02*
X156170477Y-76991142D01*
X156170477Y-76991142D02*
X156208573Y-76914952D01*
X156208573Y-76914952D02*
X156246668Y-76876857D01*
X156246668Y-76876857D02*
X156322858Y-76838761D01*
X156322858Y-76838761D02*
X156437144Y-76838761D01*
X156437144Y-76838761D02*
X156513335Y-76876857D01*
X156513335Y-76876857D02*
X156551430Y-76914952D01*
X156551430Y-76914952D02*
X156589525Y-76991142D01*
X156589525Y-76991142D02*
X156589525Y-77219714D01*
X156589525Y-77219714D02*
X156551430Y-77295904D01*
X156551430Y-77295904D02*
X156513335Y-77334000D01*
X156513335Y-77334000D02*
X156437144Y-77372095D01*
X156437144Y-77372095D02*
X156322858Y-77372095D01*
X157275240Y-77334000D02*
X157199049Y-77372095D01*
X157199049Y-77372095D02*
X157046668Y-77372095D01*
X157046668Y-77372095D02*
X156970478Y-77334000D01*
X156970478Y-77334000D02*
X156932383Y-77295904D01*
X156932383Y-77295904D02*
X156894287Y-77219714D01*
X156894287Y-77219714D02*
X156894287Y-76991142D01*
X156894287Y-76991142D02*
X156932383Y-76914952D01*
X156932383Y-76914952D02*
X156970478Y-76876857D01*
X156970478Y-76876857D02*
X157046668Y-76838761D01*
X157046668Y-76838761D02*
X157199049Y-76838761D01*
X157199049Y-76838761D02*
X157275240Y-76876857D01*
X157618097Y-77372095D02*
X157618097Y-76838761D01*
X157618097Y-76572095D02*
X157580001Y-76610190D01*
X157580001Y-76610190D02*
X157618097Y-76648285D01*
X157618097Y-76648285D02*
X157656192Y-76610190D01*
X157656192Y-76610190D02*
X157618097Y-76572095D01*
X157618097Y-76572095D02*
X157618097Y-76648285D01*
X157884763Y-76838761D02*
X158189525Y-76838761D01*
X157999049Y-76572095D02*
X157999049Y-77257809D01*
X157999049Y-77257809D02*
X158037144Y-77334000D01*
X158037144Y-77334000D02*
X158113334Y-77372095D01*
X158113334Y-77372095D02*
X158189525Y-77372095D01*
X158456192Y-77372095D02*
X158456192Y-76838761D01*
X158456192Y-76572095D02*
X158418096Y-76610190D01*
X158418096Y-76610190D02*
X158456192Y-76648285D01*
X158456192Y-76648285D02*
X158494287Y-76610190D01*
X158494287Y-76610190D02*
X158456192Y-76572095D01*
X158456192Y-76572095D02*
X158456192Y-76648285D01*
X159141906Y-77334000D02*
X159065715Y-77372095D01*
X159065715Y-77372095D02*
X158913334Y-77372095D01*
X158913334Y-77372095D02*
X158837144Y-77334000D01*
X158837144Y-77334000D02*
X158799048Y-77257809D01*
X158799048Y-77257809D02*
X158799048Y-76953047D01*
X158799048Y-76953047D02*
X158837144Y-76876857D01*
X158837144Y-76876857D02*
X158913334Y-76838761D01*
X158913334Y-76838761D02*
X159065715Y-76838761D01*
X159065715Y-76838761D02*
X159141906Y-76876857D01*
X159141906Y-76876857D02*
X159180001Y-76953047D01*
X159180001Y-76953047D02*
X159180001Y-77029238D01*
X159180001Y-77029238D02*
X158799048Y-77105428D01*
X159484762Y-77334000D02*
X159560953Y-77372095D01*
X159560953Y-77372095D02*
X159713334Y-77372095D01*
X159713334Y-77372095D02*
X159789524Y-77334000D01*
X159789524Y-77334000D02*
X159827620Y-77257809D01*
X159827620Y-77257809D02*
X159827620Y-77219714D01*
X159827620Y-77219714D02*
X159789524Y-77143523D01*
X159789524Y-77143523D02*
X159713334Y-77105428D01*
X159713334Y-77105428D02*
X159599048Y-77105428D01*
X159599048Y-77105428D02*
X159522858Y-77067333D01*
X159522858Y-77067333D02*
X159484762Y-76991142D01*
X159484762Y-76991142D02*
X159484762Y-76953047D01*
X159484762Y-76953047D02*
X159522858Y-76876857D01*
X159522858Y-76876857D02*
X159599048Y-76838761D01*
X159599048Y-76838761D02*
X159713334Y-76838761D01*
X159713334Y-76838761D02*
X159789524Y-76876857D01*
X160170477Y-77295904D02*
X160208572Y-77334000D01*
X160208572Y-77334000D02*
X160170477Y-77372095D01*
X160170477Y-77372095D02*
X160132381Y-77334000D01*
X160132381Y-77334000D02*
X160170477Y-77295904D01*
X160170477Y-77295904D02*
X160170477Y-77372095D01*
X160665714Y-77372095D02*
X160589524Y-77334000D01*
X160589524Y-77334000D02*
X160551429Y-77295904D01*
X160551429Y-77295904D02*
X160513333Y-77219714D01*
X160513333Y-77219714D02*
X160513333Y-76991142D01*
X160513333Y-76991142D02*
X160551429Y-76914952D01*
X160551429Y-76914952D02*
X160589524Y-76876857D01*
X160589524Y-76876857D02*
X160665714Y-76838761D01*
X160665714Y-76838761D02*
X160780000Y-76838761D01*
X160780000Y-76838761D02*
X160856191Y-76876857D01*
X160856191Y-76876857D02*
X160894286Y-76914952D01*
X160894286Y-76914952D02*
X160932381Y-76991142D01*
X160932381Y-76991142D02*
X160932381Y-77219714D01*
X160932381Y-77219714D02*
X160894286Y-77295904D01*
X160894286Y-77295904D02*
X160856191Y-77334000D01*
X160856191Y-77334000D02*
X160780000Y-77372095D01*
X160780000Y-77372095D02*
X160665714Y-77372095D01*
X161275239Y-77372095D02*
X161275239Y-76838761D01*
X161275239Y-76991142D02*
X161313334Y-76914952D01*
X161313334Y-76914952D02*
X161351429Y-76876857D01*
X161351429Y-76876857D02*
X161427620Y-76838761D01*
X161427620Y-76838761D02*
X161503810Y-76838761D01*
X162113334Y-76838761D02*
X162113334Y-77486380D01*
X162113334Y-77486380D02*
X162075239Y-77562571D01*
X162075239Y-77562571D02*
X162037143Y-77600666D01*
X162037143Y-77600666D02*
X161960953Y-77638761D01*
X161960953Y-77638761D02*
X161846667Y-77638761D01*
X161846667Y-77638761D02*
X161770477Y-77600666D01*
X162113334Y-77334000D02*
X162037143Y-77372095D01*
X162037143Y-77372095D02*
X161884762Y-77372095D01*
X161884762Y-77372095D02*
X161808572Y-77334000D01*
X161808572Y-77334000D02*
X161770477Y-77295904D01*
X161770477Y-77295904D02*
X161732381Y-77219714D01*
X161732381Y-77219714D02*
X161732381Y-76991142D01*
X161732381Y-76991142D02*
X161770477Y-76914952D01*
X161770477Y-76914952D02*
X161808572Y-76876857D01*
X161808572Y-76876857D02*
X161884762Y-76838761D01*
X161884762Y-76838761D02*
X162037143Y-76838761D01*
X162037143Y-76838761D02*
X162113334Y-76876857D01*
D11*
X145510238Y-112542619D02*
X145843571Y-113542619D01*
X145843571Y-113542619D02*
X146176904Y-112542619D01*
X146462619Y-112637857D02*
X146510238Y-112590238D01*
X146510238Y-112590238D02*
X146605476Y-112542619D01*
X146605476Y-112542619D02*
X146843571Y-112542619D01*
X146843571Y-112542619D02*
X146938809Y-112590238D01*
X146938809Y-112590238D02*
X146986428Y-112637857D01*
X146986428Y-112637857D02*
X147034047Y-112733095D01*
X147034047Y-112733095D02*
X147034047Y-112828333D01*
X147034047Y-112828333D02*
X146986428Y-112971190D01*
X146986428Y-112971190D02*
X146415000Y-113542619D01*
X146415000Y-113542619D02*
X147034047Y-113542619D01*
X147462619Y-113447380D02*
X147510238Y-113495000D01*
X147510238Y-113495000D02*
X147462619Y-113542619D01*
X147462619Y-113542619D02*
X147415000Y-113495000D01*
X147415000Y-113495000D02*
X147462619Y-113447380D01*
X147462619Y-113447380D02*
X147462619Y-113542619D01*
X148129285Y-112542619D02*
X148224523Y-112542619D01*
X148224523Y-112542619D02*
X148319761Y-112590238D01*
X148319761Y-112590238D02*
X148367380Y-112637857D01*
X148367380Y-112637857D02*
X148414999Y-112733095D01*
X148414999Y-112733095D02*
X148462618Y-112923571D01*
X148462618Y-112923571D02*
X148462618Y-113161666D01*
X148462618Y-113161666D02*
X148414999Y-113352142D01*
X148414999Y-113352142D02*
X148367380Y-113447380D01*
X148367380Y-113447380D02*
X148319761Y-113495000D01*
X148319761Y-113495000D02*
X148224523Y-113542619D01*
X148224523Y-113542619D02*
X148129285Y-113542619D01*
X148129285Y-113542619D02*
X148034047Y-113495000D01*
X148034047Y-113495000D02*
X147986428Y-113447380D01*
X147986428Y-113447380D02*
X147938809Y-113352142D01*
X147938809Y-113352142D02*
X147891190Y-113161666D01*
X147891190Y-113161666D02*
X147891190Y-112923571D01*
X147891190Y-112923571D02*
X147938809Y-112733095D01*
X147938809Y-112733095D02*
X147986428Y-112637857D01*
X147986428Y-112637857D02*
X148034047Y-112590238D01*
X148034047Y-112590238D02*
X148129285Y-112542619D01*
D10*
X169067904Y-105600476D02*
X169867904Y-105600476D01*
X169867904Y-105600476D02*
X169867904Y-105905238D01*
X169867904Y-105905238D02*
X169829809Y-105981428D01*
X169829809Y-105981428D02*
X169791714Y-106019523D01*
X169791714Y-106019523D02*
X169715523Y-106057619D01*
X169715523Y-106057619D02*
X169601238Y-106057619D01*
X169601238Y-106057619D02*
X169525047Y-106019523D01*
X169525047Y-106019523D02*
X169486952Y-105981428D01*
X169486952Y-105981428D02*
X169448857Y-105905238D01*
X169448857Y-105905238D02*
X169448857Y-105600476D01*
X169067904Y-106400476D02*
X169601238Y-106400476D01*
X169448857Y-106400476D02*
X169525047Y-106438571D01*
X169525047Y-106438571D02*
X169563142Y-106476666D01*
X169563142Y-106476666D02*
X169601238Y-106552857D01*
X169601238Y-106552857D02*
X169601238Y-106629047D01*
X169067904Y-107009999D02*
X169106000Y-106933809D01*
X169106000Y-106933809D02*
X169144095Y-106895714D01*
X169144095Y-106895714D02*
X169220285Y-106857618D01*
X169220285Y-106857618D02*
X169448857Y-106857618D01*
X169448857Y-106857618D02*
X169525047Y-106895714D01*
X169525047Y-106895714D02*
X169563142Y-106933809D01*
X169563142Y-106933809D02*
X169601238Y-107009999D01*
X169601238Y-107009999D02*
X169601238Y-107124285D01*
X169601238Y-107124285D02*
X169563142Y-107200476D01*
X169563142Y-107200476D02*
X169525047Y-107238571D01*
X169525047Y-107238571D02*
X169448857Y-107276666D01*
X169448857Y-107276666D02*
X169220285Y-107276666D01*
X169220285Y-107276666D02*
X169144095Y-107238571D01*
X169144095Y-107238571D02*
X169106000Y-107200476D01*
X169106000Y-107200476D02*
X169067904Y-107124285D01*
X169067904Y-107124285D02*
X169067904Y-107009999D01*
X169601238Y-107505238D02*
X169601238Y-107810000D01*
X169867904Y-107619524D02*
X169182190Y-107619524D01*
X169182190Y-107619524D02*
X169106000Y-107657619D01*
X169106000Y-107657619D02*
X169067904Y-107733809D01*
X169067904Y-107733809D02*
X169067904Y-107810000D01*
X169067904Y-108190952D02*
X169106000Y-108114762D01*
X169106000Y-108114762D02*
X169144095Y-108076667D01*
X169144095Y-108076667D02*
X169220285Y-108038571D01*
X169220285Y-108038571D02*
X169448857Y-108038571D01*
X169448857Y-108038571D02*
X169525047Y-108076667D01*
X169525047Y-108076667D02*
X169563142Y-108114762D01*
X169563142Y-108114762D02*
X169601238Y-108190952D01*
X169601238Y-108190952D02*
X169601238Y-108305238D01*
X169601238Y-108305238D02*
X169563142Y-108381429D01*
X169563142Y-108381429D02*
X169525047Y-108419524D01*
X169525047Y-108419524D02*
X169448857Y-108457619D01*
X169448857Y-108457619D02*
X169220285Y-108457619D01*
X169220285Y-108457619D02*
X169144095Y-108419524D01*
X169144095Y-108419524D02*
X169106000Y-108381429D01*
X169106000Y-108381429D02*
X169067904Y-108305238D01*
X169067904Y-108305238D02*
X169067904Y-108190952D01*
X169601238Y-108686191D02*
X169601238Y-108990953D01*
X169867904Y-108800477D02*
X169182190Y-108800477D01*
X169182190Y-108800477D02*
X169106000Y-108838572D01*
X169106000Y-108838572D02*
X169067904Y-108914762D01*
X169067904Y-108914762D02*
X169067904Y-108990953D01*
X169601238Y-109181429D02*
X169067904Y-109371905D01*
X169601238Y-109562382D02*
X169067904Y-109371905D01*
X169067904Y-109371905D02*
X168877428Y-109295715D01*
X168877428Y-109295715D02*
X168839333Y-109257620D01*
X168839333Y-109257620D02*
X168801238Y-109181429D01*
X169601238Y-109867144D02*
X168801238Y-109867144D01*
X169563142Y-109867144D02*
X169601238Y-109943334D01*
X169601238Y-109943334D02*
X169601238Y-110095715D01*
X169601238Y-110095715D02*
X169563142Y-110171906D01*
X169563142Y-110171906D02*
X169525047Y-110210001D01*
X169525047Y-110210001D02*
X169448857Y-110248096D01*
X169448857Y-110248096D02*
X169220285Y-110248096D01*
X169220285Y-110248096D02*
X169144095Y-110210001D01*
X169144095Y-110210001D02*
X169106000Y-110171906D01*
X169106000Y-110171906D02*
X169067904Y-110095715D01*
X169067904Y-110095715D02*
X169067904Y-109943334D01*
X169067904Y-109943334D02*
X169106000Y-109867144D01*
X169067904Y-110590954D02*
X169601238Y-110590954D01*
X169867904Y-110590954D02*
X169829809Y-110552858D01*
X169829809Y-110552858D02*
X169791714Y-110590954D01*
X169791714Y-110590954D02*
X169829809Y-110629049D01*
X169829809Y-110629049D02*
X169867904Y-110590954D01*
X169867904Y-110590954D02*
X169791714Y-110590954D01*
X169601238Y-110971906D02*
X169067904Y-110971906D01*
X169525047Y-110971906D02*
X169563142Y-111010001D01*
X169563142Y-111010001D02*
X169601238Y-111086191D01*
X169601238Y-111086191D02*
X169601238Y-111200477D01*
X169601238Y-111200477D02*
X169563142Y-111276668D01*
X169563142Y-111276668D02*
X169486952Y-111314763D01*
X169486952Y-111314763D02*
X169067904Y-111314763D01*
X169601238Y-112038573D02*
X168953619Y-112038573D01*
X168953619Y-112038573D02*
X168877428Y-112000478D01*
X168877428Y-112000478D02*
X168839333Y-111962382D01*
X168839333Y-111962382D02*
X168801238Y-111886192D01*
X168801238Y-111886192D02*
X168801238Y-111771906D01*
X168801238Y-111771906D02*
X168839333Y-111695716D01*
X169106000Y-112038573D02*
X169067904Y-111962382D01*
X169067904Y-111962382D02*
X169067904Y-111810001D01*
X169067904Y-111810001D02*
X169106000Y-111733811D01*
X169106000Y-111733811D02*
X169144095Y-111695716D01*
X169144095Y-111695716D02*
X169220285Y-111657620D01*
X169220285Y-111657620D02*
X169448857Y-111657620D01*
X169448857Y-111657620D02*
X169525047Y-111695716D01*
X169525047Y-111695716D02*
X169563142Y-111733811D01*
X169563142Y-111733811D02*
X169601238Y-111810001D01*
X169601238Y-111810001D02*
X169601238Y-111962382D01*
X169601238Y-111962382D02*
X169563142Y-112038573D01*
X169486952Y-113295716D02*
X169448857Y-113410002D01*
X169448857Y-113410002D02*
X169410761Y-113448097D01*
X169410761Y-113448097D02*
X169334571Y-113486193D01*
X169334571Y-113486193D02*
X169220285Y-113486193D01*
X169220285Y-113486193D02*
X169144095Y-113448097D01*
X169144095Y-113448097D02*
X169106000Y-113410002D01*
X169106000Y-113410002D02*
X169067904Y-113333812D01*
X169067904Y-113333812D02*
X169067904Y-113029050D01*
X169067904Y-113029050D02*
X169867904Y-113029050D01*
X169867904Y-113029050D02*
X169867904Y-113295716D01*
X169867904Y-113295716D02*
X169829809Y-113371907D01*
X169829809Y-113371907D02*
X169791714Y-113410002D01*
X169791714Y-113410002D02*
X169715523Y-113448097D01*
X169715523Y-113448097D02*
X169639333Y-113448097D01*
X169639333Y-113448097D02*
X169563142Y-113410002D01*
X169563142Y-113410002D02*
X169525047Y-113371907D01*
X169525047Y-113371907D02*
X169486952Y-113295716D01*
X169486952Y-113295716D02*
X169486952Y-113029050D01*
X169067904Y-113943335D02*
X169106000Y-113867145D01*
X169106000Y-113867145D02*
X169144095Y-113829050D01*
X169144095Y-113829050D02*
X169220285Y-113790954D01*
X169220285Y-113790954D02*
X169448857Y-113790954D01*
X169448857Y-113790954D02*
X169525047Y-113829050D01*
X169525047Y-113829050D02*
X169563142Y-113867145D01*
X169563142Y-113867145D02*
X169601238Y-113943335D01*
X169601238Y-113943335D02*
X169601238Y-114057621D01*
X169601238Y-114057621D02*
X169563142Y-114133812D01*
X169563142Y-114133812D02*
X169525047Y-114171907D01*
X169525047Y-114171907D02*
X169448857Y-114210002D01*
X169448857Y-114210002D02*
X169220285Y-114210002D01*
X169220285Y-114210002D02*
X169144095Y-114171907D01*
X169144095Y-114171907D02*
X169106000Y-114133812D01*
X169106000Y-114133812D02*
X169067904Y-114057621D01*
X169067904Y-114057621D02*
X169067904Y-113943335D01*
X169067904Y-114895717D02*
X169486952Y-114895717D01*
X169486952Y-114895717D02*
X169563142Y-114857622D01*
X169563142Y-114857622D02*
X169601238Y-114781431D01*
X169601238Y-114781431D02*
X169601238Y-114629050D01*
X169601238Y-114629050D02*
X169563142Y-114552860D01*
X169106000Y-114895717D02*
X169067904Y-114819526D01*
X169067904Y-114819526D02*
X169067904Y-114629050D01*
X169067904Y-114629050D02*
X169106000Y-114552860D01*
X169106000Y-114552860D02*
X169182190Y-114514764D01*
X169182190Y-114514764D02*
X169258380Y-114514764D01*
X169258380Y-114514764D02*
X169334571Y-114552860D01*
X169334571Y-114552860D02*
X169372666Y-114629050D01*
X169372666Y-114629050D02*
X169372666Y-114819526D01*
X169372666Y-114819526D02*
X169410761Y-114895717D01*
X169067904Y-115276670D02*
X169601238Y-115276670D01*
X169448857Y-115276670D02*
X169525047Y-115314765D01*
X169525047Y-115314765D02*
X169563142Y-115352860D01*
X169563142Y-115352860D02*
X169601238Y-115429051D01*
X169601238Y-115429051D02*
X169601238Y-115505241D01*
X169067904Y-116114765D02*
X169867904Y-116114765D01*
X169106000Y-116114765D02*
X169067904Y-116038574D01*
X169067904Y-116038574D02*
X169067904Y-115886193D01*
X169067904Y-115886193D02*
X169106000Y-115810003D01*
X169106000Y-115810003D02*
X169144095Y-115771908D01*
X169144095Y-115771908D02*
X169220285Y-115733812D01*
X169220285Y-115733812D02*
X169448857Y-115733812D01*
X169448857Y-115733812D02*
X169525047Y-115771908D01*
X169525047Y-115771908D02*
X169563142Y-115810003D01*
X169563142Y-115810003D02*
X169601238Y-115886193D01*
X169601238Y-115886193D02*
X169601238Y-116038574D01*
X169601238Y-116038574D02*
X169563142Y-116114765D01*
D12*
X145605476Y-115472095D02*
X145605476Y-114672095D01*
X145605476Y-114976857D02*
X145681666Y-114938761D01*
X145681666Y-114938761D02*
X145834047Y-114938761D01*
X145834047Y-114938761D02*
X145910238Y-114976857D01*
X145910238Y-114976857D02*
X145948333Y-115014952D01*
X145948333Y-115014952D02*
X145986428Y-115091142D01*
X145986428Y-115091142D02*
X145986428Y-115319714D01*
X145986428Y-115319714D02*
X145948333Y-115395904D01*
X145948333Y-115395904D02*
X145910238Y-115434000D01*
X145910238Y-115434000D02*
X145834047Y-115472095D01*
X145834047Y-115472095D02*
X145681666Y-115472095D01*
X145681666Y-115472095D02*
X145605476Y-115434000D01*
X146253095Y-114938761D02*
X146443571Y-115472095D01*
X146634048Y-114938761D02*
X146443571Y-115472095D01*
X146443571Y-115472095D02*
X146367381Y-115662571D01*
X146367381Y-115662571D02*
X146329286Y-115700666D01*
X146329286Y-115700666D02*
X146253095Y-115738761D01*
X147548334Y-115472095D02*
X147548334Y-114672095D01*
X147548334Y-114672095D02*
X147815000Y-115243523D01*
X147815000Y-115243523D02*
X148081667Y-114672095D01*
X148081667Y-114672095D02*
X148081667Y-115472095D01*
X148805477Y-114938761D02*
X148805477Y-115472095D01*
X148615001Y-114634000D02*
X148424524Y-115205428D01*
X148424524Y-115205428D02*
X148919763Y-115205428D01*
X149148334Y-115472095D02*
X149567382Y-114938761D01*
X149148334Y-114938761D02*
X149567382Y-115472095D01*
X150291191Y-115472095D02*
X149834048Y-115472095D01*
X150062620Y-115472095D02*
X150062620Y-114672095D01*
X150062620Y-114672095D02*
X149986429Y-114786380D01*
X149986429Y-114786380D02*
X149910239Y-114862571D01*
X149910239Y-114862571D02*
X149834048Y-114900666D01*
X150634049Y-115472095D02*
X150634049Y-114938761D01*
X150634049Y-115014952D02*
X150672144Y-114976857D01*
X150672144Y-114976857D02*
X150748334Y-114938761D01*
X150748334Y-114938761D02*
X150862620Y-114938761D01*
X150862620Y-114938761D02*
X150938811Y-114976857D01*
X150938811Y-114976857D02*
X150976906Y-115053047D01*
X150976906Y-115053047D02*
X150976906Y-115472095D01*
X150976906Y-115053047D02*
X151015001Y-114976857D01*
X151015001Y-114976857D02*
X151091192Y-114938761D01*
X151091192Y-114938761D02*
X151205477Y-114938761D01*
X151205477Y-114938761D02*
X151281668Y-114976857D01*
X151281668Y-114976857D02*
X151319763Y-115053047D01*
X151319763Y-115053047D02*
X151319763Y-115472095D01*
X152043573Y-114938761D02*
X152043573Y-115472095D01*
X151700716Y-114938761D02*
X151700716Y-115357809D01*
X151700716Y-115357809D02*
X151738811Y-115434000D01*
X151738811Y-115434000D02*
X151815001Y-115472095D01*
X151815001Y-115472095D02*
X151929287Y-115472095D01*
X151929287Y-115472095D02*
X152005478Y-115434000D01*
X152005478Y-115434000D02*
X152043573Y-115395904D01*
X152424526Y-115472095D02*
X152424526Y-114938761D01*
X152424526Y-115014952D02*
X152462621Y-114976857D01*
X152462621Y-114976857D02*
X152538811Y-114938761D01*
X152538811Y-114938761D02*
X152653097Y-114938761D01*
X152653097Y-114938761D02*
X152729288Y-114976857D01*
X152729288Y-114976857D02*
X152767383Y-115053047D01*
X152767383Y-115053047D02*
X152767383Y-115472095D01*
X152767383Y-115053047D02*
X152805478Y-114976857D01*
X152805478Y-114976857D02*
X152881669Y-114938761D01*
X152881669Y-114938761D02*
X152995954Y-114938761D01*
X152995954Y-114938761D02*
X153072145Y-114976857D01*
X153072145Y-114976857D02*
X153110240Y-115053047D01*
X153110240Y-115053047D02*
X153110240Y-115472095D01*
X153948336Y-115472095D02*
X153681669Y-115091142D01*
X153491193Y-115472095D02*
X153491193Y-114672095D01*
X153491193Y-114672095D02*
X153795955Y-114672095D01*
X153795955Y-114672095D02*
X153872145Y-114710190D01*
X153872145Y-114710190D02*
X153910240Y-114748285D01*
X153910240Y-114748285D02*
X153948336Y-114824476D01*
X153948336Y-114824476D02*
X153948336Y-114938761D01*
X153948336Y-114938761D02*
X153910240Y-115014952D01*
X153910240Y-115014952D02*
X153872145Y-115053047D01*
X153872145Y-115053047D02*
X153795955Y-115091142D01*
X153795955Y-115091142D02*
X153491193Y-115091142D01*
X154595955Y-115434000D02*
X154519764Y-115472095D01*
X154519764Y-115472095D02*
X154367383Y-115472095D01*
X154367383Y-115472095D02*
X154291193Y-115434000D01*
X154291193Y-115434000D02*
X154253097Y-115357809D01*
X154253097Y-115357809D02*
X154253097Y-115053047D01*
X154253097Y-115053047D02*
X154291193Y-114976857D01*
X154291193Y-114976857D02*
X154367383Y-114938761D01*
X154367383Y-114938761D02*
X154519764Y-114938761D01*
X154519764Y-114938761D02*
X154595955Y-114976857D01*
X154595955Y-114976857D02*
X154634050Y-115053047D01*
X154634050Y-115053047D02*
X154634050Y-115129238D01*
X154634050Y-115129238D02*
X154253097Y-115205428D01*
X154900716Y-114672095D02*
X155434050Y-114672095D01*
X155434050Y-114672095D02*
X154900716Y-115472095D01*
X154900716Y-115472095D02*
X155434050Y-115472095D01*
D13*
X164703095Y-104017619D02*
X164703095Y-103017619D01*
X164703095Y-103017619D02*
X164941190Y-103017619D01*
X164941190Y-103017619D02*
X165084047Y-103065238D01*
X165084047Y-103065238D02*
X165179285Y-103160476D01*
X165179285Y-103160476D02*
X165226904Y-103255714D01*
X165226904Y-103255714D02*
X165274523Y-103446190D01*
X165274523Y-103446190D02*
X165274523Y-103589047D01*
X165274523Y-103589047D02*
X165226904Y-103779523D01*
X165226904Y-103779523D02*
X165179285Y-103874761D01*
X165179285Y-103874761D02*
X165084047Y-103970000D01*
X165084047Y-103970000D02*
X164941190Y-104017619D01*
X164941190Y-104017619D02*
X164703095Y-104017619D01*
X165274523Y-101382380D02*
X165226904Y-101430000D01*
X165226904Y-101430000D02*
X165084047Y-101477619D01*
X165084047Y-101477619D02*
X164988809Y-101477619D01*
X164988809Y-101477619D02*
X164845952Y-101430000D01*
X164845952Y-101430000D02*
X164750714Y-101334761D01*
X164750714Y-101334761D02*
X164703095Y-101239523D01*
X164703095Y-101239523D02*
X164655476Y-101049047D01*
X164655476Y-101049047D02*
X164655476Y-100906190D01*
X164655476Y-100906190D02*
X164703095Y-100715714D01*
X164703095Y-100715714D02*
X164750714Y-100620476D01*
X164750714Y-100620476D02*
X164845952Y-100525238D01*
X164845952Y-100525238D02*
X164988809Y-100477619D01*
X164988809Y-100477619D02*
X165084047Y-100477619D01*
X165084047Y-100477619D02*
X165226904Y-100525238D01*
X165226904Y-100525238D02*
X165274523Y-100572857D01*
X165036428Y-98413809D02*
X165179285Y-98461428D01*
X165179285Y-98461428D02*
X165226904Y-98509047D01*
X165226904Y-98509047D02*
X165274523Y-98604285D01*
X165274523Y-98604285D02*
X165274523Y-98747142D01*
X165274523Y-98747142D02*
X165226904Y-98842380D01*
X165226904Y-98842380D02*
X165179285Y-98890000D01*
X165179285Y-98890000D02*
X165084047Y-98937619D01*
X165084047Y-98937619D02*
X164703095Y-98937619D01*
X164703095Y-98937619D02*
X164703095Y-97937619D01*
X164703095Y-97937619D02*
X165036428Y-97937619D01*
X165036428Y-97937619D02*
X165131666Y-97985238D01*
X165131666Y-97985238D02*
X165179285Y-98032857D01*
X165179285Y-98032857D02*
X165226904Y-98128095D01*
X165226904Y-98128095D02*
X165226904Y-98223333D01*
X165226904Y-98223333D02*
X165179285Y-98318571D01*
X165179285Y-98318571D02*
X165131666Y-98366190D01*
X165131666Y-98366190D02*
X165036428Y-98413809D01*
X165036428Y-98413809D02*
X164703095Y-98413809D01*
X164655476Y-96111904D02*
X165131666Y-96111904D01*
X164560238Y-96397619D02*
X164893571Y-95397619D01*
X164893571Y-95397619D02*
X165226904Y-96397619D01*
X163321904Y-92905238D02*
X163226666Y-92857619D01*
X163226666Y-92857619D02*
X163083809Y-92857619D01*
X163083809Y-92857619D02*
X162940952Y-92905238D01*
X162940952Y-92905238D02*
X162845714Y-93000476D01*
X162845714Y-93000476D02*
X162798095Y-93095714D01*
X162798095Y-93095714D02*
X162750476Y-93286190D01*
X162750476Y-93286190D02*
X162750476Y-93429047D01*
X162750476Y-93429047D02*
X162798095Y-93619523D01*
X162798095Y-93619523D02*
X162845714Y-93714761D01*
X162845714Y-93714761D02*
X162940952Y-93810000D01*
X162940952Y-93810000D02*
X163083809Y-93857619D01*
X163083809Y-93857619D02*
X163179047Y-93857619D01*
X163179047Y-93857619D02*
X163321904Y-93810000D01*
X163321904Y-93810000D02*
X163369523Y-93762380D01*
X163369523Y-93762380D02*
X163369523Y-93429047D01*
X163369523Y-93429047D02*
X163179047Y-93429047D01*
X163798095Y-93857619D02*
X163798095Y-92857619D01*
X163798095Y-92857619D02*
X164369523Y-93857619D01*
X164369523Y-93857619D02*
X164369523Y-92857619D01*
X164845714Y-93857619D02*
X164845714Y-92857619D01*
X164845714Y-92857619D02*
X165083809Y-92857619D01*
X165083809Y-92857619D02*
X165226666Y-92905238D01*
X165226666Y-92905238D02*
X165321904Y-93000476D01*
X165321904Y-93000476D02*
X165369523Y-93095714D01*
X165369523Y-93095714D02*
X165417142Y-93286190D01*
X165417142Y-93286190D02*
X165417142Y-93429047D01*
X165417142Y-93429047D02*
X165369523Y-93619523D01*
X165369523Y-93619523D02*
X165321904Y-93714761D01*
X165321904Y-93714761D02*
X165226666Y-93810000D01*
X165226666Y-93810000D02*
X165083809Y-93857619D01*
X165083809Y-93857619D02*
X164845714Y-93857619D01*
X162655238Y-90317619D02*
X162988571Y-91317619D01*
X162988571Y-91317619D02*
X163321904Y-90317619D01*
X164226666Y-91222380D02*
X164179047Y-91270000D01*
X164179047Y-91270000D02*
X164036190Y-91317619D01*
X164036190Y-91317619D02*
X163940952Y-91317619D01*
X163940952Y-91317619D02*
X163798095Y-91270000D01*
X163798095Y-91270000D02*
X163702857Y-91174761D01*
X163702857Y-91174761D02*
X163655238Y-91079523D01*
X163655238Y-91079523D02*
X163607619Y-90889047D01*
X163607619Y-90889047D02*
X163607619Y-90746190D01*
X163607619Y-90746190D02*
X163655238Y-90555714D01*
X163655238Y-90555714D02*
X163702857Y-90460476D01*
X163702857Y-90460476D02*
X163798095Y-90365238D01*
X163798095Y-90365238D02*
X163940952Y-90317619D01*
X163940952Y-90317619D02*
X164036190Y-90317619D01*
X164036190Y-90317619D02*
X164179047Y-90365238D01*
X164179047Y-90365238D02*
X164226666Y-90412857D01*
X165226666Y-91222380D02*
X165179047Y-91270000D01*
X165179047Y-91270000D02*
X165036190Y-91317619D01*
X165036190Y-91317619D02*
X164940952Y-91317619D01*
X164940952Y-91317619D02*
X164798095Y-91270000D01*
X164798095Y-91270000D02*
X164702857Y-91174761D01*
X164702857Y-91174761D02*
X164655238Y-91079523D01*
X164655238Y-91079523D02*
X164607619Y-90889047D01*
X164607619Y-90889047D02*
X164607619Y-90746190D01*
X164607619Y-90746190D02*
X164655238Y-90555714D01*
X164655238Y-90555714D02*
X164702857Y-90460476D01*
X164702857Y-90460476D02*
X164798095Y-90365238D01*
X164798095Y-90365238D02*
X164940952Y-90317619D01*
X164940952Y-90317619D02*
X165036190Y-90317619D01*
X165036190Y-90317619D02*
X165179047Y-90365238D01*
X165179047Y-90365238D02*
X165226666Y-90412857D01*
%TO.C,U1*%
X157021904Y-99408809D02*
X157021904Y-98932619D01*
X157307619Y-99504047D02*
X156307619Y-99170714D01*
X156307619Y-99170714D02*
X157307619Y-98837381D01*
X156307619Y-98646904D02*
X156307619Y-98075476D01*
X157307619Y-98361190D02*
X156307619Y-98361190D01*
X157307619Y-97742142D02*
X156640952Y-97742142D01*
X156736190Y-97742142D02*
X156688571Y-97694523D01*
X156688571Y-97694523D02*
X156640952Y-97599285D01*
X156640952Y-97599285D02*
X156640952Y-97456428D01*
X156640952Y-97456428D02*
X156688571Y-97361190D01*
X156688571Y-97361190D02*
X156783809Y-97313571D01*
X156783809Y-97313571D02*
X157307619Y-97313571D01*
X156783809Y-97313571D02*
X156688571Y-97265952D01*
X156688571Y-97265952D02*
X156640952Y-97170714D01*
X156640952Y-97170714D02*
X156640952Y-97027857D01*
X156640952Y-97027857D02*
X156688571Y-96932618D01*
X156688571Y-96932618D02*
X156783809Y-96884999D01*
X156783809Y-96884999D02*
X157307619Y-96884999D01*
X157260000Y-96027857D02*
X157307619Y-96123095D01*
X157307619Y-96123095D02*
X157307619Y-96313571D01*
X157307619Y-96313571D02*
X157260000Y-96408809D01*
X157260000Y-96408809D02*
X157164761Y-96456428D01*
X157164761Y-96456428D02*
X156783809Y-96456428D01*
X156783809Y-96456428D02*
X156688571Y-96408809D01*
X156688571Y-96408809D02*
X156640952Y-96313571D01*
X156640952Y-96313571D02*
X156640952Y-96123095D01*
X156640952Y-96123095D02*
X156688571Y-96027857D01*
X156688571Y-96027857D02*
X156783809Y-95980238D01*
X156783809Y-95980238D02*
X156879047Y-95980238D01*
X156879047Y-95980238D02*
X156974285Y-96456428D01*
X156640952Y-95123095D02*
X157450476Y-95123095D01*
X157450476Y-95123095D02*
X157545714Y-95170714D01*
X157545714Y-95170714D02*
X157593333Y-95218333D01*
X157593333Y-95218333D02*
X157640952Y-95313571D01*
X157640952Y-95313571D02*
X157640952Y-95456428D01*
X157640952Y-95456428D02*
X157593333Y-95551666D01*
X157260000Y-95123095D02*
X157307619Y-95218333D01*
X157307619Y-95218333D02*
X157307619Y-95408809D01*
X157307619Y-95408809D02*
X157260000Y-95504047D01*
X157260000Y-95504047D02*
X157212380Y-95551666D01*
X157212380Y-95551666D02*
X157117142Y-95599285D01*
X157117142Y-95599285D02*
X156831428Y-95599285D01*
X156831428Y-95599285D02*
X156736190Y-95551666D01*
X156736190Y-95551666D02*
X156688571Y-95504047D01*
X156688571Y-95504047D02*
X156640952Y-95408809D01*
X156640952Y-95408809D02*
X156640952Y-95218333D01*
X156640952Y-95218333D02*
X156688571Y-95123095D01*
X157307619Y-94218333D02*
X156783809Y-94218333D01*
X156783809Y-94218333D02*
X156688571Y-94265952D01*
X156688571Y-94265952D02*
X156640952Y-94361190D01*
X156640952Y-94361190D02*
X156640952Y-94551666D01*
X156640952Y-94551666D02*
X156688571Y-94646904D01*
X157260000Y-94218333D02*
X157307619Y-94313571D01*
X157307619Y-94313571D02*
X157307619Y-94551666D01*
X157307619Y-94551666D02*
X157260000Y-94646904D01*
X157260000Y-94646904D02*
X157164761Y-94694523D01*
X157164761Y-94694523D02*
X157069523Y-94694523D01*
X157069523Y-94694523D02*
X156974285Y-94646904D01*
X156974285Y-94646904D02*
X156926666Y-94551666D01*
X156926666Y-94551666D02*
X156926666Y-94313571D01*
X156926666Y-94313571D02*
X156879047Y-94218333D01*
X156736190Y-93599285D02*
X156688571Y-93694523D01*
X156688571Y-93694523D02*
X156640952Y-93742142D01*
X156640952Y-93742142D02*
X156545714Y-93789761D01*
X156545714Y-93789761D02*
X156498095Y-93789761D01*
X156498095Y-93789761D02*
X156402857Y-93742142D01*
X156402857Y-93742142D02*
X156355238Y-93694523D01*
X156355238Y-93694523D02*
X156307619Y-93599285D01*
X156307619Y-93599285D02*
X156307619Y-93408809D01*
X156307619Y-93408809D02*
X156355238Y-93313571D01*
X156355238Y-93313571D02*
X156402857Y-93265952D01*
X156402857Y-93265952D02*
X156498095Y-93218333D01*
X156498095Y-93218333D02*
X156545714Y-93218333D01*
X156545714Y-93218333D02*
X156640952Y-93265952D01*
X156640952Y-93265952D02*
X156688571Y-93313571D01*
X156688571Y-93313571D02*
X156736190Y-93408809D01*
X156736190Y-93408809D02*
X156736190Y-93599285D01*
X156736190Y-93599285D02*
X156783809Y-93694523D01*
X156783809Y-93694523D02*
X156831428Y-93742142D01*
X156831428Y-93742142D02*
X156926666Y-93789761D01*
X156926666Y-93789761D02*
X157117142Y-93789761D01*
X157117142Y-93789761D02*
X157212380Y-93742142D01*
X157212380Y-93742142D02*
X157260000Y-93694523D01*
X157260000Y-93694523D02*
X157307619Y-93599285D01*
X157307619Y-93599285D02*
X157307619Y-93408809D01*
X157307619Y-93408809D02*
X157260000Y-93313571D01*
X157260000Y-93313571D02*
X157212380Y-93265952D01*
X157212380Y-93265952D02*
X157117142Y-93218333D01*
X157117142Y-93218333D02*
X156926666Y-93218333D01*
X156926666Y-93218333D02*
X156831428Y-93265952D01*
X156831428Y-93265952D02*
X156783809Y-93313571D01*
X156783809Y-93313571D02*
X156736190Y-93408809D01*
X157021904Y-92837380D02*
X157021904Y-92361190D01*
X157307619Y-92932618D02*
X156307619Y-92599285D01*
X156307619Y-92599285D02*
X157307619Y-92265952D01*
%TO.C,R1*%
X147622619Y-81256666D02*
X147146428Y-81589999D01*
X147622619Y-81828094D02*
X146622619Y-81828094D01*
X146622619Y-81828094D02*
X146622619Y-81447142D01*
X146622619Y-81447142D02*
X146670238Y-81351904D01*
X146670238Y-81351904D02*
X146717857Y-81304285D01*
X146717857Y-81304285D02*
X146813095Y-81256666D01*
X146813095Y-81256666D02*
X146955952Y-81256666D01*
X146955952Y-81256666D02*
X147051190Y-81304285D01*
X147051190Y-81304285D02*
X147098809Y-81351904D01*
X147098809Y-81351904D02*
X147146428Y-81447142D01*
X147146428Y-81447142D02*
X147146428Y-81828094D01*
X147622619Y-80304285D02*
X147622619Y-80875713D01*
X147622619Y-80589999D02*
X146622619Y-80589999D01*
X146622619Y-80589999D02*
X146765476Y-80685237D01*
X146765476Y-80685237D02*
X146860714Y-80780475D01*
X146860714Y-80780475D02*
X146908333Y-80875713D01*
%TO.C,C1*%
X147527380Y-85751666D02*
X147575000Y-85799285D01*
X147575000Y-85799285D02*
X147622619Y-85942142D01*
X147622619Y-85942142D02*
X147622619Y-86037380D01*
X147622619Y-86037380D02*
X147575000Y-86180237D01*
X147575000Y-86180237D02*
X147479761Y-86275475D01*
X147479761Y-86275475D02*
X147384523Y-86323094D01*
X147384523Y-86323094D02*
X147194047Y-86370713D01*
X147194047Y-86370713D02*
X147051190Y-86370713D01*
X147051190Y-86370713D02*
X146860714Y-86323094D01*
X146860714Y-86323094D02*
X146765476Y-86275475D01*
X146765476Y-86275475D02*
X146670238Y-86180237D01*
X146670238Y-86180237D02*
X146622619Y-86037380D01*
X146622619Y-86037380D02*
X146622619Y-85942142D01*
X146622619Y-85942142D02*
X146670238Y-85799285D01*
X146670238Y-85799285D02*
X146717857Y-85751666D01*
X147622619Y-84799285D02*
X147622619Y-85370713D01*
X147622619Y-85084999D02*
X146622619Y-85084999D01*
X146622619Y-85084999D02*
X146765476Y-85180237D01*
X146765476Y-85180237D02*
X146860714Y-85275475D01*
X146860714Y-85275475D02*
X146908333Y-85370713D01*
%TO.C,G\u002A\u002A\u002A*%
G36*
X167694028Y-76964011D02*
G01*
X167952331Y-76984848D01*
X168236232Y-77050564D01*
X168514740Y-77157560D01*
X168782056Y-77304269D01*
X168913866Y-77395103D01*
X169127951Y-77579557D01*
X169310151Y-77792915D01*
X169462512Y-78038358D01*
X169587078Y-78319066D01*
X169666323Y-78564766D01*
X169704721Y-78761955D01*
X169720407Y-78984174D01*
X169713569Y-79214810D01*
X169684392Y-79437254D01*
X169655098Y-79564016D01*
X169566061Y-79833765D01*
X169456262Y-80069759D01*
X169319315Y-80283540D01*
X169148834Y-80486647D01*
X169138340Y-80497756D01*
X169063519Y-80568752D01*
X168967733Y-80648518D01*
X168860832Y-80730036D01*
X168752667Y-80806288D01*
X168653091Y-80870257D01*
X168571954Y-80914923D01*
X168529611Y-80931415D01*
X168471619Y-80945970D01*
X168471175Y-82018558D01*
X168470910Y-82271516D01*
X168470330Y-82561046D01*
X168469474Y-82876199D01*
X168468381Y-83206026D01*
X168467089Y-83539579D01*
X168465635Y-83865909D01*
X168464059Y-84174068D01*
X168462970Y-84362333D01*
X168461259Y-84641130D01*
X168459803Y-84877281D01*
X168458588Y-85075664D01*
X168457598Y-85241153D01*
X168456821Y-85378626D01*
X168456240Y-85492956D01*
X168455844Y-85589021D01*
X168455616Y-85671696D01*
X168455543Y-85745856D01*
X168455611Y-85816377D01*
X168455805Y-85888135D01*
X168456112Y-85966006D01*
X168456516Y-86054866D01*
X168457004Y-86159589D01*
X168457439Y-86256594D01*
X168458043Y-86428111D01*
X168457784Y-86558538D01*
X168456089Y-86654306D01*
X168452386Y-86721845D01*
X168446103Y-86767586D01*
X168436668Y-86797958D01*
X168423509Y-86819392D01*
X168406052Y-86838319D01*
X168405644Y-86838727D01*
X168390312Y-86853203D01*
X168372968Y-86864879D01*
X168348618Y-86874104D01*
X168312267Y-86881227D01*
X168258923Y-86886599D01*
X168183591Y-86890569D01*
X168081276Y-86893486D01*
X167946986Y-86895701D01*
X167775726Y-86897563D01*
X167562501Y-86899422D01*
X167535681Y-86899647D01*
X167315709Y-86901345D01*
X167137789Y-86902222D01*
X166996453Y-86902041D01*
X166886236Y-86900562D01*
X166801672Y-86897550D01*
X166737294Y-86892764D01*
X166687636Y-86885968D01*
X166647232Y-86876923D01*
X166610615Y-86865391D01*
X166591833Y-86858548D01*
X166435015Y-86779683D01*
X166313550Y-86671804D01*
X166221819Y-86529996D01*
X166154967Y-86393858D01*
X166154967Y-85758820D01*
X166154967Y-85123782D01*
X166219257Y-85059477D01*
X166268464Y-85019956D01*
X166327562Y-84997512D01*
X166414288Y-84985762D01*
X166426712Y-84984816D01*
X166569878Y-84974460D01*
X166628317Y-84852541D01*
X166675171Y-84760919D01*
X166717399Y-84697504D01*
X166767297Y-84646097D01*
X166813662Y-84608361D01*
X166878343Y-84558498D01*
X166780474Y-84545371D01*
X166704751Y-84524751D01*
X166641927Y-84490468D01*
X166632631Y-84482273D01*
X166621281Y-84470049D01*
X166611805Y-84455337D01*
X166604047Y-84434057D01*
X166597850Y-84402129D01*
X166593054Y-84355475D01*
X166589504Y-84290015D01*
X166587042Y-84201668D01*
X166585510Y-84086356D01*
X166584751Y-83939998D01*
X166584607Y-83758516D01*
X166584921Y-83537829D01*
X166585536Y-83273859D01*
X166585564Y-83262752D01*
X166586149Y-83030097D01*
X166586716Y-82810933D01*
X166587249Y-82610043D01*
X166587737Y-82432209D01*
X166588165Y-82282216D01*
X166588519Y-82164845D01*
X166588788Y-82084880D01*
X166588957Y-82047104D01*
X166588969Y-82045682D01*
X166588689Y-82009358D01*
X166587637Y-81932665D01*
X166585927Y-81822744D01*
X166583673Y-81686740D01*
X166580988Y-81531796D01*
X166578917Y-81416029D01*
X166568366Y-80833896D01*
X166447714Y-80751616D01*
X166210476Y-80561533D01*
X166006618Y-80338407D01*
X165837695Y-80084487D01*
X165705265Y-79802022D01*
X165630083Y-79570025D01*
X165585409Y-79358567D01*
X165560997Y-79141658D01*
X165559028Y-79020732D01*
X165775780Y-79020732D01*
X165796682Y-79304979D01*
X165842042Y-79515187D01*
X165937305Y-79786975D01*
X166065176Y-80028581D01*
X166230144Y-80248129D01*
X166273491Y-80296023D01*
X166364823Y-80386743D01*
X166468045Y-80478194D01*
X166571567Y-80561006D01*
X166663798Y-80625811D01*
X166722025Y-80658559D01*
X166783834Y-80686721D01*
X166790168Y-81294920D01*
X166796502Y-81903119D01*
X166992526Y-81910020D01*
X167188550Y-81916921D01*
X167188550Y-82034763D01*
X167188550Y-82152605D01*
X166986586Y-82152605D01*
X166784621Y-82152605D01*
X166784621Y-82590194D01*
X166785681Y-82761207D01*
X166788999Y-82888081D01*
X166794781Y-82974154D01*
X166803235Y-83022765D01*
X166812319Y-83037017D01*
X166827745Y-83055305D01*
X166820718Y-83099938D01*
X166812319Y-83125704D01*
X166801860Y-83182573D01*
X166793809Y-83285352D01*
X166788233Y-83432489D01*
X166785199Y-83622432D01*
X166784621Y-83770905D01*
X166784621Y-84336651D01*
X166980646Y-84343552D01*
X167176670Y-84350453D01*
X167176670Y-84514386D01*
X167176670Y-84678318D01*
X167082335Y-84710978D01*
X166962844Y-84774597D01*
X166868370Y-84869084D01*
X166806452Y-84984378D01*
X166784621Y-85108441D01*
X166784621Y-85193952D01*
X166569271Y-85193952D01*
X166353920Y-85193952D01*
X166361366Y-85782025D01*
X166368812Y-86370098D01*
X166440094Y-86474967D01*
X166476523Y-86526919D01*
X166511574Y-86569201D01*
X166550398Y-86602859D01*
X166598147Y-86628936D01*
X166659974Y-86648479D01*
X166741031Y-86662533D01*
X166846470Y-86672142D01*
X166981443Y-86678353D01*
X167151103Y-86682209D01*
X167360601Y-86684757D01*
X167479617Y-86685847D01*
X168257774Y-86692710D01*
X168257774Y-86252792D01*
X168257774Y-85812874D01*
X167859785Y-85806360D01*
X167461796Y-85799845D01*
X167454614Y-85675102D01*
X167447433Y-85550360D01*
X167852603Y-85550360D01*
X168257774Y-85550360D01*
X168257774Y-85124650D01*
X168256800Y-84959592D01*
X168253690Y-84837772D01*
X168248165Y-84754943D01*
X168239942Y-84706857D01*
X168228976Y-84689342D01*
X168213155Y-84672608D01*
X168216131Y-84631564D01*
X168228976Y-84583623D01*
X168237959Y-84528972D01*
X168245344Y-84435603D01*
X168251122Y-84311478D01*
X168255281Y-84164555D01*
X168257813Y-84002796D01*
X168258707Y-83834160D01*
X168257954Y-83666610D01*
X168255542Y-83508103D01*
X168251464Y-83366602D01*
X168245707Y-83250067D01*
X168238263Y-83166457D01*
X168230799Y-83127780D01*
X168215965Y-83067685D01*
X168226127Y-83037073D01*
X168230241Y-83034075D01*
X168237290Y-83011790D01*
X168243552Y-82953016D01*
X168249082Y-82856045D01*
X168253935Y-82719169D01*
X168258165Y-82540677D01*
X168261829Y-82318861D01*
X168264980Y-82052013D01*
X168266260Y-81915255D01*
X168275862Y-80812760D01*
X168427201Y-80739671D01*
X168565040Y-80668967D01*
X168683524Y-80597635D01*
X168755121Y-80548956D01*
X168786553Y-80522304D01*
X168842028Y-80471140D01*
X168911887Y-80404456D01*
X168946685Y-80370565D01*
X169143158Y-80145959D01*
X169297998Y-79899184D01*
X169410132Y-79632837D01*
X169478487Y-79349515D01*
X169501988Y-79051813D01*
X169501905Y-79028096D01*
X169476516Y-78736939D01*
X169408000Y-78458985D01*
X169299481Y-78198197D01*
X169154082Y-77958537D01*
X168974929Y-77743968D01*
X168765143Y-77558453D01*
X168527851Y-77405955D01*
X168266175Y-77290436D01*
X168091301Y-77238696D01*
X167932736Y-77202702D01*
X167805045Y-77180897D01*
X167694028Y-77172417D01*
X167585485Y-77176399D01*
X167465217Y-77191978D01*
X167427502Y-77198302D01*
X167138529Y-77263262D01*
X166884581Y-77353335D01*
X166658314Y-77472109D01*
X166452387Y-77623172D01*
X166333183Y-77733147D01*
X166137023Y-77959870D01*
X165982131Y-78205883D01*
X165869578Y-78467292D01*
X165800437Y-78740206D01*
X165775780Y-79020732D01*
X165559028Y-79020732D01*
X165557612Y-78933774D01*
X165576020Y-78749389D01*
X165584416Y-78707329D01*
X165652779Y-78443826D01*
X165733022Y-78217411D01*
X165830381Y-78018120D01*
X165950093Y-77835985D01*
X166097395Y-77661041D01*
X166177407Y-77578704D01*
X166385314Y-77394261D01*
X166602162Y-77246698D01*
X166836472Y-77131839D01*
X167096767Y-77045505D01*
X167391532Y-76983525D01*
X167668832Y-76961979D01*
X167694028Y-76964011D01*
G37*
G36*
X167523033Y-77479196D02*
G01*
X167688109Y-77471313D01*
X167906137Y-77498048D01*
X168176961Y-77576294D01*
X168423359Y-77691335D01*
X168499496Y-77743111D01*
X168642082Y-77840074D01*
X168829884Y-78019417D01*
X168983519Y-78226269D01*
X169099738Y-78457533D01*
X169174716Y-78707329D01*
X169208179Y-78977691D01*
X169196815Y-79241409D01*
X169143254Y-79494314D01*
X169050125Y-79732237D01*
X168920060Y-79951009D01*
X168755686Y-80146460D01*
X168559635Y-80314421D01*
X168334535Y-80450724D01*
X168083018Y-80551199D01*
X167996408Y-80575347D01*
X167882911Y-80594433D01*
X167742577Y-80604149D01*
X167589300Y-80604930D01*
X167436975Y-80597214D01*
X167299498Y-80581438D01*
X167190764Y-80558039D01*
X167164790Y-80549200D01*
X166894702Y-80423385D01*
X166661960Y-80269763D01*
X166467388Y-80089004D01*
X166311809Y-79881780D01*
X166280338Y-79828136D01*
X166229174Y-79734123D01*
X166192553Y-79658191D01*
X166164998Y-79585219D01*
X166141034Y-79500086D01*
X166115185Y-79387669D01*
X166106782Y-79348863D01*
X166087188Y-79220379D01*
X166077313Y-79074388D01*
X166077931Y-78932722D01*
X166088238Y-78826131D01*
X166125688Y-78665745D01*
X166656123Y-78665745D01*
X166675517Y-78825914D01*
X166705982Y-78916451D01*
X166725628Y-78973561D01*
X166726504Y-79022268D01*
X166707914Y-79085413D01*
X166700200Y-79105983D01*
X166665875Y-79256405D01*
X166669047Y-79416063D01*
X166709300Y-79565541D01*
X166710094Y-79567398D01*
X166753454Y-79645568D01*
X166812452Y-79723401D01*
X166876912Y-79790123D01*
X166936660Y-79834959D01*
X166974904Y-79847834D01*
X167024150Y-79863678D01*
X167042386Y-79877535D01*
X167066542Y-79887916D01*
X167118482Y-79895824D01*
X167202446Y-79901480D01*
X167322676Y-79905105D01*
X167483410Y-79906921D01*
X167611451Y-79907235D01*
X168150851Y-79907235D01*
X168157438Y-79707772D01*
X168265663Y-79707772D01*
X168287926Y-79798803D01*
X168332256Y-79863121D01*
X168404339Y-79908367D01*
X168495532Y-79923606D01*
X168588387Y-79909189D01*
X168665452Y-79865467D01*
X168674718Y-79856245D01*
X168722829Y-79774158D01*
X168732136Y-79684446D01*
X168707507Y-79598143D01*
X168653806Y-79526281D01*
X168575901Y-79479890D01*
X168503667Y-79468456D01*
X168403945Y-79489215D01*
X168328091Y-79542803D01*
X168280524Y-79619047D01*
X168265663Y-79707772D01*
X168157438Y-79707772D01*
X168157717Y-79699331D01*
X168164582Y-79491426D01*
X167664686Y-79491426D01*
X167497496Y-79491166D01*
X167371257Y-79490006D01*
X167279402Y-79487375D01*
X167215361Y-79482703D01*
X167172567Y-79475421D01*
X167144451Y-79464957D01*
X167124445Y-79450742D01*
X167117269Y-79443905D01*
X167075141Y-79376305D01*
X167080393Y-79305051D01*
X167103435Y-79264302D01*
X167117575Y-79249023D01*
X167138916Y-79237372D01*
X167173741Y-79228734D01*
X167228329Y-79222496D01*
X167308964Y-79218045D01*
X167421925Y-79214767D01*
X167573495Y-79212049D01*
X167649927Y-79210930D01*
X168162732Y-79203681D01*
X168162732Y-79003026D01*
X168162732Y-78995244D01*
X168265244Y-78995244D01*
X168287356Y-79085853D01*
X168330368Y-79148295D01*
X168414234Y-79206815D01*
X168503667Y-79219058D01*
X168512583Y-79220279D01*
X168578987Y-79206153D01*
X168665355Y-79155355D01*
X168717257Y-79072808D01*
X168732984Y-78971643D01*
X168711530Y-78878997D01*
X168653204Y-78806940D01*
X168567066Y-78763862D01*
X168499496Y-78755378D01*
X168401515Y-78776080D01*
X168326817Y-78829919D01*
X168279895Y-78906453D01*
X168265244Y-78995244D01*
X168162732Y-78995244D01*
X168162732Y-78802371D01*
X167688639Y-78802371D01*
X167490343Y-78800801D01*
X167335743Y-78796132D01*
X167225988Y-78788424D01*
X167162225Y-78777735D01*
X167153458Y-78774537D01*
X167095517Y-78726111D01*
X167076380Y-78658365D01*
X167099074Y-78583254D01*
X167103317Y-78576473D01*
X167142125Y-78517245D01*
X167653353Y-78517245D01*
X168164582Y-78517245D01*
X168157717Y-78309340D01*
X168150851Y-78101435D01*
X167699402Y-78094020D01*
X167523033Y-78092795D01*
X167367659Y-78095004D01*
X167241008Y-78100391D01*
X167150807Y-78108700D01*
X167125476Y-78113037D01*
X166967298Y-78169039D01*
X166837912Y-78258747D01*
X166740681Y-78375726D01*
X166678964Y-78513537D01*
X166656123Y-78665745D01*
X166125688Y-78665745D01*
X166149421Y-78564102D01*
X166241628Y-78333211D01*
X166368821Y-78125536D01*
X166534271Y-77933842D01*
X166733332Y-77764970D01*
X166954925Y-77632159D01*
X167192370Y-77537531D01*
X167438991Y-77483209D01*
X167523033Y-77479196D01*
G37*
G36*
X168062616Y-85116255D02*
G01*
X168055809Y-85348395D01*
X167697029Y-85360275D01*
X167539704Y-85367008D01*
X167425142Y-85375624D01*
X167348603Y-85386659D01*
X167305348Y-85400650D01*
X167298316Y-85405366D01*
X167280932Y-85426447D01*
X167269904Y-85460825D01*
X167264284Y-85517300D01*
X167263126Y-85604670D01*
X167265048Y-85714253D01*
X167271712Y-85989929D01*
X167669701Y-85996444D01*
X168067690Y-86002959D01*
X168067690Y-86239989D01*
X168067690Y-86477020D01*
X167366754Y-86477020D01*
X167165460Y-86476883D01*
X167006286Y-86476242D01*
X166883828Y-86474754D01*
X166792686Y-86472077D01*
X166727457Y-86467867D01*
X166682741Y-86461782D01*
X166653134Y-86453478D01*
X166633236Y-86442613D01*
X166618298Y-86429499D01*
X166602598Y-86411123D01*
X166590788Y-86387333D01*
X166582317Y-86351653D01*
X166576635Y-86297607D01*
X166573193Y-86218720D01*
X166571441Y-86108515D01*
X166570828Y-85960517D01*
X166570777Y-85869941D01*
X166570777Y-85357904D01*
X166707400Y-85365030D01*
X166844023Y-85372156D01*
X166850783Y-85643955D01*
X166856912Y-85784234D01*
X166868017Y-85882383D01*
X166885343Y-85943647D01*
X166910135Y-85973271D01*
X166930094Y-85978049D01*
X166936531Y-85955495D01*
X166942161Y-85892653D01*
X166946656Y-85796753D01*
X166949689Y-85675027D01*
X166950932Y-85534705D01*
X166950945Y-85518233D01*
X166951204Y-85358768D01*
X166952478Y-85239423D01*
X166955511Y-85152798D01*
X166961048Y-85091493D01*
X166969833Y-85048108D01*
X166982611Y-85015242D01*
X167000127Y-84985495D01*
X167005332Y-84977681D01*
X167059718Y-84896945D01*
X167564570Y-84890530D01*
X168069422Y-84884115D01*
X168062616Y-85116255D01*
G37*
G36*
X168091450Y-81462624D02*
G01*
X168091450Y-81699305D01*
X167883546Y-81706170D01*
X167784018Y-81710027D01*
X167722729Y-81715526D01*
X167690413Y-81725621D01*
X167677806Y-81743265D01*
X167675641Y-81771411D01*
X167675641Y-81772436D01*
X167680533Y-81808400D01*
X167703201Y-81828728D01*
X167755631Y-81840827D01*
X167794444Y-81845833D01*
X167889840Y-81860091D01*
X167951500Y-81879872D01*
X167993192Y-81911984D01*
X168027366Y-81960992D01*
X168042811Y-81994482D01*
X168053865Y-82039622D01*
X168061199Y-82104142D01*
X168065488Y-82195771D01*
X168067401Y-82322240D01*
X168067690Y-82424762D01*
X168067690Y-82820271D01*
X167931067Y-82813145D01*
X167794444Y-82806019D01*
X167787654Y-82546064D01*
X167781625Y-82411287D01*
X167770640Y-82317814D01*
X167753015Y-82259545D01*
X167727065Y-82230374D01*
X167698719Y-82223886D01*
X167683228Y-82238671D01*
X167671984Y-82286538D01*
X167664137Y-82372754D01*
X167660047Y-82463479D01*
X167655772Y-82572525D01*
X167649800Y-82645267D01*
X167639023Y-82692900D01*
X167620333Y-82726620D01*
X167590620Y-82757621D01*
X167574284Y-82772366D01*
X167539103Y-82802163D01*
X167506122Y-82821899D01*
X167464865Y-82833645D01*
X167404854Y-82839472D01*
X167315611Y-82841453D01*
X167223816Y-82841660D01*
X166950945Y-82841660D01*
X166950945Y-82592174D01*
X166950945Y-82342689D01*
X167117269Y-82342689D01*
X167219901Y-82339575D01*
X167291775Y-82325549D01*
X167338015Y-82293585D01*
X167363747Y-82236657D01*
X167374096Y-82147739D01*
X167374185Y-82019805D01*
X167373490Y-81991425D01*
X167366754Y-81736796D01*
X167164790Y-81724915D01*
X166962825Y-81713035D01*
X166956054Y-81469490D01*
X166949283Y-81225944D01*
X167520366Y-81225944D01*
X168091450Y-81225944D01*
X168091450Y-81462624D01*
G37*
G36*
X167436996Y-83038670D02*
G01*
X167528808Y-83042384D01*
X167674069Y-83048599D01*
X167790615Y-83056176D01*
X167881600Y-83069953D01*
X167950178Y-83094765D01*
X167999505Y-83135450D01*
X168032737Y-83196843D01*
X168053028Y-83283782D01*
X168063533Y-83401103D01*
X168067408Y-83553644D01*
X168067808Y-83746239D01*
X168067690Y-83868458D01*
X168067690Y-84495875D01*
X167993589Y-84571668D01*
X167919488Y-84647460D01*
X167649061Y-84647460D01*
X167378634Y-84647460D01*
X167378634Y-84147303D01*
X167378634Y-83647146D01*
X167515257Y-83654272D01*
X167651880Y-83661398D01*
X167658624Y-83916824D01*
X167663581Y-84039004D01*
X167671282Y-84118836D01*
X167682468Y-84161453D01*
X167695453Y-84172249D01*
X167731204Y-84164335D01*
X167756016Y-84136186D01*
X167771661Y-84081197D01*
X167779912Y-83992761D01*
X167782541Y-83864272D01*
X167782563Y-83847566D01*
X167781931Y-83730713D01*
X167779003Y-83652351D01*
X167772232Y-83603457D01*
X167760070Y-83575006D01*
X167740971Y-83557974D01*
X167732035Y-83552866D01*
X167680073Y-83539385D01*
X167600089Y-83533686D01*
X167507186Y-83535033D01*
X167416467Y-83542690D01*
X167343032Y-83555923D01*
X167302178Y-83573801D01*
X167285855Y-83614695D01*
X167272501Y-83700328D01*
X167262486Y-83827992D01*
X167259832Y-83882265D01*
X167247952Y-84160369D01*
X167105388Y-84160369D01*
X166962825Y-84160369D01*
X166956695Y-83697039D01*
X166954898Y-83535882D01*
X166954743Y-83414898D01*
X166956795Y-83326750D01*
X166961617Y-83264104D01*
X166969772Y-83219621D01*
X166981826Y-83185968D01*
X166998287Y-83155895D01*
X167031957Y-83108755D01*
X167071407Y-83074796D01*
X167124136Y-83052413D01*
X167197645Y-83040000D01*
X167299431Y-83035954D01*
X167436996Y-83038670D01*
G37*
D14*
%TO.C,U1*%
X159495000Y-78045000D02*
X157845000Y-78045000D01*
X159495000Y-113725000D02*
X159495000Y-78045000D01*
X155845000Y-78045000D02*
X154195000Y-78045000D01*
X154195000Y-78045000D02*
X154195000Y-113725000D01*
X154195000Y-113725000D02*
X159495000Y-113725000D01*
X155845000Y-78045000D02*
G75*
G03*
X157845000Y-78045000I1000000J0D01*
G01*
%TO.C,R1*%
X149112500Y-81327258D02*
X149112500Y-80852742D01*
X148067500Y-81327258D02*
X148067500Y-80852742D01*
%TO.C,J1*%
X166310000Y-104835000D02*
X168970000Y-104835000D01*
X166310000Y-92075000D02*
X166310000Y-104835000D01*
X168970000Y-89475000D02*
X168970000Y-90805000D01*
X168970000Y-92075000D02*
X168970000Y-104835000D01*
X166310000Y-92075000D02*
X168970000Y-92075000D01*
X167640000Y-89475000D02*
X168970000Y-89475000D01*
%TO.C,C1*%
X149100000Y-85725580D02*
X149100000Y-85444420D01*
X148080000Y-85725580D02*
X148080000Y-85444420D01*
%TD*%
M02*
