%TF.GenerationSoftware,KiCad,Pcbnew,7.0.1*%
%TF.CreationDate,2023-04-21T06:03:37+01:00*%
%TF.ProjectId,wiikey,7769696b-6579-42e6-9b69-6361645f7063,rev?*%
%TF.SameCoordinates,Original*%
%TF.FileFunction,Copper,L2,Bot*%
%TF.FilePolarity,Positive*%
%FSLAX46Y46*%
G04 Gerber Fmt 4.6, Leading zero omitted, Abs format (unit mm)*
G04 Created by KiCad (PCBNEW 7.0.1) date 2023-04-21 06:03:37*
%MOMM*%
%LPD*%
G01*
G04 APERTURE LIST*
%TA.AperFunction,ComponentPad*%
%ADD10R,1.350000X1.350000*%
%TD*%
%TA.AperFunction,ComponentPad*%
%ADD11O,1.350000X1.350000*%
%TD*%
%TA.AperFunction,ComponentPad*%
%ADD12C,1.600000*%
%TD*%
%TA.AperFunction,ComponentPad*%
%ADD13O,1.600000X1.600000*%
%TD*%
%TA.AperFunction,ComponentPad*%
%ADD14R,1.600000X1.600000*%
%TD*%
%TA.AperFunction,ViaPad*%
%ADD15C,0.800000*%
%TD*%
%TA.AperFunction,Conductor*%
%ADD16C,0.250000*%
%TD*%
G04 APERTURE END LIST*
D10*
%TO.P,J1,1,Pin_1*%
%TO.N,Net-(J1-Pin_1)*%
X174142400Y-104325400D03*
D11*
%TO.P,J1,2,Pin_2*%
%TO.N,Net-(J1-Pin_2)*%
X174142400Y-106325400D03*
%TO.P,J1,3,Pin_3*%
%TO.N,Net-(J1-Pin_3)*%
X174142400Y-108325400D03*
%TO.P,J1,4,Pin_4*%
%TO.N,Net-(J1-Pin_4)*%
X174142400Y-110325400D03*
%TO.P,J1,5,Pin_5*%
%TO.N,Net-(J1-Pin_5)*%
X174142400Y-112325400D03*
%TO.P,J1,6,Pin_6*%
%TO.N,Net-(J1-Pin_6)*%
X174142400Y-114325400D03*
%TO.P,J1,7,Pin_7*%
%TO.N,unconnected-(J1-Pin_7-Pad7)*%
X174142400Y-116325400D03*
%TO.P,J1,8,Pin_8*%
%TO.N,unconnected-(J1-Pin_8-Pad8)*%
X174142400Y-118325400D03*
%TD*%
D12*
%TO.P,R1,1*%
%TO.N,Net-(U1-PC6{slash}~{RESET})*%
X149758400Y-88417400D03*
D13*
%TO.P,R1,2*%
%TO.N,Net-(U1-AVCC)*%
X149758400Y-98577400D03*
%TD*%
D14*
%TO.P,U1,1,PC6/~{RESET}*%
%TO.N,Net-(U1-PC6{slash}~{RESET})*%
X154051000Y-89027000D03*
D13*
%TO.P,U1,2,PD0*%
%TO.N,unconnected-(U1-PD0-Pad2)*%
X154051000Y-91567000D03*
%TO.P,U1,3,PD1*%
%TO.N,unconnected-(U1-PD1-Pad3)*%
X154051000Y-94107000D03*
%TO.P,U1,4,PD2*%
%TO.N,unconnected-(U1-PD2-Pad4)*%
X154051000Y-96647000D03*
%TO.P,U1,5,PD3*%
%TO.N,unconnected-(U1-PD3-Pad5)*%
X154051000Y-99187000D03*
%TO.P,U1,6,PD4*%
%TO.N,unconnected-(U1-PD4-Pad6)*%
X154051000Y-101727000D03*
%TO.P,U1,7,VCC*%
%TO.N,Net-(J1-Pin_2)*%
X154051000Y-104267000D03*
%TO.P,U1,8,GND*%
%TO.N,Net-(J1-Pin_1)*%
X154051000Y-106807000D03*
%TO.P,U1,9,PB6/XTAL1*%
%TO.N,unconnected-(U1-PB6{slash}XTAL1-Pad9)*%
X154051000Y-109347000D03*
%TO.P,U1,10,PB7/XTAL2*%
%TO.N,unconnected-(U1-PB7{slash}XTAL2-Pad10)*%
X154051000Y-111887000D03*
%TO.P,U1,11,PD5*%
%TO.N,unconnected-(U1-PD5-Pad11)*%
X154051000Y-114427000D03*
%TO.P,U1,12,PD6*%
%TO.N,unconnected-(U1-PD6-Pad12)*%
X154051000Y-116967000D03*
%TO.P,U1,13,PD7*%
%TO.N,unconnected-(U1-PD7-Pad13)*%
X154051000Y-119507000D03*
%TO.P,U1,14,PB0*%
%TO.N,unconnected-(U1-PB0-Pad14)*%
X154051000Y-122047000D03*
%TO.P,U1,15,PB1*%
%TO.N,Net-(J1-Pin_3)*%
X161671000Y-122047000D03*
%TO.P,U1,16,PB2*%
%TO.N,unconnected-(U1-PB2-Pad16)*%
X161671000Y-119507000D03*
%TO.P,U1,17,PB3*%
%TO.N,Net-(J1-Pin_4)*%
X161671000Y-116967000D03*
%TO.P,U1,18,PB4*%
%TO.N,Net-(J1-Pin_6)*%
X161671000Y-114427000D03*
%TO.P,U1,19,PB5*%
%TO.N,Net-(J1-Pin_5)*%
X161671000Y-111887000D03*
%TO.P,U1,20,AVCC*%
%TO.N,Net-(U1-AVCC)*%
X161671000Y-109347000D03*
%TO.P,U1,21,AREF*%
%TO.N,unconnected-(U1-AREF-Pad21)*%
X161671000Y-106807000D03*
%TO.P,U1,22,AGND*%
%TO.N,Net-(J1-Pin_1)*%
X161671000Y-104267000D03*
%TO.P,U1,23,PC0*%
%TO.N,unconnected-(U1-PC0-Pad23)*%
X161671000Y-101727000D03*
%TO.P,U1,24,PC1*%
%TO.N,unconnected-(U1-PC1-Pad24)*%
X161671000Y-99187000D03*
%TO.P,U1,25,PC2*%
%TO.N,unconnected-(U1-PC2-Pad25)*%
X161671000Y-96647000D03*
%TO.P,U1,26,PC3*%
%TO.N,unconnected-(U1-PC3-Pad26)*%
X161671000Y-94107000D03*
%TO.P,U1,27,PC4*%
%TO.N,unconnected-(U1-PC4-Pad27)*%
X161671000Y-91567000D03*
%TO.P,U1,28,PC5*%
%TO.N,unconnected-(U1-PC5-Pad28)*%
X161671000Y-89027000D03*
%TD*%
D12*
%TO.P,C2,1*%
%TO.N,Net-(J1-Pin_2)*%
X164851000Y-93980000D03*
%TO.P,C2,2*%
%TO.N,Net-(J1-Pin_1)*%
X169851000Y-93980000D03*
%TD*%
%TO.P,C1,1*%
%TO.N,Net-(J1-Pin_1)*%
X164851000Y-88977000D03*
%TO.P,C1,2*%
%TO.N,Net-(J1-Pin_2)*%
X169851000Y-88977000D03*
%TD*%
D15*
%TO.N,Net-(J1-Pin_1)*%
X167030400Y-101117400D03*
%TO.N,Net-(J1-Pin_3)*%
X165506400Y-105181400D03*
%TO.N,Net-(J1-Pin_4)*%
X166014400Y-107213400D03*
%TD*%
D16*
%TO.N,Net-(J1-Pin_1)*%
X161671000Y-104267000D02*
X159131000Y-106807000D01*
X167030400Y-101117400D02*
X164820600Y-101117400D01*
X159131000Y-106807000D02*
X154051000Y-106807000D01*
X164820600Y-101117400D02*
X161671000Y-104267000D01*
%TO.N,Net-(J1-Pin_3)*%
X167030400Y-116687600D02*
X167030400Y-106705400D01*
X167030400Y-106705400D02*
X165506400Y-105181400D01*
X161671000Y-122047000D02*
X167030400Y-116687600D01*
%TO.N,Net-(J1-Pin_4)*%
X166014400Y-107213400D02*
X166014400Y-112623600D01*
X166014400Y-112623600D02*
X161671000Y-116967000D01*
%TO.N,Net-(U1-AVCC)*%
X161264600Y-109575600D02*
X161264600Y-109753400D01*
X161264600Y-109753400D02*
X161671000Y-109347000D01*
%TD*%
%TA.AperFunction,NonConductor*%
G36*
X177381900Y-85894513D02*
G01*
X177427287Y-85939900D01*
X177443900Y-86001900D01*
X177443900Y-128932900D01*
X177427287Y-128994900D01*
X177381900Y-129040287D01*
X177319900Y-129056900D01*
X144548900Y-129056900D01*
X144486900Y-129040287D01*
X144441513Y-128994900D01*
X144424900Y-128932900D01*
X144424900Y-122047000D01*
X152745531Y-122047000D01*
X152765364Y-122273689D01*
X152824261Y-122493497D01*
X152920432Y-122699735D01*
X153050953Y-122886140D01*
X153211859Y-123047046D01*
X153398264Y-123177567D01*
X153398265Y-123177567D01*
X153398266Y-123177568D01*
X153604504Y-123273739D01*
X153824308Y-123332635D01*
X154051000Y-123352468D01*
X154277692Y-123332635D01*
X154497496Y-123273739D01*
X154703734Y-123177568D01*
X154890139Y-123047047D01*
X155051047Y-122886139D01*
X155181568Y-122699734D01*
X155277739Y-122493496D01*
X155336635Y-122273692D01*
X155356468Y-122047000D01*
X155336635Y-121820308D01*
X155277739Y-121600504D01*
X155181568Y-121394266D01*
X155051047Y-121207861D01*
X155051046Y-121207859D01*
X154890140Y-121046953D01*
X154703733Y-120916431D01*
X154645725Y-120889382D01*
X154593549Y-120843625D01*
X154574129Y-120777000D01*
X154593549Y-120710375D01*
X154645725Y-120664618D01*
X154703734Y-120637568D01*
X154890139Y-120507047D01*
X155051047Y-120346139D01*
X155181568Y-120159734D01*
X155277739Y-119953496D01*
X155336635Y-119733692D01*
X155356468Y-119507000D01*
X155336635Y-119280308D01*
X155277739Y-119060504D01*
X155181568Y-118854266D01*
X155109862Y-118751859D01*
X155051046Y-118667859D01*
X154890140Y-118506953D01*
X154703733Y-118376431D01*
X154645725Y-118349382D01*
X154593549Y-118303625D01*
X154574129Y-118237000D01*
X154593549Y-118170375D01*
X154645725Y-118124618D01*
X154703734Y-118097568D01*
X154890139Y-117967047D01*
X155051047Y-117806139D01*
X155181568Y-117619734D01*
X155277739Y-117413496D01*
X155336635Y-117193692D01*
X155356468Y-116967000D01*
X155336635Y-116740308D01*
X155277739Y-116520504D01*
X155181568Y-116314266D01*
X155051047Y-116127861D01*
X155051046Y-116127859D01*
X154890140Y-115966953D01*
X154703732Y-115836430D01*
X154645724Y-115809380D01*
X154593549Y-115763623D01*
X154574130Y-115696997D01*
X154593550Y-115630373D01*
X154645721Y-115584619D01*
X154703734Y-115557568D01*
X154890139Y-115427047D01*
X155051047Y-115266139D01*
X155181568Y-115079734D01*
X155277739Y-114873496D01*
X155336635Y-114653692D01*
X155356468Y-114427000D01*
X155336635Y-114200308D01*
X155277739Y-113980504D01*
X155181568Y-113774266D01*
X155132317Y-113703928D01*
X155051046Y-113587859D01*
X154890140Y-113426953D01*
X154703732Y-113296430D01*
X154645724Y-113269380D01*
X154593549Y-113223623D01*
X154574130Y-113156997D01*
X154593550Y-113090373D01*
X154645721Y-113044619D01*
X154703734Y-113017568D01*
X154890139Y-112887047D01*
X155051047Y-112726139D01*
X155181568Y-112539734D01*
X155277739Y-112333496D01*
X155336635Y-112113692D01*
X155356468Y-111887000D01*
X155336635Y-111660308D01*
X155277739Y-111440504D01*
X155181568Y-111234266D01*
X155102064Y-111120722D01*
X155051046Y-111047859D01*
X154890140Y-110886953D01*
X154703733Y-110756431D01*
X154645725Y-110729382D01*
X154593549Y-110683625D01*
X154574129Y-110617000D01*
X154593549Y-110550375D01*
X154645725Y-110504618D01*
X154703734Y-110477568D01*
X154890139Y-110347047D01*
X155051047Y-110186139D01*
X155181568Y-109999734D01*
X155277739Y-109793496D01*
X155336635Y-109573692D01*
X155356468Y-109347000D01*
X155336635Y-109120308D01*
X155277739Y-108900504D01*
X155181568Y-108694266D01*
X155075177Y-108542323D01*
X155051046Y-108507859D01*
X154890140Y-108346953D01*
X154703733Y-108216431D01*
X154645725Y-108189382D01*
X154593549Y-108143625D01*
X154574129Y-108077000D01*
X154593549Y-108010375D01*
X154645725Y-107964618D01*
X154703734Y-107937568D01*
X154890139Y-107807047D01*
X155051047Y-107646139D01*
X155132313Y-107530078D01*
X155163613Y-107485377D01*
X155207931Y-107446511D01*
X155265188Y-107432500D01*
X159048256Y-107432500D01*
X159068762Y-107434764D01*
X159071665Y-107434672D01*
X159071667Y-107434673D01*
X159138872Y-107432561D01*
X159142768Y-107432500D01*
X159170349Y-107432500D01*
X159170350Y-107432500D01*
X159174319Y-107431998D01*
X159185965Y-107431080D01*
X159229627Y-107429709D01*
X159248859Y-107424120D01*
X159267918Y-107420174D01*
X159274196Y-107419381D01*
X159287792Y-107417664D01*
X159328407Y-107401582D01*
X159339444Y-107397803D01*
X159381390Y-107385618D01*
X159398629Y-107375422D01*
X159416102Y-107366862D01*
X159434732Y-107359486D01*
X159470064Y-107333814D01*
X159479830Y-107327400D01*
X159517418Y-107305171D01*
X159517417Y-107305171D01*
X159517420Y-107305170D01*
X159531585Y-107291004D01*
X159546373Y-107278373D01*
X159562587Y-107266594D01*
X159590438Y-107232926D01*
X159598279Y-107224309D01*
X160158183Y-106664405D01*
X160209608Y-106633506D01*
X160269522Y-106630366D01*
X160323898Y-106655722D01*
X160360004Y-106703637D01*
X160369390Y-106762895D01*
X160365531Y-106806999D01*
X160385364Y-107033689D01*
X160444261Y-107253497D01*
X160540432Y-107459735D01*
X160670953Y-107646140D01*
X160831859Y-107807046D01*
X160863376Y-107829114D01*
X161018266Y-107937568D01*
X161076273Y-107964617D01*
X161128449Y-108010373D01*
X161147869Y-108076997D01*
X161128451Y-108143622D01*
X161076276Y-108189380D01*
X161018266Y-108216431D01*
X160831859Y-108346953D01*
X160670953Y-108507859D01*
X160540432Y-108694264D01*
X160444261Y-108900502D01*
X160385364Y-109120310D01*
X160365531Y-109347000D01*
X160385364Y-109573689D01*
X160444261Y-109793497D01*
X160540432Y-109999735D01*
X160670953Y-110186140D01*
X160831859Y-110347046D01*
X161018263Y-110477566D01*
X161018266Y-110477568D01*
X161076275Y-110504618D01*
X161128450Y-110550375D01*
X161147869Y-110617000D01*
X161128450Y-110683625D01*
X161076275Y-110729382D01*
X161018263Y-110756433D01*
X160831859Y-110886953D01*
X160670953Y-111047859D01*
X160540432Y-111234264D01*
X160444261Y-111440502D01*
X160385364Y-111660310D01*
X160365531Y-111887000D01*
X160385364Y-112113689D01*
X160444261Y-112333497D01*
X160540432Y-112539735D01*
X160670953Y-112726140D01*
X160831859Y-112887046D01*
X161018262Y-113017565D01*
X161018266Y-113017568D01*
X161076275Y-113044618D01*
X161128450Y-113090375D01*
X161147869Y-113157000D01*
X161128450Y-113223625D01*
X161076275Y-113269382D01*
X161018263Y-113296433D01*
X160831859Y-113426953D01*
X160670953Y-113587859D01*
X160540432Y-113774264D01*
X160444261Y-113980502D01*
X160385364Y-114200310D01*
X160365531Y-114427000D01*
X160385364Y-114653689D01*
X160444261Y-114873497D01*
X160540432Y-115079735D01*
X160670953Y-115266140D01*
X160831859Y-115427046D01*
X160979003Y-115530076D01*
X161018266Y-115557568D01*
X161076273Y-115584617D01*
X161128449Y-115630373D01*
X161147869Y-115696997D01*
X161128451Y-115763622D01*
X161076276Y-115809380D01*
X161018266Y-115836431D01*
X160831859Y-115966953D01*
X160670953Y-116127859D01*
X160540432Y-116314264D01*
X160444261Y-116520502D01*
X160385364Y-116740310D01*
X160365531Y-116967000D01*
X160385364Y-117193689D01*
X160444261Y-117413497D01*
X160540432Y-117619735D01*
X160670953Y-117806140D01*
X160831859Y-117967046D01*
X161018263Y-118097566D01*
X161018266Y-118097568D01*
X161076275Y-118124618D01*
X161128450Y-118170375D01*
X161147869Y-118237000D01*
X161128450Y-118303625D01*
X161076275Y-118349382D01*
X161018263Y-118376433D01*
X160831859Y-118506953D01*
X160670953Y-118667859D01*
X160540432Y-118854264D01*
X160444261Y-119060502D01*
X160385364Y-119280310D01*
X160365531Y-119507000D01*
X160385364Y-119733689D01*
X160444261Y-119953497D01*
X160540432Y-120159735D01*
X160670953Y-120346140D01*
X160831859Y-120507046D01*
X161018263Y-120637566D01*
X161018266Y-120637568D01*
X161076275Y-120664618D01*
X161128450Y-120710375D01*
X161147869Y-120777000D01*
X161128450Y-120843625D01*
X161076275Y-120889382D01*
X161018263Y-120916433D01*
X160831859Y-121046953D01*
X160670953Y-121207859D01*
X160540432Y-121394264D01*
X160444261Y-121600502D01*
X160385364Y-121820310D01*
X160365531Y-122047000D01*
X160385364Y-122273689D01*
X160444261Y-122493497D01*
X160540432Y-122699735D01*
X160670953Y-122886140D01*
X160831859Y-123047046D01*
X161018264Y-123177567D01*
X161018265Y-123177567D01*
X161018266Y-123177568D01*
X161224504Y-123273739D01*
X161444308Y-123332635D01*
X161671000Y-123352468D01*
X161897692Y-123332635D01*
X162117496Y-123273739D01*
X162323734Y-123177568D01*
X162510139Y-123047047D01*
X162671047Y-122886139D01*
X162801568Y-122699734D01*
X162897739Y-122493496D01*
X162956635Y-122273692D01*
X162976468Y-122047000D01*
X162956635Y-121820308D01*
X162938319Y-121751951D01*
X162938319Y-121687763D01*
X162970411Y-121632178D01*
X166277190Y-118325399D01*
X172961864Y-118325399D01*
X172981964Y-118542325D01*
X173041581Y-118751857D01*
X173138687Y-118946871D01*
X173269973Y-119120723D01*
X173417893Y-119255569D01*
X173430968Y-119267488D01*
X173523578Y-119324829D01*
X173616191Y-119382173D01*
X173800391Y-119453532D01*
X173819331Y-119460870D01*
X174033474Y-119500900D01*
X174251324Y-119500900D01*
X174251326Y-119500900D01*
X174465469Y-119460870D01*
X174600896Y-119408404D01*
X174668608Y-119382173D01*
X174668610Y-119382172D01*
X174853832Y-119267488D01*
X175014827Y-119120722D01*
X175146112Y-118946872D01*
X175243217Y-118751859D01*
X175243218Y-118751857D01*
X175302835Y-118542325D01*
X175306113Y-118506953D01*
X175322936Y-118325400D01*
X175302835Y-118108477D01*
X175302835Y-118108474D01*
X175243218Y-117898942D01*
X175146112Y-117703928D01*
X175014826Y-117530076D01*
X174890827Y-117417037D01*
X174855099Y-117359334D01*
X174855099Y-117291466D01*
X174890827Y-117233763D01*
X175014826Y-117120723D01*
X175028909Y-117102074D01*
X175146112Y-116946872D01*
X175243217Y-116751859D01*
X175246504Y-116740308D01*
X175302835Y-116542325D01*
X175313381Y-116428509D01*
X175322936Y-116325400D01*
X175302835Y-116108477D01*
X175302835Y-116108474D01*
X175243218Y-115898942D01*
X175146112Y-115703928D01*
X175014826Y-115530076D01*
X174890827Y-115417037D01*
X174855099Y-115359334D01*
X174855099Y-115291466D01*
X174890827Y-115233763D01*
X175014826Y-115120723D01*
X175014829Y-115120719D01*
X175146112Y-114946872D01*
X175243217Y-114751859D01*
X175271149Y-114653689D01*
X175302835Y-114542325D01*
X175313521Y-114426999D01*
X175322936Y-114325400D01*
X175302835Y-114108477D01*
X175302835Y-114108474D01*
X175243218Y-113898942D01*
X175146112Y-113703928D01*
X175014826Y-113530076D01*
X174890827Y-113417037D01*
X174855099Y-113359334D01*
X174855099Y-113291466D01*
X174890827Y-113233763D01*
X175014826Y-113120723D01*
X175037745Y-113090373D01*
X175146112Y-112946872D01*
X175243217Y-112751859D01*
X175250535Y-112726139D01*
X175302835Y-112542325D01*
X175305749Y-112510867D01*
X175322936Y-112325400D01*
X175302835Y-112108477D01*
X175302835Y-112108474D01*
X175243218Y-111898942D01*
X175146112Y-111703928D01*
X175014826Y-111530076D01*
X174890827Y-111417037D01*
X174855099Y-111359334D01*
X174855099Y-111291466D01*
X174890827Y-111233763D01*
X175014826Y-111120723D01*
X175014827Y-111120722D01*
X175146112Y-110946872D01*
X175243217Y-110751859D01*
X175243218Y-110751857D01*
X175302835Y-110542325D01*
X175308835Y-110477568D01*
X175322936Y-110325400D01*
X175302835Y-110108477D01*
X175302835Y-110108474D01*
X175243218Y-109898942D01*
X175146112Y-109703928D01*
X175014826Y-109530076D01*
X174890827Y-109417037D01*
X174855099Y-109359334D01*
X174855099Y-109291466D01*
X174890827Y-109233763D01*
X175014826Y-109120723D01*
X175015138Y-109120310D01*
X175146112Y-108946872D01*
X175243217Y-108751859D01*
X175259604Y-108694266D01*
X175302835Y-108542325D01*
X175306029Y-108507859D01*
X175322936Y-108325400D01*
X175302835Y-108108477D01*
X175302835Y-108108474D01*
X175243218Y-107898942D01*
X175146112Y-107703928D01*
X175014826Y-107530076D01*
X174890827Y-107417036D01*
X174855098Y-107359333D01*
X174855099Y-107291464D01*
X174890824Y-107233764D01*
X175014827Y-107120722D01*
X175146112Y-106946872D01*
X175243217Y-106751859D01*
X175243218Y-106751857D01*
X175302835Y-106542325D01*
X175307040Y-106496940D01*
X175322936Y-106325400D01*
X175302835Y-106108477D01*
X175302835Y-106108474D01*
X175243218Y-105898942D01*
X175146112Y-105703928D01*
X175064652Y-105596057D01*
X175040525Y-105536396D01*
X175049550Y-105472677D01*
X175089294Y-105422064D01*
X175174946Y-105357946D01*
X175261196Y-105242731D01*
X175311491Y-105107883D01*
X175317900Y-105048273D01*
X175317899Y-103602528D01*
X175311491Y-103542917D01*
X175261196Y-103408069D01*
X175174946Y-103292854D01*
X175059731Y-103206604D01*
X174924883Y-103156309D01*
X174865273Y-103149900D01*
X174865269Y-103149900D01*
X173419530Y-103149900D01*
X173359915Y-103156309D01*
X173225069Y-103206604D01*
X173109854Y-103292854D01*
X173023604Y-103408068D01*
X172973309Y-103542916D01*
X172966900Y-103602530D01*
X172966900Y-105048269D01*
X172973122Y-105106140D01*
X172973309Y-105107883D01*
X173023604Y-105242731D01*
X173041807Y-105267047D01*
X173109855Y-105357948D01*
X173195504Y-105422065D01*
X173235250Y-105472679D01*
X173244274Y-105536397D01*
X173220147Y-105596057D01*
X173138688Y-105703925D01*
X173041581Y-105898942D01*
X172981964Y-106108474D01*
X172961864Y-106325399D01*
X172981964Y-106542325D01*
X173041581Y-106751857D01*
X173138687Y-106946871D01*
X173269973Y-107120723D01*
X173393972Y-107233762D01*
X173429700Y-107291464D01*
X173429701Y-107359333D01*
X173393973Y-107417036D01*
X173269971Y-107530079D01*
X173138687Y-107703928D01*
X173041581Y-107898942D01*
X172981964Y-108108474D01*
X172961864Y-108325399D01*
X172981964Y-108542325D01*
X173041581Y-108751857D01*
X173138687Y-108946871D01*
X173269973Y-109120723D01*
X173393972Y-109233762D01*
X173429700Y-109291464D01*
X173429701Y-109359333D01*
X173393973Y-109417036D01*
X173269971Y-109530079D01*
X173138687Y-109703928D01*
X173041581Y-109898942D01*
X172981964Y-110108474D01*
X172961864Y-110325399D01*
X172981964Y-110542325D01*
X173041581Y-110751857D01*
X173138687Y-110946871D01*
X173269973Y-111120723D01*
X173393972Y-111233763D01*
X173429700Y-111291466D01*
X173429700Y-111359334D01*
X173393972Y-111417037D01*
X173269973Y-111530076D01*
X173138687Y-111703928D01*
X173041581Y-111898942D01*
X172981964Y-112108474D01*
X172961864Y-112325399D01*
X172981964Y-112542325D01*
X173041581Y-112751857D01*
X173138687Y-112946871D01*
X173269973Y-113120723D01*
X173393972Y-113233763D01*
X173429700Y-113291466D01*
X173429700Y-113359334D01*
X173393972Y-113417037D01*
X173269973Y-113530076D01*
X173138687Y-113703928D01*
X173041581Y-113898942D01*
X172981964Y-114108474D01*
X172961864Y-114325399D01*
X172981964Y-114542325D01*
X173041581Y-114751857D01*
X173138687Y-114946871D01*
X173138688Y-114946872D01*
X173269973Y-115120722D01*
X173393975Y-115233764D01*
X173429701Y-115291464D01*
X173429702Y-115359333D01*
X173393973Y-115417036D01*
X173269973Y-115530076D01*
X173138687Y-115703928D01*
X173041581Y-115898942D01*
X172981964Y-116108474D01*
X172961864Y-116325399D01*
X172981964Y-116542325D01*
X173041581Y-116751857D01*
X173138687Y-116946871D01*
X173269973Y-117120723D01*
X173393972Y-117233763D01*
X173429700Y-117291466D01*
X173429700Y-117359334D01*
X173393972Y-117417037D01*
X173269973Y-117530076D01*
X173138687Y-117703928D01*
X173041581Y-117898942D01*
X172981964Y-118108474D01*
X172961864Y-118325399D01*
X166277190Y-118325399D01*
X167414189Y-117188400D01*
X167430285Y-117175506D01*
X167432273Y-117173387D01*
X167432277Y-117173386D01*
X167478348Y-117124323D01*
X167480966Y-117121623D01*
X167500520Y-117102071D01*
X167502981Y-117098898D01*
X167510556Y-117090027D01*
X167540462Y-117058182D01*
X167550117Y-117040618D01*
X167560794Y-117024364D01*
X167573073Y-117008536D01*
X167590418Y-116968452D01*
X167595560Y-116957956D01*
X167601654Y-116946872D01*
X167616597Y-116919692D01*
X167621579Y-116900284D01*
X167627881Y-116881880D01*
X167635837Y-116863496D01*
X167642669Y-116820352D01*
X167645033Y-116808938D01*
X167655900Y-116766619D01*
X167655900Y-116746584D01*
X167657427Y-116727185D01*
X167657468Y-116726921D01*
X167660560Y-116707404D01*
X167656450Y-116663925D01*
X167655900Y-116652256D01*
X167655900Y-106788140D01*
X167658163Y-106767636D01*
X167657667Y-106751859D01*
X167655961Y-106697544D01*
X167655900Y-106693650D01*
X167655900Y-106666057D01*
X167655900Y-106666050D01*
X167655395Y-106662053D01*
X167654480Y-106650423D01*
X167653109Y-106606772D01*
X167647519Y-106587534D01*
X167643574Y-106568482D01*
X167641064Y-106548608D01*
X167638576Y-106542325D01*
X167624978Y-106507981D01*
X167621205Y-106496960D01*
X167609017Y-106455010D01*
X167598821Y-106437769D01*
X167590263Y-106420302D01*
X167582886Y-106401668D01*
X167557198Y-106366312D01*
X167550809Y-106356584D01*
X167528570Y-106318979D01*
X167514406Y-106304814D01*
X167501769Y-106290020D01*
X167489995Y-106273814D01*
X167489994Y-106273813D01*
X167456335Y-106245968D01*
X167447705Y-106238114D01*
X166445360Y-105235769D01*
X166421120Y-105201471D01*
X166409721Y-105161055D01*
X166392074Y-104993144D01*
X166333579Y-104813116D01*
X166333579Y-104813115D01*
X166238933Y-104649183D01*
X166112270Y-104508510D01*
X165959130Y-104397248D01*
X165786202Y-104320255D01*
X165601048Y-104280900D01*
X165601046Y-104280900D01*
X165411754Y-104280900D01*
X165411752Y-104280900D01*
X165226597Y-104320255D01*
X165053669Y-104397248D01*
X164900529Y-104508510D01*
X164773866Y-104649183D01*
X164679220Y-104813115D01*
X164620726Y-104993142D01*
X164620725Y-104993144D01*
X164620726Y-104993144D01*
X164600940Y-105181400D01*
X164606654Y-105235769D01*
X164620726Y-105369657D01*
X164679220Y-105549684D01*
X164773866Y-105713616D01*
X164900529Y-105854289D01*
X165053669Y-105965551D01*
X165226597Y-106042544D01*
X165411752Y-106081900D01*
X165411754Y-106081900D01*
X165470948Y-106081900D01*
X165518401Y-106091339D01*
X165558629Y-106118219D01*
X165647200Y-106206790D01*
X165677941Y-106257700D01*
X165681443Y-106317068D01*
X165656898Y-106371238D01*
X165609955Y-106407750D01*
X165561669Y-106429248D01*
X165408529Y-106540510D01*
X165281866Y-106681183D01*
X165187220Y-106845115D01*
X165128726Y-107025142D01*
X165108940Y-107213400D01*
X165128726Y-107401657D01*
X165187220Y-107581684D01*
X165281864Y-107745613D01*
X165281867Y-107745616D01*
X165357052Y-107829117D01*
X165380664Y-107867649D01*
X165388900Y-107912087D01*
X165388900Y-112313147D01*
X165379461Y-112360600D01*
X165352581Y-112400828D01*
X163183819Y-114569588D01*
X163132392Y-114600489D01*
X163072477Y-114603629D01*
X163018102Y-114578273D01*
X162981995Y-114530357D01*
X162972610Y-114471099D01*
X162976468Y-114426999D01*
X162956635Y-114200310D01*
X162956635Y-114200308D01*
X162897739Y-113980504D01*
X162801568Y-113774266D01*
X162752317Y-113703928D01*
X162671046Y-113587859D01*
X162510140Y-113426953D01*
X162323732Y-113296430D01*
X162265724Y-113269380D01*
X162213549Y-113223623D01*
X162194130Y-113156997D01*
X162213550Y-113090373D01*
X162265721Y-113044619D01*
X162323734Y-113017568D01*
X162510139Y-112887047D01*
X162671047Y-112726139D01*
X162801568Y-112539734D01*
X162897739Y-112333496D01*
X162956635Y-112113692D01*
X162976468Y-111887000D01*
X162956635Y-111660308D01*
X162897739Y-111440504D01*
X162801568Y-111234266D01*
X162722064Y-111120722D01*
X162671046Y-111047859D01*
X162510140Y-110886953D01*
X162323733Y-110756431D01*
X162265725Y-110729382D01*
X162213549Y-110683625D01*
X162194129Y-110617000D01*
X162213549Y-110550375D01*
X162265725Y-110504618D01*
X162323734Y-110477568D01*
X162510139Y-110347047D01*
X162671047Y-110186139D01*
X162801568Y-109999734D01*
X162897739Y-109793496D01*
X162956635Y-109573692D01*
X162976468Y-109347000D01*
X162956635Y-109120308D01*
X162897739Y-108900504D01*
X162801568Y-108694266D01*
X162695177Y-108542323D01*
X162671046Y-108507859D01*
X162510140Y-108346953D01*
X162323733Y-108216431D01*
X162265725Y-108189382D01*
X162213549Y-108143625D01*
X162194129Y-108077000D01*
X162213549Y-108010375D01*
X162265725Y-107964618D01*
X162323734Y-107937568D01*
X162510139Y-107807047D01*
X162671047Y-107646139D01*
X162801568Y-107459734D01*
X162897739Y-107253496D01*
X162956635Y-107033692D01*
X162976468Y-106807000D01*
X162956635Y-106580308D01*
X162897739Y-106360504D01*
X162801568Y-106154266D01*
X162769506Y-106108477D01*
X162671046Y-105967859D01*
X162510140Y-105806953D01*
X162323733Y-105676431D01*
X162265725Y-105649382D01*
X162213549Y-105603625D01*
X162194129Y-105537000D01*
X162213549Y-105470375D01*
X162265725Y-105424618D01*
X162271200Y-105422065D01*
X162323734Y-105397568D01*
X162510139Y-105267047D01*
X162671047Y-105106139D01*
X162801568Y-104919734D01*
X162897739Y-104713496D01*
X162956635Y-104493692D01*
X162976468Y-104267000D01*
X162956635Y-104040308D01*
X162938319Y-103971951D01*
X162938319Y-103907763D01*
X162970411Y-103852178D01*
X165043371Y-101779219D01*
X165083600Y-101752339D01*
X165131053Y-101742900D01*
X166326653Y-101742900D01*
X166377088Y-101753620D01*
X166418801Y-101783926D01*
X166424529Y-101790288D01*
X166577670Y-101901551D01*
X166577671Y-101901551D01*
X166577672Y-101901552D01*
X166750597Y-101978544D01*
X166935752Y-102017900D01*
X166935754Y-102017900D01*
X167125046Y-102017900D01*
X167125048Y-102017900D01*
X167248484Y-101991662D01*
X167310203Y-101978544D01*
X167483130Y-101901551D01*
X167636271Y-101790288D01*
X167762933Y-101649616D01*
X167857579Y-101485684D01*
X167916074Y-101305656D01*
X167935860Y-101117400D01*
X167916074Y-100929144D01*
X167857579Y-100749116D01*
X167857579Y-100749115D01*
X167762933Y-100585183D01*
X167636270Y-100444510D01*
X167483130Y-100333248D01*
X167310202Y-100256255D01*
X167125048Y-100216900D01*
X167125046Y-100216900D01*
X166935754Y-100216900D01*
X166935752Y-100216900D01*
X166750597Y-100256255D01*
X166577672Y-100333247D01*
X166499042Y-100390375D01*
X166424529Y-100444512D01*
X166418801Y-100450873D01*
X166377088Y-100481180D01*
X166326653Y-100491900D01*
X164903344Y-100491900D01*
X164882837Y-100489635D01*
X164812727Y-100491839D01*
X164808832Y-100491900D01*
X164781250Y-100491900D01*
X164777265Y-100492403D01*
X164765633Y-100493318D01*
X164721969Y-100494690D01*
X164702729Y-100500280D01*
X164683681Y-100504225D01*
X164663809Y-100506735D01*
X164623199Y-100522813D01*
X164612154Y-100526594D01*
X164570210Y-100538781D01*
X164552965Y-100548979D01*
X164535504Y-100557533D01*
X164516867Y-100564912D01*
X164481531Y-100590585D01*
X164471774Y-100596995D01*
X164434180Y-100619229D01*
X164420013Y-100633396D01*
X164405224Y-100646026D01*
X164389013Y-100657804D01*
X164361172Y-100691458D01*
X164353311Y-100700097D01*
X163183819Y-101869589D01*
X163132392Y-101900490D01*
X163072478Y-101903630D01*
X163018102Y-101878274D01*
X162981995Y-101830358D01*
X162972610Y-101771100D01*
X162976468Y-101726999D01*
X162956635Y-101500310D01*
X162956635Y-101500308D01*
X162897739Y-101280504D01*
X162801568Y-101074266D01*
X162699953Y-100929144D01*
X162671046Y-100887859D01*
X162510140Y-100726953D01*
X162323733Y-100596431D01*
X162265725Y-100569382D01*
X162213549Y-100523625D01*
X162194129Y-100457000D01*
X162213549Y-100390375D01*
X162265725Y-100344618D01*
X162290108Y-100333248D01*
X162323734Y-100317568D01*
X162510139Y-100187047D01*
X162671047Y-100026139D01*
X162801568Y-99839734D01*
X162897739Y-99633496D01*
X162956635Y-99413692D01*
X162976468Y-99187000D01*
X162956635Y-98960308D01*
X162897739Y-98740504D01*
X162801568Y-98534266D01*
X162673040Y-98350708D01*
X162671046Y-98347859D01*
X162510140Y-98186953D01*
X162323732Y-98056430D01*
X162265724Y-98029380D01*
X162213549Y-97983623D01*
X162194130Y-97916997D01*
X162213550Y-97850373D01*
X162265721Y-97804619D01*
X162323734Y-97777568D01*
X162510139Y-97647047D01*
X162671047Y-97486139D01*
X162801568Y-97299734D01*
X162897739Y-97093496D01*
X162956635Y-96873692D01*
X162976468Y-96647000D01*
X162956635Y-96420308D01*
X162897739Y-96200504D01*
X162801568Y-95994266D01*
X162671047Y-95807861D01*
X162671046Y-95807859D01*
X162510140Y-95646953D01*
X162323733Y-95516431D01*
X162265725Y-95489382D01*
X162213549Y-95443625D01*
X162194129Y-95377000D01*
X162213549Y-95310375D01*
X162265725Y-95264618D01*
X162323734Y-95237568D01*
X162510139Y-95107047D01*
X162671047Y-94946139D01*
X162801568Y-94759734D01*
X162897739Y-94553496D01*
X162956635Y-94333692D01*
X162976468Y-94107000D01*
X162965357Y-93980000D01*
X163545531Y-93980000D01*
X163565364Y-94206689D01*
X163624261Y-94426497D01*
X163720432Y-94632735D01*
X163850953Y-94819140D01*
X164011859Y-94980046D01*
X164198264Y-95110567D01*
X164198265Y-95110567D01*
X164198266Y-95110568D01*
X164404504Y-95206739D01*
X164624308Y-95265635D01*
X164851000Y-95285468D01*
X165077692Y-95265635D01*
X165297496Y-95206739D01*
X165503734Y-95110568D01*
X165690139Y-94980047D01*
X165851047Y-94819139D01*
X165981568Y-94632734D01*
X166077739Y-94426496D01*
X166136635Y-94206692D01*
X166156468Y-93980000D01*
X168545531Y-93980000D01*
X168565364Y-94206689D01*
X168624261Y-94426497D01*
X168720432Y-94632735D01*
X168850953Y-94819140D01*
X169011859Y-94980046D01*
X169198264Y-95110567D01*
X169198265Y-95110567D01*
X169198266Y-95110568D01*
X169404504Y-95206739D01*
X169624308Y-95265635D01*
X169851000Y-95285468D01*
X170077692Y-95265635D01*
X170297496Y-95206739D01*
X170503734Y-95110568D01*
X170690139Y-94980047D01*
X170851047Y-94819139D01*
X170981568Y-94632734D01*
X171077739Y-94426496D01*
X171136635Y-94206692D01*
X171156468Y-93980000D01*
X171136635Y-93753308D01*
X171077739Y-93533504D01*
X170981568Y-93327266D01*
X170939971Y-93267859D01*
X170851046Y-93140859D01*
X170690140Y-92979953D01*
X170503735Y-92849432D01*
X170297497Y-92753261D01*
X170077689Y-92694364D01*
X169850999Y-92674531D01*
X169624310Y-92694364D01*
X169404502Y-92753261D01*
X169198264Y-92849432D01*
X169011859Y-92979953D01*
X168850953Y-93140859D01*
X168720432Y-93327264D01*
X168624261Y-93533502D01*
X168565364Y-93753310D01*
X168545531Y-93980000D01*
X166156468Y-93980000D01*
X166136635Y-93753308D01*
X166077739Y-93533504D01*
X165981568Y-93327266D01*
X165939971Y-93267859D01*
X165851046Y-93140859D01*
X165690140Y-92979953D01*
X165503735Y-92849432D01*
X165297497Y-92753261D01*
X165077689Y-92694364D01*
X164850999Y-92674531D01*
X164624310Y-92694364D01*
X164404502Y-92753261D01*
X164198264Y-92849432D01*
X164011859Y-92979953D01*
X163850953Y-93140859D01*
X163720432Y-93327264D01*
X163624261Y-93533502D01*
X163565364Y-93753310D01*
X163545531Y-93980000D01*
X162965357Y-93980000D01*
X162956635Y-93880308D01*
X162897739Y-93660504D01*
X162801568Y-93454266D01*
X162712642Y-93327266D01*
X162671046Y-93267859D01*
X162510140Y-93106953D01*
X162323733Y-92976431D01*
X162265725Y-92949382D01*
X162213549Y-92903625D01*
X162194129Y-92837000D01*
X162213549Y-92770375D01*
X162265725Y-92724618D01*
X162323734Y-92697568D01*
X162510139Y-92567047D01*
X162671047Y-92406139D01*
X162801568Y-92219734D01*
X162897739Y-92013496D01*
X162956635Y-91793692D01*
X162976468Y-91567000D01*
X162956635Y-91340308D01*
X162897739Y-91120504D01*
X162801568Y-90914266D01*
X162671047Y-90727861D01*
X162671046Y-90727859D01*
X162510140Y-90566953D01*
X162323733Y-90436431D01*
X162265725Y-90409382D01*
X162213549Y-90363625D01*
X162194129Y-90297000D01*
X162213549Y-90230375D01*
X162265725Y-90184618D01*
X162323734Y-90157568D01*
X162510139Y-90027047D01*
X162671047Y-89866139D01*
X162801568Y-89679734D01*
X162897739Y-89473496D01*
X162956635Y-89253692D01*
X162976468Y-89027000D01*
X162972094Y-88977000D01*
X163545531Y-88977000D01*
X163565364Y-89203689D01*
X163624261Y-89423497D01*
X163720432Y-89629735D01*
X163850953Y-89816140D01*
X164011859Y-89977046D01*
X164198264Y-90107567D01*
X164198265Y-90107567D01*
X164198266Y-90107568D01*
X164404504Y-90203739D01*
X164624308Y-90262635D01*
X164851000Y-90282468D01*
X165077692Y-90262635D01*
X165297496Y-90203739D01*
X165503734Y-90107568D01*
X165690139Y-89977047D01*
X165851047Y-89816139D01*
X165981568Y-89629734D01*
X166077739Y-89423496D01*
X166136635Y-89203692D01*
X166156468Y-88977000D01*
X168545531Y-88977000D01*
X168565364Y-89203689D01*
X168624261Y-89423497D01*
X168720432Y-89629735D01*
X168850953Y-89816140D01*
X169011859Y-89977046D01*
X169198264Y-90107567D01*
X169198265Y-90107567D01*
X169198266Y-90107568D01*
X169404504Y-90203739D01*
X169624308Y-90262635D01*
X169851000Y-90282468D01*
X170077692Y-90262635D01*
X170297496Y-90203739D01*
X170503734Y-90107568D01*
X170690139Y-89977047D01*
X170851047Y-89816139D01*
X170981568Y-89629734D01*
X171077739Y-89423496D01*
X171136635Y-89203692D01*
X171156468Y-88977000D01*
X171136635Y-88750308D01*
X171077739Y-88530504D01*
X170981568Y-88324266D01*
X170879942Y-88179128D01*
X170851046Y-88137859D01*
X170690140Y-87976953D01*
X170503735Y-87846432D01*
X170297497Y-87750261D01*
X170077689Y-87691364D01*
X169851000Y-87671531D01*
X169624310Y-87691364D01*
X169404502Y-87750261D01*
X169198264Y-87846432D01*
X169011859Y-87976953D01*
X168850953Y-88137859D01*
X168720432Y-88324264D01*
X168624261Y-88530502D01*
X168565364Y-88750310D01*
X168545531Y-88977000D01*
X166156468Y-88977000D01*
X166136635Y-88750308D01*
X166077739Y-88530504D01*
X165981568Y-88324266D01*
X165879942Y-88179128D01*
X165851046Y-88137859D01*
X165690140Y-87976953D01*
X165503735Y-87846432D01*
X165297497Y-87750261D01*
X165077689Y-87691364D01*
X164851000Y-87671531D01*
X164624310Y-87691364D01*
X164404502Y-87750261D01*
X164198264Y-87846432D01*
X164011859Y-87976953D01*
X163850953Y-88137859D01*
X163720432Y-88324264D01*
X163624261Y-88530502D01*
X163565364Y-88750310D01*
X163545531Y-88977000D01*
X162972094Y-88977000D01*
X162956635Y-88800308D01*
X162897739Y-88580504D01*
X162801568Y-88374266D01*
X162673040Y-88190708D01*
X162671046Y-88187859D01*
X162510140Y-88026953D01*
X162323735Y-87896432D01*
X162117497Y-87800261D01*
X161897689Y-87741364D01*
X161670999Y-87721531D01*
X161444310Y-87741364D01*
X161224502Y-87800261D01*
X161018264Y-87896432D01*
X160831859Y-88026953D01*
X160670953Y-88187859D01*
X160540432Y-88374264D01*
X160444261Y-88580502D01*
X160385364Y-88800310D01*
X160365531Y-89026999D01*
X160385364Y-89253689D01*
X160444261Y-89473497D01*
X160540432Y-89679735D01*
X160670953Y-89866140D01*
X160831859Y-90027046D01*
X160946858Y-90107568D01*
X161018266Y-90157568D01*
X161076275Y-90184618D01*
X161128450Y-90230375D01*
X161147869Y-90297000D01*
X161128450Y-90363625D01*
X161076275Y-90409382D01*
X161018263Y-90436433D01*
X160831859Y-90566953D01*
X160670953Y-90727859D01*
X160540432Y-90914264D01*
X160444261Y-91120502D01*
X160385364Y-91340310D01*
X160365531Y-91566999D01*
X160385364Y-91793689D01*
X160444261Y-92013497D01*
X160540432Y-92219735D01*
X160670953Y-92406140D01*
X160831859Y-92567046D01*
X161018263Y-92697566D01*
X161018266Y-92697568D01*
X161076275Y-92724618D01*
X161128450Y-92770375D01*
X161147869Y-92837000D01*
X161128450Y-92903625D01*
X161076275Y-92949382D01*
X161018263Y-92976433D01*
X160831859Y-93106953D01*
X160670953Y-93267859D01*
X160540432Y-93454264D01*
X160444261Y-93660502D01*
X160385364Y-93880310D01*
X160365531Y-94106999D01*
X160385364Y-94333689D01*
X160444261Y-94553497D01*
X160540432Y-94759735D01*
X160670953Y-94946140D01*
X160831859Y-95107046D01*
X160974236Y-95206738D01*
X161018266Y-95237568D01*
X161076275Y-95264618D01*
X161128450Y-95310375D01*
X161147869Y-95377000D01*
X161128450Y-95443625D01*
X161076275Y-95489382D01*
X161018263Y-95516433D01*
X160831859Y-95646953D01*
X160670953Y-95807859D01*
X160540432Y-95994264D01*
X160444261Y-96200502D01*
X160385364Y-96420310D01*
X160365531Y-96646999D01*
X160385364Y-96873689D01*
X160444261Y-97093497D01*
X160540432Y-97299735D01*
X160670953Y-97486140D01*
X160831859Y-97647046D01*
X160962126Y-97738259D01*
X161018266Y-97777568D01*
X161076273Y-97804617D01*
X161128449Y-97850373D01*
X161147869Y-97916997D01*
X161128451Y-97983622D01*
X161076276Y-98029380D01*
X161018266Y-98056431D01*
X160831859Y-98186953D01*
X160670953Y-98347859D01*
X160540432Y-98534264D01*
X160444261Y-98740502D01*
X160385364Y-98960310D01*
X160365531Y-99186999D01*
X160385364Y-99413689D01*
X160444261Y-99633497D01*
X160540432Y-99839735D01*
X160670953Y-100026140D01*
X160831859Y-100187046D01*
X161018263Y-100317566D01*
X161018266Y-100317568D01*
X161076275Y-100344618D01*
X161128450Y-100390375D01*
X161147869Y-100457000D01*
X161128450Y-100523625D01*
X161076275Y-100569382D01*
X161018263Y-100596433D01*
X160831859Y-100726953D01*
X160670953Y-100887859D01*
X160540432Y-101074264D01*
X160444261Y-101280502D01*
X160385364Y-101500310D01*
X160365531Y-101727000D01*
X160385364Y-101953689D01*
X160444261Y-102173497D01*
X160540432Y-102379735D01*
X160670953Y-102566140D01*
X160831859Y-102727046D01*
X161018263Y-102857566D01*
X161018266Y-102857568D01*
X161076275Y-102884618D01*
X161128450Y-102930375D01*
X161147869Y-102997000D01*
X161128450Y-103063625D01*
X161076275Y-103109382D01*
X161018263Y-103136433D01*
X160831859Y-103266953D01*
X160670953Y-103427859D01*
X160540432Y-103614264D01*
X160444261Y-103820502D01*
X160385364Y-104040310D01*
X160365531Y-104266999D01*
X160385364Y-104493690D01*
X160403680Y-104562047D01*
X160403680Y-104626234D01*
X160371586Y-104681821D01*
X158908228Y-106145181D01*
X158868000Y-106172061D01*
X158820547Y-106181500D01*
X155265188Y-106181500D01*
X155207931Y-106167489D01*
X155163613Y-106128623D01*
X155051046Y-105967859D01*
X154890140Y-105806953D01*
X154703733Y-105676431D01*
X154645725Y-105649382D01*
X154593549Y-105603625D01*
X154574129Y-105537000D01*
X154593549Y-105470375D01*
X154645725Y-105424618D01*
X154651200Y-105422065D01*
X154703734Y-105397568D01*
X154890139Y-105267047D01*
X155051047Y-105106139D01*
X155181568Y-104919734D01*
X155277739Y-104713496D01*
X155336635Y-104493692D01*
X155356468Y-104267000D01*
X155336635Y-104040308D01*
X155277739Y-103820504D01*
X155181568Y-103614266D01*
X155173350Y-103602530D01*
X155051046Y-103427859D01*
X154890140Y-103266953D01*
X154703733Y-103136431D01*
X154645725Y-103109382D01*
X154593549Y-103063625D01*
X154574129Y-102997000D01*
X154593549Y-102930375D01*
X154645725Y-102884618D01*
X154703734Y-102857568D01*
X154890139Y-102727047D01*
X155051047Y-102566139D01*
X155181568Y-102379734D01*
X155277739Y-102173496D01*
X155336635Y-101953692D01*
X155356468Y-101727000D01*
X155336635Y-101500308D01*
X155277739Y-101280504D01*
X155181568Y-101074266D01*
X155079953Y-100929144D01*
X155051046Y-100887859D01*
X154890140Y-100726953D01*
X154703733Y-100596431D01*
X154645725Y-100569382D01*
X154593549Y-100523625D01*
X154574129Y-100457000D01*
X154593549Y-100390375D01*
X154645725Y-100344618D01*
X154670108Y-100333248D01*
X154703734Y-100317568D01*
X154890139Y-100187047D01*
X155051047Y-100026139D01*
X155181568Y-99839734D01*
X155277739Y-99633496D01*
X155336635Y-99413692D01*
X155356468Y-99187000D01*
X155336635Y-98960308D01*
X155277739Y-98740504D01*
X155181568Y-98534266D01*
X155053040Y-98350708D01*
X155051046Y-98347859D01*
X154890140Y-98186953D01*
X154703732Y-98056430D01*
X154645724Y-98029380D01*
X154593549Y-97983623D01*
X154574130Y-97916997D01*
X154593550Y-97850373D01*
X154645721Y-97804619D01*
X154703734Y-97777568D01*
X154890139Y-97647047D01*
X155051047Y-97486139D01*
X155181568Y-97299734D01*
X155277739Y-97093496D01*
X155336635Y-96873692D01*
X155356468Y-96647000D01*
X155336635Y-96420308D01*
X155277739Y-96200504D01*
X155181568Y-95994266D01*
X155051047Y-95807861D01*
X155051046Y-95807859D01*
X154890140Y-95646953D01*
X154703733Y-95516431D01*
X154645725Y-95489382D01*
X154593549Y-95443625D01*
X154574129Y-95377000D01*
X154593549Y-95310375D01*
X154645725Y-95264618D01*
X154703734Y-95237568D01*
X154890139Y-95107047D01*
X155051047Y-94946139D01*
X155181568Y-94759734D01*
X155277739Y-94553496D01*
X155336635Y-94333692D01*
X155356468Y-94107000D01*
X155336635Y-93880308D01*
X155277739Y-93660504D01*
X155181568Y-93454266D01*
X155092642Y-93327266D01*
X155051046Y-93267859D01*
X154890140Y-93106953D01*
X154703733Y-92976431D01*
X154645725Y-92949382D01*
X154593549Y-92903625D01*
X154574129Y-92837000D01*
X154593549Y-92770375D01*
X154645725Y-92724618D01*
X154703734Y-92697568D01*
X154890139Y-92567047D01*
X155051047Y-92406139D01*
X155181568Y-92219734D01*
X155277739Y-92013496D01*
X155336635Y-91793692D01*
X155356468Y-91567000D01*
X155336635Y-91340308D01*
X155277739Y-91120504D01*
X155181568Y-90914266D01*
X155051047Y-90727861D01*
X155051046Y-90727859D01*
X154890140Y-90566953D01*
X154865537Y-90549726D01*
X154826399Y-90504884D01*
X154812666Y-90446970D01*
X154827500Y-90389328D01*
X154867485Y-90345239D01*
X154923406Y-90324861D01*
X154958483Y-90321091D01*
X155093331Y-90270796D01*
X155208546Y-90184546D01*
X155294796Y-90069331D01*
X155345091Y-89934483D01*
X155351500Y-89874873D01*
X155351499Y-88179128D01*
X155345091Y-88119517D01*
X155294796Y-87984669D01*
X155208546Y-87869454D01*
X155093331Y-87783204D01*
X154958483Y-87732909D01*
X154898873Y-87726500D01*
X154898869Y-87726500D01*
X153203130Y-87726500D01*
X153143515Y-87732909D01*
X153008669Y-87783204D01*
X152893454Y-87869454D01*
X152807204Y-87984668D01*
X152756909Y-88119516D01*
X152750500Y-88179130D01*
X152750500Y-89874869D01*
X152756909Y-89934483D01*
X152807204Y-90069331D01*
X152893454Y-90184546D01*
X153008669Y-90270796D01*
X153143517Y-90321091D01*
X153178594Y-90324862D01*
X153234513Y-90345239D01*
X153274497Y-90389327D01*
X153289332Y-90446968D01*
X153275600Y-90504881D01*
X153236464Y-90549724D01*
X153211860Y-90566952D01*
X153050953Y-90727859D01*
X152920432Y-90914264D01*
X152824261Y-91120502D01*
X152765364Y-91340310D01*
X152745531Y-91566999D01*
X152765364Y-91793689D01*
X152824261Y-92013497D01*
X152920432Y-92219735D01*
X153050953Y-92406140D01*
X153211859Y-92567046D01*
X153398263Y-92697566D01*
X153398266Y-92697568D01*
X153456275Y-92724618D01*
X153508450Y-92770375D01*
X153527869Y-92837000D01*
X153508450Y-92903625D01*
X153456275Y-92949382D01*
X153398263Y-92976433D01*
X153211859Y-93106953D01*
X153050953Y-93267859D01*
X152920432Y-93454264D01*
X152824261Y-93660502D01*
X152765364Y-93880310D01*
X152745531Y-94106999D01*
X152765364Y-94333689D01*
X152824261Y-94553497D01*
X152920432Y-94759735D01*
X153050953Y-94946140D01*
X153211859Y-95107046D01*
X153354236Y-95206738D01*
X153398266Y-95237568D01*
X153456275Y-95264618D01*
X153508450Y-95310375D01*
X153527869Y-95377000D01*
X153508450Y-95443625D01*
X153456275Y-95489382D01*
X153398263Y-95516433D01*
X153211859Y-95646953D01*
X153050953Y-95807859D01*
X152920432Y-95994264D01*
X152824261Y-96200502D01*
X152765364Y-96420310D01*
X152745531Y-96646999D01*
X152765364Y-96873689D01*
X152824261Y-97093497D01*
X152920432Y-97299735D01*
X153050953Y-97486140D01*
X153211859Y-97647046D01*
X153342126Y-97738259D01*
X153398266Y-97777568D01*
X153456273Y-97804617D01*
X153508449Y-97850373D01*
X153527869Y-97916997D01*
X153508451Y-97983622D01*
X153456276Y-98029380D01*
X153398266Y-98056431D01*
X153211859Y-98186953D01*
X153050953Y-98347859D01*
X152920432Y-98534264D01*
X152824261Y-98740502D01*
X152765364Y-98960310D01*
X152745531Y-99186999D01*
X152765364Y-99413689D01*
X152824261Y-99633497D01*
X152920432Y-99839735D01*
X153050953Y-100026140D01*
X153211859Y-100187046D01*
X153398263Y-100317566D01*
X153398266Y-100317568D01*
X153456275Y-100344618D01*
X153508450Y-100390375D01*
X153527869Y-100457000D01*
X153508450Y-100523625D01*
X153456275Y-100569382D01*
X153398263Y-100596433D01*
X153211859Y-100726953D01*
X153050953Y-100887859D01*
X152920432Y-101074264D01*
X152824261Y-101280502D01*
X152765364Y-101500310D01*
X152745531Y-101727000D01*
X152765364Y-101953689D01*
X152824261Y-102173497D01*
X152920432Y-102379735D01*
X153050953Y-102566140D01*
X153211859Y-102727046D01*
X153398263Y-102857566D01*
X153398266Y-102857568D01*
X153456275Y-102884618D01*
X153508450Y-102930375D01*
X153527869Y-102997000D01*
X153508450Y-103063625D01*
X153456275Y-103109382D01*
X153398263Y-103136433D01*
X153211859Y-103266953D01*
X153050953Y-103427859D01*
X152920432Y-103614264D01*
X152824261Y-103820502D01*
X152765364Y-104040310D01*
X152745531Y-104267000D01*
X152765364Y-104493689D01*
X152824261Y-104713497D01*
X152920432Y-104919735D01*
X153050953Y-105106140D01*
X153211859Y-105267046D01*
X153398263Y-105397566D01*
X153398266Y-105397568D01*
X153450800Y-105422065D01*
X153456275Y-105424618D01*
X153508450Y-105470375D01*
X153527869Y-105537000D01*
X153508450Y-105603625D01*
X153456275Y-105649382D01*
X153398263Y-105676433D01*
X153211859Y-105806953D01*
X153050953Y-105967859D01*
X152920432Y-106154264D01*
X152824261Y-106360502D01*
X152765364Y-106580310D01*
X152745531Y-106807000D01*
X152765364Y-107033689D01*
X152824261Y-107253497D01*
X152920432Y-107459735D01*
X153050953Y-107646140D01*
X153211859Y-107807046D01*
X153243376Y-107829114D01*
X153398266Y-107937568D01*
X153456273Y-107964617D01*
X153508449Y-108010373D01*
X153527869Y-108076997D01*
X153508451Y-108143622D01*
X153456276Y-108189380D01*
X153398266Y-108216431D01*
X153211859Y-108346953D01*
X153050953Y-108507859D01*
X152920432Y-108694264D01*
X152824261Y-108900502D01*
X152765364Y-109120310D01*
X152745531Y-109347000D01*
X152765364Y-109573689D01*
X152824261Y-109793497D01*
X152920432Y-109999735D01*
X153050953Y-110186140D01*
X153211859Y-110347046D01*
X153398263Y-110477566D01*
X153398266Y-110477568D01*
X153456275Y-110504618D01*
X153508450Y-110550375D01*
X153527869Y-110617000D01*
X153508450Y-110683625D01*
X153456275Y-110729382D01*
X153398263Y-110756433D01*
X153211859Y-110886953D01*
X153050953Y-111047859D01*
X152920432Y-111234264D01*
X152824261Y-111440502D01*
X152765364Y-111660310D01*
X152745531Y-111887000D01*
X152765364Y-112113689D01*
X152824261Y-112333497D01*
X152920432Y-112539735D01*
X153050953Y-112726140D01*
X153211859Y-112887046D01*
X153398262Y-113017565D01*
X153398266Y-113017568D01*
X153456275Y-113044618D01*
X153508450Y-113090375D01*
X153527869Y-113157000D01*
X153508450Y-113223625D01*
X153456275Y-113269382D01*
X153398263Y-113296433D01*
X153211859Y-113426953D01*
X153050953Y-113587859D01*
X152920432Y-113774264D01*
X152824261Y-113980502D01*
X152765364Y-114200310D01*
X152745531Y-114427000D01*
X152765364Y-114653689D01*
X152824261Y-114873497D01*
X152920432Y-115079735D01*
X153050953Y-115266140D01*
X153211859Y-115427046D01*
X153359003Y-115530076D01*
X153398266Y-115557568D01*
X153456273Y-115584617D01*
X153508449Y-115630373D01*
X153527869Y-115696997D01*
X153508451Y-115763622D01*
X153456276Y-115809380D01*
X153398266Y-115836431D01*
X153211859Y-115966953D01*
X153050953Y-116127859D01*
X152920432Y-116314264D01*
X152824261Y-116520502D01*
X152765364Y-116740310D01*
X152745531Y-116967000D01*
X152765364Y-117193689D01*
X152824261Y-117413497D01*
X152920432Y-117619735D01*
X153050953Y-117806140D01*
X153211859Y-117967046D01*
X153398263Y-118097566D01*
X153398266Y-118097568D01*
X153456275Y-118124618D01*
X153508450Y-118170375D01*
X153527869Y-118237000D01*
X153508450Y-118303625D01*
X153456275Y-118349382D01*
X153398263Y-118376433D01*
X153211859Y-118506953D01*
X153050953Y-118667859D01*
X152920432Y-118854264D01*
X152824261Y-119060502D01*
X152765364Y-119280310D01*
X152745531Y-119507000D01*
X152765364Y-119733689D01*
X152824261Y-119953497D01*
X152920432Y-120159735D01*
X153050953Y-120346140D01*
X153211859Y-120507046D01*
X153398263Y-120637566D01*
X153398266Y-120637568D01*
X153456275Y-120664618D01*
X153508450Y-120710375D01*
X153527869Y-120777000D01*
X153508450Y-120843625D01*
X153456275Y-120889382D01*
X153398263Y-120916433D01*
X153211859Y-121046953D01*
X153050953Y-121207859D01*
X152920432Y-121394264D01*
X152824261Y-121600502D01*
X152765364Y-121820310D01*
X152745531Y-122047000D01*
X144424900Y-122047000D01*
X144424900Y-98577400D01*
X148452931Y-98577400D01*
X148472764Y-98804089D01*
X148531661Y-99023897D01*
X148627832Y-99230135D01*
X148758353Y-99416540D01*
X148919259Y-99577446D01*
X149105664Y-99707967D01*
X149105665Y-99707967D01*
X149105666Y-99707968D01*
X149311904Y-99804139D01*
X149531708Y-99863035D01*
X149758400Y-99882868D01*
X149985092Y-99863035D01*
X150204896Y-99804139D01*
X150411134Y-99707968D01*
X150597539Y-99577447D01*
X150758447Y-99416539D01*
X150888968Y-99230134D01*
X150985139Y-99023896D01*
X151044035Y-98804092D01*
X151063868Y-98577400D01*
X151044035Y-98350708D01*
X150985139Y-98130904D01*
X150888968Y-97924666D01*
X150883598Y-97916997D01*
X150758446Y-97738259D01*
X150597540Y-97577353D01*
X150411135Y-97446832D01*
X150204897Y-97350661D01*
X149985089Y-97291764D01*
X149758400Y-97271931D01*
X149531710Y-97291764D01*
X149311902Y-97350661D01*
X149105664Y-97446832D01*
X148919259Y-97577353D01*
X148758353Y-97738259D01*
X148627832Y-97924664D01*
X148531661Y-98130902D01*
X148472764Y-98350710D01*
X148452931Y-98577400D01*
X144424900Y-98577400D01*
X144424900Y-88417399D01*
X148452931Y-88417399D01*
X148472764Y-88644089D01*
X148531661Y-88863897D01*
X148627832Y-89070135D01*
X148758353Y-89256540D01*
X148919259Y-89417446D01*
X149105664Y-89547967D01*
X149105665Y-89547967D01*
X149105666Y-89547968D01*
X149311904Y-89644139D01*
X149531708Y-89703035D01*
X149758400Y-89722868D01*
X149985092Y-89703035D01*
X150204896Y-89644139D01*
X150411134Y-89547968D01*
X150597539Y-89417447D01*
X150758447Y-89256539D01*
X150888968Y-89070134D01*
X150985139Y-88863896D01*
X151044035Y-88644092D01*
X151063868Y-88417400D01*
X151044035Y-88190708D01*
X150985139Y-87970904D01*
X150888968Y-87764666D01*
X150862244Y-87726500D01*
X150758446Y-87578259D01*
X150597540Y-87417353D01*
X150411135Y-87286832D01*
X150204897Y-87190661D01*
X149985089Y-87131764D01*
X149758400Y-87111931D01*
X149531710Y-87131764D01*
X149311902Y-87190661D01*
X149105664Y-87286832D01*
X148919259Y-87417353D01*
X148758353Y-87578259D01*
X148627832Y-87764664D01*
X148531661Y-87970902D01*
X148472764Y-88190710D01*
X148452931Y-88417399D01*
X144424900Y-88417399D01*
X144424900Y-86001900D01*
X144441513Y-85939900D01*
X144486900Y-85894513D01*
X144548900Y-85877900D01*
X177319900Y-85877900D01*
X177381900Y-85894513D01*
G37*
%TD.AperFunction*%
%TA.AperFunction,NonConductor*%
G36*
X166353785Y-113316735D02*
G01*
X166391385Y-113360758D01*
X166404900Y-113417053D01*
X166404900Y-116377147D01*
X166395461Y-116424600D01*
X166368581Y-116464828D01*
X163183819Y-119649588D01*
X163132392Y-119680489D01*
X163072477Y-119683629D01*
X163018102Y-119658273D01*
X162981995Y-119610357D01*
X162972610Y-119551099D01*
X162976468Y-119506999D01*
X162956635Y-119280310D01*
X162956635Y-119280308D01*
X162897739Y-119060504D01*
X162801568Y-118854266D01*
X162729862Y-118751859D01*
X162671046Y-118667859D01*
X162510140Y-118506953D01*
X162323733Y-118376431D01*
X162265725Y-118349382D01*
X162213549Y-118303625D01*
X162194129Y-118237000D01*
X162213549Y-118170375D01*
X162265725Y-118124618D01*
X162323734Y-118097568D01*
X162510139Y-117967047D01*
X162671047Y-117806139D01*
X162801568Y-117619734D01*
X162897739Y-117413496D01*
X162956635Y-117193692D01*
X162976468Y-116967000D01*
X162956635Y-116740308D01*
X162938319Y-116671951D01*
X162938319Y-116607763D01*
X162970411Y-116552178D01*
X166193218Y-113329372D01*
X166242582Y-113299122D01*
X166300298Y-113294580D01*
X166353785Y-113316735D01*
G37*
%TD.AperFunction*%
M02*
