%TF.GenerationSoftware,KiCad,Pcbnew,7.0.1*%
%TF.CreationDate,2023-04-21T04:09:38+01:00*%
%TF.ProjectId,wiikey,7769696b-6579-42e6-9b69-6361645f7063,rev?*%
%TF.SameCoordinates,Original*%
%TF.FileFunction,Legend,Bot*%
%TF.FilePolarity,Positive*%
%FSLAX46Y46*%
G04 Gerber Fmt 4.6, Leading zero omitted, Abs format (unit mm)*
G04 Created by KiCad (PCBNEW 7.0.1) date 2023-04-21 04:09:38*
%MOMM*%
%LPD*%
G01*
G04 APERTURE LIST*
G04 APERTURE END LIST*
%TO.C,G\u002A\u002A\u002A*%
G36*
X168227853Y-96347735D02*
G01*
X168221527Y-96439241D01*
X168166719Y-96643418D01*
X168071300Y-96872625D01*
X167937344Y-97123091D01*
X167766926Y-97391046D01*
X167562118Y-97672719D01*
X167324996Y-97964340D01*
X167057631Y-98262138D01*
X166656686Y-98688460D01*
X166830298Y-98671108D01*
X166831989Y-98670939D01*
X166929051Y-98663340D01*
X166988110Y-98668347D01*
X167027614Y-98691095D01*
X167066013Y-98736719D01*
X167069242Y-98741120D01*
X167110897Y-98816487D01*
X167128008Y-98883186D01*
X167112517Y-98959006D01*
X167049615Y-99076076D01*
X166942382Y-99212016D01*
X166795164Y-99363507D01*
X166612307Y-99527231D01*
X166398158Y-99699870D01*
X166157064Y-99878106D01*
X165893371Y-100058620D01*
X165611426Y-100238095D01*
X165315575Y-100413211D01*
X165010165Y-100580651D01*
X164699543Y-100737097D01*
X164684789Y-100744192D01*
X164561234Y-100803912D01*
X164458797Y-100853954D01*
X164387775Y-100889256D01*
X164358468Y-100904754D01*
X164357264Y-100906796D01*
X164373782Y-100938566D01*
X164423450Y-100997848D01*
X164497127Y-101075343D01*
X164585669Y-101161753D01*
X164679935Y-101247779D01*
X164770782Y-101324122D01*
X165033373Y-101503110D01*
X165335671Y-101649091D01*
X165651963Y-101746384D01*
X165973722Y-101793109D01*
X166292424Y-101787387D01*
X166599543Y-101727336D01*
X166689187Y-101699404D01*
X166816215Y-101653523D01*
X166945437Y-101598113D01*
X167082324Y-101529904D01*
X167232347Y-101445627D01*
X167400977Y-101342013D01*
X167593683Y-101215794D01*
X167815938Y-101063699D01*
X168073210Y-100882461D01*
X168370972Y-100668810D01*
X168449303Y-100612581D01*
X168732751Y-100415963D01*
X168979548Y-100257318D01*
X169194014Y-100134524D01*
X169380473Y-100045457D01*
X169543244Y-99987993D01*
X169686650Y-99960011D01*
X169815013Y-99959387D01*
X169915859Y-99975787D01*
X169992804Y-100012069D01*
X170031662Y-100075464D01*
X170042400Y-100175441D01*
X170031542Y-100272031D01*
X169976688Y-100434505D01*
X169879992Y-100608651D01*
X169746447Y-100784203D01*
X169691541Y-100847683D01*
X169643616Y-100906524D01*
X169628806Y-100934895D01*
X169643794Y-100940837D01*
X169685258Y-100932389D01*
X169699447Y-100929353D01*
X169780202Y-100917069D01*
X169892718Y-100904345D01*
X170017223Y-100893497D01*
X170095568Y-100888119D01*
X170189707Y-100884990D01*
X170249722Y-100891064D01*
X170289859Y-100908467D01*
X170324366Y-100939323D01*
X170336747Y-100953611D01*
X170380103Y-101053826D01*
X170379333Y-101116310D01*
X170378512Y-101182914D01*
X170333945Y-101336724D01*
X170248375Y-101511107D01*
X170123771Y-101701914D01*
X169962105Y-101904994D01*
X169765347Y-102116198D01*
X169710476Y-102170305D01*
X169535041Y-102331051D01*
X169350669Y-102479437D01*
X169142584Y-102626824D01*
X168896005Y-102784575D01*
X168621038Y-102953891D01*
X168720000Y-103215817D01*
X168844334Y-103587474D01*
X168971625Y-104118603D01*
X169048596Y-104670491D01*
X169062816Y-104986027D01*
X169074111Y-105236643D01*
X169057133Y-105662462D01*
X168986236Y-106208283D01*
X168861573Y-106740130D01*
X168684686Y-107253686D01*
X168457120Y-107744633D01*
X168180420Y-108208655D01*
X167856130Y-108641435D01*
X167632631Y-108908756D01*
X167730373Y-109101370D01*
X167784749Y-109206252D01*
X167940696Y-109487639D01*
X168112161Y-109773479D01*
X168291358Y-110051927D01*
X168470499Y-110311138D01*
X168641796Y-110539266D01*
X168797462Y-110724467D01*
X168870637Y-110802835D01*
X169071664Y-110993947D01*
X169276329Y-111148987D01*
X169493283Y-111271614D01*
X169731178Y-111365488D01*
X169998662Y-111434269D01*
X170304388Y-111481618D01*
X170657004Y-111511193D01*
X170807943Y-111520780D01*
X170995764Y-111537322D01*
X171134854Y-111558291D01*
X171230307Y-111586201D01*
X171287218Y-111623566D01*
X171310681Y-111672902D01*
X171307905Y-111709123D01*
X171305789Y-111736722D01*
X171277638Y-111817541D01*
X171240868Y-111888851D01*
X171131452Y-112030738D01*
X170983406Y-112165113D01*
X170808719Y-112281893D01*
X170619383Y-112370998D01*
X170558811Y-112395201D01*
X170495521Y-112425441D01*
X170470972Y-112444612D01*
X170474230Y-112449977D01*
X170513825Y-112472365D01*
X170583970Y-112498412D01*
X170606208Y-112506168D01*
X170699454Y-112552513D01*
X170784702Y-112613174D01*
X170846895Y-112676050D01*
X170870972Y-112729041D01*
X170852496Y-112776217D01*
X170806686Y-112834069D01*
X170748162Y-112884549D01*
X170585421Y-112979525D01*
X170381468Y-113053550D01*
X170144908Y-113106192D01*
X169884350Y-113137018D01*
X169608402Y-113145596D01*
X169325671Y-113131493D01*
X169044765Y-113094278D01*
X168774292Y-113033518D01*
X168522859Y-112948781D01*
X168508876Y-112943058D01*
X168194878Y-112783401D01*
X167900455Y-112571598D01*
X167625023Y-112306842D01*
X167368001Y-111988327D01*
X167245213Y-111796809D01*
X168099543Y-111796809D01*
X168113829Y-111811821D01*
X168128115Y-111796809D01*
X168113829Y-111781797D01*
X168099543Y-111796809D01*
X167245213Y-111796809D01*
X167128806Y-111615244D01*
X166906857Y-111186787D01*
X166701571Y-110702148D01*
X166512367Y-110160520D01*
X166511015Y-110156270D01*
X166468274Y-110022793D01*
X166432268Y-109912030D01*
X166406746Y-109835408D01*
X166395460Y-109804355D01*
X166387847Y-109804613D01*
X166339224Y-109820762D01*
X166256268Y-109854007D01*
X166151082Y-109899630D01*
X166132196Y-109907999D01*
X165987829Y-109968188D01*
X165835389Y-110026594D01*
X165704905Y-110071640D01*
X165610641Y-110103081D01*
X165543534Y-110132251D01*
X165515240Y-110158212D01*
X165516639Y-110186531D01*
X165530639Y-110223846D01*
X165560558Y-110308587D01*
X165600585Y-110424706D01*
X165645983Y-110558576D01*
X165706862Y-110756174D01*
X165794423Y-111105551D01*
X165873699Y-111503880D01*
X165943810Y-111944698D01*
X166003874Y-112421539D01*
X166053013Y-112927937D01*
X166090346Y-113457428D01*
X166114993Y-114003546D01*
X166116768Y-114056314D01*
X166128762Y-114340171D01*
X166143528Y-114570876D01*
X166161772Y-114754309D01*
X166184204Y-114896351D01*
X166211530Y-115002885D01*
X166244457Y-115079791D01*
X166256627Y-115100276D01*
X166311653Y-115183092D01*
X166386711Y-115287785D01*
X166469234Y-115396639D01*
X166562197Y-115519324D01*
X166639328Y-115633089D01*
X166700955Y-115744008D01*
X166748801Y-115859938D01*
X166784591Y-115988738D01*
X166810047Y-116138266D01*
X166826893Y-116316381D01*
X166836853Y-116530940D01*
X166841650Y-116789803D01*
X166843008Y-117100828D01*
X166841513Y-117321159D01*
X166840224Y-117511007D01*
X166835182Y-117699032D01*
X166827215Y-117996165D01*
X166803290Y-118425369D01*
X166768123Y-118800375D01*
X166721386Y-119122941D01*
X166662755Y-119394823D01*
X166591902Y-119617779D01*
X166508503Y-119793565D01*
X166412229Y-119923939D01*
X166302756Y-120010657D01*
X166290225Y-120017028D01*
X166184620Y-120044591D01*
X166024557Y-120055317D01*
X165810372Y-120049198D01*
X165542400Y-120026227D01*
X165446408Y-120005458D01*
X165344556Y-119944544D01*
X165287006Y-119851456D01*
X165279004Y-119771337D01*
X165397033Y-119771337D01*
X165409720Y-119815635D01*
X165420322Y-119837697D01*
X165457957Y-119882544D01*
X165487553Y-119873713D01*
X165499543Y-119811630D01*
X165504224Y-119763753D01*
X165534519Y-119669134D01*
X165584676Y-119579336D01*
X165644975Y-119507309D01*
X165705699Y-119466006D01*
X165757128Y-119468376D01*
X165761030Y-119470998D01*
X165784524Y-119502510D01*
X165763653Y-119549559D01*
X165731357Y-119599909D01*
X165668659Y-119726341D01*
X165653655Y-119820883D01*
X165686340Y-119883133D01*
X165766711Y-119912692D01*
X165806603Y-119914893D01*
X165836087Y-119895051D01*
X165842400Y-119832431D01*
X165844210Y-119810278D01*
X165871063Y-119728671D01*
X165919866Y-119646609D01*
X165977453Y-119583292D01*
X166030655Y-119557920D01*
X166043425Y-119560049D01*
X166067912Y-119594114D01*
X166063050Y-119655290D01*
X166029023Y-119724817D01*
X165995786Y-119787524D01*
X165993292Y-119862965D01*
X166040522Y-119917147D01*
X166081826Y-119935859D01*
X166150725Y-119939799D01*
X166225566Y-119902777D01*
X166319252Y-119820309D01*
X166380875Y-119743168D01*
X166462332Y-119584957D01*
X166533811Y-119375486D01*
X166593736Y-119119649D01*
X166640531Y-118822341D01*
X166644707Y-118787519D01*
X166658533Y-118652363D01*
X166672133Y-118492901D01*
X166684911Y-118319647D01*
X166696272Y-118143118D01*
X166705619Y-117973828D01*
X166712358Y-117822295D01*
X166715891Y-117699032D01*
X166715624Y-117614555D01*
X166710960Y-117579381D01*
X166709232Y-117579061D01*
X166678369Y-117601555D01*
X166615713Y-117660413D01*
X166527472Y-117749405D01*
X166419852Y-117862300D01*
X166299059Y-117992869D01*
X165905302Y-118424390D01*
X165831892Y-118368164D01*
X165829608Y-118366404D01*
X165779023Y-118321033D01*
X165757584Y-118289421D01*
X165756627Y-118284294D01*
X165728115Y-118266903D01*
X165721031Y-118274447D01*
X165709509Y-118330210D01*
X165701886Y-118433115D01*
X165698969Y-118574646D01*
X165696751Y-118735151D01*
X165684109Y-118958752D01*
X165659034Y-119137506D01*
X165620087Y-119280295D01*
X165565826Y-119396005D01*
X165544819Y-119431527D01*
X165470409Y-119561525D01*
X165423536Y-119654609D01*
X165400358Y-119721104D01*
X165397033Y-119771337D01*
X165279004Y-119771337D01*
X165274984Y-119731084D01*
X165309717Y-119588321D01*
X165392430Y-119428058D01*
X165439079Y-119354451D01*
X165486322Y-119278196D01*
X165512677Y-119233453D01*
X165531170Y-119167900D01*
X165546421Y-119054082D01*
X165557911Y-118903850D01*
X165565151Y-118728995D01*
X165567653Y-118541306D01*
X165564931Y-118352574D01*
X165556495Y-118174589D01*
X165549343Y-118077401D01*
X165507636Y-117690477D01*
X165447053Y-117352417D01*
X165365764Y-117056248D01*
X165261944Y-116794998D01*
X165133763Y-116561693D01*
X165086519Y-116492699D01*
X164998119Y-116374467D01*
X164887402Y-116234101D01*
X164763925Y-116083657D01*
X164637242Y-115935195D01*
X164430612Y-115692721D01*
X164144779Y-115333291D01*
X163889531Y-114978160D01*
X163653597Y-114611342D01*
X163425708Y-114216854D01*
X163287005Y-113964794D01*
X163247179Y-114066735D01*
X163237092Y-114093748D01*
X163190663Y-114244281D01*
X163144260Y-114431367D01*
X163101895Y-114636027D01*
X163067577Y-114839277D01*
X163045317Y-115022137D01*
X163038268Y-115117345D01*
X163037704Y-115444208D01*
X163074654Y-115744259D01*
X163148058Y-116007334D01*
X163175062Y-116082344D01*
X163200907Y-116173595D01*
X163215881Y-116267680D01*
X163222700Y-116383647D01*
X163224080Y-116540544D01*
X163223886Y-116567141D01*
X163197317Y-116935710D01*
X163127415Y-117333951D01*
X163016092Y-117755535D01*
X162865258Y-118194131D01*
X162676821Y-118643411D01*
X162566059Y-118867591D01*
X162452692Y-119097043D01*
X162352646Y-119282224D01*
X162230885Y-119495971D01*
X162125392Y-119663444D01*
X162031941Y-119789554D01*
X161946306Y-119879211D01*
X161864261Y-119937327D01*
X161781579Y-119968812D01*
X161694035Y-119978576D01*
X161592708Y-119979060D01*
X161424804Y-119978855D01*
X161301342Y-119976531D01*
X161213811Y-119971462D01*
X161153701Y-119963023D01*
X161112502Y-119950587D01*
X161081703Y-119933529D01*
X161008419Y-119901907D01*
X160919815Y-119888180D01*
X160852539Y-119878237D01*
X160763785Y-119820627D01*
X160728268Y-119774266D01*
X160684323Y-119660797D01*
X160688087Y-119622477D01*
X160815013Y-119622477D01*
X160834113Y-119705179D01*
X160850856Y-119729570D01*
X160899356Y-119761418D01*
X160943928Y-119735096D01*
X160980741Y-119651991D01*
X160981140Y-119650606D01*
X161033237Y-119539941D01*
X161114035Y-119442874D01*
X161208235Y-119373960D01*
X161300538Y-119347754D01*
X161320112Y-119348251D01*
X161371347Y-119363430D01*
X161385258Y-119407230D01*
X161373519Y-119447731D01*
X161316538Y-119484829D01*
X161293335Y-119492688D01*
X161208956Y-119550014D01*
X161145812Y-119634397D01*
X161120972Y-119724888D01*
X161131594Y-119788750D01*
X161181214Y-119841229D01*
X161270634Y-119850922D01*
X161310166Y-119840876D01*
X161341335Y-119804146D01*
X161359893Y-119724740D01*
X161400669Y-119613083D01*
X161483920Y-119515217D01*
X161592114Y-119457266D01*
X161594988Y-119456505D01*
X161647567Y-119459332D01*
X161664065Y-119495202D01*
X161644685Y-119551289D01*
X161589630Y-119614770D01*
X161523601Y-119686283D01*
X161501528Y-119757557D01*
X161533829Y-119822128D01*
X161557658Y-119839557D01*
X161637418Y-119856636D01*
X161735624Y-119843186D01*
X161831741Y-119800685D01*
X161835556Y-119798114D01*
X161893334Y-119742143D01*
X161969753Y-119646846D01*
X162056536Y-119524416D01*
X162145406Y-119387048D01*
X162228086Y-119246934D01*
X162296301Y-119116267D01*
X162323006Y-119048824D01*
X162353305Y-118867591D01*
X162337231Y-118663785D01*
X162275805Y-118444667D01*
X162170045Y-118217497D01*
X162130234Y-118148412D01*
X162098043Y-118108665D01*
X162068231Y-118105338D01*
X162026858Y-118129901D01*
X162009289Y-118141449D01*
X161928603Y-118173022D01*
X161857869Y-118153249D01*
X161783262Y-118079256D01*
X161705675Y-117981679D01*
X161673079Y-118116785D01*
X161649897Y-118206456D01*
X161565744Y-118470814D01*
X161461323Y-118732659D01*
X161344765Y-118972863D01*
X161224206Y-119172304D01*
X161183927Y-119224124D01*
X161085961Y-119325871D01*
X160984548Y-119408280D01*
X160936930Y-119443204D01*
X160850013Y-119533716D01*
X160815013Y-119622477D01*
X160688087Y-119622477D01*
X160695714Y-119544826D01*
X160761530Y-119430236D01*
X160880863Y-119320908D01*
X160917490Y-119293477D01*
X161034086Y-119188729D01*
X161136071Y-119063355D01*
X161232639Y-118904734D01*
X161332980Y-118700251D01*
X161431874Y-118466159D01*
X161506339Y-118244120D01*
X161557137Y-118022530D01*
X161588785Y-117781540D01*
X161605797Y-117501301D01*
X161611189Y-117273208D01*
X161607342Y-117040541D01*
X161590390Y-116827702D01*
X161557852Y-116622659D01*
X161507252Y-116413381D01*
X161436110Y-116187839D01*
X161341947Y-115934000D01*
X161222285Y-115639835D01*
X161199542Y-115585386D01*
X161073459Y-115278126D01*
X160970210Y-115014546D01*
X160887212Y-114786145D01*
X160821878Y-114584423D01*
X160771624Y-114400879D01*
X160733866Y-114227011D01*
X160706018Y-114054318D01*
X160685497Y-113874299D01*
X160681578Y-113836951D01*
X160663752Y-113732423D01*
X160642196Y-113687312D01*
X160618065Y-113701316D01*
X160592511Y-113774131D01*
X160566691Y-113905456D01*
X160542144Y-114040155D01*
X160493701Y-114259469D01*
X160434515Y-114492665D01*
X160370871Y-114715395D01*
X160309056Y-114903312D01*
X160307206Y-114908449D01*
X160281519Y-114981866D01*
X160239249Y-115104790D01*
X160182557Y-115270857D01*
X160113602Y-115473701D01*
X160034547Y-115706956D01*
X159947552Y-115964256D01*
X159854778Y-116239237D01*
X159758386Y-116525532D01*
X159742999Y-116571298D01*
X159607047Y-116977500D01*
X159488475Y-117335867D01*
X159384970Y-117654036D01*
X159294215Y-117939642D01*
X159213896Y-118200322D01*
X159203052Y-118236880D01*
X159141698Y-118443713D01*
X159075305Y-118677449D01*
X159012402Y-118909167D01*
X158950675Y-119146504D01*
X158887808Y-119397096D01*
X158855522Y-119522967D01*
X158805674Y-119702515D01*
X158756138Y-119865851D01*
X158711241Y-119998914D01*
X158675311Y-120087640D01*
X158634434Y-120163563D01*
X158499887Y-120348618D01*
X158335261Y-120506895D01*
X158156686Y-120621782D01*
X158138308Y-120630504D01*
X158043599Y-120667043D01*
X157942888Y-120688646D01*
X157823637Y-120696270D01*
X157673308Y-120690870D01*
X157479361Y-120673402D01*
X157369079Y-120657790D01*
X157271542Y-120629754D01*
X157207933Y-120588638D01*
X157145647Y-120540769D01*
X157070972Y-120503564D01*
X157059059Y-120499738D01*
X156964988Y-120449646D01*
X156914591Y-120370835D01*
X156899732Y-120251316D01*
X156903918Y-120194235D01*
X157022859Y-120194235D01*
X157025033Y-120291285D01*
X157041262Y-120332508D01*
X157077902Y-120365446D01*
X157112659Y-120356746D01*
X157128115Y-120304222D01*
X157145156Y-120257805D01*
X157193087Y-120185323D01*
X157259228Y-120103512D01*
X157330809Y-120026984D01*
X157395062Y-119970352D01*
X157439216Y-119948227D01*
X157481099Y-119963063D01*
X157489178Y-120010152D01*
X157457906Y-120081596D01*
X157389127Y-120169261D01*
X157387575Y-120170929D01*
X157307842Y-120278005D01*
X157269959Y-120377472D01*
X157275550Y-120460340D01*
X157326236Y-120517620D01*
X157353647Y-120530932D01*
X157412740Y-120546883D01*
X157452752Y-120542623D01*
X157456341Y-120518089D01*
X157453230Y-120511762D01*
X157452358Y-120445970D01*
X157484592Y-120356933D01*
X157542507Y-120260463D01*
X157618678Y-120172373D01*
X157669256Y-120125608D01*
X157717873Y-120089581D01*
X157750052Y-120086284D01*
X157780186Y-120110172D01*
X157796824Y-120129906D01*
X157804590Y-120161059D01*
X157782086Y-120202856D01*
X157723876Y-120270809D01*
X157666045Y-120338752D01*
X157613942Y-120420209D01*
X157603433Y-120481926D01*
X157631370Y-120532819D01*
X157680048Y-120559243D01*
X157771182Y-120574592D01*
X157879702Y-120572069D01*
X157985258Y-120550648D01*
X158079042Y-120514359D01*
X158272084Y-120394877D01*
X158436736Y-120227149D01*
X158566807Y-120016858D01*
X158589310Y-119961433D01*
X158627375Y-119848263D01*
X158672237Y-119699685D01*
X158720047Y-119528560D01*
X158766957Y-119347754D01*
X158797201Y-119227371D01*
X158848606Y-119026555D01*
X158899512Y-118831727D01*
X158945358Y-118660282D01*
X158981581Y-118529610D01*
X159006331Y-118440821D01*
X159033628Y-118335526D01*
X159049672Y-118263543D01*
X159051590Y-118236880D01*
X159041131Y-118239372D01*
X158985996Y-118263606D01*
X158898128Y-118308280D01*
X158789451Y-118366778D01*
X158671888Y-118432485D01*
X158557361Y-118498785D01*
X158457794Y-118559061D01*
X158385108Y-118606698D01*
X158305197Y-118660010D01*
X158233460Y-118701407D01*
X158192193Y-118717258D01*
X158169594Y-118705599D01*
X158120495Y-118655926D01*
X158063768Y-118580489D01*
X158023776Y-118524223D01*
X157983437Y-118476634D01*
X157965065Y-118467900D01*
X157964527Y-118469798D01*
X157952506Y-118513464D01*
X157928438Y-118601511D01*
X157895522Y-118722215D01*
X157856962Y-118863851D01*
X157820575Y-118993494D01*
X157749520Y-119215805D01*
X157676842Y-119392790D01*
X157674844Y-119397655D01*
X157588883Y-119551739D01*
X157483974Y-119690754D01*
X157352453Y-119827398D01*
X157186656Y-119974366D01*
X157161313Y-119996349D01*
X157066949Y-120098545D01*
X157022859Y-120194235D01*
X156903918Y-120194235D01*
X156906012Y-120165687D01*
X156939809Y-120058338D01*
X157009850Y-119954532D01*
X157123957Y-119839919D01*
X157148228Y-119817273D01*
X157252776Y-119692822D01*
X157329440Y-119545055D01*
X157373002Y-119392790D01*
X157499543Y-119392790D01*
X157513829Y-119407802D01*
X157528115Y-119392790D01*
X157513829Y-119377778D01*
X157499543Y-119392790D01*
X157373002Y-119392790D01*
X157380805Y-119365515D01*
X157409452Y-119145744D01*
X157417966Y-118877287D01*
X157409096Y-118614203D01*
X157365761Y-118187107D01*
X157348067Y-118081744D01*
X157482640Y-118081744D01*
X157491956Y-118122164D01*
X157510110Y-118241656D01*
X157526139Y-118397112D01*
X157538966Y-118572354D01*
X157547514Y-118751205D01*
X157550704Y-118917488D01*
X157547459Y-119055024D01*
X157543206Y-119135914D01*
X157539112Y-119245052D01*
X157538472Y-119319941D01*
X157541543Y-119347754D01*
X157543536Y-119347388D01*
X157567238Y-119313524D01*
X157599964Y-119231188D01*
X157639440Y-119109675D01*
X157683393Y-118958278D01*
X157729550Y-118786293D01*
X157775638Y-118603013D01*
X157819382Y-118417734D01*
X157858509Y-118239748D01*
X157890747Y-118078351D01*
X157913822Y-117942838D01*
X157925460Y-117842502D01*
X157923388Y-117786637D01*
X157920451Y-117783482D01*
X157886484Y-117795348D01*
X157824327Y-117838948D01*
X157744722Y-117907044D01*
X157661886Y-117978668D01*
X157577262Y-118035369D01*
X157522729Y-118046559D01*
X157484355Y-118045477D01*
X157482640Y-118081744D01*
X157348067Y-118081744D01*
X157286602Y-117715738D01*
X157171882Y-117201371D01*
X157021862Y-116645279D01*
X156836805Y-116048737D01*
X156820701Y-116000298D01*
X156776277Y-115869852D01*
X156719852Y-115707136D01*
X156654079Y-115519533D01*
X156581605Y-115314425D01*
X156505082Y-115099197D01*
X156427160Y-114881231D01*
X156350489Y-114667909D01*
X156277720Y-114466616D01*
X156211501Y-114284734D01*
X156154484Y-114129647D01*
X156109319Y-114008736D01*
X156078655Y-113929386D01*
X156065143Y-113898980D01*
X156041381Y-113885239D01*
X155976236Y-113849415D01*
X155880281Y-113797357D01*
X155763964Y-113734761D01*
X155503122Y-113581340D01*
X155139463Y-113317823D01*
X154808330Y-113016591D01*
X154515525Y-112683756D01*
X154266848Y-112325430D01*
X154068102Y-111947728D01*
X154036503Y-111875771D01*
X153961487Y-111689668D01*
X153906584Y-111520006D01*
X153868881Y-111351544D01*
X153845466Y-111169040D01*
X153833427Y-110957254D01*
X153829851Y-110700946D01*
X153829853Y-110611061D01*
X153830558Y-110516259D01*
X153924163Y-110516259D01*
X153928440Y-110927756D01*
X153988510Y-111331235D01*
X154104130Y-111724464D01*
X154275056Y-112105211D01*
X154501046Y-112471245D01*
X154635134Y-112643875D01*
X154817647Y-112847943D01*
X155019982Y-113049635D01*
X155225991Y-113232941D01*
X155419524Y-113381850D01*
X155494449Y-113432522D01*
X155611984Y-113507798D01*
X155730303Y-113579564D01*
X155839526Y-113642208D01*
X155929775Y-113690122D01*
X155991169Y-113717695D01*
X156013829Y-113719317D01*
X156009561Y-113694427D01*
X155994869Y-113621280D01*
X155972173Y-113512670D01*
X155944059Y-113381119D01*
X155924162Y-113288336D01*
X155890313Y-113128272D01*
X155859627Y-112980681D01*
X155836916Y-112868588D01*
X155799543Y-112679375D01*
X155602235Y-112607148D01*
X155494654Y-112561352D01*
X155380419Y-112500555D01*
X155295092Y-112442168D01*
X155255044Y-112409984D01*
X155205032Y-112376298D01*
X155185660Y-112373349D01*
X155194569Y-112404613D01*
X155229089Y-112480858D01*
X155283311Y-112585832D01*
X155350493Y-112707416D01*
X155423895Y-112833490D01*
X155496773Y-112951933D01*
X155562388Y-113050625D01*
X155609415Y-113121288D01*
X155663782Y-113220417D01*
X155687537Y-113291953D01*
X155678962Y-113329483D01*
X155636339Y-113326595D01*
X155584303Y-113284766D01*
X155512621Y-113195825D01*
X155427946Y-113069466D01*
X155335232Y-112914709D01*
X155239431Y-112740572D01*
X155145498Y-112556074D01*
X155058387Y-112370232D01*
X154983052Y-112192065D01*
X154924446Y-112030592D01*
X154824002Y-111642598D01*
X154767311Y-111221793D01*
X154763340Y-110941135D01*
X154886895Y-110941135D01*
X154887367Y-111082225D01*
X154895611Y-111341465D01*
X154916206Y-111555448D01*
X154952203Y-111733830D01*
X155006651Y-111886266D01*
X155082600Y-112022411D01*
X155183099Y-112151920D01*
X155311199Y-112284449D01*
X155388398Y-112351894D01*
X155502864Y-112433032D01*
X155603619Y-112484167D01*
X155650412Y-112500423D01*
X155723060Y-112523375D01*
X155761975Y-112532388D01*
X155763663Y-112531798D01*
X155771346Y-112497241D01*
X155771514Y-112419966D01*
X155764029Y-112314717D01*
X155757349Y-112217096D01*
X155751515Y-112071836D01*
X155747003Y-111894070D01*
X155744164Y-111697685D01*
X155743592Y-111556620D01*
X155856908Y-111556620D01*
X155857272Y-111751307D01*
X155859394Y-111959191D01*
X155864051Y-112128999D01*
X155871971Y-112273115D01*
X155883880Y-112403922D01*
X155900505Y-112533803D01*
X155922574Y-112675141D01*
X155944243Y-112802859D01*
X155991949Y-113059773D01*
X156043560Y-113300426D01*
X156102344Y-113536651D01*
X156154246Y-113719317D01*
X156171567Y-113780279D01*
X156254497Y-114043143D01*
X156354402Y-114337073D01*
X156474548Y-114673901D01*
X156589861Y-114995138D01*
X156775749Y-115528929D01*
X156940496Y-116023776D01*
X157082930Y-116476023D01*
X157201880Y-116882016D01*
X157296175Y-117238100D01*
X157358650Y-117472779D01*
X157418762Y-117658773D01*
X157474099Y-117785918D01*
X157524874Y-117854701D01*
X157571300Y-117865607D01*
X157582247Y-117859519D01*
X157634627Y-117822014D01*
X157713613Y-117760041D01*
X157806768Y-117683233D01*
X158005527Y-117515662D01*
X158080819Y-116938032D01*
X158098657Y-116797884D01*
X158127454Y-116560090D01*
X158155474Y-116316381D01*
X158180235Y-116088536D01*
X158199256Y-115898335D01*
X158201154Y-115877989D01*
X158217783Y-115694885D01*
X158230373Y-115536808D01*
X158238443Y-115395321D01*
X158241515Y-115261989D01*
X158239109Y-115128378D01*
X158230747Y-114986051D01*
X158215948Y-114826575D01*
X158194235Y-114641513D01*
X158165127Y-114422432D01*
X158128145Y-114160894D01*
X158082811Y-113848466D01*
X158075118Y-113806475D01*
X158067722Y-113788534D01*
X158194597Y-113788534D01*
X158200513Y-113852307D01*
X158212645Y-113953719D01*
X158229528Y-114079831D01*
X158244901Y-114189818D01*
X158262782Y-114315873D01*
X158275190Y-114395760D01*
X158283999Y-114437493D01*
X158291077Y-114449087D01*
X158298297Y-114438557D01*
X158307530Y-114413916D01*
X158311964Y-114395506D01*
X158320244Y-114319920D01*
X158325974Y-114209013D01*
X158328115Y-114079652D01*
X158327336Y-113953783D01*
X158323209Y-113868400D01*
X158313166Y-113819530D01*
X158294644Y-113795106D01*
X158265077Y-113783062D01*
X158224411Y-113773952D01*
X158194863Y-113773280D01*
X158194597Y-113788534D01*
X158067722Y-113788534D01*
X158059333Y-113768186D01*
X158027546Y-113732996D01*
X157970883Y-113693624D01*
X157880473Y-113642786D01*
X157747441Y-113573199D01*
X157575406Y-113477336D01*
X157320836Y-113305214D01*
X157109119Y-113120805D01*
X156947399Y-112929851D01*
X156911507Y-112873804D01*
X156867149Y-112785876D01*
X156843161Y-112712480D01*
X156842967Y-112665667D01*
X156869992Y-112657487D01*
X156873078Y-112659144D01*
X156908257Y-112693081D01*
X156965821Y-112759803D01*
X157034970Y-112846909D01*
X157186992Y-113022521D01*
X157438617Y-113244242D01*
X157725979Y-113429678D01*
X157804894Y-113470381D01*
X157928820Y-113528277D01*
X158057659Y-113583197D01*
X158177273Y-113629459D01*
X158273521Y-113661383D01*
X158332265Y-113673286D01*
X158334832Y-113669545D01*
X158342036Y-113621698D01*
X158348905Y-113525629D01*
X158355014Y-113390057D01*
X158359941Y-113223702D01*
X158363261Y-113035284D01*
X158365376Y-112879590D01*
X158368892Y-112702727D01*
X158373484Y-112573892D01*
X158379712Y-112486008D01*
X158388139Y-112431997D01*
X158399324Y-112404781D01*
X158413829Y-112397282D01*
X158425630Y-112402787D01*
X158435623Y-112424840D01*
X158443100Y-112469678D01*
X158448343Y-112543508D01*
X158451632Y-112652542D01*
X158453249Y-112802988D01*
X158453476Y-113001056D01*
X158452593Y-113252955D01*
X158452297Y-113302765D01*
X158435144Y-114050417D01*
X158433645Y-114079652D01*
X158394944Y-114834523D01*
X158333160Y-115638492D01*
X158251260Y-116445732D01*
X158150707Y-117239652D01*
X158057804Y-117842502D01*
X158032969Y-118003660D01*
X157993677Y-118235807D01*
X158090226Y-118386462D01*
X158102176Y-118404950D01*
X158163914Y-118490058D01*
X158213578Y-118528205D01*
X158263832Y-118524631D01*
X158327335Y-118484575D01*
X158338554Y-118476690D01*
X158402862Y-118437238D01*
X158503325Y-118379810D01*
X158628530Y-118310840D01*
X158767064Y-118236759D01*
X158844556Y-118195858D01*
X158967100Y-118129801D01*
X159051414Y-118080117D01*
X159106151Y-118039875D01*
X159139964Y-118002144D01*
X159161507Y-117959996D01*
X159179431Y-117906499D01*
X159180114Y-117904305D01*
X159199198Y-117845505D01*
X159235216Y-117736684D01*
X159286122Y-117583951D01*
X159349870Y-117393414D01*
X159424413Y-117171184D01*
X159507704Y-116923367D01*
X159597698Y-116656075D01*
X159692347Y-116375414D01*
X159824594Y-115983426D01*
X159950512Y-115609014D01*
X160059708Y-115281676D01*
X160153413Y-114996463D01*
X160232858Y-114748423D01*
X160299276Y-114532607D01*
X160353898Y-114344066D01*
X160397957Y-114177849D01*
X160432683Y-114029007D01*
X160459309Y-113892589D01*
X160479066Y-113763646D01*
X160493187Y-113637227D01*
X160496235Y-113596810D01*
X160778121Y-113596810D01*
X160796825Y-113832483D01*
X160803663Y-113909735D01*
X160827218Y-114097779D01*
X160862068Y-114284892D01*
X160910873Y-114480025D01*
X160976299Y-114692127D01*
X161061007Y-114930147D01*
X161167662Y-115203035D01*
X161298927Y-115519740D01*
X161380391Y-115714149D01*
X161476504Y-115952408D01*
X161551869Y-116155939D01*
X161609166Y-116335963D01*
X161651073Y-116503698D01*
X161680270Y-116670363D01*
X161699437Y-116847176D01*
X161711252Y-117045357D01*
X161718396Y-117276123D01*
X161719256Y-117313896D01*
X161723723Y-117493611D01*
X161728597Y-117624996D01*
X161735319Y-117717986D01*
X161745328Y-117782517D01*
X161760063Y-117828524D01*
X161780965Y-117865941D01*
X161809473Y-117904704D01*
X161830979Y-117931836D01*
X161882374Y-117989559D01*
X161915504Y-118016675D01*
X161930602Y-118013158D01*
X161986334Y-117983457D01*
X162070109Y-117930043D01*
X162170391Y-117860008D01*
X162246185Y-117807282D01*
X162392350Y-117712774D01*
X162552134Y-117615953D01*
X162702388Y-117531130D01*
X162756928Y-117502062D01*
X162860398Y-117446476D01*
X162933245Y-117400467D01*
X162982584Y-117352657D01*
X163015531Y-117291667D01*
X163039202Y-117206120D01*
X163060712Y-117084637D01*
X163087176Y-116915840D01*
X163114722Y-116716370D01*
X163125616Y-116545760D01*
X163117174Y-116393950D01*
X163088250Y-116241287D01*
X163037695Y-116068118D01*
X163019106Y-116009924D01*
X162986845Y-115897892D01*
X162964868Y-115795191D01*
X162950630Y-115684474D01*
X162941586Y-115548400D01*
X162935190Y-115369622D01*
X162934267Y-115333043D01*
X162939274Y-115010007D01*
X162971087Y-114704567D01*
X163032846Y-114395376D01*
X163127689Y-114061090D01*
X163209550Y-113803386D01*
X163113764Y-113535803D01*
X163090121Y-113472881D01*
X163041643Y-113359835D01*
X162996836Y-113273872D01*
X162963038Y-113229885D01*
X162872085Y-113186446D01*
X162731548Y-113149434D01*
X162557512Y-113123570D01*
X162361913Y-113110596D01*
X162156686Y-113112251D01*
X162080558Y-113116286D01*
X161925075Y-113129711D01*
X161787607Y-113152108D01*
X161654559Y-113187512D01*
X161512335Y-113239955D01*
X161347339Y-113313472D01*
X161145975Y-113412094D01*
X160778121Y-113596810D01*
X160496235Y-113596810D01*
X160502903Y-113508383D01*
X160509445Y-113372164D01*
X160514047Y-113223621D01*
X160517938Y-113057802D01*
X160519506Y-112988336D01*
X160524641Y-112776336D01*
X160529655Y-112616165D01*
X160535350Y-112501412D01*
X160542527Y-112425663D01*
X160551987Y-112382508D01*
X160564531Y-112365533D01*
X160580960Y-112368328D01*
X160602077Y-112384479D01*
X160605782Y-112387990D01*
X160620772Y-112412247D01*
X160631207Y-112454667D01*
X160637590Y-112523618D01*
X160640423Y-112627469D01*
X160640210Y-112774591D01*
X160637453Y-112973352D01*
X160635503Y-113143151D01*
X160635609Y-113295349D01*
X160637692Y-113415681D01*
X160641586Y-113494760D01*
X160647125Y-113523199D01*
X160653428Y-113521292D01*
X160701336Y-113499570D01*
X160786969Y-113457444D01*
X160900684Y-113399715D01*
X161032839Y-113331185D01*
X161054350Y-113319988D01*
X161208131Y-113243166D01*
X161361388Y-113171450D01*
X161497425Y-113112427D01*
X161599543Y-113073684D01*
X161769743Y-113030933D01*
X161997134Y-112999460D01*
X162241113Y-112987107D01*
X162481404Y-112994803D01*
X162697729Y-113023474D01*
X162742764Y-113032236D01*
X162845105Y-113050187D01*
X162918534Y-113060219D01*
X162949502Y-113060347D01*
X162950276Y-113058522D01*
X162948296Y-113017439D01*
X162936646Y-112935582D01*
X162917442Y-112828259D01*
X162896308Y-112706923D01*
X162871864Y-112538362D01*
X162854553Y-112386770D01*
X162850302Y-112338956D01*
X162844009Y-112245121D01*
X162846872Y-112194720D01*
X162860752Y-112175906D01*
X162887508Y-112176830D01*
X162896222Y-112179312D01*
X162920664Y-112200111D01*
X162940024Y-112248353D01*
X162957580Y-112334837D01*
X162976610Y-112470361D01*
X162997754Y-112620713D01*
X163063101Y-112963687D01*
X163152667Y-113292575D01*
X163270489Y-113617753D01*
X163354461Y-113803386D01*
X163420601Y-113949600D01*
X163607041Y-114298493D01*
X163833842Y-114674811D01*
X163975041Y-114892219D01*
X164226168Y-115248609D01*
X164500983Y-115600829D01*
X164812411Y-115965932D01*
X164844941Y-116002883D01*
X164955138Y-116131052D01*
X165055872Y-116252458D01*
X165137145Y-116354880D01*
X165188954Y-116426095D01*
X165253910Y-116532867D01*
X165389823Y-116812442D01*
X165501862Y-117124517D01*
X165584254Y-117451470D01*
X165631224Y-117775680D01*
X165634789Y-117815627D01*
X165647707Y-117917786D01*
X165668841Y-117987745D01*
X165706939Y-118046878D01*
X165770748Y-118116554D01*
X165891627Y-118241218D01*
X166325996Y-117781188D01*
X166760364Y-117321159D01*
X166746804Y-116795745D01*
X166742621Y-116658119D01*
X166729809Y-116408224D01*
X166709236Y-116202988D01*
X166678103Y-116032067D01*
X166633610Y-115885116D01*
X166572958Y-115751790D01*
X166493347Y-115621747D01*
X166391978Y-115484642D01*
X166350937Y-115432247D01*
X166262986Y-115316648D01*
X166193690Y-115215344D01*
X166140462Y-115119045D01*
X166100715Y-115018464D01*
X166071863Y-114904313D01*
X166051318Y-114767305D01*
X166036495Y-114598150D01*
X166024806Y-114387563D01*
X166013665Y-114126254D01*
X165995664Y-113734340D01*
X165957187Y-113116965D01*
X165908208Y-112554198D01*
X165848261Y-112043176D01*
X165776879Y-111581036D01*
X165693594Y-111164913D01*
X165597941Y-110791945D01*
X165489451Y-110459267D01*
X165367659Y-110164017D01*
X165295882Y-110013995D01*
X165229394Y-109891619D01*
X165160010Y-109787779D01*
X165147735Y-109772726D01*
X166512567Y-109772726D01*
X166515862Y-109809857D01*
X166543456Y-109900637D01*
X166593223Y-110051936D01*
X166652952Y-110223753D01*
X166718978Y-110406460D01*
X166787637Y-110590431D01*
X166855262Y-110766039D01*
X166918191Y-110923657D01*
X166972757Y-111053659D01*
X167015296Y-111146417D01*
X167042143Y-111192305D01*
X167070473Y-111207447D01*
X167149669Y-111225987D01*
X167262694Y-111240595D01*
X167395973Y-111250367D01*
X167535930Y-111254398D01*
X167668989Y-111251781D01*
X167781575Y-111241612D01*
X167867363Y-111227152D01*
X168054237Y-111175645D01*
X168205775Y-111098122D01*
X168335942Y-110988200D01*
X168443770Y-110876800D01*
X168696584Y-111126639D01*
X168727465Y-111156657D01*
X168859653Y-111276266D01*
X168998871Y-111390502D01*
X169133077Y-111490290D01*
X169250228Y-111566555D01*
X169338281Y-111610220D01*
X169350448Y-111619099D01*
X169354922Y-111666933D01*
X169327258Y-111742760D01*
X169295247Y-111796809D01*
X169272413Y-111835362D01*
X169195347Y-111933524D01*
X169146812Y-111985402D01*
X168947257Y-112150755D01*
X168720035Y-112267842D01*
X168461159Y-112338330D01*
X168166643Y-112363886D01*
X168078610Y-112365977D01*
X167977269Y-112371731D01*
X167910461Y-112379859D01*
X167889492Y-112389324D01*
X167891887Y-112392438D01*
X167928118Y-112425237D01*
X167996248Y-112480280D01*
X168083926Y-112547520D01*
X168268087Y-112671458D01*
X168550558Y-112813295D01*
X168870972Y-112921829D01*
X168961002Y-112942376D01*
X169137449Y-112969432D01*
X169341570Y-112989293D01*
X169556602Y-113001154D01*
X169765783Y-113004213D01*
X169952351Y-112997666D01*
X170099543Y-112980711D01*
X170161980Y-112967960D01*
X170315815Y-112927415D01*
X170463015Y-112877480D01*
X170586946Y-112824186D01*
X170670972Y-112773563D01*
X170742400Y-112715866D01*
X170613829Y-112657537D01*
X170566393Y-112637616D01*
X170446317Y-112594816D01*
X170328115Y-112560468D01*
X170240743Y-112535452D01*
X170142975Y-112491670D01*
X170101343Y-112446347D01*
X170115981Y-112401801D01*
X170187021Y-112360351D01*
X170314596Y-112324312D01*
X170396896Y-112303998D01*
X170630610Y-112215017D01*
X170851110Y-112087960D01*
X171037385Y-111934168D01*
X171128421Y-111834178D01*
X171175523Y-111759502D01*
X171177298Y-111709123D01*
X171135258Y-111679103D01*
X171114900Y-111675002D01*
X171041543Y-111666065D01*
X170928638Y-111655437D01*
X170787168Y-111644115D01*
X170628115Y-111633095D01*
X170548320Y-111627667D01*
X170379665Y-111614320D01*
X170224731Y-111599721D01*
X170097970Y-111585296D01*
X170013829Y-111572471D01*
X169906906Y-111548098D01*
X169715367Y-111492743D01*
X169522022Y-111424713D01*
X169346327Y-111351091D01*
X169207734Y-111278960D01*
X169036396Y-111153517D01*
X168843060Y-110969489D01*
X168636827Y-110733937D01*
X168419919Y-110449779D01*
X168194559Y-110119936D01*
X167962970Y-109747327D01*
X167727376Y-109334870D01*
X167718628Y-109318941D01*
X167650421Y-109195091D01*
X167593541Y-109092394D01*
X167553712Y-109021147D01*
X167536656Y-108991651D01*
X167529712Y-108991984D01*
X167491931Y-109018558D01*
X167434830Y-109071319D01*
X167388127Y-109115024D01*
X167277161Y-109208079D01*
X167138478Y-109315692D01*
X166985621Y-109427775D01*
X166832133Y-109534239D01*
X166691557Y-109624997D01*
X166676539Y-109634243D01*
X166584030Y-109694258D01*
X166532331Y-109737306D01*
X166512567Y-109772726D01*
X165147735Y-109772726D01*
X165074978Y-109683506D01*
X164961549Y-109559833D01*
X164911657Y-109507551D01*
X164796953Y-109394565D01*
X164696203Y-109310127D01*
X164593008Y-109241391D01*
X164470972Y-109175511D01*
X164433133Y-109156959D01*
X164297221Y-109095875D01*
X164163682Y-109042895D01*
X164056686Y-109007806D01*
X164009313Y-108996055D01*
X163814881Y-108960230D01*
X163581787Y-108932217D01*
X163324094Y-108913144D01*
X163055863Y-108904139D01*
X162791155Y-108906329D01*
X162707703Y-108909072D01*
X162563354Y-108915499D01*
X162449161Y-108925351D01*
X162348261Y-108941772D01*
X162243791Y-108967906D01*
X162118887Y-109006897D01*
X161956686Y-109061889D01*
X161771146Y-109124488D01*
X161442672Y-109228106D01*
X161148434Y-109309459D01*
X160877003Y-109370985D01*
X160616950Y-109415120D01*
X160356844Y-109444303D01*
X160085258Y-109460970D01*
X159944822Y-109464992D01*
X159537154Y-109455720D01*
X159158201Y-109412513D01*
X158793126Y-109333912D01*
X158525463Y-109262563D01*
X158321176Y-109488555D01*
X158238308Y-109577248D01*
X158075765Y-109729082D01*
X157928087Y-109831509D01*
X157788512Y-109887732D01*
X157650275Y-109900956D01*
X157506614Y-109874383D01*
X157465271Y-109860787D01*
X157389350Y-109827161D01*
X157316757Y-109778323D01*
X157233876Y-109704245D01*
X157127092Y-109594903D01*
X157080872Y-109544323D01*
X156962868Y-109403324D01*
X156848419Y-109252608D01*
X156756914Y-109117199D01*
X156714229Y-109048978D01*
X156653910Y-108956603D01*
X156609238Y-108893283D01*
X156587644Y-108869876D01*
X156583200Y-108871861D01*
X156552767Y-108905958D01*
X156510219Y-108968873D01*
X156503062Y-108980167D01*
X156449311Y-109057388D01*
X156374656Y-109157340D01*
X156292964Y-109261353D01*
X156266161Y-109294779D01*
X156204207Y-109377072D01*
X156160272Y-109450332D01*
X156126885Y-109531503D01*
X156107252Y-109600173D01*
X156096573Y-109637527D01*
X156061865Y-109785346D01*
X156001529Y-110057725D01*
X155953458Y-110291415D01*
X155917240Y-110495109D01*
X155891246Y-110682891D01*
X155873845Y-110868848D01*
X155863409Y-111067065D01*
X155858307Y-111291627D01*
X155856908Y-111556620D01*
X155743592Y-111556620D01*
X155743349Y-111496572D01*
X155743532Y-111438507D01*
X155747805Y-111165200D01*
X155759110Y-110925209D01*
X155779433Y-110700404D01*
X155810762Y-110472654D01*
X155855082Y-110223827D01*
X155914381Y-109935792D01*
X155938516Y-109820345D01*
X155960245Y-109708746D01*
X155973423Y-109631302D01*
X155975823Y-109600173D01*
X155969074Y-109599958D01*
X155925015Y-109616367D01*
X155855839Y-109650572D01*
X155835064Y-109661240D01*
X155689848Y-109706594D01*
X155553636Y-109693659D01*
X155420968Y-109622078D01*
X155381759Y-109591238D01*
X155319299Y-109537323D01*
X155286424Y-109501983D01*
X155279158Y-109491686D01*
X155244944Y-109469977D01*
X155238530Y-109472891D01*
X155208380Y-109515604D01*
X155166154Y-109600735D01*
X155116378Y-109717288D01*
X155063575Y-109854265D01*
X155012271Y-110000671D01*
X154966989Y-110145509D01*
X154951416Y-110200044D01*
X154926690Y-110295657D01*
X154909343Y-110384655D01*
X154898031Y-110480371D01*
X154891414Y-110596135D01*
X154888150Y-110745279D01*
X154886895Y-110941135D01*
X154763340Y-110941135D01*
X154761327Y-110798852D01*
X154805649Y-110381987D01*
X154899873Y-109979415D01*
X155043598Y-109599350D01*
X155068598Y-109544518D01*
X155113780Y-109442648D01*
X155145021Y-109368293D01*
X155156686Y-109334640D01*
X155155276Y-109328881D01*
X155131670Y-109285248D01*
X155088183Y-109220278D01*
X155063228Y-109182146D01*
X155008668Y-109089309D01*
X154943072Y-108970164D01*
X154875672Y-108841177D01*
X154731663Y-108557649D01*
X154626333Y-108676047D01*
X154625786Y-108676662D01*
X154503236Y-108833662D01*
X154378029Y-109027116D01*
X154262878Y-109235762D01*
X154170498Y-109438339D01*
X154083962Y-109678141D01*
X153975923Y-110098977D01*
X153924163Y-110516259D01*
X153830558Y-110516259D01*
X153831162Y-110435052D01*
X153835365Y-110299248D01*
X153843781Y-110189712D01*
X153857725Y-110092503D01*
X153878516Y-109993684D01*
X153907468Y-109879314D01*
X153936324Y-109775100D01*
X154060386Y-109410748D01*
X154209253Y-109084402D01*
X154379551Y-108802737D01*
X154567907Y-108572428D01*
X154694524Y-108441847D01*
X154637767Y-108302898D01*
X154630813Y-108285501D01*
X154578897Y-108135499D01*
X154525594Y-107951448D01*
X154474291Y-107748466D01*
X154428378Y-107541669D01*
X154391242Y-107346174D01*
X154366272Y-107177098D01*
X154356855Y-107049558D01*
X154355979Y-107046566D01*
X154324323Y-107014811D01*
X154253951Y-106961324D01*
X154154097Y-106892788D01*
X154033994Y-106815885D01*
X154030504Y-106813720D01*
X153628231Y-106542975D01*
X153270242Y-106256356D01*
X152944048Y-105943870D01*
X152729241Y-105707181D01*
X152409867Y-105299540D01*
X152141189Y-104879069D01*
X151924817Y-104448734D01*
X151762359Y-104011499D01*
X151655428Y-103570331D01*
X151646034Y-103510265D01*
X151627415Y-103315882D01*
X151619364Y-103094034D01*
X151620362Y-102984870D01*
X151721195Y-102984870D01*
X151725344Y-103177719D01*
X151758951Y-103513698D01*
X151829083Y-103841732D01*
X151939142Y-104175987D01*
X152092532Y-104530630D01*
X152217778Y-104773159D01*
X152474352Y-105184819D01*
X152774869Y-105579322D01*
X153110990Y-105947059D01*
X153474375Y-106278418D01*
X153856686Y-106563791D01*
X153866416Y-106570263D01*
X153983280Y-106646806D01*
X154099906Y-106721400D01*
X154192400Y-106778748D01*
X154328115Y-106860451D01*
X154328274Y-106611491D01*
X154328879Y-106576171D01*
X154446162Y-106576171D01*
X154451723Y-106787375D01*
X154469157Y-107018602D01*
X154497749Y-107260355D01*
X154536782Y-107503135D01*
X154585540Y-107737444D01*
X154643307Y-107953783D01*
X154661640Y-108012729D01*
X154754600Y-108278559D01*
X154860447Y-108536013D01*
X154975428Y-108778977D01*
X155095794Y-109001336D01*
X155217794Y-109196976D01*
X155337677Y-109359784D01*
X155451692Y-109483645D01*
X155556088Y-109562446D01*
X155647115Y-109590071D01*
X155706849Y-109583229D01*
X155818820Y-109537397D01*
X155942720Y-109446342D01*
X156081214Y-109307581D01*
X156236968Y-109118631D01*
X156412648Y-108877010D01*
X156444914Y-108831736D01*
X156513567Y-108743403D01*
X156569306Y-108682215D01*
X156602395Y-108659338D01*
X156603497Y-108659371D01*
X156644428Y-108684361D01*
X156688444Y-108741903D01*
X156795123Y-108923256D01*
X156969992Y-109197415D01*
X157129937Y-109416398D01*
X157276053Y-109581651D01*
X157409434Y-109694620D01*
X157472477Y-109734007D01*
X157599767Y-109782360D01*
X157724464Y-109778833D01*
X157862721Y-109724493D01*
X157965273Y-109660094D01*
X158134469Y-109515002D01*
X158307997Y-109324311D01*
X158436971Y-109154769D01*
X158618630Y-109154769D01*
X158645767Y-109168699D01*
X158721069Y-109192906D01*
X158830692Y-109221696D01*
X158962327Y-109252090D01*
X159103666Y-109281109D01*
X159242400Y-109305773D01*
X159260769Y-109308623D01*
X159450766Y-109329187D01*
X159677199Y-109341359D01*
X159921966Y-109345135D01*
X160166967Y-109340511D01*
X160394098Y-109327483D01*
X160585258Y-109306048D01*
X160736572Y-109280009D01*
X161072636Y-109204945D01*
X161446231Y-109100002D01*
X161859364Y-108964499D01*
X162314041Y-108797758D01*
X162397649Y-108764421D01*
X162742400Y-108764421D01*
X162928115Y-108771584D01*
X163080401Y-108778814D01*
X163322887Y-108795424D01*
X163557368Y-108817213D01*
X163771560Y-108842823D01*
X163953178Y-108870895D01*
X164089939Y-108900072D01*
X164215432Y-108938436D01*
X164445947Y-109031729D01*
X164664747Y-109147115D01*
X164849119Y-109273423D01*
X164908468Y-109318928D01*
X164973196Y-109362905D01*
X165009147Y-109379906D01*
X165010114Y-109379797D01*
X165042585Y-109355818D01*
X165104461Y-109295779D01*
X165187992Y-109208157D01*
X165285428Y-109101431D01*
X165389018Y-108984079D01*
X165427454Y-108939046D01*
X165613829Y-108939046D01*
X165624420Y-108947267D01*
X165676736Y-108966048D01*
X165758093Y-108987111D01*
X165856780Y-109002503D01*
X166015398Y-109013399D01*
X166199102Y-109015710D01*
X166390584Y-109009679D01*
X166572537Y-108995547D01*
X166727656Y-108973556D01*
X166753267Y-108968555D01*
X167016279Y-108902164D01*
X167266638Y-108812920D01*
X167493230Y-108705999D01*
X167684942Y-108586576D01*
X167830662Y-108459828D01*
X167871365Y-108413237D01*
X167977947Y-108274219D01*
X168095519Y-108102170D01*
X168214669Y-107911851D01*
X168325985Y-107718024D01*
X168420055Y-107535451D01*
X168590828Y-107140469D01*
X168764027Y-106615289D01*
X168881171Y-106079994D01*
X168942087Y-105536327D01*
X168946602Y-104986027D01*
X168894541Y-104430836D01*
X168785731Y-103872495D01*
X168748269Y-103728153D01*
X168700394Y-103560878D01*
X168650645Y-103401687D01*
X168602444Y-103260538D01*
X168559213Y-103147387D01*
X168524374Y-103072195D01*
X168501348Y-103044918D01*
X168501333Y-103044918D01*
X168465555Y-103056554D01*
X168393588Y-103087010D01*
X168300996Y-103129701D01*
X168123256Y-103214484D01*
X168101786Y-103303338D01*
X167985951Y-103782715D01*
X167775926Y-104570801D01*
X167521794Y-105364419D01*
X167234644Y-106120118D01*
X166915865Y-106834795D01*
X166566847Y-107505347D01*
X166460716Y-107680419D01*
X166188978Y-108128671D01*
X165859417Y-108594555D01*
X165783648Y-108701666D01*
X165741004Y-108757870D01*
X165675616Y-108846359D01*
X165630592Y-108910431D01*
X165613829Y-108939046D01*
X165427454Y-108939046D01*
X165491013Y-108864579D01*
X165583663Y-108751410D01*
X165708638Y-108594555D01*
X165531870Y-108420521D01*
X165359645Y-108270709D01*
X165114588Y-108115601D01*
X164858998Y-108015724D01*
X164827127Y-108007104D01*
X164758143Y-107991411D01*
X164698785Y-107987401D01*
X164633053Y-107996770D01*
X164544947Y-108021214D01*
X164418468Y-108062430D01*
X164347610Y-108087493D01*
X164212244Y-108139147D01*
X164043119Y-108206594D01*
X163851156Y-108285393D01*
X163647276Y-108371104D01*
X163442400Y-108459285D01*
X162742400Y-108764421D01*
X162397649Y-108764421D01*
X162812270Y-108599099D01*
X163356057Y-108367842D01*
X163532788Y-108291232D01*
X163864265Y-108151831D01*
X164154726Y-108036919D01*
X164410882Y-107944704D01*
X164639445Y-107873393D01*
X164847127Y-107821193D01*
X165040638Y-107786312D01*
X165226693Y-107766957D01*
X165412001Y-107761336D01*
X165603275Y-107767656D01*
X165627467Y-107769172D01*
X165796973Y-107785821D01*
X165910265Y-107809788D01*
X165967809Y-107841219D01*
X165970072Y-107880254D01*
X165969637Y-107880827D01*
X165934185Y-107888751D01*
X165853855Y-107892670D01*
X165740138Y-107892356D01*
X165604526Y-107887578D01*
X165469265Y-107882775D01*
X165323384Y-107881587D01*
X165199789Y-107884662D01*
X165115848Y-107891848D01*
X164978159Y-107913545D01*
X165123250Y-107984184D01*
X165293733Y-108078014D01*
X165455688Y-108195618D01*
X165621401Y-108348776D01*
X165764222Y-108492607D01*
X165847907Y-108388325D01*
X165885058Y-108339631D01*
X165952404Y-108244663D01*
X166028911Y-108131368D01*
X166107460Y-108010901D01*
X166180931Y-107894417D01*
X166242206Y-107793071D01*
X166284165Y-107718020D01*
X166299689Y-107680419D01*
X166292808Y-107666308D01*
X166243155Y-107627226D01*
X166153872Y-107576790D01*
X166034834Y-107519378D01*
X165895917Y-107459369D01*
X165746998Y-107401141D01*
X165597953Y-107349073D01*
X165458658Y-107307544D01*
X165209789Y-107248982D01*
X164809565Y-107187183D01*
X164398536Y-107164671D01*
X163965572Y-107181038D01*
X163499543Y-107235877D01*
X163426398Y-107247284D01*
X163209456Y-107285294D01*
X163004279Y-107328955D01*
X162801824Y-107381162D01*
X162593046Y-107444811D01*
X162368902Y-107522800D01*
X162120347Y-107618024D01*
X161838338Y-107733379D01*
X161513829Y-107871762D01*
X161352033Y-107941390D01*
X161082273Y-108054978D01*
X160852466Y-108147076D01*
X160654722Y-108219865D01*
X160481147Y-108275527D01*
X160323847Y-108316245D01*
X160174930Y-108344200D01*
X160026502Y-108361575D01*
X159870671Y-108370551D01*
X159699543Y-108373310D01*
X159680979Y-108373323D01*
X159526736Y-108371559D01*
X159384131Y-108366914D01*
X159268330Y-108360042D01*
X159194499Y-108351594D01*
X159075168Y-108329074D01*
X158982440Y-108501712D01*
X158970327Y-108524052D01*
X158904654Y-108641298D01*
X158825795Y-108777768D01*
X158748233Y-108908321D01*
X158714900Y-108964371D01*
X158661853Y-109058379D01*
X158627692Y-109125782D01*
X158618630Y-109154769D01*
X158436971Y-109154769D01*
X158481564Y-109096150D01*
X158650876Y-108838649D01*
X158811637Y-108559935D01*
X158959555Y-108268138D01*
X158998881Y-108178904D01*
X159154015Y-108178904D01*
X159161648Y-108212483D01*
X159186599Y-108230356D01*
X159228115Y-108241929D01*
X159282924Y-108249206D01*
X159384131Y-108255811D01*
X159513730Y-108260292D01*
X159656686Y-108261947D01*
X159669464Y-108261943D01*
X159811696Y-108260698D01*
X159940211Y-108256012D01*
X160061050Y-108246089D01*
X160180251Y-108229136D01*
X160303853Y-108203356D01*
X160437894Y-108166955D01*
X160588414Y-108118137D01*
X160761451Y-108055108D01*
X160963043Y-107976073D01*
X161199230Y-107879236D01*
X161476051Y-107762803D01*
X161799543Y-107624978D01*
X161871693Y-107594412D01*
X162313045Y-107421208D01*
X162726780Y-107285360D01*
X163125455Y-107184094D01*
X163521626Y-107114637D01*
X163927851Y-107074214D01*
X164356686Y-107060051D01*
X164478140Y-107060527D01*
X164852410Y-107077624D01*
X165191533Y-107120810D01*
X165509273Y-107192995D01*
X165819400Y-107297087D01*
X166135680Y-107435996D01*
X166202756Y-107467943D01*
X166299421Y-107511447D01*
X166367912Y-107538944D01*
X166396525Y-107545518D01*
X166397171Y-107544649D01*
X166417387Y-107510244D01*
X166459550Y-107435160D01*
X166517917Y-107329704D01*
X166586743Y-107204185D01*
X166654926Y-107076884D01*
X166911140Y-106553744D01*
X167155494Y-105983479D01*
X167383939Y-105376010D01*
X167592424Y-104741253D01*
X167607414Y-104691841D01*
X167664845Y-104496475D01*
X167722472Y-104291952D01*
X167778196Y-104086599D01*
X167829916Y-103888741D01*
X167875534Y-103706707D01*
X167912950Y-103548822D01*
X167940064Y-103423415D01*
X167954776Y-103338811D01*
X167954988Y-103303338D01*
X167926423Y-103304513D01*
X167859291Y-103324414D01*
X167769587Y-103359092D01*
X167694106Y-103389666D01*
X167314809Y-103507997D01*
X166910283Y-103581145D01*
X166491043Y-103608869D01*
X166067605Y-103590927D01*
X165650486Y-103527076D01*
X165250199Y-103417075D01*
X165056483Y-103344300D01*
X164634586Y-103141380D01*
X164216035Y-102878817D01*
X163801132Y-102556836D01*
X163390180Y-102175662D01*
X162983482Y-101735518D01*
X162799543Y-101521982D01*
X162370972Y-101634302D01*
X162280737Y-101658571D01*
X162152351Y-101695652D01*
X162054804Y-101727148D01*
X161996354Y-101750318D01*
X161985258Y-101762418D01*
X161996398Y-101766466D01*
X162057860Y-101788428D01*
X162152472Y-101821994D01*
X162264822Y-101861689D01*
X162388240Y-101908510D01*
X162559176Y-101985424D01*
X162702347Y-102064729D01*
X162808460Y-102141074D01*
X162868222Y-102209108D01*
X162873596Y-102219502D01*
X162895875Y-102304846D01*
X162898868Y-102316312D01*
X162873948Y-102405018D01*
X162797700Y-102486294D01*
X162668987Y-102560817D01*
X162486671Y-102629262D01*
X162249617Y-102692303D01*
X161956686Y-102750617D01*
X161939388Y-102753650D01*
X161805838Y-102777665D01*
X161695646Y-102798500D01*
X161619828Y-102814013D01*
X161589400Y-102822059D01*
X161593151Y-102832191D01*
X161627600Y-102872319D01*
X161687160Y-102930478D01*
X161690459Y-102933529D01*
X161793403Y-103041267D01*
X161878102Y-103152919D01*
X161935537Y-103254982D01*
X161956686Y-103333955D01*
X161941221Y-103390240D01*
X161883938Y-103453906D01*
X161851776Y-103470019D01*
X161749438Y-103490064D01*
X161613014Y-103490929D01*
X161455832Y-103473750D01*
X161291219Y-103439665D01*
X161132503Y-103389810D01*
X161107734Y-103380515D01*
X161012195Y-103346576D01*
X160943032Y-103325061D01*
X160913813Y-103320283D01*
X160913287Y-103344593D01*
X160919202Y-103417661D01*
X160930964Y-103527069D01*
X160947351Y-103660402D01*
X160955221Y-103725649D01*
X160973078Y-103945052D01*
X160979332Y-104187519D01*
X160974589Y-104471040D01*
X160967490Y-104638179D01*
X160951910Y-104843552D01*
X160939305Y-104941332D01*
X160926994Y-105036824D01*
X160889914Y-105235017D01*
X160837841Y-105455154D01*
X160767944Y-105714257D01*
X160759750Y-105748035D01*
X160767766Y-105775032D01*
X160816460Y-105767434D01*
X160818567Y-105766875D01*
X160876182Y-105756593D01*
X160976288Y-105743076D01*
X161105386Y-105728016D01*
X161249978Y-105713105D01*
X161356463Y-105704629D01*
X161584713Y-105697244D01*
X161815096Y-105702721D01*
X162040210Y-105719774D01*
X162252650Y-105747121D01*
X162445015Y-105783478D01*
X162609902Y-105827560D01*
X162739907Y-105878083D01*
X162827629Y-105933764D01*
X162865664Y-105993320D01*
X162866104Y-106014631D01*
X162863012Y-106021916D01*
X162834283Y-106089601D01*
X162758294Y-106179127D01*
X162644697Y-106277291D01*
X162500049Y-106378175D01*
X162330910Y-106475859D01*
X162024416Y-106636825D01*
X162208317Y-106704269D01*
X162280317Y-106732454D01*
X162411540Y-106793846D01*
X162517394Y-106856690D01*
X162588088Y-106914765D01*
X162613829Y-106961851D01*
X162613664Y-106965013D01*
X162585577Y-107015031D01*
X162517933Y-107076932D01*
X162423197Y-107140935D01*
X162313829Y-107197261D01*
X162189288Y-107245917D01*
X161947583Y-107318812D01*
X161662628Y-107383833D01*
X161342826Y-107439767D01*
X160996577Y-107485401D01*
X160632286Y-107519520D01*
X160258353Y-107540912D01*
X159883182Y-107548361D01*
X159366820Y-107548464D01*
X159260273Y-107841194D01*
X159242578Y-107889855D01*
X159193725Y-108026997D01*
X159164456Y-108120211D01*
X159154015Y-108178904D01*
X158998881Y-108178904D01*
X159090335Y-107971386D01*
X159199682Y-107677808D01*
X159274393Y-107425608D01*
X159642400Y-107425608D01*
X160049543Y-107419483D01*
X160193201Y-107416357D01*
X160664785Y-107392153D01*
X161110912Y-107347726D01*
X161521778Y-107284232D01*
X161887577Y-107202826D01*
X161947379Y-107186426D01*
X162100071Y-107139326D01*
X162235487Y-107090430D01*
X162344060Y-107043708D01*
X162416221Y-107003130D01*
X162442400Y-106972665D01*
X162439493Y-106964664D01*
X162398286Y-106931346D01*
X162317189Y-106888418D01*
X162207562Y-106840939D01*
X162080766Y-106793968D01*
X161948161Y-106752565D01*
X161865048Y-106727788D01*
X161797130Y-106700508D01*
X161766491Y-106673306D01*
X161762447Y-106639688D01*
X161763609Y-106633789D01*
X161804134Y-106582216D01*
X161899543Y-106537025D01*
X162042401Y-106480769D01*
X162209334Y-106401466D01*
X162371458Y-106312445D01*
X162512181Y-106222871D01*
X162614913Y-106141906D01*
X162742400Y-106021916D01*
X162628115Y-105970903D01*
X162603585Y-105960481D01*
X162426970Y-105906057D01*
X162203015Y-105865325D01*
X161939050Y-105839339D01*
X161642400Y-105829152D01*
X161627276Y-105829085D01*
X161443037Y-105831999D01*
X161255951Y-105840982D01*
X161078015Y-105854914D01*
X160921227Y-105872677D01*
X160797585Y-105893153D01*
X160719086Y-105915223D01*
X160718648Y-105915432D01*
X160691621Y-105947525D01*
X160644262Y-106021383D01*
X160583123Y-106126229D01*
X160514756Y-106251286D01*
X160464132Y-106341589D01*
X160337324Y-106538207D01*
X160193062Y-106730730D01*
X160041796Y-106906601D01*
X159893977Y-107053262D01*
X159760055Y-107158156D01*
X159689096Y-107210603D01*
X159652741Y-107262338D01*
X159643169Y-107329412D01*
X159642400Y-107425608D01*
X159274393Y-107425608D01*
X159283303Y-107395532D01*
X159336904Y-107132688D01*
X159356190Y-106897404D01*
X159352189Y-106799787D01*
X159316918Y-106633667D01*
X159245517Y-106514042D01*
X159138299Y-106441178D01*
X158995572Y-106415340D01*
X158817649Y-106436795D01*
X158770695Y-106448450D01*
X158495720Y-106545367D01*
X158207181Y-106691769D01*
X157911864Y-106882458D01*
X157616554Y-107112232D01*
X157328037Y-107375893D01*
X157053099Y-107668239D01*
X156798526Y-107984070D01*
X156759569Y-108035529D01*
X156672416Y-108141567D01*
X156608662Y-108204378D01*
X156571900Y-108220215D01*
X156559120Y-108209771D01*
X156518004Y-108155764D01*
X156462513Y-108067938D01*
X156400941Y-107958969D01*
X156233251Y-107670989D01*
X155959917Y-107271991D01*
X155631152Y-106858469D01*
X155538481Y-106751011D01*
X155321401Y-106516285D01*
X155125978Y-106330533D01*
X154953187Y-106194364D01*
X154804005Y-106108386D01*
X154679409Y-106073209D01*
X154580375Y-106089442D01*
X154507879Y-106157693D01*
X154473527Y-106251827D01*
X154453191Y-106394489D01*
X154446162Y-106576171D01*
X154328879Y-106576171D01*
X154329936Y-106514479D01*
X154347812Y-106316243D01*
X154387047Y-106160342D01*
X154449816Y-106036488D01*
X154507890Y-105950635D01*
X154449933Y-105826323D01*
X154421430Y-105771364D01*
X154377644Y-105717246D01*
X154312861Y-105674927D01*
X154210046Y-105630496D01*
X154050851Y-105563716D01*
X153800960Y-105444073D01*
X153551507Y-105308636D01*
X153313324Y-105164104D01*
X153097244Y-105017177D01*
X152914100Y-104874553D01*
X152774727Y-104742931D01*
X152735089Y-104700259D01*
X152686842Y-104652465D01*
X152660497Y-104637391D01*
X152656038Y-104659592D01*
X152673448Y-104723625D01*
X152712709Y-104834044D01*
X152773806Y-104995405D01*
X152806496Y-105081242D01*
X152844331Y-105184818D01*
X152862924Y-105248395D01*
X152863685Y-105281730D01*
X152848022Y-105294576D01*
X152817347Y-105296691D01*
X152788550Y-105285099D01*
X152746169Y-105232492D01*
X152696827Y-105133668D01*
X152638555Y-104984530D01*
X152569383Y-104780984D01*
X152515582Y-104592252D01*
X152477065Y-104395824D01*
X152454300Y-104183476D01*
X152445769Y-103940889D01*
X152446207Y-103910859D01*
X152562125Y-103910859D01*
X152573207Y-104077316D01*
X152599068Y-104214397D01*
X152642932Y-104335254D01*
X152708026Y-104453036D01*
X152797574Y-104580893D01*
X152840003Y-104633628D01*
X152997433Y-104790468D01*
X153203136Y-104952354D01*
X153451180Y-105115275D01*
X153735635Y-105275219D01*
X154050569Y-105428178D01*
X154105210Y-105452589D01*
X154205216Y-105495835D01*
X154278837Y-105525723D01*
X154313096Y-105536880D01*
X154322692Y-105520999D01*
X154316352Y-105469327D01*
X154303290Y-105420824D01*
X154249661Y-105197742D01*
X154220323Y-105014033D01*
X154217010Y-104900213D01*
X154328110Y-104900213D01*
X154349593Y-105123926D01*
X154414880Y-105386667D01*
X154523548Y-105684039D01*
X154536398Y-105715007D01*
X154582842Y-105823184D01*
X154618835Y-105890986D01*
X154654425Y-105930432D01*
X154693972Y-105950635D01*
X154699661Y-105953541D01*
X154764593Y-105972332D01*
X154794242Y-105981080D01*
X154936545Y-106045774D01*
X155096704Y-106154108D01*
X155278372Y-106308820D01*
X155485200Y-106512648D01*
X155554291Y-106585103D01*
X155781415Y-106835415D01*
X155977165Y-107074093D01*
X156154551Y-107317682D01*
X156326583Y-107582727D01*
X156348337Y-107617969D01*
X156427498Y-107746422D01*
X156495411Y-107856937D01*
X156545446Y-107938710D01*
X156570972Y-107980938D01*
X156581152Y-107992869D01*
X156604676Y-107992550D01*
X156642142Y-107961818D01*
X156700140Y-107894648D01*
X156785258Y-107785017D01*
X156988312Y-107538448D01*
X157227596Y-107288759D01*
X157483740Y-107057124D01*
X157749880Y-106848152D01*
X158019153Y-106666451D01*
X158284693Y-106516631D01*
X158539638Y-106403299D01*
X158777122Y-106331064D01*
X158990282Y-106304536D01*
X159104792Y-106310005D01*
X159225309Y-106343481D01*
X159318663Y-106414371D01*
X159399543Y-106530798D01*
X159425029Y-106585275D01*
X159444273Y-106660394D01*
X159453997Y-106762544D01*
X159456488Y-106897404D01*
X159456686Y-106908137D01*
X159456686Y-107183532D01*
X159568702Y-107118303D01*
X159581557Y-107110516D01*
X159685869Y-107032913D01*
X159811337Y-106920866D01*
X159946517Y-106786229D01*
X160079962Y-106640853D01*
X160200226Y-106496592D01*
X160295864Y-106365298D01*
X160457770Y-106089190D01*
X160620658Y-105735072D01*
X160744007Y-105371750D01*
X160768211Y-105281520D01*
X160793902Y-105165588D01*
X160806813Y-105059978D01*
X160809331Y-104941332D01*
X160803844Y-104786289D01*
X160786628Y-104584037D01*
X160736957Y-104280053D01*
X160662913Y-103983732D01*
X160570062Y-103720449D01*
X160513427Y-103596106D01*
X160331681Y-103286222D01*
X160108899Y-103009647D01*
X159851315Y-102772458D01*
X159565165Y-102580732D01*
X159256686Y-102440546D01*
X159218471Y-102427438D01*
X159116744Y-102398563D01*
X159013423Y-102381129D01*
X158890037Y-102372701D01*
X158728115Y-102370843D01*
X158595211Y-102372468D01*
X158477471Y-102378813D01*
X158384560Y-102392549D01*
X158299052Y-102416409D01*
X158203518Y-102453127D01*
X157975790Y-102568861D01*
X157718746Y-102748779D01*
X157472957Y-102971604D01*
X157248086Y-103228451D01*
X157053796Y-103510434D01*
X157025626Y-103555903D01*
X156963245Y-103647861D01*
X156912174Y-103711612D01*
X156881372Y-103735461D01*
X156870177Y-103730599D01*
X156840253Y-103685304D01*
X156814209Y-103607861D01*
X156797039Y-103538912D01*
X156740847Y-103338806D01*
X156673547Y-103125858D01*
X156601226Y-102917881D01*
X156529968Y-102732690D01*
X156465859Y-102588099D01*
X156335430Y-102356143D01*
X156199412Y-102180023D01*
X156054890Y-102058001D01*
X155898340Y-101987104D01*
X155726237Y-101964360D01*
X155554742Y-101987031D01*
X155370540Y-102066188D01*
X155194261Y-102202884D01*
X155024951Y-102397875D01*
X154861659Y-102651920D01*
X154833942Y-102702297D01*
X154783492Y-102805802D01*
X154742787Y-102912481D01*
X154709843Y-103031805D01*
X154682679Y-103173247D01*
X154659309Y-103346277D01*
X154637751Y-103560369D01*
X154616021Y-103824993D01*
X154606234Y-103946886D01*
X154592932Y-104074526D01*
X154575780Y-104172958D01*
X154550426Y-104259931D01*
X154512514Y-104353196D01*
X154457691Y-104470501D01*
X154456286Y-104473438D01*
X154392470Y-104613697D01*
X154353274Y-104720176D01*
X154333540Y-104809980D01*
X154328110Y-104900213D01*
X154217010Y-104900213D01*
X154215749Y-104856905D01*
X154236412Y-104713565D01*
X154282789Y-104571221D01*
X154355351Y-104417079D01*
X154374502Y-104380181D01*
X154422536Y-104281676D01*
X154454530Y-104197782D01*
X154475293Y-104109860D01*
X154489637Y-103999268D01*
X154502372Y-103847363D01*
X154533044Y-103502827D01*
X154573260Y-103164078D01*
X154620088Y-102861736D01*
X154672302Y-102603656D01*
X154728677Y-102397691D01*
X154754587Y-102317790D01*
X154756854Y-102310612D01*
X154899543Y-102310612D01*
X154899613Y-102311193D01*
X154918796Y-102298657D01*
X154965435Y-102251164D01*
X155029977Y-102178397D01*
X155126027Y-102082518D01*
X155290774Y-101963154D01*
X155470710Y-101873558D01*
X155645204Y-101825562D01*
X155751014Y-101819277D01*
X155940078Y-101852918D01*
X156119927Y-101943787D01*
X156288450Y-102090267D01*
X156443538Y-102290744D01*
X156583081Y-102543602D01*
X156617550Y-102619520D01*
X156693533Y-102801496D01*
X156766065Y-102991969D01*
X156823221Y-103160317D01*
X156919282Y-103470870D01*
X157054474Y-103271785D01*
X157075766Y-103240800D01*
X157313889Y-102939168D01*
X157571501Y-102689033D01*
X157845597Y-102491611D01*
X158133171Y-102348123D01*
X158431218Y-102259787D01*
X158736733Y-102227820D01*
X159046709Y-102253442D01*
X159358142Y-102337871D01*
X159492465Y-102393107D01*
X159788940Y-102558971D01*
X160062573Y-102773398D01*
X160306321Y-103029440D01*
X160513145Y-103320147D01*
X160676003Y-103638569D01*
X160698033Y-103692940D01*
X160746608Y-103821461D01*
X160789950Y-103945627D01*
X160844311Y-104110757D01*
X160829685Y-103837529D01*
X160823766Y-103744938D01*
X160804592Y-103551866D01*
X160778819Y-103389297D01*
X160748211Y-103267072D01*
X160714532Y-103195036D01*
X160713749Y-103194031D01*
X160683605Y-103132584D01*
X160660719Y-103049256D01*
X160652478Y-102990841D01*
X160660348Y-102963142D01*
X160692512Y-102969937D01*
X160814467Y-103018873D01*
X160968842Y-103073859D01*
X161131696Y-103126084D01*
X161294072Y-103173235D01*
X161447012Y-103213001D01*
X161581558Y-103243069D01*
X161688753Y-103261128D01*
X161759638Y-103264865D01*
X161785258Y-103251970D01*
X161767557Y-103208613D01*
X161708464Y-103135437D01*
X161615158Y-103044057D01*
X161495198Y-102941800D01*
X161356139Y-102835990D01*
X161270970Y-102774024D01*
X161172141Y-102697156D01*
X161116305Y-102641496D01*
X161105799Y-102604174D01*
X161142962Y-102582317D01*
X161230129Y-102573054D01*
X161369639Y-102573514D01*
X161563829Y-102580824D01*
X161695985Y-102585728D01*
X161915517Y-102587697D01*
X162097723Y-102578547D01*
X162255252Y-102556852D01*
X162400749Y-102521190D01*
X162546860Y-102470136D01*
X162609666Y-102443149D01*
X162692943Y-102399857D01*
X162743775Y-102363652D01*
X162764035Y-102339909D01*
X162770334Y-102304846D01*
X162736613Y-102256115D01*
X162733926Y-102253018D01*
X162662869Y-102196327D01*
X162549276Y-102131598D01*
X162405609Y-102063650D01*
X162244325Y-101997303D01*
X162077884Y-101937377D01*
X161918744Y-101888693D01*
X161779366Y-101856070D01*
X161672207Y-101844328D01*
X161627597Y-101847144D01*
X161523795Y-101863031D01*
X161415409Y-101888188D01*
X161350460Y-101903569D01*
X161272381Y-101913254D01*
X161229695Y-101906524D01*
X161223398Y-101903570D01*
X161169695Y-101894832D01*
X161073635Y-101887760D01*
X160946493Y-101883019D01*
X160799543Y-101881269D01*
X160741913Y-101880963D01*
X160451557Y-101868092D01*
X160199001Y-101834452D01*
X159970035Y-101777517D01*
X159750449Y-101694759D01*
X159677432Y-101659655D01*
X159524972Y-101571968D01*
X159413396Y-101496677D01*
X162956765Y-101496677D01*
X162956895Y-101497861D01*
X162978223Y-101534072D01*
X163030832Y-101603508D01*
X163107211Y-101696670D01*
X163199847Y-101804056D01*
X163489375Y-102112192D01*
X163859855Y-102453812D01*
X164241106Y-102750528D01*
X164628699Y-102999552D01*
X165018207Y-103198096D01*
X165405202Y-103343371D01*
X165785258Y-103432587D01*
X165792738Y-103433789D01*
X165910904Y-103452430D01*
X166004827Y-103465399D01*
X166088063Y-103473223D01*
X166174169Y-103476425D01*
X166276699Y-103475530D01*
X166409210Y-103471062D01*
X166585258Y-103463547D01*
X166795130Y-103450044D01*
X167006277Y-103424946D01*
X167210523Y-103386111D01*
X167417172Y-103330660D01*
X167635530Y-103255712D01*
X167874902Y-103158386D01*
X168144592Y-103035803D01*
X168453906Y-102885082D01*
X168709409Y-102748367D01*
X169041509Y-102541335D01*
X169348104Y-102316047D01*
X169623000Y-102077990D01*
X169860004Y-101832651D01*
X170052923Y-101585517D01*
X170195564Y-101342074D01*
X170247517Y-101219087D01*
X170269881Y-101116310D01*
X170252973Y-101049591D01*
X170196807Y-101014917D01*
X170189007Y-101013024D01*
X170080277Y-101005180D01*
X169932325Y-101018411D01*
X169757566Y-101051011D01*
X169568413Y-101101275D01*
X169458248Y-101133057D01*
X169349190Y-101156832D01*
X169287891Y-101155574D01*
X169273768Y-101126844D01*
X169306239Y-101068208D01*
X169384720Y-100977228D01*
X169508628Y-100851468D01*
X169640617Y-100710925D01*
X169755946Y-100565060D01*
X169844006Y-100427726D01*
X169901812Y-100305312D01*
X169926375Y-100204209D01*
X169914710Y-100130808D01*
X169863829Y-100091501D01*
X169843594Y-100086357D01*
X169747765Y-100076011D01*
X169639147Y-100087517D01*
X169513804Y-100122892D01*
X169367803Y-100184153D01*
X169197212Y-100273315D01*
X168998096Y-100392394D01*
X168766523Y-100543408D01*
X168498557Y-100728371D01*
X168190266Y-100949300D01*
X168138164Y-100987211D01*
X167990944Y-101094979D01*
X167860889Y-101191111D01*
X167755484Y-101270017D01*
X167682214Y-101326108D01*
X167648564Y-101353796D01*
X167584663Y-101404638D01*
X167479257Y-101471905D01*
X167345295Y-101548461D01*
X167195132Y-101627783D01*
X167041121Y-101703349D01*
X166895617Y-101768636D01*
X166770972Y-101817124D01*
X166734626Y-101829560D01*
X166612945Y-101868600D01*
X166512454Y-101893441D01*
X166413582Y-101907052D01*
X166296755Y-101912402D01*
X166142400Y-101912459D01*
X165958968Y-101905328D01*
X165609934Y-101856367D01*
X165285574Y-101758809D01*
X164979372Y-101609798D01*
X164684813Y-101406474D01*
X164395381Y-101145978D01*
X164219791Y-100969784D01*
X163752524Y-101163702D01*
X163638923Y-101210441D01*
X163475087Y-101276518D01*
X163325545Y-101335363D01*
X163203204Y-101381917D01*
X163120972Y-101411125D01*
X163046872Y-101438729D01*
X162981791Y-101471551D01*
X162956765Y-101496677D01*
X159413396Y-101496677D01*
X159370751Y-101467900D01*
X159233082Y-101360235D01*
X159130277Y-101261762D01*
X159123088Y-101253852D01*
X159066648Y-101203880D01*
X159023134Y-101183452D01*
X159000677Y-101171356D01*
X158985258Y-101121752D01*
X158961236Y-101072862D01*
X158889066Y-101017627D01*
X158777707Y-100962126D01*
X158636213Y-100909688D01*
X158473635Y-100863642D01*
X158299024Y-100827317D01*
X158121431Y-100804043D01*
X157909961Y-100785259D01*
X157815377Y-101051909D01*
X157751810Y-101220460D01*
X157654167Y-101448428D01*
X157551394Y-101657963D01*
X157450090Y-101835865D01*
X157356858Y-101968933D01*
X157277756Y-102054083D01*
X157119745Y-102168071D01*
X156949554Y-102225859D01*
X156772048Y-102226182D01*
X156592089Y-102167777D01*
X156507843Y-102114785D01*
X156390637Y-102018864D01*
X156263117Y-101896760D01*
X156137682Y-101760444D01*
X156026729Y-101621885D01*
X155940861Y-101504881D01*
X155729596Y-101504881D01*
X155518331Y-101504881D01*
X155431084Y-101621885D01*
X155411184Y-101647771D01*
X155339626Y-101735464D01*
X155248957Y-101841725D01*
X155154001Y-101949055D01*
X155086692Y-102025090D01*
X154981827Y-102153899D01*
X154939812Y-102218031D01*
X154919891Y-102248438D01*
X154899543Y-102310612D01*
X154756854Y-102310612D01*
X154776739Y-102247651D01*
X154785258Y-102218031D01*
X154777021Y-102215706D01*
X154727243Y-102212459D01*
X154647357Y-102211184D01*
X154610107Y-102209686D01*
X154505709Y-102193135D01*
X154422950Y-102164176D01*
X154342529Y-102104542D01*
X154242103Y-102005126D01*
X154134489Y-101879831D01*
X154030845Y-101741672D01*
X153942330Y-101603660D01*
X153939013Y-101597941D01*
X153885036Y-101509911D01*
X153841380Y-101447409D01*
X153817222Y-101423641D01*
X153778484Y-101438575D01*
X153704955Y-101481053D01*
X153610313Y-101542529D01*
X153507267Y-101614414D01*
X153408527Y-101688119D01*
X153326802Y-101755056D01*
X153269544Y-101808275D01*
X153080256Y-102027457D01*
X152910427Y-102292072D01*
X152766066Y-102591760D01*
X152653182Y-102916167D01*
X152621335Y-103037470D01*
X152598357Y-103153791D01*
X152582596Y-103280307D01*
X152571987Y-103433631D01*
X152564466Y-103630379D01*
X152562597Y-103701878D01*
X152562125Y-103910859D01*
X152446207Y-103910859D01*
X152449956Y-103653739D01*
X152455106Y-103530725D01*
X152485468Y-103191142D01*
X152540930Y-102890417D01*
X152625202Y-102615529D01*
X152741991Y-102353458D01*
X152895007Y-102091181D01*
X152924550Y-102047675D01*
X153038813Y-101903000D01*
X153177388Y-101752684D01*
X153326129Y-101610525D01*
X153470891Y-101490323D01*
X153597527Y-101405876D01*
X153672365Y-101362021D01*
X153733237Y-101320158D01*
X153756618Y-101295184D01*
X153745424Y-101249454D01*
X153712004Y-101172407D01*
X153665508Y-101083765D01*
X153615258Y-101000026D01*
X153570577Y-100937685D01*
X153540785Y-100913239D01*
X153500191Y-100916011D01*
X153391246Y-100934640D01*
X153254420Y-100966951D01*
X153106581Y-101008402D01*
X152964594Y-101054450D01*
X152845325Y-101100553D01*
X152785854Y-101127401D01*
X152498552Y-101288173D01*
X152257977Y-101481026D01*
X152063135Y-101707627D01*
X151913030Y-101969645D01*
X151806669Y-102268746D01*
X151743055Y-102606599D01*
X151721195Y-102984870D01*
X151620362Y-102984870D01*
X151621484Y-102862087D01*
X151633378Y-102637408D01*
X151654650Y-102437361D01*
X151684904Y-102279315D01*
X151695397Y-102240815D01*
X151812494Y-101921241D01*
X151973062Y-101640374D01*
X152177306Y-101398008D01*
X152425431Y-101193935D01*
X152717644Y-101027949D01*
X153054149Y-100899842D01*
X153104262Y-100885006D01*
X153222309Y-100853268D01*
X153320435Y-100831141D01*
X153381311Y-100822708D01*
X153440756Y-100819275D01*
X153480507Y-100803585D01*
X153495799Y-100767101D01*
X153487035Y-100701261D01*
X153454618Y-100597504D01*
X153398950Y-100447271D01*
X153331471Y-100260314D01*
X153237642Y-99961063D01*
X153159859Y-99662312D01*
X153099231Y-99371789D01*
X153056868Y-99097218D01*
X153033882Y-98846326D01*
X153033129Y-98780244D01*
X153134933Y-98780244D01*
X153156389Y-99040896D01*
X153206864Y-99353048D01*
X153286350Y-99716820D01*
X153291254Y-99736906D01*
X153362759Y-99992861D01*
X153453181Y-100263533D01*
X153558626Y-100540885D01*
X153675198Y-100816881D01*
X153799004Y-101083488D01*
X153926148Y-101332668D01*
X154052736Y-101556386D01*
X154174873Y-101746607D01*
X154288665Y-101895295D01*
X154390218Y-101994415D01*
X154492953Y-102063000D01*
X154597581Y-102100015D01*
X154702655Y-102092107D01*
X154826542Y-102041249D01*
X154913856Y-101987326D01*
X155026308Y-101891469D01*
X155146334Y-101759425D01*
X155277753Y-101586483D01*
X155424384Y-101367929D01*
X155590048Y-101099050D01*
X155643866Y-101014878D01*
X155705774Y-100939836D01*
X155748998Y-100918909D01*
X155767993Y-100932401D01*
X155814385Y-100989199D01*
X155874479Y-101079362D01*
X155940051Y-101191171D01*
X155981411Y-101264452D01*
X156127331Y-101499685D01*
X156274672Y-101703689D01*
X156416878Y-101867906D01*
X156547392Y-101983779D01*
X156696326Y-102070168D01*
X156844512Y-102107170D01*
X156985934Y-102088412D01*
X157122110Y-102013037D01*
X157254561Y-101880190D01*
X157384804Y-101689014D01*
X157514358Y-101438653D01*
X157576205Y-101298837D01*
X157724284Y-100910155D01*
X157810126Y-100634845D01*
X157939377Y-100634845D01*
X157944581Y-100636852D01*
X157992153Y-100646152D01*
X158077806Y-100659355D01*
X158187872Y-100674290D01*
X158193476Y-100675012D01*
X158453497Y-100719785D01*
X158680159Y-100784679D01*
X158895290Y-100875915D01*
X158971706Y-100913700D01*
X159039552Y-100947760D01*
X159071195Y-100964343D01*
X159088730Y-100956225D01*
X159121442Y-100913311D01*
X159139457Y-100886786D01*
X159191100Y-100816102D01*
X159268387Y-100712880D01*
X159365181Y-100585109D01*
X159475341Y-100440781D01*
X159592729Y-100287886D01*
X159711205Y-100134414D01*
X159824629Y-99988355D01*
X159845436Y-99961764D01*
X161297890Y-99961764D01*
X161463002Y-100078929D01*
X161559671Y-100143868D01*
X161694108Y-100227318D01*
X161820259Y-100299465D01*
X161834506Y-100307073D01*
X161930497Y-100355336D01*
X162007100Y-100388991D01*
X162048830Y-100401148D01*
X162063667Y-100398294D01*
X162096976Y-100385034D01*
X162149303Y-100358334D01*
X162225641Y-100315279D01*
X162330983Y-100252954D01*
X162470323Y-100168444D01*
X162648655Y-100058833D01*
X162870972Y-99921207D01*
X163053726Y-99805815D01*
X163466042Y-99530407D01*
X163857571Y-99248014D01*
X164219935Y-98965061D01*
X164544759Y-98687976D01*
X164823664Y-98423185D01*
X164833761Y-98412908D01*
X164957397Y-98278764D01*
X165058048Y-98154140D01*
X165130656Y-98046473D01*
X165170160Y-97963204D01*
X165171500Y-97911773D01*
X165167250Y-97905904D01*
X165111881Y-97883106D01*
X165012625Y-97885214D01*
X164875729Y-97910529D01*
X164707441Y-97957349D01*
X164514007Y-98023973D01*
X164301676Y-98108701D01*
X164076694Y-98209832D01*
X163751512Y-98372779D01*
X163348979Y-98594182D01*
X162923673Y-98846980D01*
X162485069Y-99125322D01*
X162042639Y-99423361D01*
X161605859Y-99735247D01*
X161297890Y-99961764D01*
X159845436Y-99961764D01*
X159926863Y-99857701D01*
X160011768Y-99750441D01*
X160073203Y-99674567D01*
X160191521Y-99531758D01*
X160024103Y-99453845D01*
X159976826Y-99432245D01*
X159796715Y-99359379D01*
X159623310Y-99307775D01*
X159440804Y-99274323D01*
X159233389Y-99255913D01*
X158985258Y-99249434D01*
X158962868Y-99249322D01*
X158783705Y-99250018D01*
X158648743Y-99254582D01*
X158546349Y-99264044D01*
X158464891Y-99279428D01*
X158392737Y-99301764D01*
X158331893Y-99325916D01*
X158260811Y-99360118D01*
X158226232Y-99385235D01*
X158226193Y-99385302D01*
X158214098Y-99424742D01*
X158193704Y-99510424D01*
X158167850Y-99629772D01*
X158139373Y-99770204D01*
X158114931Y-99889798D01*
X158075513Y-100069450D01*
X158035377Y-100239939D01*
X158000240Y-100376356D01*
X157986980Y-100425014D01*
X157960019Y-100529677D01*
X157943078Y-100604178D01*
X157939377Y-100634845D01*
X157810126Y-100634845D01*
X157856538Y-100485993D01*
X157969048Y-100042870D01*
X158057892Y-99597305D01*
X158111606Y-99218955D01*
X158250110Y-99218955D01*
X158439112Y-99167118D01*
X158567145Y-99139893D01*
X158790288Y-99117110D01*
X159037992Y-99115190D01*
X159292963Y-99134032D01*
X159537912Y-99173535D01*
X159596828Y-99187011D01*
X159757845Y-99230988D01*
X159916738Y-99282809D01*
X160046342Y-99333904D01*
X160264568Y-99432557D01*
X160461703Y-99224494D01*
X160628965Y-99224494D01*
X160671397Y-99308885D01*
X160695891Y-99347812D01*
X160756055Y-99427780D01*
X160838117Y-99527853D01*
X160841527Y-99531758D01*
X160931703Y-99635032D01*
X161149576Y-99876788D01*
X161317417Y-99750402D01*
X161479174Y-99629906D01*
X161879242Y-99342669D01*
X162279529Y-99069874D01*
X162675181Y-98814248D01*
X163061345Y-98578516D01*
X163433165Y-98365404D01*
X163785788Y-98177639D01*
X164114359Y-98017946D01*
X164414023Y-97889051D01*
X164679927Y-97793680D01*
X164907216Y-97734559D01*
X165042606Y-97718695D01*
X165176998Y-97733155D01*
X165270029Y-97783033D01*
X165318931Y-97865440D01*
X165319760Y-97911773D01*
X165320935Y-97977491D01*
X165273274Y-98116299D01*
X165207731Y-98225237D01*
X165086734Y-98378058D01*
X164923873Y-98551660D01*
X164723911Y-98742166D01*
X164491608Y-98945700D01*
X164231725Y-99158385D01*
X163949024Y-99376345D01*
X163648265Y-99595704D01*
X163334211Y-99812585D01*
X163011621Y-100023111D01*
X162685258Y-100223406D01*
X162626439Y-100258481D01*
X162498426Y-100336001D01*
X162390626Y-100402883D01*
X162312939Y-100452934D01*
X162275269Y-100479955D01*
X162264856Y-100494574D01*
X162275618Y-100517438D01*
X162326325Y-100544756D01*
X162424675Y-100581776D01*
X162472691Y-100597505D01*
X162604394Y-100635094D01*
X162756913Y-100673340D01*
X162906092Y-100706009D01*
X162936962Y-100711908D01*
X163155994Y-100743196D01*
X163426086Y-100766453D01*
X163742400Y-100781243D01*
X164285258Y-100797975D01*
X164672030Y-100606093D01*
X164843242Y-100519284D01*
X165230183Y-100309167D01*
X165599388Y-100089591D01*
X165943367Y-99865565D01*
X166254630Y-99642099D01*
X166525688Y-99424200D01*
X166749052Y-99216880D01*
X166755574Y-99210238D01*
X166864658Y-99095043D01*
X166935479Y-99009664D01*
X166973768Y-98946347D01*
X166985258Y-98897338D01*
X166985217Y-98892343D01*
X166973037Y-98833041D01*
X166933152Y-98802357D01*
X166856842Y-98797432D01*
X166735387Y-98815405D01*
X166734521Y-98815573D01*
X166583859Y-98851461D01*
X166459664Y-98899795D01*
X166340276Y-98971212D01*
X166204034Y-99076350D01*
X166070301Y-99184595D01*
X165916740Y-99300427D01*
X165801691Y-99374921D01*
X165724005Y-99408687D01*
X165682533Y-99402334D01*
X165676128Y-99356471D01*
X165682421Y-99343442D01*
X165726005Y-99292984D01*
X165803707Y-99218618D01*
X165907189Y-99128097D01*
X166028115Y-99029172D01*
X166335820Y-98774273D01*
X166630703Y-98507862D01*
X166905616Y-98237247D01*
X167158149Y-97965985D01*
X167385889Y-97697631D01*
X167586426Y-97435742D01*
X167757350Y-97183874D01*
X167896249Y-96945583D01*
X168000712Y-96724425D01*
X168068328Y-96523957D01*
X168096687Y-96347735D01*
X168083378Y-96199315D01*
X168025988Y-96082253D01*
X168009931Y-96063764D01*
X167894379Y-95978758D01*
X167731086Y-95915723D01*
X167524564Y-95874497D01*
X167279330Y-95854917D01*
X166999897Y-95856817D01*
X166690779Y-95880036D01*
X166356492Y-95924410D01*
X166001550Y-95989775D01*
X165630467Y-96075967D01*
X165247758Y-96182825D01*
X164860899Y-96311958D01*
X164281095Y-96548232D01*
X163697979Y-96834682D01*
X163118798Y-97166757D01*
X162550794Y-97539904D01*
X162001214Y-97949571D01*
X161477300Y-98391208D01*
X161295389Y-98564988D01*
X160986299Y-98860262D01*
X160628965Y-99224494D01*
X160461703Y-99224494D01*
X160672828Y-99001666D01*
X160728753Y-98942588D01*
X160852480Y-98810936D01*
X160941712Y-98713329D01*
X161000892Y-98643787D01*
X161034469Y-98596332D01*
X161046887Y-98564988D01*
X161042592Y-98543774D01*
X161026030Y-98526712D01*
X160978849Y-98496049D01*
X160873733Y-98443516D01*
X160735374Y-98384645D01*
X160576765Y-98324306D01*
X160410896Y-98267367D01*
X160250757Y-98218696D01*
X160109341Y-98183163D01*
X160005199Y-98163776D01*
X159769737Y-98135420D01*
X159515122Y-98121477D01*
X159259960Y-98122160D01*
X159022853Y-98137686D01*
X158822405Y-98168268D01*
X158800274Y-98173172D01*
X158650472Y-98211428D01*
X158513209Y-98254526D01*
X158399365Y-98298346D01*
X158319819Y-98338767D01*
X158285453Y-98371666D01*
X158284482Y-98376455D01*
X158279578Y-98430234D01*
X158273893Y-98528982D01*
X158269757Y-98622217D01*
X158268058Y-98660505D01*
X158262703Y-98812610D01*
X158250110Y-99218955D01*
X158111606Y-99218955D01*
X158119150Y-99165817D01*
X158148902Y-98764925D01*
X158152314Y-98622217D01*
X158149466Y-98396142D01*
X158133547Y-98218789D01*
X158103365Y-98083536D01*
X158057725Y-97983762D01*
X157995437Y-97912845D01*
X157899014Y-97863484D01*
X157768273Y-97857677D01*
X157615434Y-97902288D01*
X157443670Y-97996346D01*
X157256155Y-98138882D01*
X157193754Y-98194018D01*
X156996386Y-98386322D01*
X156783323Y-98616740D01*
X156563307Y-98874422D01*
X156345078Y-99148517D01*
X156137376Y-99428176D01*
X155948942Y-99702549D01*
X155788515Y-99960785D01*
X155721615Y-100065034D01*
X155661529Y-100136829D01*
X155618332Y-100162648D01*
X155617007Y-100162268D01*
X155588009Y-100135211D01*
X155531246Y-100071643D01*
X155454288Y-99980300D01*
X155364702Y-99869918D01*
X155357936Y-99861454D01*
X155148859Y-99611663D01*
X154929190Y-99369904D01*
X154704091Y-99140477D01*
X154478725Y-98927685D01*
X154258253Y-98735829D01*
X154047838Y-98569210D01*
X153852642Y-98432129D01*
X153677827Y-98328889D01*
X153528556Y-98263790D01*
X153409990Y-98241135D01*
X153339510Y-98250214D01*
X153244786Y-98306075D01*
X153179121Y-98412953D01*
X153142507Y-98570969D01*
X153134933Y-98780244D01*
X153033129Y-98780244D01*
X153031381Y-98626840D01*
X153050477Y-98446484D01*
X153092278Y-98312986D01*
X153133480Y-98246154D01*
X153233282Y-98160311D01*
X153362220Y-98125344D01*
X153519660Y-98141145D01*
X153704973Y-98207609D01*
X153917526Y-98324629D01*
X154156686Y-98492098D01*
X154208698Y-98531496D01*
X154293387Y-98594029D01*
X154353046Y-98635880D01*
X154377198Y-98649567D01*
X154377480Y-98648375D01*
X154369479Y-98611625D01*
X154347478Y-98534903D01*
X154315592Y-98432689D01*
X154274230Y-98296506D01*
X154169528Y-97858008D01*
X154093604Y-97377182D01*
X154047500Y-96861797D01*
X154037454Y-96504489D01*
X154163083Y-96504489D01*
X154187958Y-97029835D01*
X154243473Y-97528425D01*
X154328595Y-97991641D01*
X154442293Y-98410863D01*
X154460852Y-98467546D01*
X154516374Y-98623867D01*
X154569426Y-98742675D01*
X154629276Y-98839784D01*
X154705191Y-98931004D01*
X154806438Y-99032146D01*
X154864116Y-99086362D01*
X154937844Y-99149461D01*
X154995587Y-99184169D01*
X155053111Y-99198856D01*
X155126180Y-99201892D01*
X155175433Y-99200521D01*
X155246793Y-99192388D01*
X155280348Y-99179374D01*
X155282130Y-99169810D01*
X155280389Y-99111421D01*
X155271229Y-99014953D01*
X155255933Y-98895335D01*
X155245996Y-98824015D01*
X155219144Y-98611234D01*
X155197850Y-98403056D01*
X155181729Y-98190256D01*
X155170393Y-97963611D01*
X155163453Y-97713893D01*
X155160523Y-97431878D01*
X155161214Y-97108341D01*
X155162401Y-96995154D01*
X155316615Y-96995154D01*
X155316616Y-97004635D01*
X155317942Y-97382816D01*
X155322074Y-97709391D01*
X155329473Y-97992558D01*
X155340600Y-98240518D01*
X155355914Y-98461469D01*
X155375874Y-98663611D01*
X155400942Y-98855144D01*
X155431578Y-99044267D01*
X155437376Y-99072375D01*
X155463223Y-99126207D01*
X155509866Y-99139194D01*
X155544805Y-99135986D01*
X155637804Y-99119547D01*
X155745360Y-99093874D01*
X155849759Y-99063844D01*
X155933287Y-99034336D01*
X155978230Y-99010227D01*
X155996519Y-98973500D01*
X156017254Y-98878645D01*
X156034537Y-98737223D01*
X156048054Y-98556775D01*
X156057489Y-98344845D01*
X156062528Y-98108976D01*
X156062858Y-97856710D01*
X156058163Y-97595591D01*
X156048130Y-97333161D01*
X156035069Y-97087927D01*
X156004272Y-96632322D01*
X155967134Y-96228559D01*
X155922946Y-95871314D01*
X155870998Y-95555262D01*
X155810583Y-95275081D01*
X155740991Y-95025445D01*
X155728289Y-94985663D01*
X155675293Y-94835811D01*
X155630280Y-94743492D01*
X155590326Y-94707655D01*
X155552509Y-94727246D01*
X155513902Y-94801215D01*
X155471584Y-94928509D01*
X155436696Y-95057777D01*
X155404456Y-95206504D01*
X155378138Y-95368612D01*
X155357241Y-95550760D01*
X155341268Y-95759606D01*
X155329718Y-96001810D01*
X155322092Y-96284029D01*
X155317891Y-96612925D01*
X155316615Y-96995154D01*
X155162401Y-96995154D01*
X155165140Y-96734057D01*
X155167693Y-96552782D01*
X155172252Y-96279108D01*
X155177269Y-96053476D01*
X155183128Y-95868252D01*
X155190216Y-95715803D01*
X155198919Y-95588493D01*
X155209623Y-95478689D01*
X155222713Y-95378757D01*
X155238575Y-95281062D01*
X155269551Y-95117367D01*
X155322912Y-94893486D01*
X155380268Y-94724697D01*
X155443034Y-94607933D01*
X155512626Y-94540125D01*
X155590459Y-94518204D01*
X155628806Y-94526861D01*
X155701072Y-94586530D01*
X155773729Y-94698851D01*
X155845066Y-94859084D01*
X155913374Y-95062486D01*
X155976943Y-95304314D01*
X156034062Y-95579826D01*
X156083022Y-95884279D01*
X156111200Y-96109909D01*
X156140718Y-96406478D01*
X156165812Y-96725878D01*
X156186108Y-97057814D01*
X156201233Y-97391988D01*
X156210816Y-97718105D01*
X156212467Y-97856710D01*
X156214483Y-98025867D01*
X156211862Y-98304978D01*
X156202579Y-98545141D01*
X156186262Y-98736061D01*
X156185340Y-98743649D01*
X156174432Y-98847454D01*
X156169427Y-98923985D01*
X156171408Y-98957157D01*
X156177010Y-98960237D01*
X156221333Y-98944554D01*
X156299276Y-98887037D01*
X156407722Y-98790416D01*
X156543556Y-98657423D01*
X156703659Y-98490788D01*
X157036347Y-98136052D01*
X157060802Y-97805792D01*
X157064887Y-97746368D01*
X157077600Y-97475574D01*
X157084491Y-97165262D01*
X157085802Y-96829634D01*
X157081779Y-96482891D01*
X157072665Y-96139234D01*
X157058703Y-95812865D01*
X157040139Y-95517985D01*
X157017216Y-95268795D01*
X156988031Y-95021272D01*
X156908885Y-94442598D01*
X156820679Y-93918446D01*
X156723610Y-93449526D01*
X156617869Y-93036550D01*
X156503653Y-92680229D01*
X156381156Y-92381274D01*
X156250572Y-92140397D01*
X156112095Y-91958308D01*
X156049294Y-91898083D01*
X155937397Y-91830747D01*
X155828154Y-91821787D01*
X155717043Y-91871391D01*
X155599543Y-91979749D01*
X155484327Y-92130472D01*
X155349476Y-92358427D01*
X155219042Y-92632153D01*
X155095381Y-92943899D01*
X154980848Y-93285914D01*
X154877798Y-93650445D01*
X154788586Y-94029744D01*
X154715568Y-94416057D01*
X154661098Y-94801634D01*
X154627531Y-95178724D01*
X154617104Y-95339546D01*
X154606586Y-95457343D01*
X154594204Y-95533052D01*
X154577686Y-95575813D01*
X154554765Y-95594768D01*
X154523170Y-95599055D01*
X154516178Y-95599011D01*
X154493823Y-95595502D01*
X154479584Y-95579536D01*
X154472576Y-95541620D01*
X154471916Y-95472260D01*
X154476717Y-95361965D01*
X154486097Y-95201241D01*
X154496015Y-95031025D01*
X154504871Y-94855709D01*
X154508977Y-94726366D01*
X154508209Y-94635130D01*
X154502447Y-94574138D01*
X154491570Y-94535524D01*
X154475455Y-94511426D01*
X154456334Y-94497355D01*
X154412648Y-94506302D01*
X154369635Y-94568484D01*
X154328221Y-94679164D01*
X154289331Y-94833609D01*
X154253894Y-95027084D01*
X154222835Y-95254855D01*
X154197081Y-95512188D01*
X154177559Y-95794347D01*
X154165196Y-96096598D01*
X154163083Y-96504489D01*
X154037454Y-96504489D01*
X154032256Y-96319622D01*
X154032492Y-96256118D01*
X154040631Y-95899234D01*
X154059698Y-95570020D01*
X154088830Y-95272063D01*
X154127167Y-95008950D01*
X154173846Y-94784267D01*
X154228006Y-94601604D01*
X154288786Y-94464546D01*
X154355324Y-94376681D01*
X154426758Y-94341596D01*
X154502227Y-94362879D01*
X154543778Y-94385870D01*
X154572601Y-94391393D01*
X154573236Y-94390334D01*
X154584009Y-94351684D01*
X154603412Y-94267182D01*
X154628901Y-94148300D01*
X154657934Y-94006511D01*
X154670924Y-93943372D01*
X154749824Y-93610791D01*
X154844323Y-93282079D01*
X154951133Y-92965190D01*
X155066968Y-92668076D01*
X155188540Y-92398691D01*
X155312563Y-92164988D01*
X155435749Y-91974919D01*
X155554813Y-91836438D01*
X155593490Y-91802997D01*
X155690781Y-91736398D01*
X155780963Y-91693786D01*
X155806071Y-91686220D01*
X155875538Y-91674002D01*
X155939765Y-91685738D01*
X156025887Y-91724872D01*
X156164940Y-91824326D01*
X156303769Y-91985356D01*
X156436005Y-92203771D01*
X156561267Y-92478372D01*
X156679174Y-92807960D01*
X156789342Y-93191337D01*
X156891391Y-93627305D01*
X156984940Y-94114666D01*
X157069606Y-94652220D01*
X157145008Y-95238771D01*
X157156686Y-95359864D01*
X157170308Y-95557636D01*
X157182217Y-95793057D01*
X157192209Y-96055287D01*
X157200083Y-96333481D01*
X157205636Y-96616798D01*
X157207958Y-96829634D01*
X157208665Y-96894395D01*
X157208969Y-97155429D01*
X157206346Y-97389059D01*
X157200592Y-97584441D01*
X157191506Y-97730733D01*
X157185069Y-97804269D01*
X157176655Y-97915404D01*
X157172457Y-97993958D01*
X157173312Y-98026358D01*
X157188485Y-98022089D01*
X157239292Y-97992155D01*
X157311922Y-97942277D01*
X157467586Y-97841208D01*
X157648636Y-97759184D01*
X157808105Y-97731393D01*
X157951881Y-97750083D01*
X158065665Y-97812289D01*
X158151838Y-97922625D01*
X158215683Y-98085682D01*
X158226118Y-98120006D01*
X158250715Y-98185218D01*
X158268352Y-98211096D01*
X158286603Y-98206445D01*
X158346588Y-98185438D01*
X158430084Y-98153237D01*
X158532767Y-98116693D01*
X158791308Y-98053443D01*
X159088203Y-98014334D01*
X159413243Y-98000946D01*
X159720480Y-98012838D01*
X160158737Y-98075151D01*
X160571790Y-98190986D01*
X160960375Y-98360515D01*
X161178349Y-98474210D01*
X161499145Y-98193829D01*
X161946696Y-97824373D01*
X162433372Y-97463715D01*
X162940115Y-97125639D01*
X163455032Y-96817657D01*
X163966231Y-96547284D01*
X164461820Y-96322032D01*
X164527568Y-96295207D01*
X164892393Y-96159055D01*
X165266856Y-96039177D01*
X165644160Y-95936647D01*
X166017507Y-95852539D01*
X166380102Y-95787931D01*
X166725148Y-95743895D01*
X167045848Y-95721508D01*
X167335406Y-95721844D01*
X167587025Y-95745979D01*
X167793909Y-95794987D01*
X167901274Y-95840209D01*
X168042660Y-95930929D01*
X168151262Y-96040344D01*
X168214921Y-96157970D01*
X168233651Y-96263864D01*
X168227853Y-96347735D01*
G37*
G36*
X157695486Y-105644888D02*
G01*
X157677599Y-105670199D01*
X157667739Y-105720256D01*
X157658027Y-105769563D01*
X157647870Y-105850991D01*
X157617061Y-106054311D01*
X157579201Y-106261320D01*
X157537566Y-106456168D01*
X157495435Y-106623006D01*
X157488506Y-106644660D01*
X157456086Y-106745985D01*
X157369417Y-106936288D01*
X157258412Y-107117461D01*
X157135621Y-107267317D01*
X157008652Y-107376657D01*
X156885114Y-107436280D01*
X156835685Y-107446530D01*
X156724938Y-107443336D01*
X156622863Y-107397275D01*
X156524660Y-107304308D01*
X156425528Y-107160398D01*
X156320667Y-106961507D01*
X156278731Y-106864543D01*
X156214962Y-106689159D01*
X156199549Y-106640422D01*
X156351070Y-106640422D01*
X156378937Y-106731843D01*
X156437297Y-106864585D01*
X156457267Y-106906459D01*
X156522852Y-107030276D01*
X156588822Y-107138209D01*
X156643521Y-107210698D01*
X156710647Y-107273801D01*
X156774660Y-107302049D01*
X156846089Y-107288707D01*
X156943106Y-107235263D01*
X156983454Y-107206602D01*
X157100240Y-107090038D01*
X157208789Y-106935308D01*
X157297334Y-106758253D01*
X157318843Y-106704135D01*
X157336488Y-106644660D01*
X157331166Y-106608618D01*
X157303541Y-106576497D01*
X157216283Y-106515930D01*
X157070878Y-106463422D01*
X156899506Y-106439206D01*
X156716632Y-106445048D01*
X156536724Y-106482719D01*
X156479812Y-106501229D01*
X156398569Y-106536399D01*
X156356635Y-106579035D01*
X156351070Y-106640422D01*
X156199549Y-106640422D01*
X156149009Y-106480611D01*
X156085307Y-106254033D01*
X156028291Y-106024558D01*
X155982398Y-105807322D01*
X155949541Y-105645829D01*
X155939265Y-105606200D01*
X156156686Y-105606200D01*
X156162773Y-105636818D01*
X156192400Y-105696779D01*
X156208130Y-105718177D01*
X156232877Y-105730300D01*
X156248304Y-105709516D01*
X157272980Y-105709516D01*
X157278118Y-105733121D01*
X157297065Y-105791411D01*
X157310253Y-105823978D01*
X157326253Y-105830801D01*
X157352199Y-105785879D01*
X157353521Y-105783278D01*
X157380826Y-105720256D01*
X157373518Y-105692929D01*
X157328115Y-105686998D01*
X157295172Y-105691251D01*
X157272980Y-105709516D01*
X156248304Y-105709516D01*
X156261781Y-105691359D01*
X156280506Y-105644888D01*
X156263210Y-105600780D01*
X156222051Y-105572964D01*
X156176653Y-105572094D01*
X156156686Y-105606200D01*
X155939265Y-105606200D01*
X155919191Y-105528787D01*
X155889763Y-105453750D01*
X155858443Y-105411739D01*
X155827184Y-105383294D01*
X155817603Y-105359014D01*
X155850558Y-105340335D01*
X155879804Y-105337039D01*
X155959511Y-105353841D01*
X156064844Y-105395382D01*
X156080966Y-105402809D01*
X156232441Y-105464780D01*
X156384254Y-105510233D01*
X156547649Y-105540758D01*
X156733871Y-105557945D01*
X156954162Y-105563383D01*
X157219768Y-105558662D01*
X157266732Y-105557198D01*
X157445911Y-105552429D01*
X157576651Y-105550923D01*
X157666026Y-105553019D01*
X157721108Y-105559052D01*
X157748970Y-105569361D01*
X157756686Y-105584284D01*
X157752346Y-105603310D01*
X157715580Y-105626951D01*
X157707042Y-105628536D01*
X157695486Y-105644888D01*
G37*
G36*
X159811951Y-104391946D02*
G01*
X159819820Y-104427335D01*
X159841904Y-104731128D01*
X159842400Y-104961191D01*
X159672495Y-105142526D01*
X159626621Y-105190062D01*
X159464653Y-105331395D01*
X159299353Y-105429352D01*
X159113829Y-105494576D01*
X158999606Y-105517654D01*
X158756356Y-105525590D01*
X158517363Y-105481697D01*
X158291577Y-105390164D01*
X158087947Y-105255181D01*
X157915423Y-105080936D01*
X157782956Y-104871618D01*
X157757482Y-104814700D01*
X157736615Y-104742955D01*
X157732097Y-104664130D01*
X157743449Y-104561263D01*
X157770196Y-104417392D01*
X157777055Y-104386633D01*
X158245069Y-104386633D01*
X158264253Y-104535543D01*
X158309687Y-104651392D01*
X158380961Y-104723825D01*
X158382977Y-104724950D01*
X158494478Y-104758460D01*
X158600081Y-104732244D01*
X158699788Y-104646302D01*
X158710504Y-104633453D01*
X158749827Y-104582644D01*
X158773096Y-104536178D01*
X158783678Y-104477973D01*
X158784940Y-104391946D01*
X158780250Y-104262016D01*
X158779297Y-104239982D01*
X158770343Y-104103917D01*
X158755173Y-104005722D01*
X158729516Y-103925842D01*
X158689099Y-103844723D01*
X158654986Y-103788170D01*
X158604316Y-103718780D01*
X158566813Y-103684594D01*
X158544315Y-103679236D01*
X158472408Y-103697915D01*
X158401686Y-103758960D01*
X158346472Y-103851521D01*
X158287084Y-104031062D01*
X158252543Y-104215021D01*
X158245069Y-104386633D01*
X157777055Y-104386633D01*
X157785058Y-104350745D01*
X157866473Y-104103864D01*
X157980566Y-103882442D01*
X158121571Y-103690590D01*
X158283719Y-103532423D01*
X158461245Y-103412051D01*
X158648382Y-103333588D01*
X158839362Y-103301146D01*
X159028420Y-103318838D01*
X159209787Y-103390776D01*
X159356469Y-103494518D01*
X159522173Y-103671830D01*
X159656761Y-103890916D01*
X159757041Y-104145008D01*
X159811951Y-104391946D01*
G37*
G36*
X156647020Y-104821908D02*
G01*
X156670972Y-104863371D01*
X156652245Y-104893465D01*
X156585258Y-104906383D01*
X156566949Y-104905326D01*
X156512326Y-104882924D01*
X156496681Y-104843039D01*
X156528370Y-104801134D01*
X156537874Y-104796322D01*
X156593492Y-104795559D01*
X156647020Y-104821908D01*
G37*
G36*
X156139970Y-103849014D02*
G01*
X156147730Y-103982408D01*
X156165445Y-104364461D01*
X156085665Y-104485435D01*
X156035138Y-104552201D01*
X155895806Y-104676670D01*
X155734856Y-104756394D01*
X155696909Y-104765308D01*
X155603196Y-104777730D01*
X155498010Y-104783708D01*
X155381032Y-104776149D01*
X155208953Y-104721568D01*
X155058946Y-104612968D01*
X154927872Y-104448505D01*
X154886359Y-104382454D01*
X154844078Y-104305601D01*
X154824230Y-104240504D01*
X154820996Y-104163984D01*
X154828557Y-104052862D01*
X154848470Y-103860392D01*
X155486891Y-103860392D01*
X155500795Y-104003511D01*
X155538350Y-104119281D01*
X155596678Y-104192862D01*
X155628935Y-104207170D01*
X155707542Y-104213007D01*
X155777007Y-104191810D01*
X155778307Y-104190911D01*
X155819345Y-104137173D01*
X155858525Y-104047178D01*
X155887782Y-103943575D01*
X155899054Y-103849014D01*
X155898760Y-103834558D01*
X155888267Y-103731941D01*
X155865584Y-103612657D01*
X155834550Y-103489310D01*
X155799004Y-103374503D01*
X155762782Y-103280842D01*
X155729723Y-103220929D01*
X155703666Y-103207370D01*
X155691413Y-103219183D01*
X155653053Y-103281086D01*
X155607860Y-103376700D01*
X155562776Y-103489243D01*
X155524742Y-103601937D01*
X155500701Y-103698000D01*
X155499517Y-103704762D01*
X155486891Y-103860392D01*
X154848470Y-103860392D01*
X154852271Y-103823653D01*
X154903407Y-103528204D01*
X154975057Y-103281210D01*
X155068833Y-103077537D01*
X155186345Y-102912049D01*
X155235556Y-102860694D01*
X155373661Y-102761496D01*
X155514428Y-102719665D01*
X155652421Y-102733932D01*
X155782206Y-102803032D01*
X155898345Y-102925696D01*
X155995405Y-103100659D01*
X156011170Y-103138618D01*
X156056629Y-103266577D01*
X156090734Y-103401735D01*
X156115766Y-103557293D01*
X156134004Y-103746450D01*
X156139970Y-103849014D01*
G37*
%TD*%
M02*
