%TF.GenerationSoftware,KiCad,Pcbnew,7.0.1*%
%TF.CreationDate,2023-04-21T06:03:37+01:00*%
%TF.ProjectId,wiikey,7769696b-6579-42e6-9b69-6361645f7063,rev?*%
%TF.SameCoordinates,Original*%
%TF.FileFunction,Copper,L1,Top*%
%TF.FilePolarity,Positive*%
%FSLAX46Y46*%
G04 Gerber Fmt 4.6, Leading zero omitted, Abs format (unit mm)*
G04 Created by KiCad (PCBNEW 7.0.1) date 2023-04-21 06:03:37*
%MOMM*%
%LPD*%
G01*
G04 APERTURE LIST*
%TA.AperFunction,ComponentPad*%
%ADD10R,1.350000X1.350000*%
%TD*%
%TA.AperFunction,ComponentPad*%
%ADD11O,1.350000X1.350000*%
%TD*%
%TA.AperFunction,ComponentPad*%
%ADD12C,1.600000*%
%TD*%
%TA.AperFunction,ComponentPad*%
%ADD13O,1.600000X1.600000*%
%TD*%
%TA.AperFunction,ComponentPad*%
%ADD14R,1.600000X1.600000*%
%TD*%
%TA.AperFunction,ViaPad*%
%ADD15C,0.800000*%
%TD*%
%TA.AperFunction,Conductor*%
%ADD16C,0.250000*%
%TD*%
G04 APERTURE END LIST*
D10*
%TO.P,J1,1,Pin_1*%
%TO.N,Net-(J1-Pin_1)*%
X174142400Y-104325400D03*
D11*
%TO.P,J1,2,Pin_2*%
%TO.N,Net-(J1-Pin_2)*%
X174142400Y-106325400D03*
%TO.P,J1,3,Pin_3*%
%TO.N,Net-(J1-Pin_3)*%
X174142400Y-108325400D03*
%TO.P,J1,4,Pin_4*%
%TO.N,Net-(J1-Pin_4)*%
X174142400Y-110325400D03*
%TO.P,J1,5,Pin_5*%
%TO.N,Net-(J1-Pin_5)*%
X174142400Y-112325400D03*
%TO.P,J1,6,Pin_6*%
%TO.N,Net-(J1-Pin_6)*%
X174142400Y-114325400D03*
%TO.P,J1,7,Pin_7*%
%TO.N,unconnected-(J1-Pin_7-Pad7)*%
X174142400Y-116325400D03*
%TO.P,J1,8,Pin_8*%
%TO.N,unconnected-(J1-Pin_8-Pad8)*%
X174142400Y-118325400D03*
%TD*%
D12*
%TO.P,R1,1*%
%TO.N,Net-(U1-PC6{slash}~{RESET})*%
X149758400Y-88417400D03*
D13*
%TO.P,R1,2*%
%TO.N,Net-(U1-AVCC)*%
X149758400Y-98577400D03*
%TD*%
D14*
%TO.P,U1,1,PC6/~{RESET}*%
%TO.N,Net-(U1-PC6{slash}~{RESET})*%
X154051000Y-89027000D03*
D13*
%TO.P,U1,2,PD0*%
%TO.N,unconnected-(U1-PD0-Pad2)*%
X154051000Y-91567000D03*
%TO.P,U1,3,PD1*%
%TO.N,unconnected-(U1-PD1-Pad3)*%
X154051000Y-94107000D03*
%TO.P,U1,4,PD2*%
%TO.N,unconnected-(U1-PD2-Pad4)*%
X154051000Y-96647000D03*
%TO.P,U1,5,PD3*%
%TO.N,unconnected-(U1-PD3-Pad5)*%
X154051000Y-99187000D03*
%TO.P,U1,6,PD4*%
%TO.N,unconnected-(U1-PD4-Pad6)*%
X154051000Y-101727000D03*
%TO.P,U1,7,VCC*%
%TO.N,Net-(J1-Pin_2)*%
X154051000Y-104267000D03*
%TO.P,U1,8,GND*%
%TO.N,Net-(J1-Pin_1)*%
X154051000Y-106807000D03*
%TO.P,U1,9,PB6/XTAL1*%
%TO.N,unconnected-(U1-PB6{slash}XTAL1-Pad9)*%
X154051000Y-109347000D03*
%TO.P,U1,10,PB7/XTAL2*%
%TO.N,unconnected-(U1-PB7{slash}XTAL2-Pad10)*%
X154051000Y-111887000D03*
%TO.P,U1,11,PD5*%
%TO.N,unconnected-(U1-PD5-Pad11)*%
X154051000Y-114427000D03*
%TO.P,U1,12,PD6*%
%TO.N,unconnected-(U1-PD6-Pad12)*%
X154051000Y-116967000D03*
%TO.P,U1,13,PD7*%
%TO.N,unconnected-(U1-PD7-Pad13)*%
X154051000Y-119507000D03*
%TO.P,U1,14,PB0*%
%TO.N,unconnected-(U1-PB0-Pad14)*%
X154051000Y-122047000D03*
%TO.P,U1,15,PB1*%
%TO.N,Net-(J1-Pin_3)*%
X161671000Y-122047000D03*
%TO.P,U1,16,PB2*%
%TO.N,unconnected-(U1-PB2-Pad16)*%
X161671000Y-119507000D03*
%TO.P,U1,17,PB3*%
%TO.N,Net-(J1-Pin_4)*%
X161671000Y-116967000D03*
%TO.P,U1,18,PB4*%
%TO.N,Net-(J1-Pin_6)*%
X161671000Y-114427000D03*
%TO.P,U1,19,PB5*%
%TO.N,Net-(J1-Pin_5)*%
X161671000Y-111887000D03*
%TO.P,U1,20,AVCC*%
%TO.N,Net-(U1-AVCC)*%
X161671000Y-109347000D03*
%TO.P,U1,21,AREF*%
%TO.N,unconnected-(U1-AREF-Pad21)*%
X161671000Y-106807000D03*
%TO.P,U1,22,AGND*%
%TO.N,Net-(J1-Pin_1)*%
X161671000Y-104267000D03*
%TO.P,U1,23,PC0*%
%TO.N,unconnected-(U1-PC0-Pad23)*%
X161671000Y-101727000D03*
%TO.P,U1,24,PC1*%
%TO.N,unconnected-(U1-PC1-Pad24)*%
X161671000Y-99187000D03*
%TO.P,U1,25,PC2*%
%TO.N,unconnected-(U1-PC2-Pad25)*%
X161671000Y-96647000D03*
%TO.P,U1,26,PC3*%
%TO.N,unconnected-(U1-PC3-Pad26)*%
X161671000Y-94107000D03*
%TO.P,U1,27,PC4*%
%TO.N,unconnected-(U1-PC4-Pad27)*%
X161671000Y-91567000D03*
%TO.P,U1,28,PC5*%
%TO.N,unconnected-(U1-PC5-Pad28)*%
X161671000Y-89027000D03*
%TD*%
D12*
%TO.P,C2,1*%
%TO.N,Net-(J1-Pin_2)*%
X164851000Y-93980000D03*
%TO.P,C2,2*%
%TO.N,Net-(J1-Pin_1)*%
X169851000Y-93980000D03*
%TD*%
%TO.P,C1,1*%
%TO.N,Net-(J1-Pin_1)*%
X164851000Y-88977000D03*
%TO.P,C1,2*%
%TO.N,Net-(J1-Pin_2)*%
X169851000Y-88977000D03*
%TD*%
D15*
%TO.N,Net-(J1-Pin_1)*%
X167030400Y-101117400D03*
%TO.N,Net-(J1-Pin_3)*%
X165506400Y-105181400D03*
%TO.N,Net-(J1-Pin_4)*%
X166014400Y-107213400D03*
%TD*%
D16*
%TO.N,Net-(J1-Pin_1)*%
X171602400Y-95731400D02*
X169851000Y-93980000D01*
X171602400Y-87909400D02*
X170586400Y-86893400D01*
X161671000Y-104267000D02*
X161671000Y-103936800D01*
X166934600Y-86893400D02*
X164851000Y-88977000D01*
X167030400Y-101117400D02*
X171602400Y-101117400D01*
X171602400Y-91465400D02*
X171602400Y-87909400D01*
X174142400Y-104325400D02*
X174142400Y-103657400D01*
X171602400Y-101117400D02*
X171602400Y-95731400D01*
X169851000Y-93980000D02*
X169851000Y-93216800D01*
X174142400Y-103657400D02*
X171602400Y-101117400D01*
X161264600Y-104673400D02*
X161671000Y-104267000D01*
X169851000Y-93216800D02*
X171602400Y-91465400D01*
X170586400Y-86893400D02*
X166934600Y-86893400D01*
%TO.N,Net-(J1-Pin_2)*%
X166795200Y-102914200D02*
X166014400Y-102133400D01*
X166014400Y-99847400D02*
X164744400Y-98577400D01*
X164744400Y-94086600D02*
X164851000Y-93980000D01*
X164744400Y-98577400D02*
X164744400Y-94086600D01*
X155778200Y-104292400D02*
X154076400Y-104292400D01*
X164851000Y-93980000D02*
X169851000Y-88980000D01*
X173184800Y-106325400D02*
X174142400Y-106325400D01*
X169773600Y-102914200D02*
X173184800Y-106325400D01*
X162788600Y-100533200D02*
X159537400Y-100533200D01*
X166014400Y-102133400D02*
X166014400Y-99847400D01*
X154076400Y-104292400D02*
X154051000Y-104267000D01*
X159537400Y-100533200D02*
X155778200Y-104292400D01*
X169851000Y-88980000D02*
X169851000Y-88977000D01*
X164744400Y-98577400D02*
X162788600Y-100533200D01*
X169773600Y-102914200D02*
X166795200Y-102914200D01*
%TO.N,Net-(J1-Pin_3)*%
X169773600Y-104914200D02*
X173184800Y-108325400D01*
X165773600Y-104914200D02*
X165506400Y-105181400D01*
X173184800Y-108325400D02*
X174142400Y-108325400D01*
X169773600Y-104914200D02*
X165773600Y-104914200D01*
%TO.N,Net-(J1-Pin_4)*%
X166313600Y-106914200D02*
X170731200Y-106914200D01*
X170731200Y-106914200D02*
X174142400Y-110325400D01*
X166014400Y-107213400D02*
X166313600Y-106914200D01*
%TO.N,Net-(J1-Pin_5)*%
X170731200Y-108914200D02*
X174142400Y-112325400D01*
X165837600Y-108914200D02*
X170731200Y-108914200D01*
X162864800Y-111887000D02*
X165837600Y-108914200D01*
X161671000Y-111887000D02*
X162864800Y-111887000D01*
%TO.N,Net-(J1-Pin_6)*%
X165183800Y-110914200D02*
X170731200Y-110914200D01*
X161671000Y-114427000D02*
X165183800Y-110914200D01*
X170731200Y-110914200D02*
X174142400Y-114325400D01*
%TO.N,Net-(U1-PC6{slash}~{RESET})*%
X149758400Y-88417400D02*
X153441400Y-88417400D01*
X153441400Y-88417400D02*
X154051000Y-89027000D01*
%TO.N,Net-(U1-AVCC)*%
X153085800Y-108051600D02*
X160375600Y-108051600D01*
X149758400Y-104724200D02*
X153085800Y-108051600D01*
X149758400Y-98577400D02*
X149758400Y-104724200D01*
X160375600Y-108051600D02*
X161671000Y-109347000D01*
%TD*%
%TA.AperFunction,NonConductor*%
G36*
X177381900Y-85894513D02*
G01*
X177427287Y-85939900D01*
X177443900Y-86001900D01*
X177443900Y-128932900D01*
X177427287Y-128994900D01*
X177381900Y-129040287D01*
X177319900Y-129056900D01*
X144548900Y-129056900D01*
X144486900Y-129040287D01*
X144441513Y-128994900D01*
X144424900Y-128932900D01*
X144424900Y-98577400D01*
X148452931Y-98577400D01*
X148472764Y-98804089D01*
X148531661Y-99023897D01*
X148627832Y-99230135D01*
X148758353Y-99416540D01*
X148919259Y-99577446D01*
X149080023Y-99690013D01*
X149118889Y-99734331D01*
X149132900Y-99791588D01*
X149132900Y-104641456D01*
X149130635Y-104661962D01*
X149132839Y-104732073D01*
X149132900Y-104735968D01*
X149132900Y-104763549D01*
X149133403Y-104767534D01*
X149134318Y-104779167D01*
X149135690Y-104822826D01*
X149141279Y-104842060D01*
X149145225Y-104861116D01*
X149147735Y-104880992D01*
X149163814Y-104921604D01*
X149167597Y-104932651D01*
X149179782Y-104974591D01*
X149189980Y-104991835D01*
X149198536Y-105009300D01*
X149205914Y-105027932D01*
X149205915Y-105027933D01*
X149231580Y-105063259D01*
X149237993Y-105073022D01*
X149260226Y-105110616D01*
X149260229Y-105110619D01*
X149260230Y-105110620D01*
X149274395Y-105124785D01*
X149287027Y-105139575D01*
X149298806Y-105155787D01*
X149332458Y-105183626D01*
X149341099Y-105191489D01*
X152584996Y-108435387D01*
X152597896Y-108451488D01*
X152649023Y-108499500D01*
X152651820Y-108502211D01*
X152671329Y-108521720D01*
X152674511Y-108524188D01*
X152683371Y-108531755D01*
X152694624Y-108542323D01*
X152715218Y-108561662D01*
X152732770Y-108571311D01*
X152749038Y-108581997D01*
X152764864Y-108594273D01*
X152804946Y-108611617D01*
X152815425Y-108616750D01*
X152826089Y-108622613D01*
X152870972Y-108664710D01*
X152890091Y-108723201D01*
X152878736Y-108783681D01*
X152824261Y-108900501D01*
X152765364Y-109120310D01*
X152745531Y-109347000D01*
X152765364Y-109573689D01*
X152824261Y-109793497D01*
X152920432Y-109999735D01*
X153050953Y-110186140D01*
X153211859Y-110347046D01*
X153380278Y-110464973D01*
X153398266Y-110477568D01*
X153456275Y-110504618D01*
X153508450Y-110550375D01*
X153527869Y-110617000D01*
X153508450Y-110683625D01*
X153456275Y-110729382D01*
X153398263Y-110756433D01*
X153211859Y-110886953D01*
X153050953Y-111047859D01*
X152920432Y-111234264D01*
X152824261Y-111440502D01*
X152765364Y-111660310D01*
X152745531Y-111887000D01*
X152765364Y-112113689D01*
X152824261Y-112333497D01*
X152920432Y-112539735D01*
X153050953Y-112726140D01*
X153211859Y-112887046D01*
X153398262Y-113017565D01*
X153398266Y-113017568D01*
X153456275Y-113044618D01*
X153508450Y-113090375D01*
X153527869Y-113157000D01*
X153508450Y-113223625D01*
X153456275Y-113269382D01*
X153398263Y-113296433D01*
X153211859Y-113426953D01*
X153050953Y-113587859D01*
X152920432Y-113774264D01*
X152824261Y-113980502D01*
X152765364Y-114200310D01*
X152745531Y-114427000D01*
X152765364Y-114653689D01*
X152824261Y-114873497D01*
X152920432Y-115079735D01*
X153050953Y-115266140D01*
X153211859Y-115427046D01*
X153359003Y-115530076D01*
X153398266Y-115557568D01*
X153456273Y-115584617D01*
X153508449Y-115630373D01*
X153527869Y-115696997D01*
X153508451Y-115763622D01*
X153456276Y-115809380D01*
X153398266Y-115836431D01*
X153211859Y-115966953D01*
X153050953Y-116127859D01*
X152920432Y-116314264D01*
X152824261Y-116520502D01*
X152765364Y-116740310D01*
X152745531Y-116967000D01*
X152765364Y-117193689D01*
X152824261Y-117413497D01*
X152920432Y-117619735D01*
X153050953Y-117806140D01*
X153211859Y-117967046D01*
X153398263Y-118097566D01*
X153398266Y-118097568D01*
X153456275Y-118124618D01*
X153508450Y-118170375D01*
X153527869Y-118237000D01*
X153508450Y-118303625D01*
X153456275Y-118349382D01*
X153398263Y-118376433D01*
X153211859Y-118506953D01*
X153050953Y-118667859D01*
X152920432Y-118854264D01*
X152824261Y-119060502D01*
X152765364Y-119280310D01*
X152745531Y-119507000D01*
X152765364Y-119733689D01*
X152824261Y-119953497D01*
X152920432Y-120159735D01*
X153050953Y-120346140D01*
X153211859Y-120507046D01*
X153398263Y-120637566D01*
X153398266Y-120637568D01*
X153456275Y-120664618D01*
X153508450Y-120710375D01*
X153527869Y-120777000D01*
X153508450Y-120843625D01*
X153456275Y-120889382D01*
X153398263Y-120916433D01*
X153211859Y-121046953D01*
X153050953Y-121207859D01*
X152920432Y-121394264D01*
X152824261Y-121600502D01*
X152765364Y-121820310D01*
X152745531Y-122047000D01*
X152765364Y-122273689D01*
X152824261Y-122493497D01*
X152920432Y-122699735D01*
X153050953Y-122886140D01*
X153211859Y-123047046D01*
X153398264Y-123177567D01*
X153398265Y-123177567D01*
X153398266Y-123177568D01*
X153604504Y-123273739D01*
X153824308Y-123332635D01*
X154051000Y-123352468D01*
X154277692Y-123332635D01*
X154497496Y-123273739D01*
X154703734Y-123177568D01*
X154890139Y-123047047D01*
X155051047Y-122886139D01*
X155181568Y-122699734D01*
X155277739Y-122493496D01*
X155336635Y-122273692D01*
X155356468Y-122047000D01*
X155336635Y-121820308D01*
X155277739Y-121600504D01*
X155181568Y-121394266D01*
X155051047Y-121207861D01*
X155051046Y-121207859D01*
X154890140Y-121046953D01*
X154703733Y-120916431D01*
X154645725Y-120889382D01*
X154593549Y-120843625D01*
X154574129Y-120777000D01*
X154593549Y-120710375D01*
X154645725Y-120664618D01*
X154703734Y-120637568D01*
X154890139Y-120507047D01*
X155051047Y-120346139D01*
X155181568Y-120159734D01*
X155277739Y-119953496D01*
X155336635Y-119733692D01*
X155356468Y-119507000D01*
X155336635Y-119280308D01*
X155277739Y-119060504D01*
X155181568Y-118854266D01*
X155109862Y-118751859D01*
X155051046Y-118667859D01*
X154890140Y-118506953D01*
X154703733Y-118376431D01*
X154645725Y-118349382D01*
X154593549Y-118303625D01*
X154574129Y-118237000D01*
X154593549Y-118170375D01*
X154645725Y-118124618D01*
X154703734Y-118097568D01*
X154890139Y-117967047D01*
X155051047Y-117806139D01*
X155181568Y-117619734D01*
X155277739Y-117413496D01*
X155336635Y-117193692D01*
X155356468Y-116967000D01*
X155336635Y-116740308D01*
X155277739Y-116520504D01*
X155181568Y-116314266D01*
X155051047Y-116127861D01*
X155051046Y-116127859D01*
X154890140Y-115966953D01*
X154703732Y-115836430D01*
X154645724Y-115809380D01*
X154593549Y-115763623D01*
X154574130Y-115696997D01*
X154593550Y-115630373D01*
X154645721Y-115584619D01*
X154703734Y-115557568D01*
X154890139Y-115427047D01*
X155051047Y-115266139D01*
X155181568Y-115079734D01*
X155277739Y-114873496D01*
X155336635Y-114653692D01*
X155356468Y-114427000D01*
X155336635Y-114200308D01*
X155277739Y-113980504D01*
X155181568Y-113774266D01*
X155132317Y-113703928D01*
X155051046Y-113587859D01*
X154890140Y-113426953D01*
X154703732Y-113296430D01*
X154645724Y-113269380D01*
X154593549Y-113223623D01*
X154574130Y-113156997D01*
X154593550Y-113090373D01*
X154645721Y-113044619D01*
X154703734Y-113017568D01*
X154890139Y-112887047D01*
X155051047Y-112726139D01*
X155181568Y-112539734D01*
X155277739Y-112333496D01*
X155336635Y-112113692D01*
X155356468Y-111887000D01*
X155336635Y-111660308D01*
X155277739Y-111440504D01*
X155181568Y-111234266D01*
X155102064Y-111120722D01*
X155051046Y-111047859D01*
X154890140Y-110886953D01*
X154703733Y-110756431D01*
X154645725Y-110729382D01*
X154593549Y-110683625D01*
X154574129Y-110617000D01*
X154593549Y-110550375D01*
X154645725Y-110504618D01*
X154703734Y-110477568D01*
X154890139Y-110347047D01*
X155051047Y-110186139D01*
X155181568Y-109999734D01*
X155277739Y-109793496D01*
X155336635Y-109573692D01*
X155356468Y-109347000D01*
X155336635Y-109120308D01*
X155277739Y-108900504D01*
X155255823Y-108853505D01*
X155244470Y-108792990D01*
X155263624Y-108734475D01*
X155308562Y-108692386D01*
X155368205Y-108677100D01*
X160065148Y-108677100D01*
X160112601Y-108686539D01*
X160152829Y-108713419D01*
X160371586Y-108932177D01*
X160403680Y-108987764D01*
X160403680Y-109051950D01*
X160385364Y-109120307D01*
X160365531Y-109347000D01*
X160385364Y-109573689D01*
X160444261Y-109793497D01*
X160540432Y-109999735D01*
X160670953Y-110186140D01*
X160831859Y-110347046D01*
X161000278Y-110464973D01*
X161018266Y-110477568D01*
X161076275Y-110504618D01*
X161128450Y-110550375D01*
X161147869Y-110617000D01*
X161128450Y-110683625D01*
X161076275Y-110729382D01*
X161018263Y-110756433D01*
X160831859Y-110886953D01*
X160670953Y-111047859D01*
X160540432Y-111234264D01*
X160444261Y-111440502D01*
X160385364Y-111660310D01*
X160365531Y-111887000D01*
X160385364Y-112113689D01*
X160444261Y-112333497D01*
X160540432Y-112539735D01*
X160670953Y-112726140D01*
X160831859Y-112887046D01*
X161018262Y-113017565D01*
X161018266Y-113017568D01*
X161076275Y-113044618D01*
X161128450Y-113090375D01*
X161147869Y-113157000D01*
X161128450Y-113223625D01*
X161076275Y-113269382D01*
X161018263Y-113296433D01*
X160831859Y-113426953D01*
X160670953Y-113587859D01*
X160540432Y-113774264D01*
X160444261Y-113980502D01*
X160385364Y-114200310D01*
X160365531Y-114427000D01*
X160385364Y-114653689D01*
X160444261Y-114873497D01*
X160540432Y-115079735D01*
X160670953Y-115266140D01*
X160831859Y-115427046D01*
X160979003Y-115530076D01*
X161018266Y-115557568D01*
X161076273Y-115584617D01*
X161128449Y-115630373D01*
X161147869Y-115696997D01*
X161128451Y-115763622D01*
X161076276Y-115809380D01*
X161018266Y-115836431D01*
X160831859Y-115966953D01*
X160670953Y-116127859D01*
X160540432Y-116314264D01*
X160444261Y-116520502D01*
X160385364Y-116740310D01*
X160365531Y-116967000D01*
X160385364Y-117193689D01*
X160444261Y-117413497D01*
X160540432Y-117619735D01*
X160670953Y-117806140D01*
X160831859Y-117967046D01*
X161018263Y-118097566D01*
X161018266Y-118097568D01*
X161076275Y-118124618D01*
X161128450Y-118170375D01*
X161147869Y-118237000D01*
X161128450Y-118303625D01*
X161076275Y-118349382D01*
X161018263Y-118376433D01*
X160831859Y-118506953D01*
X160670953Y-118667859D01*
X160540432Y-118854264D01*
X160444261Y-119060502D01*
X160385364Y-119280310D01*
X160365531Y-119507000D01*
X160385364Y-119733689D01*
X160444261Y-119953497D01*
X160540432Y-120159735D01*
X160670953Y-120346140D01*
X160831859Y-120507046D01*
X161018263Y-120637566D01*
X161018266Y-120637568D01*
X161076275Y-120664618D01*
X161128450Y-120710375D01*
X161147869Y-120777000D01*
X161128450Y-120843625D01*
X161076275Y-120889382D01*
X161018263Y-120916433D01*
X160831859Y-121046953D01*
X160670953Y-121207859D01*
X160540432Y-121394264D01*
X160444261Y-121600502D01*
X160385364Y-121820310D01*
X160365531Y-122047000D01*
X160385364Y-122273689D01*
X160444261Y-122493497D01*
X160540432Y-122699735D01*
X160670953Y-122886140D01*
X160831859Y-123047046D01*
X161018264Y-123177567D01*
X161018265Y-123177567D01*
X161018266Y-123177568D01*
X161224504Y-123273739D01*
X161444308Y-123332635D01*
X161671000Y-123352468D01*
X161897692Y-123332635D01*
X162117496Y-123273739D01*
X162323734Y-123177568D01*
X162510139Y-123047047D01*
X162671047Y-122886139D01*
X162801568Y-122699734D01*
X162897739Y-122493496D01*
X162956635Y-122273692D01*
X162976468Y-122047000D01*
X162956635Y-121820308D01*
X162897739Y-121600504D01*
X162801568Y-121394266D01*
X162671047Y-121207861D01*
X162671046Y-121207859D01*
X162510140Y-121046953D01*
X162323733Y-120916431D01*
X162265725Y-120889382D01*
X162213549Y-120843625D01*
X162194129Y-120777000D01*
X162213549Y-120710375D01*
X162265725Y-120664618D01*
X162323734Y-120637568D01*
X162510139Y-120507047D01*
X162671047Y-120346139D01*
X162801568Y-120159734D01*
X162897739Y-119953496D01*
X162956635Y-119733692D01*
X162976468Y-119507000D01*
X162956635Y-119280308D01*
X162897739Y-119060504D01*
X162801568Y-118854266D01*
X162729862Y-118751859D01*
X162671046Y-118667859D01*
X162510140Y-118506953D01*
X162323733Y-118376431D01*
X162265725Y-118349382D01*
X162213549Y-118303625D01*
X162194129Y-118237000D01*
X162213549Y-118170375D01*
X162265725Y-118124618D01*
X162323734Y-118097568D01*
X162510139Y-117967047D01*
X162671047Y-117806139D01*
X162801568Y-117619734D01*
X162897739Y-117413496D01*
X162956635Y-117193692D01*
X162976468Y-116967000D01*
X162956635Y-116740308D01*
X162897739Y-116520504D01*
X162801568Y-116314266D01*
X162671047Y-116127861D01*
X162671046Y-116127859D01*
X162510140Y-115966953D01*
X162323732Y-115836430D01*
X162265724Y-115809380D01*
X162213549Y-115763623D01*
X162194130Y-115696997D01*
X162213550Y-115630373D01*
X162265721Y-115584619D01*
X162323734Y-115557568D01*
X162510139Y-115427047D01*
X162671047Y-115266139D01*
X162801568Y-115079734D01*
X162897739Y-114873496D01*
X162956635Y-114653692D01*
X162976468Y-114427000D01*
X162956635Y-114200308D01*
X162938319Y-114131951D01*
X162938319Y-114067763D01*
X162970411Y-114012178D01*
X165406571Y-111576019D01*
X165446800Y-111549139D01*
X165494253Y-111539700D01*
X170420748Y-111539700D01*
X170468201Y-111549139D01*
X170508429Y-111576019D01*
X172945800Y-114013390D01*
X172974749Y-114058959D01*
X172981590Y-114112512D01*
X172961864Y-114325399D01*
X172981964Y-114542325D01*
X173041581Y-114751857D01*
X173138687Y-114946871D01*
X173138688Y-114946872D01*
X173269973Y-115120722D01*
X173393975Y-115233764D01*
X173429701Y-115291464D01*
X173429702Y-115359333D01*
X173393973Y-115417036D01*
X173269973Y-115530076D01*
X173138687Y-115703928D01*
X173041581Y-115898942D01*
X172981964Y-116108474D01*
X172961864Y-116325399D01*
X172981964Y-116542325D01*
X173041581Y-116751857D01*
X173138687Y-116946871D01*
X173269973Y-117120723D01*
X173393972Y-117233763D01*
X173429700Y-117291466D01*
X173429700Y-117359334D01*
X173393972Y-117417037D01*
X173269973Y-117530076D01*
X173138687Y-117703928D01*
X173041581Y-117898942D01*
X172981964Y-118108474D01*
X172961864Y-118325399D01*
X172981964Y-118542325D01*
X173041581Y-118751857D01*
X173138687Y-118946871D01*
X173269973Y-119120723D01*
X173417893Y-119255569D01*
X173430968Y-119267488D01*
X173523578Y-119324829D01*
X173616191Y-119382173D01*
X173800391Y-119453532D01*
X173819331Y-119460870D01*
X174033474Y-119500900D01*
X174251324Y-119500900D01*
X174251326Y-119500900D01*
X174465469Y-119460870D01*
X174600896Y-119408404D01*
X174668608Y-119382173D01*
X174668610Y-119382172D01*
X174853832Y-119267488D01*
X175014827Y-119120722D01*
X175146112Y-118946872D01*
X175243217Y-118751859D01*
X175243218Y-118751857D01*
X175302835Y-118542325D01*
X175306113Y-118506953D01*
X175322936Y-118325400D01*
X175302835Y-118108477D01*
X175302835Y-118108474D01*
X175243218Y-117898942D01*
X175146112Y-117703928D01*
X175014826Y-117530076D01*
X174890827Y-117417037D01*
X174855099Y-117359334D01*
X174855099Y-117291466D01*
X174890827Y-117233763D01*
X175014826Y-117120723D01*
X175014827Y-117120722D01*
X175146112Y-116946872D01*
X175243217Y-116751859D01*
X175246504Y-116740308D01*
X175302835Y-116542325D01*
X175305749Y-116510867D01*
X175322936Y-116325400D01*
X175302835Y-116108477D01*
X175302835Y-116108474D01*
X175243218Y-115898942D01*
X175146112Y-115703928D01*
X175014826Y-115530076D01*
X174890827Y-115417037D01*
X174855099Y-115359334D01*
X174855099Y-115291466D01*
X174890827Y-115233763D01*
X175014826Y-115120723D01*
X175014829Y-115120719D01*
X175146112Y-114946872D01*
X175243217Y-114751859D01*
X175271149Y-114653689D01*
X175302835Y-114542325D01*
X175313521Y-114427000D01*
X175322936Y-114325400D01*
X175302835Y-114108477D01*
X175302835Y-114108474D01*
X175243218Y-113898942D01*
X175146112Y-113703928D01*
X175014826Y-113530076D01*
X174890827Y-113417037D01*
X174855099Y-113359334D01*
X174855099Y-113291466D01*
X174890827Y-113233763D01*
X175014826Y-113120723D01*
X175014827Y-113120722D01*
X175146112Y-112946872D01*
X175243217Y-112751859D01*
X175250535Y-112726139D01*
X175302835Y-112542325D01*
X175305749Y-112510867D01*
X175322936Y-112325400D01*
X175302835Y-112108477D01*
X175302835Y-112108474D01*
X175243218Y-111898942D01*
X175146112Y-111703928D01*
X175014826Y-111530076D01*
X174890827Y-111417037D01*
X174855099Y-111359334D01*
X174855099Y-111291466D01*
X174890827Y-111233763D01*
X175014826Y-111120723D01*
X175014827Y-111120722D01*
X175146112Y-110946872D01*
X175243217Y-110751859D01*
X175243218Y-110751857D01*
X175302835Y-110542325D01*
X175308835Y-110477568D01*
X175322936Y-110325400D01*
X175302835Y-110108477D01*
X175302835Y-110108474D01*
X175243218Y-109898942D01*
X175146112Y-109703928D01*
X175014826Y-109530076D01*
X174890827Y-109417037D01*
X174855099Y-109359334D01*
X174855099Y-109291466D01*
X174890827Y-109233763D01*
X175014826Y-109120723D01*
X175015138Y-109120310D01*
X175146112Y-108946872D01*
X175243217Y-108751859D01*
X175243218Y-108751857D01*
X175302835Y-108542325D01*
X175307044Y-108496897D01*
X175322936Y-108325400D01*
X175302835Y-108108477D01*
X175302835Y-108108474D01*
X175243218Y-107898942D01*
X175146112Y-107703928D01*
X175014826Y-107530076D01*
X174890827Y-107417036D01*
X174855098Y-107359333D01*
X174855099Y-107291464D01*
X174890824Y-107233764D01*
X175014827Y-107120722D01*
X175146112Y-106946872D01*
X175243217Y-106751859D01*
X175243218Y-106751857D01*
X175302835Y-106542325D01*
X175305749Y-106510867D01*
X175322936Y-106325400D01*
X175302835Y-106108477D01*
X175302835Y-106108474D01*
X175243218Y-105898942D01*
X175146112Y-105703928D01*
X175064652Y-105596057D01*
X175040525Y-105536396D01*
X175049550Y-105472677D01*
X175089294Y-105422064D01*
X175174946Y-105357946D01*
X175261196Y-105242731D01*
X175311491Y-105107883D01*
X175317900Y-105048273D01*
X175317899Y-103602528D01*
X175311491Y-103542917D01*
X175261196Y-103408069D01*
X175174946Y-103292854D01*
X175059731Y-103206604D01*
X174924883Y-103156309D01*
X174865273Y-103149900D01*
X174865269Y-103149900D01*
X174570853Y-103149900D01*
X174523400Y-103140461D01*
X174483172Y-103113581D01*
X172264219Y-100894628D01*
X172237339Y-100854400D01*
X172227900Y-100806947D01*
X172227900Y-95814144D01*
X172230164Y-95793636D01*
X172227961Y-95723513D01*
X172227900Y-95719619D01*
X172227900Y-95692054D01*
X172227900Y-95692050D01*
X172227397Y-95688070D01*
X172226481Y-95676428D01*
X172225555Y-95646953D01*
X172225110Y-95632773D01*
X172219518Y-95613526D01*
X172215574Y-95594485D01*
X172213064Y-95574608D01*
X172196979Y-95533983D01*
X172193208Y-95522968D01*
X172181018Y-95481010D01*
X172170814Y-95463755D01*
X172162261Y-95446295D01*
X172154886Y-95427669D01*
X172154886Y-95427668D01*
X172129208Y-95392325D01*
X172122801Y-95382571D01*
X172100569Y-95344979D01*
X172086406Y-95330816D01*
X172073767Y-95316017D01*
X172061995Y-95299813D01*
X172028341Y-95271973D01*
X172019699Y-95264109D01*
X171150413Y-94394822D01*
X171118319Y-94339234D01*
X171118319Y-94275047D01*
X171136635Y-94206692D01*
X171156468Y-93980000D01*
X171136635Y-93753308D01*
X171077739Y-93533504D01*
X170981568Y-93327266D01*
X170939973Y-93267861D01*
X170894451Y-93202848D01*
X170873335Y-93149696D01*
X170878320Y-93092721D01*
X170908343Y-93044046D01*
X171986186Y-91966202D01*
X172002287Y-91953304D01*
X172004274Y-91951187D01*
X172004277Y-91951186D01*
X172050332Y-91902141D01*
X172053013Y-91899376D01*
X172072520Y-91879870D01*
X172074981Y-91876695D01*
X172082552Y-91867831D01*
X172112462Y-91835982D01*
X172122113Y-91818426D01*
X172132793Y-91802167D01*
X172145074Y-91786336D01*
X172162418Y-91746251D01*
X172167560Y-91735756D01*
X172188597Y-91697492D01*
X172193578Y-91678088D01*
X172199880Y-91659683D01*
X172207838Y-91641295D01*
X172214670Y-91598148D01*
X172217039Y-91586716D01*
X172227900Y-91544420D01*
X172227900Y-91524384D01*
X172229427Y-91504985D01*
X172232560Y-91485204D01*
X172228450Y-91441725D01*
X172227900Y-91430056D01*
X172227900Y-87992144D01*
X172230164Y-87971637D01*
X172227961Y-87901527D01*
X172227900Y-87897632D01*
X172227900Y-87870053D01*
X172227824Y-87869454D01*
X172227396Y-87866065D01*
X172226480Y-87854419D01*
X172226229Y-87846432D01*
X172225109Y-87810773D01*
X172219520Y-87791540D01*
X172215574Y-87772482D01*
X172213064Y-87752606D01*
X172196988Y-87712004D01*
X172193204Y-87700953D01*
X172184656Y-87671532D01*
X172181018Y-87659010D01*
X172170814Y-87641755D01*
X172162261Y-87624295D01*
X172154886Y-87605669D01*
X172154886Y-87605668D01*
X172129208Y-87570325D01*
X172122801Y-87560571D01*
X172100569Y-87522979D01*
X172086406Y-87508816D01*
X172073767Y-87494017D01*
X172061995Y-87477813D01*
X172028341Y-87449973D01*
X172019699Y-87442109D01*
X171087202Y-86509611D01*
X171074306Y-86493513D01*
X171023175Y-86445498D01*
X171020378Y-86442787D01*
X171000870Y-86423279D01*
X170997690Y-86420812D01*
X170988824Y-86413239D01*
X170956982Y-86383338D01*
X170939424Y-86373685D01*
X170923164Y-86363004D01*
X170907336Y-86350727D01*
X170867251Y-86333380D01*
X170856761Y-86328241D01*
X170818491Y-86307202D01*
X170799091Y-86302221D01*
X170780684Y-86295919D01*
X170762297Y-86287962D01*
X170719158Y-86281129D01*
X170707724Y-86278761D01*
X170665419Y-86267900D01*
X170645384Y-86267900D01*
X170625986Y-86266373D01*
X170618562Y-86265197D01*
X170606205Y-86263240D01*
X170606204Y-86263240D01*
X170579884Y-86265728D01*
X170562725Y-86267350D01*
X170551056Y-86267900D01*
X167017340Y-86267900D01*
X166996836Y-86265636D01*
X166926744Y-86267839D01*
X166922850Y-86267900D01*
X166895248Y-86267900D01*
X166891253Y-86268404D01*
X166879629Y-86269318D01*
X166835968Y-86270690D01*
X166816729Y-86276280D01*
X166797680Y-86280225D01*
X166777808Y-86282735D01*
X166737193Y-86298815D01*
X166726149Y-86302596D01*
X166684211Y-86314782D01*
X166666964Y-86324981D01*
X166649500Y-86333536D01*
X166630867Y-86340914D01*
X166595526Y-86366589D01*
X166585768Y-86372999D01*
X166548179Y-86395229D01*
X166534010Y-86409398D01*
X166519222Y-86422028D01*
X166503013Y-86433805D01*
X166475172Y-86467458D01*
X166467311Y-86476096D01*
X165265821Y-87677586D01*
X165210234Y-87709680D01*
X165146047Y-87709680D01*
X165077690Y-87691364D01*
X164850999Y-87671531D01*
X164624310Y-87691364D01*
X164404502Y-87750261D01*
X164198264Y-87846432D01*
X164011859Y-87976953D01*
X163850953Y-88137859D01*
X163720432Y-88324264D01*
X163624261Y-88530502D01*
X163565364Y-88750310D01*
X163545531Y-88977000D01*
X163565364Y-89203689D01*
X163624261Y-89423497D01*
X163720432Y-89629735D01*
X163850953Y-89816140D01*
X164011859Y-89977046D01*
X164198264Y-90107567D01*
X164198265Y-90107567D01*
X164198266Y-90107568D01*
X164404504Y-90203739D01*
X164624308Y-90262635D01*
X164851000Y-90282468D01*
X165077692Y-90262635D01*
X165297496Y-90203739D01*
X165503734Y-90107568D01*
X165690139Y-89977047D01*
X165851047Y-89816139D01*
X165981568Y-89629734D01*
X166077739Y-89423496D01*
X166136635Y-89203692D01*
X166156468Y-88977000D01*
X166136635Y-88750308D01*
X166118319Y-88681951D01*
X166118319Y-88617763D01*
X166150411Y-88562178D01*
X167157371Y-87555219D01*
X167197600Y-87528339D01*
X167245053Y-87518900D01*
X169341331Y-87518900D01*
X169405196Y-87536611D01*
X169450816Y-87584685D01*
X169465161Y-87649389D01*
X169444132Y-87712240D01*
X169393736Y-87755282D01*
X169198264Y-87846432D01*
X169011859Y-87976953D01*
X168850953Y-88137859D01*
X168720432Y-88324264D01*
X168624261Y-88530502D01*
X168565364Y-88750310D01*
X168545531Y-88976999D01*
X168565364Y-89203690D01*
X168584314Y-89274413D01*
X168584314Y-89338600D01*
X168552220Y-89394187D01*
X165265821Y-92680586D01*
X165210234Y-92712680D01*
X165146047Y-92712680D01*
X165077690Y-92694364D01*
X164850999Y-92674531D01*
X164624310Y-92694364D01*
X164404502Y-92753261D01*
X164198264Y-92849432D01*
X164011859Y-92979953D01*
X163850953Y-93140859D01*
X163720432Y-93327264D01*
X163624261Y-93533502D01*
X163565364Y-93753310D01*
X163545531Y-93980000D01*
X163565364Y-94206689D01*
X163624261Y-94426497D01*
X163720432Y-94632735D01*
X163809358Y-94759735D01*
X163850953Y-94819139D01*
X164011861Y-94980047D01*
X164066023Y-95017971D01*
X164104889Y-95062289D01*
X164118900Y-95119546D01*
X164118900Y-98266948D01*
X164109461Y-98314401D01*
X164082581Y-98354629D01*
X163186523Y-99250684D01*
X163125680Y-99284064D01*
X163056431Y-99279525D01*
X163000466Y-99238489D01*
X162975314Y-99173810D01*
X162956635Y-98960310D01*
X162956635Y-98960308D01*
X162897739Y-98740504D01*
X162801568Y-98534266D01*
X162675785Y-98354628D01*
X162671046Y-98347859D01*
X162510140Y-98186953D01*
X162323732Y-98056430D01*
X162265724Y-98029380D01*
X162213549Y-97983623D01*
X162194130Y-97916997D01*
X162213550Y-97850373D01*
X162265721Y-97804619D01*
X162323734Y-97777568D01*
X162510139Y-97647047D01*
X162671047Y-97486139D01*
X162801568Y-97299734D01*
X162897739Y-97093496D01*
X162956635Y-96873692D01*
X162976468Y-96647000D01*
X162956635Y-96420308D01*
X162897739Y-96200504D01*
X162801568Y-95994266D01*
X162773493Y-95954171D01*
X162671046Y-95807859D01*
X162510140Y-95646953D01*
X162323733Y-95516431D01*
X162265725Y-95489382D01*
X162213549Y-95443625D01*
X162194129Y-95377000D01*
X162213549Y-95310375D01*
X162265725Y-95264618D01*
X162266817Y-95264109D01*
X162323734Y-95237568D01*
X162510139Y-95107047D01*
X162671047Y-94946139D01*
X162801568Y-94759734D01*
X162897739Y-94553496D01*
X162956635Y-94333692D01*
X162976468Y-94107000D01*
X162956635Y-93880308D01*
X162897739Y-93660504D01*
X162801568Y-93454266D01*
X162712642Y-93327266D01*
X162671046Y-93267859D01*
X162510140Y-93106953D01*
X162323733Y-92976431D01*
X162265725Y-92949382D01*
X162213549Y-92903625D01*
X162194129Y-92837000D01*
X162213549Y-92770375D01*
X162265725Y-92724618D01*
X162323734Y-92697568D01*
X162510139Y-92567047D01*
X162671047Y-92406139D01*
X162801568Y-92219734D01*
X162897739Y-92013496D01*
X162956635Y-91793692D01*
X162976468Y-91567000D01*
X162956635Y-91340308D01*
X162897739Y-91120504D01*
X162801568Y-90914266D01*
X162671047Y-90727861D01*
X162671046Y-90727859D01*
X162510140Y-90566953D01*
X162323733Y-90436431D01*
X162265725Y-90409382D01*
X162213549Y-90363625D01*
X162194129Y-90297000D01*
X162213549Y-90230375D01*
X162265725Y-90184618D01*
X162323734Y-90157568D01*
X162510139Y-90027047D01*
X162671047Y-89866139D01*
X162801568Y-89679734D01*
X162897739Y-89473496D01*
X162956635Y-89253692D01*
X162976468Y-89027000D01*
X162972093Y-88976999D01*
X162956635Y-88800310D01*
X162956635Y-88800308D01*
X162897739Y-88580504D01*
X162801568Y-88374266D01*
X162673040Y-88190708D01*
X162671046Y-88187859D01*
X162510140Y-88026953D01*
X162323735Y-87896432D01*
X162117497Y-87800261D01*
X161897689Y-87741364D01*
X161670999Y-87721531D01*
X161444310Y-87741364D01*
X161224502Y-87800261D01*
X161018264Y-87896432D01*
X160831859Y-88026953D01*
X160670953Y-88187859D01*
X160540432Y-88374264D01*
X160444261Y-88580502D01*
X160385364Y-88800310D01*
X160365531Y-89026999D01*
X160385364Y-89253689D01*
X160444261Y-89473497D01*
X160540432Y-89679735D01*
X160670953Y-89866140D01*
X160831859Y-90027046D01*
X160946858Y-90107568D01*
X161018266Y-90157568D01*
X161076275Y-90184618D01*
X161128450Y-90230375D01*
X161147869Y-90297000D01*
X161128450Y-90363625D01*
X161076275Y-90409382D01*
X161018263Y-90436433D01*
X160831859Y-90566953D01*
X160670953Y-90727859D01*
X160540432Y-90914264D01*
X160444261Y-91120502D01*
X160385364Y-91340310D01*
X160365531Y-91566999D01*
X160385364Y-91793689D01*
X160444261Y-92013497D01*
X160540432Y-92219735D01*
X160670953Y-92406140D01*
X160831859Y-92567046D01*
X161018263Y-92697566D01*
X161018266Y-92697568D01*
X161076275Y-92724618D01*
X161128450Y-92770375D01*
X161147869Y-92837000D01*
X161128450Y-92903625D01*
X161076275Y-92949382D01*
X161018263Y-92976433D01*
X160831859Y-93106953D01*
X160670953Y-93267859D01*
X160540432Y-93454264D01*
X160444261Y-93660502D01*
X160385364Y-93880310D01*
X160365531Y-94106999D01*
X160385364Y-94333689D01*
X160444261Y-94553497D01*
X160540432Y-94759735D01*
X160670953Y-94946140D01*
X160831859Y-95107046D01*
X161018263Y-95237566D01*
X161018266Y-95237568D01*
X161075183Y-95264109D01*
X161076275Y-95264618D01*
X161128450Y-95310375D01*
X161147869Y-95377000D01*
X161128450Y-95443625D01*
X161076275Y-95489382D01*
X161018263Y-95516433D01*
X160831859Y-95646953D01*
X160670953Y-95807859D01*
X160540432Y-95994264D01*
X160444261Y-96200502D01*
X160385364Y-96420310D01*
X160365531Y-96646999D01*
X160385364Y-96873689D01*
X160444261Y-97093497D01*
X160540432Y-97299735D01*
X160670953Y-97486140D01*
X160831859Y-97647046D01*
X160962126Y-97738259D01*
X161018266Y-97777568D01*
X161076273Y-97804617D01*
X161128449Y-97850373D01*
X161147869Y-97916997D01*
X161128451Y-97983622D01*
X161076276Y-98029380D01*
X161018266Y-98056431D01*
X160831859Y-98186953D01*
X160670953Y-98347859D01*
X160540432Y-98534264D01*
X160444261Y-98740502D01*
X160385364Y-98960310D01*
X160365531Y-99186999D01*
X160385364Y-99413689D01*
X160444261Y-99633497D01*
X160470615Y-99690013D01*
X160480160Y-99710482D01*
X160489866Y-99731295D01*
X160501219Y-99791809D01*
X160482065Y-99850325D01*
X160437127Y-99892414D01*
X160377484Y-99907700D01*
X159620144Y-99907700D01*
X159599636Y-99905435D01*
X159529513Y-99907639D01*
X159525619Y-99907700D01*
X159498050Y-99907700D01*
X159494071Y-99908202D01*
X159482441Y-99909117D01*
X159438772Y-99910489D01*
X159419528Y-99916080D01*
X159400484Y-99920024D01*
X159380608Y-99922535D01*
X159340000Y-99938613D01*
X159328954Y-99942394D01*
X159287010Y-99954582D01*
X159287007Y-99954583D01*
X159269765Y-99964779D01*
X159252304Y-99973333D01*
X159233667Y-99980712D01*
X159198331Y-100006385D01*
X159188574Y-100012795D01*
X159150980Y-100035029D01*
X159136813Y-100049196D01*
X159122024Y-100061826D01*
X159105813Y-100073604D01*
X159077972Y-100107258D01*
X159070111Y-100115897D01*
X155555428Y-103630581D01*
X155515200Y-103657461D01*
X155467747Y-103666900D01*
X155282973Y-103666900D01*
X155225716Y-103652889D01*
X155181398Y-103614023D01*
X155051046Y-103427859D01*
X154890140Y-103266953D01*
X154703733Y-103136431D01*
X154645725Y-103109382D01*
X154593549Y-103063625D01*
X154574129Y-102997000D01*
X154593549Y-102930375D01*
X154645725Y-102884618D01*
X154703734Y-102857568D01*
X154890139Y-102727047D01*
X155051047Y-102566139D01*
X155181568Y-102379734D01*
X155277739Y-102173496D01*
X155336635Y-101953692D01*
X155356468Y-101727000D01*
X155336635Y-101500308D01*
X155277739Y-101280504D01*
X155181568Y-101074266D01*
X155169182Y-101056577D01*
X155051046Y-100887859D01*
X154890140Y-100726953D01*
X154703733Y-100596431D01*
X154645725Y-100569382D01*
X154593549Y-100523625D01*
X154574129Y-100457000D01*
X154593549Y-100390375D01*
X154645725Y-100344618D01*
X154670106Y-100333249D01*
X154703734Y-100317568D01*
X154890139Y-100187047D01*
X155051047Y-100026139D01*
X155181568Y-99839734D01*
X155277739Y-99633496D01*
X155336635Y-99413692D01*
X155356468Y-99187000D01*
X155336635Y-98960308D01*
X155277739Y-98740504D01*
X155181568Y-98534266D01*
X155055785Y-98354628D01*
X155051046Y-98347859D01*
X154890140Y-98186953D01*
X154703732Y-98056430D01*
X154645724Y-98029380D01*
X154593549Y-97983623D01*
X154574130Y-97916997D01*
X154593550Y-97850373D01*
X154645721Y-97804619D01*
X154703734Y-97777568D01*
X154890139Y-97647047D01*
X155051047Y-97486139D01*
X155181568Y-97299734D01*
X155277739Y-97093496D01*
X155336635Y-96873692D01*
X155356468Y-96647000D01*
X155336635Y-96420308D01*
X155277739Y-96200504D01*
X155181568Y-95994266D01*
X155153493Y-95954171D01*
X155051046Y-95807859D01*
X154890140Y-95646953D01*
X154703733Y-95516431D01*
X154645725Y-95489382D01*
X154593549Y-95443625D01*
X154574129Y-95377000D01*
X154593549Y-95310375D01*
X154645725Y-95264618D01*
X154646817Y-95264109D01*
X154703734Y-95237568D01*
X154890139Y-95107047D01*
X155051047Y-94946139D01*
X155181568Y-94759734D01*
X155277739Y-94553496D01*
X155336635Y-94333692D01*
X155356468Y-94107000D01*
X155336635Y-93880308D01*
X155277739Y-93660504D01*
X155181568Y-93454266D01*
X155092642Y-93327266D01*
X155051046Y-93267859D01*
X154890140Y-93106953D01*
X154703733Y-92976431D01*
X154645725Y-92949382D01*
X154593549Y-92903625D01*
X154574129Y-92837000D01*
X154593549Y-92770375D01*
X154645725Y-92724618D01*
X154703734Y-92697568D01*
X154890139Y-92567047D01*
X155051047Y-92406139D01*
X155181568Y-92219734D01*
X155277739Y-92013496D01*
X155336635Y-91793692D01*
X155356468Y-91567000D01*
X155336635Y-91340308D01*
X155277739Y-91120504D01*
X155181568Y-90914266D01*
X155051047Y-90727861D01*
X155051046Y-90727859D01*
X154890140Y-90566953D01*
X154865537Y-90549726D01*
X154826399Y-90504884D01*
X154812666Y-90446970D01*
X154827500Y-90389328D01*
X154867485Y-90345239D01*
X154923406Y-90324861D01*
X154958483Y-90321091D01*
X155093331Y-90270796D01*
X155208546Y-90184546D01*
X155294796Y-90069331D01*
X155345091Y-89934483D01*
X155351500Y-89874873D01*
X155351499Y-88179128D01*
X155345091Y-88119517D01*
X155294796Y-87984669D01*
X155208546Y-87869454D01*
X155093331Y-87783204D01*
X154958483Y-87732909D01*
X154898873Y-87726500D01*
X154898869Y-87726500D01*
X153203130Y-87726500D01*
X153143515Y-87732909D01*
X153006315Y-87784082D01*
X152962982Y-87791900D01*
X150972588Y-87791900D01*
X150915331Y-87777889D01*
X150871013Y-87739023D01*
X150758446Y-87578259D01*
X150597540Y-87417353D01*
X150411135Y-87286832D01*
X150204897Y-87190661D01*
X149985089Y-87131764D01*
X149758400Y-87111931D01*
X149531710Y-87131764D01*
X149311902Y-87190661D01*
X149105664Y-87286832D01*
X148919259Y-87417353D01*
X148758353Y-87578259D01*
X148627832Y-87764664D01*
X148531661Y-87970902D01*
X148472764Y-88190710D01*
X148452931Y-88417399D01*
X148472764Y-88644089D01*
X148531661Y-88863897D01*
X148627832Y-89070135D01*
X148758353Y-89256540D01*
X148919259Y-89417446D01*
X149105664Y-89547967D01*
X149105665Y-89547967D01*
X149105666Y-89547968D01*
X149311904Y-89644139D01*
X149531708Y-89703035D01*
X149758400Y-89722868D01*
X149985092Y-89703035D01*
X150204896Y-89644139D01*
X150411134Y-89547968D01*
X150597539Y-89417447D01*
X150758447Y-89256539D01*
X150871012Y-89095777D01*
X150915331Y-89056911D01*
X150972588Y-89042900D01*
X152626501Y-89042900D01*
X152688501Y-89059513D01*
X152733888Y-89104900D01*
X152750501Y-89166900D01*
X152750501Y-89874870D01*
X152756909Y-89934484D01*
X152782056Y-90001906D01*
X152807204Y-90069331D01*
X152893454Y-90184546D01*
X153008669Y-90270796D01*
X153143517Y-90321091D01*
X153178594Y-90324862D01*
X153234513Y-90345239D01*
X153274497Y-90389327D01*
X153289332Y-90446968D01*
X153275600Y-90504881D01*
X153236464Y-90549724D01*
X153211860Y-90566952D01*
X153050953Y-90727859D01*
X152920432Y-90914264D01*
X152824261Y-91120502D01*
X152765364Y-91340310D01*
X152745531Y-91566999D01*
X152765364Y-91793689D01*
X152824261Y-92013497D01*
X152920432Y-92219735D01*
X153050953Y-92406140D01*
X153211859Y-92567046D01*
X153398263Y-92697566D01*
X153398266Y-92697568D01*
X153456275Y-92724618D01*
X153508450Y-92770375D01*
X153527869Y-92837000D01*
X153508450Y-92903625D01*
X153456275Y-92949382D01*
X153398263Y-92976433D01*
X153211859Y-93106953D01*
X153050953Y-93267859D01*
X152920432Y-93454264D01*
X152824261Y-93660502D01*
X152765364Y-93880310D01*
X152745531Y-94106999D01*
X152765364Y-94333689D01*
X152824261Y-94553497D01*
X152920432Y-94759735D01*
X153050953Y-94946140D01*
X153211859Y-95107046D01*
X153398263Y-95237566D01*
X153398266Y-95237568D01*
X153455183Y-95264109D01*
X153456275Y-95264618D01*
X153508450Y-95310375D01*
X153527869Y-95377000D01*
X153508450Y-95443625D01*
X153456275Y-95489382D01*
X153398263Y-95516433D01*
X153211859Y-95646953D01*
X153050953Y-95807859D01*
X152920432Y-95994264D01*
X152824261Y-96200502D01*
X152765364Y-96420310D01*
X152745531Y-96646999D01*
X152765364Y-96873689D01*
X152824261Y-97093497D01*
X152920432Y-97299735D01*
X153050953Y-97486140D01*
X153211859Y-97647046D01*
X153342126Y-97738259D01*
X153398266Y-97777568D01*
X153456273Y-97804617D01*
X153508449Y-97850373D01*
X153527869Y-97916997D01*
X153508451Y-97983622D01*
X153456276Y-98029380D01*
X153398266Y-98056431D01*
X153211859Y-98186953D01*
X153050953Y-98347859D01*
X152920432Y-98534264D01*
X152824261Y-98740502D01*
X152765364Y-98960310D01*
X152745531Y-99186999D01*
X152765364Y-99413689D01*
X152824261Y-99633497D01*
X152920432Y-99839735D01*
X153050953Y-100026140D01*
X153211859Y-100187046D01*
X153381091Y-100305542D01*
X153398266Y-100317568D01*
X153456275Y-100344618D01*
X153508450Y-100390375D01*
X153527869Y-100457000D01*
X153508450Y-100523625D01*
X153456275Y-100569382D01*
X153398263Y-100596433D01*
X153211859Y-100726953D01*
X153050953Y-100887859D01*
X152920432Y-101074264D01*
X152824261Y-101280502D01*
X152765364Y-101500310D01*
X152745531Y-101727000D01*
X152765364Y-101953689D01*
X152824261Y-102173497D01*
X152920432Y-102379735D01*
X153050953Y-102566140D01*
X153211859Y-102727046D01*
X153398263Y-102857566D01*
X153398266Y-102857568D01*
X153456275Y-102884618D01*
X153508450Y-102930375D01*
X153527869Y-102997000D01*
X153508450Y-103063625D01*
X153456275Y-103109382D01*
X153398263Y-103136433D01*
X153211859Y-103266953D01*
X153050953Y-103427859D01*
X152920432Y-103614264D01*
X152824261Y-103820502D01*
X152765364Y-104040310D01*
X152745531Y-104267000D01*
X152765364Y-104493689D01*
X152824261Y-104713497D01*
X152920432Y-104919735D01*
X153050953Y-105106140D01*
X153211859Y-105267046D01*
X153398263Y-105397566D01*
X153398266Y-105397568D01*
X153456275Y-105424618D01*
X153508450Y-105470375D01*
X153527869Y-105537000D01*
X153508450Y-105603625D01*
X153456275Y-105649382D01*
X153398263Y-105676433D01*
X153211859Y-105806953D01*
X153050953Y-105967859D01*
X152920432Y-106154264D01*
X152824261Y-106360502D01*
X152764683Y-106582849D01*
X152732589Y-106638437D01*
X152677001Y-106670530D01*
X152612814Y-106670530D01*
X152557227Y-106638436D01*
X150420219Y-104501428D01*
X150393339Y-104461200D01*
X150383900Y-104413747D01*
X150383900Y-99791588D01*
X150397911Y-99734331D01*
X150436777Y-99690013D01*
X150517492Y-99633496D01*
X150597539Y-99577447D01*
X150758447Y-99416539D01*
X150888968Y-99230134D01*
X150985139Y-99023896D01*
X151044035Y-98804092D01*
X151063868Y-98577400D01*
X151044035Y-98350708D01*
X150985139Y-98130904D01*
X150888968Y-97924666D01*
X150883598Y-97916997D01*
X150758446Y-97738259D01*
X150597540Y-97577353D01*
X150411135Y-97446832D01*
X150204897Y-97350661D01*
X149985089Y-97291764D01*
X149758400Y-97271931D01*
X149531710Y-97291764D01*
X149311902Y-97350661D01*
X149105664Y-97446832D01*
X148919259Y-97577353D01*
X148758353Y-97738259D01*
X148627832Y-97924664D01*
X148531661Y-98130902D01*
X148472764Y-98350710D01*
X148452931Y-98577400D01*
X144424900Y-98577400D01*
X144424900Y-86001900D01*
X144441513Y-85939900D01*
X144486900Y-85894513D01*
X144548900Y-85877900D01*
X177319900Y-85877900D01*
X177381900Y-85894513D01*
G37*
%TD.AperFunction*%
%TA.AperFunction,NonConductor*%
G36*
X170925785Y-89889331D02*
G01*
X170963385Y-89933354D01*
X170976900Y-89989649D01*
X170976900Y-91154948D01*
X170967461Y-91202401D01*
X170940581Y-91242629D01*
X169467207Y-92716000D01*
X169445970Y-92733014D01*
X169437080Y-92738656D01*
X169414321Y-92748648D01*
X169414335Y-92748677D01*
X169404505Y-92753260D01*
X169404504Y-92753261D01*
X169367803Y-92770375D01*
X169198264Y-92849432D01*
X169011859Y-92979953D01*
X168850953Y-93140859D01*
X168720432Y-93327264D01*
X168624261Y-93533502D01*
X168565364Y-93753310D01*
X168545531Y-93980000D01*
X168565364Y-94206689D01*
X168624261Y-94426497D01*
X168720432Y-94632735D01*
X168850953Y-94819140D01*
X169011859Y-94980046D01*
X169198264Y-95110567D01*
X169198265Y-95110567D01*
X169198266Y-95110568D01*
X169404504Y-95206739D01*
X169624308Y-95265635D01*
X169851000Y-95285468D01*
X170077692Y-95265635D01*
X170146049Y-95247319D01*
X170210235Y-95247319D01*
X170265823Y-95279413D01*
X170940581Y-95954171D01*
X170967461Y-95994399D01*
X170976900Y-96041852D01*
X170976900Y-100367900D01*
X170960287Y-100429900D01*
X170914900Y-100475287D01*
X170852900Y-100491900D01*
X167734147Y-100491900D01*
X167683712Y-100481180D01*
X167641998Y-100450873D01*
X167636271Y-100444512D01*
X167483130Y-100333249D01*
X167483129Y-100333248D01*
X167483127Y-100333247D01*
X167310202Y-100256255D01*
X167125048Y-100216900D01*
X167125046Y-100216900D01*
X166935754Y-100216900D01*
X166935752Y-100216900D01*
X166789681Y-100247948D01*
X166734953Y-100247232D01*
X166685864Y-100223024D01*
X166651979Y-100180041D01*
X166639900Y-100126658D01*
X166639900Y-99930140D01*
X166642163Y-99909636D01*
X166639961Y-99839544D01*
X166639900Y-99835650D01*
X166639900Y-99808057D01*
X166639900Y-99808050D01*
X166639395Y-99804053D01*
X166638480Y-99792423D01*
X166638454Y-99791588D01*
X166637109Y-99748773D01*
X166631520Y-99729540D01*
X166627574Y-99710482D01*
X166625064Y-99690608D01*
X166608988Y-99650006D01*
X166605204Y-99638952D01*
X166593019Y-99597013D01*
X166593018Y-99597012D01*
X166593018Y-99597010D01*
X166582817Y-99579761D01*
X166574260Y-99562295D01*
X166566886Y-99543668D01*
X166541213Y-99508332D01*
X166534802Y-99498572D01*
X166533009Y-99495541D01*
X166512570Y-99460979D01*
X166498405Y-99446814D01*
X166485769Y-99432020D01*
X166473995Y-99415814D01*
X166471430Y-99413692D01*
X166440335Y-99387968D01*
X166431705Y-99380114D01*
X165406219Y-98354628D01*
X165379339Y-98314400D01*
X165369900Y-98266947D01*
X165369900Y-95251972D01*
X165389320Y-95185347D01*
X165441496Y-95139590D01*
X165503734Y-95110568D01*
X165690139Y-94980047D01*
X165851047Y-94819139D01*
X165981568Y-94632734D01*
X166077739Y-94426496D01*
X166136635Y-94206692D01*
X166156468Y-93980000D01*
X166136635Y-93753308D01*
X166118319Y-93684951D01*
X166118319Y-93620763D01*
X166150411Y-93565178D01*
X169438544Y-90277045D01*
X169494129Y-90244953D01*
X169558316Y-90244953D01*
X169624308Y-90262635D01*
X169851000Y-90282468D01*
X170077692Y-90262635D01*
X170297496Y-90203739D01*
X170503734Y-90107568D01*
X170690139Y-89977047D01*
X170690139Y-89977046D01*
X170765219Y-89901968D01*
X170814582Y-89871718D01*
X170872298Y-89867176D01*
X170925785Y-89889331D01*
G37*
%TD.AperFunction*%
%TA.AperFunction,NonConductor*%
G36*
X171339401Y-101752339D02*
G01*
X171379629Y-101779219D01*
X172963145Y-103362735D01*
X172996630Y-103424057D01*
X172991647Y-103493747D01*
X172973309Y-103542915D01*
X172966900Y-103602531D01*
X172966900Y-104923547D01*
X172953385Y-104979842D01*
X172915785Y-105023865D01*
X172862298Y-105046020D01*
X172804582Y-105041478D01*
X172755219Y-105011228D01*
X170274402Y-102530411D01*
X170261506Y-102514313D01*
X170210375Y-102466298D01*
X170207578Y-102463587D01*
X170188070Y-102444079D01*
X170184890Y-102441612D01*
X170176024Y-102434039D01*
X170144182Y-102404138D01*
X170126624Y-102394485D01*
X170110364Y-102383804D01*
X170094536Y-102371527D01*
X170054451Y-102354180D01*
X170043961Y-102349041D01*
X170005691Y-102328002D01*
X169986291Y-102323021D01*
X169967884Y-102316719D01*
X169949497Y-102308762D01*
X169906358Y-102301929D01*
X169894924Y-102299561D01*
X169852619Y-102288700D01*
X169832584Y-102288700D01*
X169813186Y-102287173D01*
X169805762Y-102285997D01*
X169793405Y-102284040D01*
X169793404Y-102284040D01*
X169760351Y-102287164D01*
X169749925Y-102288150D01*
X169738256Y-102288700D01*
X167105652Y-102288700D01*
X167058199Y-102279261D01*
X167017971Y-102252381D01*
X166995171Y-102229581D01*
X166964921Y-102180218D01*
X166960379Y-102122502D01*
X166982534Y-102069015D01*
X167026557Y-102031415D01*
X167082852Y-102017900D01*
X167125048Y-102017900D01*
X167248484Y-101991662D01*
X167310203Y-101978544D01*
X167483130Y-101901551D01*
X167636271Y-101790288D01*
X167641998Y-101783926D01*
X167683712Y-101753620D01*
X167734147Y-101742900D01*
X171291948Y-101742900D01*
X171339401Y-101752339D01*
G37*
%TD.AperFunction*%
%TA.AperFunction,NonConductor*%
G36*
X160370142Y-101171488D02*
G01*
X160413674Y-101207214D01*
X160436915Y-101258509D01*
X160435073Y-101314793D01*
X160385364Y-101500308D01*
X160365531Y-101727000D01*
X160385364Y-101953689D01*
X160444261Y-102173497D01*
X160540432Y-102379735D01*
X160670953Y-102566140D01*
X160831859Y-102727046D01*
X161018263Y-102857566D01*
X161018266Y-102857568D01*
X161076275Y-102884618D01*
X161128450Y-102930375D01*
X161147869Y-102997000D01*
X161128450Y-103063625D01*
X161076275Y-103109382D01*
X161018263Y-103136433D01*
X160831859Y-103266953D01*
X160670953Y-103427859D01*
X160540432Y-103614264D01*
X160444261Y-103820502D01*
X160385364Y-104040310D01*
X160365531Y-104267000D01*
X160385364Y-104493689D01*
X160444261Y-104713497D01*
X160540432Y-104919735D01*
X160670953Y-105106140D01*
X160831859Y-105267046D01*
X161018263Y-105397566D01*
X161018266Y-105397568D01*
X161076275Y-105424618D01*
X161128450Y-105470375D01*
X161147869Y-105537000D01*
X161128450Y-105603625D01*
X161076275Y-105649382D01*
X161018263Y-105676433D01*
X160831859Y-105806953D01*
X160670953Y-105967859D01*
X160540432Y-106154264D01*
X160444261Y-106360502D01*
X160385364Y-106580310D01*
X160365531Y-106807000D01*
X160385364Y-107033689D01*
X160447069Y-107263975D01*
X160445258Y-107264460D01*
X160453840Y-107310214D01*
X160434685Y-107368727D01*
X160389747Y-107410815D01*
X160330106Y-107426100D01*
X155391894Y-107426100D01*
X155332253Y-107410815D01*
X155287315Y-107368727D01*
X155268160Y-107310214D01*
X155276741Y-107264460D01*
X155274931Y-107263975D01*
X155277739Y-107253496D01*
X155336635Y-107033692D01*
X155356468Y-106807000D01*
X155336635Y-106580308D01*
X155277739Y-106360504D01*
X155181568Y-106154266D01*
X155149506Y-106108477D01*
X155051046Y-105967859D01*
X154890140Y-105806953D01*
X154703733Y-105676431D01*
X154645725Y-105649382D01*
X154593549Y-105603625D01*
X154574129Y-105537000D01*
X154593549Y-105470375D01*
X154645725Y-105424618D01*
X154703734Y-105397568D01*
X154890139Y-105267047D01*
X155051047Y-105106139D01*
X155131083Y-104991835D01*
X155145828Y-104970777D01*
X155190146Y-104931911D01*
X155247403Y-104917900D01*
X155695456Y-104917900D01*
X155715962Y-104920164D01*
X155718865Y-104920072D01*
X155718867Y-104920073D01*
X155786072Y-104917961D01*
X155789968Y-104917900D01*
X155817549Y-104917900D01*
X155817550Y-104917900D01*
X155821519Y-104917398D01*
X155833165Y-104916480D01*
X155876827Y-104915109D01*
X155896059Y-104909520D01*
X155915118Y-104905574D01*
X155921396Y-104904781D01*
X155934992Y-104903064D01*
X155975607Y-104886982D01*
X155986644Y-104883203D01*
X156028590Y-104871018D01*
X156045829Y-104860822D01*
X156063302Y-104852262D01*
X156065396Y-104851433D01*
X156081932Y-104844886D01*
X156117264Y-104819214D01*
X156127030Y-104812800D01*
X156164618Y-104790571D01*
X156164617Y-104790571D01*
X156164620Y-104790570D01*
X156178785Y-104776404D01*
X156193573Y-104763773D01*
X156209787Y-104751994D01*
X156237638Y-104718326D01*
X156245479Y-104709709D01*
X159760170Y-101195019D01*
X159800399Y-101168139D01*
X159847852Y-101158700D01*
X160315298Y-101158700D01*
X160370142Y-101171488D01*
G37*
%TD.AperFunction*%
%TA.AperFunction,NonConductor*%
G36*
X172993013Y-106931020D02*
G01*
X172993431Y-106928386D01*
X173008902Y-106930836D01*
X173008904Y-106930837D01*
X173052050Y-106937670D01*
X173063468Y-106940035D01*
X173105781Y-106950900D01*
X173105782Y-106950900D01*
X173108387Y-106951569D01*
X173146296Y-106968476D01*
X173176502Y-106996946D01*
X173269973Y-107120723D01*
X173393972Y-107233762D01*
X173429700Y-107291464D01*
X173429701Y-107359332D01*
X173393973Y-107417035D01*
X173359614Y-107448358D01*
X173304466Y-107477428D01*
X173242141Y-107475988D01*
X173188394Y-107444403D01*
X172879617Y-107135626D01*
X172846634Y-107076513D01*
X172849610Y-107008886D01*
X172887659Y-106952899D01*
X172949442Y-106925237D01*
X172993013Y-106931020D01*
G37*
%TD.AperFunction*%
%TA.AperFunction,NonConductor*%
G36*
X170468201Y-107549139D02*
G01*
X170508429Y-107576019D01*
X171036383Y-108103973D01*
X171069366Y-108163084D01*
X171066391Y-108230709D01*
X171028345Y-108286696D01*
X170966565Y-108314361D01*
X170922983Y-108308579D01*
X170922566Y-108311213D01*
X170907097Y-108308762D01*
X170907096Y-108308762D01*
X170863959Y-108301929D01*
X170852524Y-108299561D01*
X170810219Y-108288700D01*
X170790184Y-108288700D01*
X170770786Y-108287173D01*
X170763362Y-108285997D01*
X170751005Y-108284040D01*
X170751004Y-108284040D01*
X170724684Y-108286528D01*
X170707525Y-108288150D01*
X170695856Y-108288700D01*
X166396575Y-108288700D01*
X166332340Y-108270765D01*
X166286686Y-108222149D01*
X166272820Y-108156914D01*
X166294752Y-108093932D01*
X166346139Y-108051421D01*
X166467130Y-107997551D01*
X166620270Y-107886289D01*
X166746933Y-107745616D01*
X166830023Y-107601700D01*
X166875410Y-107556313D01*
X166937410Y-107539700D01*
X170420748Y-107539700D01*
X170468201Y-107549139D01*
G37*
%TD.AperFunction*%
%TA.AperFunction,NonConductor*%
G36*
X170468201Y-109549139D02*
G01*
X170508429Y-109576019D01*
X171036383Y-110103973D01*
X171069366Y-110163084D01*
X171066391Y-110230709D01*
X171028345Y-110286696D01*
X170966565Y-110314361D01*
X170922983Y-110308579D01*
X170922566Y-110311213D01*
X170907097Y-110308762D01*
X170907096Y-110308762D01*
X170863959Y-110301929D01*
X170852524Y-110299561D01*
X170810219Y-110288700D01*
X170790184Y-110288700D01*
X170770786Y-110287173D01*
X170763362Y-110285997D01*
X170751005Y-110284040D01*
X170751004Y-110284040D01*
X170722907Y-110286696D01*
X170707525Y-110288150D01*
X170695856Y-110288700D01*
X165647053Y-110288700D01*
X165590758Y-110275185D01*
X165546735Y-110237585D01*
X165524580Y-110184098D01*
X165529122Y-110126382D01*
X165559372Y-110077019D01*
X166060372Y-109576019D01*
X166100600Y-109549139D01*
X166148053Y-109539700D01*
X170420748Y-109539700D01*
X170468201Y-109549139D01*
G37*
%TD.AperFunction*%
%TA.AperFunction,NonConductor*%
G36*
X164832080Y-99549671D02*
G01*
X165352581Y-100070172D01*
X165379461Y-100110400D01*
X165388900Y-100157853D01*
X165388900Y-102050656D01*
X165386635Y-102071162D01*
X165388839Y-102141273D01*
X165388900Y-102145168D01*
X165388900Y-102172749D01*
X165389403Y-102176734D01*
X165390318Y-102188367D01*
X165391690Y-102232026D01*
X165397279Y-102251260D01*
X165401225Y-102270316D01*
X165403735Y-102290192D01*
X165419814Y-102330804D01*
X165423597Y-102341851D01*
X165435782Y-102383791D01*
X165445980Y-102401035D01*
X165454536Y-102418500D01*
X165461914Y-102437132D01*
X165461915Y-102437133D01*
X165487580Y-102472459D01*
X165493993Y-102482222D01*
X165516226Y-102519816D01*
X165516229Y-102519819D01*
X165516230Y-102519820D01*
X165530395Y-102533985D01*
X165543027Y-102548775D01*
X165554806Y-102564987D01*
X165588458Y-102592826D01*
X165597099Y-102600689D01*
X166294396Y-103297987D01*
X166307296Y-103314088D01*
X166358423Y-103362100D01*
X166361219Y-103364810D01*
X166380729Y-103384320D01*
X166383911Y-103386788D01*
X166392771Y-103394355D01*
X166424618Y-103424262D01*
X166431165Y-103427861D01*
X166442172Y-103433912D01*
X166458436Y-103444596D01*
X166470172Y-103453699D01*
X166474264Y-103456873D01*
X166499109Y-103467624D01*
X166514352Y-103474221D01*
X166524831Y-103479354D01*
X166563108Y-103500397D01*
X166582506Y-103505377D01*
X166600908Y-103511677D01*
X166619304Y-103519638D01*
X166662461Y-103526473D01*
X166673864Y-103528834D01*
X166716181Y-103539700D01*
X166736216Y-103539700D01*
X166755613Y-103541226D01*
X166775396Y-103544360D01*
X166818874Y-103540250D01*
X166830544Y-103539700D01*
X169463148Y-103539700D01*
X169510601Y-103549139D01*
X169550829Y-103576019D01*
X170078783Y-104103973D01*
X170111766Y-104163084D01*
X170108791Y-104230709D01*
X170070745Y-104286696D01*
X170008965Y-104314361D01*
X169965383Y-104308579D01*
X169964966Y-104311213D01*
X169949497Y-104308762D01*
X169949496Y-104308762D01*
X169906359Y-104301929D01*
X169894924Y-104299561D01*
X169852619Y-104288700D01*
X169832584Y-104288700D01*
X169813186Y-104287173D01*
X169805762Y-104285997D01*
X169793405Y-104284040D01*
X169793404Y-104284040D01*
X169768068Y-104286435D01*
X169749925Y-104288150D01*
X169738256Y-104288700D01*
X165856344Y-104288700D01*
X165835837Y-104286435D01*
X165765727Y-104288639D01*
X165761832Y-104288700D01*
X165734250Y-104288700D01*
X165730265Y-104289203D01*
X165718632Y-104290118D01*
X165668974Y-104291679D01*
X165639297Y-104289030D01*
X165601048Y-104280900D01*
X165601046Y-104280900D01*
X165411754Y-104280900D01*
X165411752Y-104280900D01*
X165226597Y-104320255D01*
X165053669Y-104397248D01*
X164900529Y-104508510D01*
X164773866Y-104649183D01*
X164679220Y-104813115D01*
X164620726Y-104993142D01*
X164600940Y-105181399D01*
X164620726Y-105369657D01*
X164679220Y-105549684D01*
X164773866Y-105713616D01*
X164900529Y-105854289D01*
X165053669Y-105965551D01*
X165226597Y-106042544D01*
X165411752Y-106081900D01*
X165411754Y-106081900D01*
X165601046Y-106081900D01*
X165601048Y-106081900D01*
X165724483Y-106055662D01*
X165786203Y-106042544D01*
X165959130Y-105965551D01*
X166112271Y-105854288D01*
X166238933Y-105713616D01*
X166260402Y-105676431D01*
X166303548Y-105601700D01*
X166348935Y-105556313D01*
X166410935Y-105539700D01*
X169463148Y-105539700D01*
X169510601Y-105549139D01*
X169550829Y-105576019D01*
X170051829Y-106077019D01*
X170082079Y-106126382D01*
X170086621Y-106184098D01*
X170064466Y-106237585D01*
X170020443Y-106275185D01*
X169964148Y-106288700D01*
X166396344Y-106288700D01*
X166375836Y-106286435D01*
X166305713Y-106288639D01*
X166301819Y-106288700D01*
X166274250Y-106288700D01*
X166270271Y-106289202D01*
X166258641Y-106290117D01*
X166214972Y-106291489D01*
X166195728Y-106297080D01*
X166176684Y-106301024D01*
X166156809Y-106303535D01*
X166155146Y-106304194D01*
X166109502Y-106312900D01*
X165919752Y-106312900D01*
X165734597Y-106352255D01*
X165561669Y-106429248D01*
X165408529Y-106540510D01*
X165281866Y-106681183D01*
X165187220Y-106845115D01*
X165128726Y-107025142D01*
X165108940Y-107213400D01*
X165128726Y-107401657D01*
X165187220Y-107581684D01*
X165281866Y-107745616D01*
X165408529Y-107886289D01*
X165561669Y-107997551D01*
X165717631Y-108066991D01*
X165767207Y-108106965D01*
X165790403Y-108166275D01*
X165781100Y-108229277D01*
X165741752Y-108279352D01*
X165682738Y-108303292D01*
X165680809Y-108303535D01*
X165640199Y-108319613D01*
X165629154Y-108323394D01*
X165587210Y-108335581D01*
X165569965Y-108345779D01*
X165552504Y-108354333D01*
X165533867Y-108361712D01*
X165498531Y-108387385D01*
X165488774Y-108393795D01*
X165451180Y-108416029D01*
X165437013Y-108430196D01*
X165422224Y-108442826D01*
X165406013Y-108454604D01*
X165378172Y-108488258D01*
X165370311Y-108496897D01*
X162832878Y-111034329D01*
X162777291Y-111066423D01*
X162713103Y-111066423D01*
X162657516Y-111034329D01*
X162510140Y-110886953D01*
X162323733Y-110756431D01*
X162265725Y-110729382D01*
X162213549Y-110683625D01*
X162194129Y-110617000D01*
X162213549Y-110550375D01*
X162265725Y-110504618D01*
X162323734Y-110477568D01*
X162510139Y-110347047D01*
X162671047Y-110186139D01*
X162801568Y-109999734D01*
X162897739Y-109793496D01*
X162956635Y-109573692D01*
X162976468Y-109347000D01*
X162956635Y-109120308D01*
X162897739Y-108900504D01*
X162801568Y-108694266D01*
X162789548Y-108677100D01*
X162671046Y-108507859D01*
X162510140Y-108346953D01*
X162323733Y-108216431D01*
X162265725Y-108189382D01*
X162213549Y-108143625D01*
X162194129Y-108077000D01*
X162213549Y-108010375D01*
X162265725Y-107964618D01*
X162323734Y-107937568D01*
X162510139Y-107807047D01*
X162671047Y-107646139D01*
X162801568Y-107459734D01*
X162897739Y-107253496D01*
X162956635Y-107033692D01*
X162976468Y-106807000D01*
X162956635Y-106580308D01*
X162897739Y-106360504D01*
X162801568Y-106154266D01*
X162769506Y-106108477D01*
X162671046Y-105967859D01*
X162510140Y-105806953D01*
X162323733Y-105676431D01*
X162265725Y-105649382D01*
X162213549Y-105603625D01*
X162194129Y-105537000D01*
X162213549Y-105470375D01*
X162265725Y-105424618D01*
X162323734Y-105397568D01*
X162510139Y-105267047D01*
X162671047Y-105106139D01*
X162801568Y-104919734D01*
X162897739Y-104713496D01*
X162956635Y-104493692D01*
X162976468Y-104267000D01*
X162956635Y-104040308D01*
X162897739Y-103820504D01*
X162801568Y-103614266D01*
X162793351Y-103602531D01*
X162671046Y-103427859D01*
X162510140Y-103266953D01*
X162323733Y-103136431D01*
X162265725Y-103109382D01*
X162213549Y-103063625D01*
X162194129Y-102997000D01*
X162213549Y-102930375D01*
X162265725Y-102884618D01*
X162323734Y-102857568D01*
X162510139Y-102727047D01*
X162671047Y-102566139D01*
X162801568Y-102379734D01*
X162897739Y-102173496D01*
X162956635Y-101953692D01*
X162976468Y-101727000D01*
X162956635Y-101500308D01*
X162897801Y-101280738D01*
X162896658Y-101221178D01*
X162923426Y-101167954D01*
X162971927Y-101133358D01*
X162985997Y-101127787D01*
X162997044Y-101124003D01*
X163038990Y-101111818D01*
X163056229Y-101101622D01*
X163073702Y-101093062D01*
X163092332Y-101085686D01*
X163127664Y-101060014D01*
X163137430Y-101053600D01*
X163175018Y-101031371D01*
X163175017Y-101031371D01*
X163175020Y-101031370D01*
X163189185Y-101017204D01*
X163203973Y-101004573D01*
X163220187Y-100992794D01*
X163248038Y-100959126D01*
X163255879Y-100950509D01*
X164656720Y-99549669D01*
X164712305Y-99517577D01*
X164776493Y-99517577D01*
X164832080Y-99549671D01*
G37*
%TD.AperFunction*%
M02*
