M48
; DRILL file {KiCad 7.0.1} date Fri Apr 21 04:10:10 2023
; FORMAT={-:-/ absolute / inch / decimal}
; #@! TF.CreationDate,2023-04-21T04:10:10+01:00
; #@! TF.GenerationSoftware,Kicad,Pcbnew,7.0.1
; #@! TF.FileFunction,Plated,1,2,PTH
FMAT,2
INCH
; #@! TA.AperFunction,Plated,PTH,ViaDrill
T1C0.0157
; #@! TA.AperFunction,Plated,PTH,ComponentDrill
T2C0.0315
%
G90
G05
T1
X6.516Y-4.141
X6.536Y-4.221
X6.576Y-3.981
T2
X5.896Y-3.481
X5.896Y-3.881
X6.065Y-3.505
X6.065Y-3.605
X6.065Y-3.705
X6.065Y-3.805
X6.065Y-3.905
X6.065Y-4.005
X6.065Y-4.105
X6.065Y-4.205
X6.065Y-4.305
X6.065Y-4.405
X6.065Y-4.505
X6.065Y-4.605
X6.065Y-4.705
X6.065Y-4.805
X6.365Y-3.505
X6.365Y-3.605
X6.365Y-3.705
X6.365Y-3.805
X6.365Y-3.905
X6.365Y-4.005
X6.365Y-4.105
X6.365Y-4.205
X6.365Y-4.305
X6.365Y-4.405
X6.365Y-4.505
X6.365Y-4.605
X6.365Y-4.705
X6.365Y-4.805
X6.4902Y-3.503
X6.4902Y-3.7
X6.687Y-3.503
X6.687Y-3.7
X6.856Y-4.1073
X6.856Y-4.186
X6.856Y-4.2648
X6.856Y-4.3435
X6.856Y-4.4223
X6.856Y-4.501
X6.856Y-4.5797
X6.856Y-4.6585
T0
M30
