%TF.GenerationSoftware,KiCad,Pcbnew,7.0.1*%
%TF.CreationDate,2023-04-21T04:09:38+01:00*%
%TF.ProjectId,wiikey,7769696b-6579-42e6-9b69-6361645f7063,rev?*%
%TF.SameCoordinates,Original*%
%TF.FileFunction,Legend,Top*%
%TF.FilePolarity,Positive*%
%FSLAX46Y46*%
G04 Gerber Fmt 4.6, Leading zero omitted, Abs format (unit mm)*
G04 Created by KiCad (PCBNEW 7.0.1) date 2023-04-21 04:09:38*
%MOMM*%
%LPD*%
G01*
G04 APERTURE LIST*
%ADD10C,0.100000*%
%ADD11C,0.150000*%
%ADD12C,0.125000*%
%ADD13C,0.120000*%
G04 APERTURE END LIST*
D10*
X147849638Y-102501685D02*
X147316304Y-102654066D01*
X147316304Y-102654066D02*
X147697257Y-102806447D01*
X147697257Y-102806447D02*
X147316304Y-102958828D01*
X147316304Y-102958828D02*
X147849638Y-103111209D01*
X147849638Y-103339780D02*
X147316304Y-103492161D01*
X147316304Y-103492161D02*
X147697257Y-103644542D01*
X147697257Y-103644542D02*
X147316304Y-103796923D01*
X147316304Y-103796923D02*
X147849638Y-103949304D01*
X147849638Y-104177875D02*
X147316304Y-104330256D01*
X147316304Y-104330256D02*
X147697257Y-104482637D01*
X147697257Y-104482637D02*
X147316304Y-104635018D01*
X147316304Y-104635018D02*
X147849638Y-104787399D01*
X147392495Y-105092161D02*
X147354400Y-105130256D01*
X147354400Y-105130256D02*
X147316304Y-105092161D01*
X147316304Y-105092161D02*
X147354400Y-105054065D01*
X147354400Y-105054065D02*
X147392495Y-105092161D01*
X147392495Y-105092161D02*
X147316304Y-105092161D01*
X147316304Y-105473113D02*
X147849638Y-105473113D01*
X147773447Y-105473113D02*
X147811542Y-105511208D01*
X147811542Y-105511208D02*
X147849638Y-105587398D01*
X147849638Y-105587398D02*
X147849638Y-105701684D01*
X147849638Y-105701684D02*
X147811542Y-105777875D01*
X147811542Y-105777875D02*
X147735352Y-105815970D01*
X147735352Y-105815970D02*
X147316304Y-105815970D01*
X147735352Y-105815970D02*
X147811542Y-105854065D01*
X147811542Y-105854065D02*
X147849638Y-105930256D01*
X147849638Y-105930256D02*
X147849638Y-106044541D01*
X147849638Y-106044541D02*
X147811542Y-106120732D01*
X147811542Y-106120732D02*
X147735352Y-106158827D01*
X147735352Y-106158827D02*
X147316304Y-106158827D01*
X147849638Y-106882637D02*
X147316304Y-106882637D01*
X148154400Y-106692161D02*
X147582971Y-106501684D01*
X147582971Y-106501684D02*
X147582971Y-106996923D01*
X147316304Y-107225494D02*
X147849638Y-107644542D01*
X147849638Y-107225494D02*
X147316304Y-107644542D01*
X147316304Y-108368351D02*
X147316304Y-107911208D01*
X147316304Y-108139780D02*
X148116304Y-108139780D01*
X148116304Y-108139780D02*
X148002019Y-108063589D01*
X148002019Y-108063589D02*
X147925828Y-107987399D01*
X147925828Y-107987399D02*
X147887733Y-107911208D01*
X147316304Y-108711209D02*
X147849638Y-108711209D01*
X147773447Y-108711209D02*
X147811542Y-108749304D01*
X147811542Y-108749304D02*
X147849638Y-108825494D01*
X147849638Y-108825494D02*
X147849638Y-108939780D01*
X147849638Y-108939780D02*
X147811542Y-109015971D01*
X147811542Y-109015971D02*
X147735352Y-109054066D01*
X147735352Y-109054066D02*
X147316304Y-109054066D01*
X147735352Y-109054066D02*
X147811542Y-109092161D01*
X147811542Y-109092161D02*
X147849638Y-109168352D01*
X147849638Y-109168352D02*
X147849638Y-109282637D01*
X147849638Y-109282637D02*
X147811542Y-109358828D01*
X147811542Y-109358828D02*
X147735352Y-109396923D01*
X147735352Y-109396923D02*
X147316304Y-109396923D01*
X147849638Y-110120733D02*
X147316304Y-110120733D01*
X147849638Y-109777876D02*
X147430590Y-109777876D01*
X147430590Y-109777876D02*
X147354400Y-109815971D01*
X147354400Y-109815971D02*
X147316304Y-109892161D01*
X147316304Y-109892161D02*
X147316304Y-110006447D01*
X147316304Y-110006447D02*
X147354400Y-110082638D01*
X147354400Y-110082638D02*
X147392495Y-110120733D01*
X147316304Y-110501686D02*
X147849638Y-110501686D01*
X147773447Y-110501686D02*
X147811542Y-110539781D01*
X147811542Y-110539781D02*
X147849638Y-110615971D01*
X147849638Y-110615971D02*
X147849638Y-110730257D01*
X147849638Y-110730257D02*
X147811542Y-110806448D01*
X147811542Y-110806448D02*
X147735352Y-110844543D01*
X147735352Y-110844543D02*
X147316304Y-110844543D01*
X147735352Y-110844543D02*
X147811542Y-110882638D01*
X147811542Y-110882638D02*
X147849638Y-110958829D01*
X147849638Y-110958829D02*
X147849638Y-111073114D01*
X147849638Y-111073114D02*
X147811542Y-111149305D01*
X147811542Y-111149305D02*
X147735352Y-111187400D01*
X147735352Y-111187400D02*
X147316304Y-111187400D01*
X147316304Y-111568353D02*
X147849638Y-111568353D01*
X147697257Y-111568353D02*
X147773447Y-111606448D01*
X147773447Y-111606448D02*
X147811542Y-111644543D01*
X147811542Y-111644543D02*
X147849638Y-111720734D01*
X147849638Y-111720734D02*
X147849638Y-111796924D01*
X147354400Y-112368353D02*
X147316304Y-112292162D01*
X147316304Y-112292162D02*
X147316304Y-112139781D01*
X147316304Y-112139781D02*
X147354400Y-112063591D01*
X147354400Y-112063591D02*
X147430590Y-112025495D01*
X147430590Y-112025495D02*
X147735352Y-112025495D01*
X147735352Y-112025495D02*
X147811542Y-112063591D01*
X147811542Y-112063591D02*
X147849638Y-112139781D01*
X147849638Y-112139781D02*
X147849638Y-112292162D01*
X147849638Y-112292162D02*
X147811542Y-112368353D01*
X147811542Y-112368353D02*
X147735352Y-112406448D01*
X147735352Y-112406448D02*
X147659161Y-112406448D01*
X147659161Y-112406448D02*
X147582971Y-112025495D01*
X147849638Y-112673114D02*
X147849638Y-113092162D01*
X147849638Y-113092162D02*
X147316304Y-112673114D01*
X147316304Y-112673114D02*
X147316304Y-113092162D01*
X147773447Y-113511209D02*
X147811542Y-113435019D01*
X147811542Y-113435019D02*
X147849638Y-113396924D01*
X147849638Y-113396924D02*
X147925828Y-113358828D01*
X147925828Y-113358828D02*
X147963923Y-113358828D01*
X147963923Y-113358828D02*
X148040114Y-113396924D01*
X148040114Y-113396924D02*
X148078209Y-113435019D01*
X148078209Y-113435019D02*
X148116304Y-113511209D01*
X148116304Y-113511209D02*
X148116304Y-113663590D01*
X148116304Y-113663590D02*
X148078209Y-113739781D01*
X148078209Y-113739781D02*
X148040114Y-113777876D01*
X148040114Y-113777876D02*
X147963923Y-113815971D01*
X147963923Y-113815971D02*
X147925828Y-113815971D01*
X147925828Y-113815971D02*
X147849638Y-113777876D01*
X147849638Y-113777876D02*
X147811542Y-113739781D01*
X147811542Y-113739781D02*
X147773447Y-113663590D01*
X147773447Y-113663590D02*
X147773447Y-113511209D01*
X147773447Y-113511209D02*
X147735352Y-113435019D01*
X147735352Y-113435019D02*
X147697257Y-113396924D01*
X147697257Y-113396924D02*
X147621066Y-113358828D01*
X147621066Y-113358828D02*
X147468685Y-113358828D01*
X147468685Y-113358828D02*
X147392495Y-113396924D01*
X147392495Y-113396924D02*
X147354400Y-113435019D01*
X147354400Y-113435019D02*
X147316304Y-113511209D01*
X147316304Y-113511209D02*
X147316304Y-113663590D01*
X147316304Y-113663590D02*
X147354400Y-113739781D01*
X147354400Y-113739781D02*
X147392495Y-113777876D01*
X147392495Y-113777876D02*
X147468685Y-113815971D01*
X147468685Y-113815971D02*
X147621066Y-113815971D01*
X147621066Y-113815971D02*
X147697257Y-113777876D01*
X147697257Y-113777876D02*
X147735352Y-113739781D01*
X147735352Y-113739781D02*
X147773447Y-113663590D01*
X148116304Y-114082638D02*
X148116304Y-114615972D01*
X148116304Y-114615972D02*
X147316304Y-114273114D01*
X147392495Y-114920734D02*
X147354400Y-114958829D01*
X147354400Y-114958829D02*
X147316304Y-114920734D01*
X147316304Y-114920734D02*
X147354400Y-114882638D01*
X147354400Y-114882638D02*
X147392495Y-114920734D01*
X147392495Y-114920734D02*
X147316304Y-114920734D01*
X147849638Y-115301686D02*
X147316304Y-115301686D01*
X147773447Y-115301686D02*
X147811542Y-115339781D01*
X147811542Y-115339781D02*
X147849638Y-115415971D01*
X147849638Y-115415971D02*
X147849638Y-115530257D01*
X147849638Y-115530257D02*
X147811542Y-115606448D01*
X147811542Y-115606448D02*
X147735352Y-115644543D01*
X147735352Y-115644543D02*
X147316304Y-115644543D01*
X147354400Y-116330258D02*
X147316304Y-116254067D01*
X147316304Y-116254067D02*
X147316304Y-116101686D01*
X147316304Y-116101686D02*
X147354400Y-116025496D01*
X147354400Y-116025496D02*
X147430590Y-115987400D01*
X147430590Y-115987400D02*
X147735352Y-115987400D01*
X147735352Y-115987400D02*
X147811542Y-116025496D01*
X147811542Y-116025496D02*
X147849638Y-116101686D01*
X147849638Y-116101686D02*
X147849638Y-116254067D01*
X147849638Y-116254067D02*
X147811542Y-116330258D01*
X147811542Y-116330258D02*
X147735352Y-116368353D01*
X147735352Y-116368353D02*
X147659161Y-116368353D01*
X147659161Y-116368353D02*
X147582971Y-115987400D01*
X147316304Y-116825495D02*
X147354400Y-116749305D01*
X147354400Y-116749305D02*
X147392495Y-116711210D01*
X147392495Y-116711210D02*
X147468685Y-116673114D01*
X147468685Y-116673114D02*
X147697257Y-116673114D01*
X147697257Y-116673114D02*
X147773447Y-116711210D01*
X147773447Y-116711210D02*
X147811542Y-116749305D01*
X147811542Y-116749305D02*
X147849638Y-116825495D01*
X147849638Y-116825495D02*
X147849638Y-116939781D01*
X147849638Y-116939781D02*
X147811542Y-117015972D01*
X147811542Y-117015972D02*
X147773447Y-117054067D01*
X147773447Y-117054067D02*
X147697257Y-117092162D01*
X147697257Y-117092162D02*
X147468685Y-117092162D01*
X147468685Y-117092162D02*
X147392495Y-117054067D01*
X147392495Y-117054067D02*
X147354400Y-117015972D01*
X147354400Y-117015972D02*
X147316304Y-116939781D01*
X147316304Y-116939781D02*
X147316304Y-116825495D01*
X147354400Y-117777877D02*
X147316304Y-117701686D01*
X147316304Y-117701686D02*
X147316304Y-117549305D01*
X147316304Y-117549305D02*
X147354400Y-117473115D01*
X147354400Y-117473115D02*
X147392495Y-117435020D01*
X147392495Y-117435020D02*
X147468685Y-117396924D01*
X147468685Y-117396924D02*
X147697257Y-117396924D01*
X147697257Y-117396924D02*
X147773447Y-117435020D01*
X147773447Y-117435020D02*
X147811542Y-117473115D01*
X147811542Y-117473115D02*
X147849638Y-117549305D01*
X147849638Y-117549305D02*
X147849638Y-117701686D01*
X147849638Y-117701686D02*
X147811542Y-117777877D01*
X147316304Y-118120734D02*
X147849638Y-118120734D01*
X148116304Y-118120734D02*
X148078209Y-118082638D01*
X148078209Y-118082638D02*
X148040114Y-118120734D01*
X148040114Y-118120734D02*
X148078209Y-118158829D01*
X148078209Y-118158829D02*
X148116304Y-118120734D01*
X148116304Y-118120734D02*
X148040114Y-118120734D01*
X147849638Y-118387400D02*
X147849638Y-118692162D01*
X148116304Y-118501686D02*
X147430590Y-118501686D01*
X147430590Y-118501686D02*
X147354400Y-118539781D01*
X147354400Y-118539781D02*
X147316304Y-118615971D01*
X147316304Y-118615971D02*
X147316304Y-118692162D01*
X147316304Y-118958829D02*
X147849638Y-118958829D01*
X148116304Y-118958829D02*
X148078209Y-118920733D01*
X148078209Y-118920733D02*
X148040114Y-118958829D01*
X148040114Y-118958829D02*
X148078209Y-118996924D01*
X148078209Y-118996924D02*
X148116304Y-118958829D01*
X148116304Y-118958829D02*
X148040114Y-118958829D01*
X147354400Y-119644543D02*
X147316304Y-119568352D01*
X147316304Y-119568352D02*
X147316304Y-119415971D01*
X147316304Y-119415971D02*
X147354400Y-119339781D01*
X147354400Y-119339781D02*
X147430590Y-119301685D01*
X147430590Y-119301685D02*
X147735352Y-119301685D01*
X147735352Y-119301685D02*
X147811542Y-119339781D01*
X147811542Y-119339781D02*
X147849638Y-119415971D01*
X147849638Y-119415971D02*
X147849638Y-119568352D01*
X147849638Y-119568352D02*
X147811542Y-119644543D01*
X147811542Y-119644543D02*
X147735352Y-119682638D01*
X147735352Y-119682638D02*
X147659161Y-119682638D01*
X147659161Y-119682638D02*
X147582971Y-119301685D01*
X147354400Y-119987399D02*
X147316304Y-120063590D01*
X147316304Y-120063590D02*
X147316304Y-120215971D01*
X147316304Y-120215971D02*
X147354400Y-120292161D01*
X147354400Y-120292161D02*
X147430590Y-120330257D01*
X147430590Y-120330257D02*
X147468685Y-120330257D01*
X147468685Y-120330257D02*
X147544876Y-120292161D01*
X147544876Y-120292161D02*
X147582971Y-120215971D01*
X147582971Y-120215971D02*
X147582971Y-120101685D01*
X147582971Y-120101685D02*
X147621066Y-120025495D01*
X147621066Y-120025495D02*
X147697257Y-119987399D01*
X147697257Y-119987399D02*
X147735352Y-119987399D01*
X147735352Y-119987399D02*
X147811542Y-120025495D01*
X147811542Y-120025495D02*
X147849638Y-120101685D01*
X147849638Y-120101685D02*
X147849638Y-120215971D01*
X147849638Y-120215971D02*
X147811542Y-120292161D01*
X147392495Y-120673114D02*
X147354400Y-120711209D01*
X147354400Y-120711209D02*
X147316304Y-120673114D01*
X147316304Y-120673114D02*
X147354400Y-120635018D01*
X147354400Y-120635018D02*
X147392495Y-120673114D01*
X147392495Y-120673114D02*
X147316304Y-120673114D01*
X147316304Y-121168351D02*
X147354400Y-121092161D01*
X147354400Y-121092161D02*
X147392495Y-121054066D01*
X147392495Y-121054066D02*
X147468685Y-121015970D01*
X147468685Y-121015970D02*
X147697257Y-121015970D01*
X147697257Y-121015970D02*
X147773447Y-121054066D01*
X147773447Y-121054066D02*
X147811542Y-121092161D01*
X147811542Y-121092161D02*
X147849638Y-121168351D01*
X147849638Y-121168351D02*
X147849638Y-121282637D01*
X147849638Y-121282637D02*
X147811542Y-121358828D01*
X147811542Y-121358828D02*
X147773447Y-121396923D01*
X147773447Y-121396923D02*
X147697257Y-121435018D01*
X147697257Y-121435018D02*
X147468685Y-121435018D01*
X147468685Y-121435018D02*
X147392495Y-121396923D01*
X147392495Y-121396923D02*
X147354400Y-121358828D01*
X147354400Y-121358828D02*
X147316304Y-121282637D01*
X147316304Y-121282637D02*
X147316304Y-121168351D01*
X147316304Y-121777876D02*
X147849638Y-121777876D01*
X147697257Y-121777876D02*
X147773447Y-121815971D01*
X147773447Y-121815971D02*
X147811542Y-121854066D01*
X147811542Y-121854066D02*
X147849638Y-121930257D01*
X147849638Y-121930257D02*
X147849638Y-122006447D01*
X147849638Y-122615971D02*
X147202019Y-122615971D01*
X147202019Y-122615971D02*
X147125828Y-122577876D01*
X147125828Y-122577876D02*
X147087733Y-122539780D01*
X147087733Y-122539780D02*
X147049638Y-122463590D01*
X147049638Y-122463590D02*
X147049638Y-122349304D01*
X147049638Y-122349304D02*
X147087733Y-122273114D01*
X147354400Y-122615971D02*
X147316304Y-122539780D01*
X147316304Y-122539780D02*
X147316304Y-122387399D01*
X147316304Y-122387399D02*
X147354400Y-122311209D01*
X147354400Y-122311209D02*
X147392495Y-122273114D01*
X147392495Y-122273114D02*
X147468685Y-122235018D01*
X147468685Y-122235018D02*
X147697257Y-122235018D01*
X147697257Y-122235018D02*
X147773447Y-122273114D01*
X147773447Y-122273114D02*
X147811542Y-122311209D01*
X147811542Y-122311209D02*
X147849638Y-122387399D01*
X147849638Y-122387399D02*
X147849638Y-122539780D01*
X147849638Y-122539780D02*
X147811542Y-122615971D01*
X146824685Y-125619495D02*
X147015161Y-126419495D01*
X147015161Y-126419495D02*
X147167542Y-125848066D01*
X147167542Y-125848066D02*
X147319923Y-126419495D01*
X147319923Y-126419495D02*
X147510400Y-125619495D01*
X147815162Y-126419495D02*
X147815162Y-125886161D01*
X147815162Y-125619495D02*
X147777066Y-125657590D01*
X147777066Y-125657590D02*
X147815162Y-125695685D01*
X147815162Y-125695685D02*
X147853257Y-125657590D01*
X147853257Y-125657590D02*
X147815162Y-125619495D01*
X147815162Y-125619495D02*
X147815162Y-125695685D01*
X148196114Y-126419495D02*
X148196114Y-125886161D01*
X148196114Y-125619495D02*
X148158018Y-125657590D01*
X148158018Y-125657590D02*
X148196114Y-125695685D01*
X148196114Y-125695685D02*
X148234209Y-125657590D01*
X148234209Y-125657590D02*
X148196114Y-125619495D01*
X148196114Y-125619495D02*
X148196114Y-125695685D01*
X148577066Y-126419495D02*
X148577066Y-125619495D01*
X149034209Y-126419495D02*
X148691351Y-125962352D01*
X149034209Y-125619495D02*
X148577066Y-126076638D01*
X149681828Y-126381400D02*
X149605637Y-126419495D01*
X149605637Y-126419495D02*
X149453256Y-126419495D01*
X149453256Y-126419495D02*
X149377066Y-126381400D01*
X149377066Y-126381400D02*
X149338970Y-126305209D01*
X149338970Y-126305209D02*
X149338970Y-126000447D01*
X149338970Y-126000447D02*
X149377066Y-125924257D01*
X149377066Y-125924257D02*
X149453256Y-125886161D01*
X149453256Y-125886161D02*
X149605637Y-125886161D01*
X149605637Y-125886161D02*
X149681828Y-125924257D01*
X149681828Y-125924257D02*
X149719923Y-126000447D01*
X149719923Y-126000447D02*
X149719923Y-126076638D01*
X149719923Y-126076638D02*
X149338970Y-126152828D01*
X149986589Y-125886161D02*
X150177065Y-126419495D01*
X150367542Y-125886161D02*
X150177065Y-126419495D01*
X150177065Y-126419495D02*
X150100875Y-126609971D01*
X150100875Y-126609971D02*
X150062780Y-126648066D01*
X150062780Y-126648066D02*
X149986589Y-126686161D01*
X151281828Y-126419495D02*
X151281828Y-125619495D01*
X151281828Y-125619495D02*
X151586590Y-125619495D01*
X151586590Y-125619495D02*
X151662780Y-125657590D01*
X151662780Y-125657590D02*
X151700875Y-125695685D01*
X151700875Y-125695685D02*
X151738971Y-125771876D01*
X151738971Y-125771876D02*
X151738971Y-125886161D01*
X151738971Y-125886161D02*
X151700875Y-125962352D01*
X151700875Y-125962352D02*
X151662780Y-126000447D01*
X151662780Y-126000447D02*
X151586590Y-126038542D01*
X151586590Y-126038542D02*
X151281828Y-126038542D01*
X152081828Y-126419495D02*
X152081828Y-125886161D01*
X152081828Y-126038542D02*
X152119923Y-125962352D01*
X152119923Y-125962352D02*
X152158018Y-125924257D01*
X152158018Y-125924257D02*
X152234209Y-125886161D01*
X152234209Y-125886161D02*
X152310399Y-125886161D01*
X152691351Y-126419495D02*
X152615161Y-126381400D01*
X152615161Y-126381400D02*
X152577066Y-126343304D01*
X152577066Y-126343304D02*
X152538970Y-126267114D01*
X152538970Y-126267114D02*
X152538970Y-126038542D01*
X152538970Y-126038542D02*
X152577066Y-125962352D01*
X152577066Y-125962352D02*
X152615161Y-125924257D01*
X152615161Y-125924257D02*
X152691351Y-125886161D01*
X152691351Y-125886161D02*
X152805637Y-125886161D01*
X152805637Y-125886161D02*
X152881828Y-125924257D01*
X152881828Y-125924257D02*
X152919923Y-125962352D01*
X152919923Y-125962352D02*
X152958018Y-126038542D01*
X152958018Y-126038542D02*
X152958018Y-126267114D01*
X152958018Y-126267114D02*
X152919923Y-126343304D01*
X152919923Y-126343304D02*
X152881828Y-126381400D01*
X152881828Y-126381400D02*
X152805637Y-126419495D01*
X152805637Y-126419495D02*
X152691351Y-126419495D01*
X153186590Y-125886161D02*
X153491352Y-125886161D01*
X153300876Y-125619495D02*
X153300876Y-126305209D01*
X153300876Y-126305209D02*
X153338971Y-126381400D01*
X153338971Y-126381400D02*
X153415161Y-126419495D01*
X153415161Y-126419495D02*
X153491352Y-126419495D01*
X153872304Y-126419495D02*
X153796114Y-126381400D01*
X153796114Y-126381400D02*
X153758019Y-126343304D01*
X153758019Y-126343304D02*
X153719923Y-126267114D01*
X153719923Y-126267114D02*
X153719923Y-126038542D01*
X153719923Y-126038542D02*
X153758019Y-125962352D01*
X153758019Y-125962352D02*
X153796114Y-125924257D01*
X153796114Y-125924257D02*
X153872304Y-125886161D01*
X153872304Y-125886161D02*
X153986590Y-125886161D01*
X153986590Y-125886161D02*
X154062781Y-125924257D01*
X154062781Y-125924257D02*
X154100876Y-125962352D01*
X154100876Y-125962352D02*
X154138971Y-126038542D01*
X154138971Y-126038542D02*
X154138971Y-126267114D01*
X154138971Y-126267114D02*
X154100876Y-126343304D01*
X154100876Y-126343304D02*
X154062781Y-126381400D01*
X154062781Y-126381400D02*
X153986590Y-126419495D01*
X153986590Y-126419495D02*
X153872304Y-126419495D01*
X154367543Y-125886161D02*
X154672305Y-125886161D01*
X154481829Y-125619495D02*
X154481829Y-126305209D01*
X154481829Y-126305209D02*
X154519924Y-126381400D01*
X154519924Y-126381400D02*
X154596114Y-126419495D01*
X154596114Y-126419495D02*
X154672305Y-126419495D01*
X154862781Y-125886161D02*
X155053257Y-126419495D01*
X155243734Y-125886161D02*
X155053257Y-126419495D01*
X155053257Y-126419495D02*
X154977067Y-126609971D01*
X154977067Y-126609971D02*
X154938972Y-126648066D01*
X154938972Y-126648066D02*
X154862781Y-126686161D01*
X155548496Y-125886161D02*
X155548496Y-126686161D01*
X155548496Y-125924257D02*
X155624686Y-125886161D01*
X155624686Y-125886161D02*
X155777067Y-125886161D01*
X155777067Y-125886161D02*
X155853258Y-125924257D01*
X155853258Y-125924257D02*
X155891353Y-125962352D01*
X155891353Y-125962352D02*
X155929448Y-126038542D01*
X155929448Y-126038542D02*
X155929448Y-126267114D01*
X155929448Y-126267114D02*
X155891353Y-126343304D01*
X155891353Y-126343304D02*
X155853258Y-126381400D01*
X155853258Y-126381400D02*
X155777067Y-126419495D01*
X155777067Y-126419495D02*
X155624686Y-126419495D01*
X155624686Y-126419495D02*
X155548496Y-126381400D01*
X156272306Y-126419495D02*
X156272306Y-125886161D01*
X156272306Y-125619495D02*
X156234210Y-125657590D01*
X156234210Y-125657590D02*
X156272306Y-125695685D01*
X156272306Y-125695685D02*
X156310401Y-125657590D01*
X156310401Y-125657590D02*
X156272306Y-125619495D01*
X156272306Y-125619495D02*
X156272306Y-125695685D01*
X156653258Y-125886161D02*
X156653258Y-126419495D01*
X156653258Y-125962352D02*
X156691353Y-125924257D01*
X156691353Y-125924257D02*
X156767543Y-125886161D01*
X156767543Y-125886161D02*
X156881829Y-125886161D01*
X156881829Y-125886161D02*
X156958020Y-125924257D01*
X156958020Y-125924257D02*
X156996115Y-126000447D01*
X156996115Y-126000447D02*
X156996115Y-126419495D01*
X157719925Y-125886161D02*
X157719925Y-126533780D01*
X157719925Y-126533780D02*
X157681830Y-126609971D01*
X157681830Y-126609971D02*
X157643734Y-126648066D01*
X157643734Y-126648066D02*
X157567544Y-126686161D01*
X157567544Y-126686161D02*
X157453258Y-126686161D01*
X157453258Y-126686161D02*
X157377068Y-126648066D01*
X157719925Y-126381400D02*
X157643734Y-126419495D01*
X157643734Y-126419495D02*
X157491353Y-126419495D01*
X157491353Y-126419495D02*
X157415163Y-126381400D01*
X157415163Y-126381400D02*
X157377068Y-126343304D01*
X157377068Y-126343304D02*
X157338972Y-126267114D01*
X157338972Y-126267114D02*
X157338972Y-126038542D01*
X157338972Y-126038542D02*
X157377068Y-125962352D01*
X157377068Y-125962352D02*
X157415163Y-125924257D01*
X157415163Y-125924257D02*
X157491353Y-125886161D01*
X157491353Y-125886161D02*
X157643734Y-125886161D01*
X157643734Y-125886161D02*
X157719925Y-125924257D01*
X158977068Y-126000447D02*
X159091354Y-126038542D01*
X159091354Y-126038542D02*
X159129449Y-126076638D01*
X159129449Y-126076638D02*
X159167545Y-126152828D01*
X159167545Y-126152828D02*
X159167545Y-126267114D01*
X159167545Y-126267114D02*
X159129449Y-126343304D01*
X159129449Y-126343304D02*
X159091354Y-126381400D01*
X159091354Y-126381400D02*
X159015164Y-126419495D01*
X159015164Y-126419495D02*
X158710402Y-126419495D01*
X158710402Y-126419495D02*
X158710402Y-125619495D01*
X158710402Y-125619495D02*
X158977068Y-125619495D01*
X158977068Y-125619495D02*
X159053259Y-125657590D01*
X159053259Y-125657590D02*
X159091354Y-125695685D01*
X159091354Y-125695685D02*
X159129449Y-125771876D01*
X159129449Y-125771876D02*
X159129449Y-125848066D01*
X159129449Y-125848066D02*
X159091354Y-125924257D01*
X159091354Y-125924257D02*
X159053259Y-125962352D01*
X159053259Y-125962352D02*
X158977068Y-126000447D01*
X158977068Y-126000447D02*
X158710402Y-126000447D01*
X159624687Y-126419495D02*
X159548497Y-126381400D01*
X159548497Y-126381400D02*
X159510402Y-126343304D01*
X159510402Y-126343304D02*
X159472306Y-126267114D01*
X159472306Y-126267114D02*
X159472306Y-126038542D01*
X159472306Y-126038542D02*
X159510402Y-125962352D01*
X159510402Y-125962352D02*
X159548497Y-125924257D01*
X159548497Y-125924257D02*
X159624687Y-125886161D01*
X159624687Y-125886161D02*
X159738973Y-125886161D01*
X159738973Y-125886161D02*
X159815164Y-125924257D01*
X159815164Y-125924257D02*
X159853259Y-125962352D01*
X159853259Y-125962352D02*
X159891354Y-126038542D01*
X159891354Y-126038542D02*
X159891354Y-126267114D01*
X159891354Y-126267114D02*
X159853259Y-126343304D01*
X159853259Y-126343304D02*
X159815164Y-126381400D01*
X159815164Y-126381400D02*
X159738973Y-126419495D01*
X159738973Y-126419495D02*
X159624687Y-126419495D01*
X160577069Y-126419495D02*
X160577069Y-126000447D01*
X160577069Y-126000447D02*
X160538974Y-125924257D01*
X160538974Y-125924257D02*
X160462783Y-125886161D01*
X160462783Y-125886161D02*
X160310402Y-125886161D01*
X160310402Y-125886161D02*
X160234212Y-125924257D01*
X160577069Y-126381400D02*
X160500878Y-126419495D01*
X160500878Y-126419495D02*
X160310402Y-126419495D01*
X160310402Y-126419495D02*
X160234212Y-126381400D01*
X160234212Y-126381400D02*
X160196116Y-126305209D01*
X160196116Y-126305209D02*
X160196116Y-126229019D01*
X160196116Y-126229019D02*
X160234212Y-126152828D01*
X160234212Y-126152828D02*
X160310402Y-126114733D01*
X160310402Y-126114733D02*
X160500878Y-126114733D01*
X160500878Y-126114733D02*
X160577069Y-126076638D01*
X160958022Y-126419495D02*
X160958022Y-125886161D01*
X160958022Y-126038542D02*
X160996117Y-125962352D01*
X160996117Y-125962352D02*
X161034212Y-125924257D01*
X161034212Y-125924257D02*
X161110403Y-125886161D01*
X161110403Y-125886161D02*
X161186593Y-125886161D01*
X161796117Y-126419495D02*
X161796117Y-125619495D01*
X161796117Y-126381400D02*
X161719926Y-126419495D01*
X161719926Y-126419495D02*
X161567545Y-126419495D01*
X161567545Y-126419495D02*
X161491355Y-126381400D01*
X161491355Y-126381400D02*
X161453260Y-126343304D01*
X161453260Y-126343304D02*
X161415164Y-126267114D01*
X161415164Y-126267114D02*
X161415164Y-126038542D01*
X161415164Y-126038542D02*
X161453260Y-125962352D01*
X161453260Y-125962352D02*
X161491355Y-125924257D01*
X161491355Y-125924257D02*
X161567545Y-125886161D01*
X161567545Y-125886161D02*
X161719926Y-125886161D01*
X161719926Y-125886161D02*
X161796117Y-125924257D01*
D11*
X168649638Y-105583019D02*
X168982971Y-106583019D01*
X168982971Y-106583019D02*
X169316304Y-105583019D01*
X170221066Y-106487780D02*
X170173447Y-106535400D01*
X170173447Y-106535400D02*
X170030590Y-106583019D01*
X170030590Y-106583019D02*
X169935352Y-106583019D01*
X169935352Y-106583019D02*
X169792495Y-106535400D01*
X169792495Y-106535400D02*
X169697257Y-106440161D01*
X169697257Y-106440161D02*
X169649638Y-106344923D01*
X169649638Y-106344923D02*
X169602019Y-106154447D01*
X169602019Y-106154447D02*
X169602019Y-106011590D01*
X169602019Y-106011590D02*
X169649638Y-105821114D01*
X169649638Y-105821114D02*
X169697257Y-105725876D01*
X169697257Y-105725876D02*
X169792495Y-105630638D01*
X169792495Y-105630638D02*
X169935352Y-105583019D01*
X169935352Y-105583019D02*
X170030590Y-105583019D01*
X170030590Y-105583019D02*
X170173447Y-105630638D01*
X170173447Y-105630638D02*
X170221066Y-105678257D01*
X171221066Y-106487780D02*
X171173447Y-106535400D01*
X171173447Y-106535400D02*
X171030590Y-106583019D01*
X171030590Y-106583019D02*
X170935352Y-106583019D01*
X170935352Y-106583019D02*
X170792495Y-106535400D01*
X170792495Y-106535400D02*
X170697257Y-106440161D01*
X170697257Y-106440161D02*
X170649638Y-106344923D01*
X170649638Y-106344923D02*
X170602019Y-106154447D01*
X170602019Y-106154447D02*
X170602019Y-106011590D01*
X170602019Y-106011590D02*
X170649638Y-105821114D01*
X170649638Y-105821114D02*
X170697257Y-105725876D01*
X170697257Y-105725876D02*
X170792495Y-105630638D01*
X170792495Y-105630638D02*
X170935352Y-105583019D01*
X170935352Y-105583019D02*
X171030590Y-105583019D01*
X171030590Y-105583019D02*
X171173447Y-105630638D01*
X171173447Y-105630638D02*
X171221066Y-105678257D01*
X170935733Y-108329304D02*
X171411923Y-108329304D01*
X170840495Y-108615019D02*
X171173828Y-107615019D01*
X171173828Y-107615019D02*
X171507161Y-108615019D01*
X169316304Y-103598638D02*
X169221066Y-103551019D01*
X169221066Y-103551019D02*
X169078209Y-103551019D01*
X169078209Y-103551019D02*
X168935352Y-103598638D01*
X168935352Y-103598638D02*
X168840114Y-103693876D01*
X168840114Y-103693876D02*
X168792495Y-103789114D01*
X168792495Y-103789114D02*
X168744876Y-103979590D01*
X168744876Y-103979590D02*
X168744876Y-104122447D01*
X168744876Y-104122447D02*
X168792495Y-104312923D01*
X168792495Y-104312923D02*
X168840114Y-104408161D01*
X168840114Y-104408161D02*
X168935352Y-104503400D01*
X168935352Y-104503400D02*
X169078209Y-104551019D01*
X169078209Y-104551019D02*
X169173447Y-104551019D01*
X169173447Y-104551019D02*
X169316304Y-104503400D01*
X169316304Y-104503400D02*
X169363923Y-104455780D01*
X169363923Y-104455780D02*
X169363923Y-104122447D01*
X169363923Y-104122447D02*
X169173447Y-104122447D01*
X169792495Y-104551019D02*
X169792495Y-103551019D01*
X169792495Y-103551019D02*
X170363923Y-104551019D01*
X170363923Y-104551019D02*
X170363923Y-103551019D01*
X170840114Y-104551019D02*
X170840114Y-103551019D01*
X170840114Y-103551019D02*
X171078209Y-103551019D01*
X171078209Y-103551019D02*
X171221066Y-103598638D01*
X171221066Y-103598638D02*
X171316304Y-103693876D01*
X171316304Y-103693876D02*
X171363923Y-103789114D01*
X171363923Y-103789114D02*
X171411542Y-103979590D01*
X171411542Y-103979590D02*
X171411542Y-104122447D01*
X171411542Y-104122447D02*
X171363923Y-104312923D01*
X171363923Y-104312923D02*
X171316304Y-104408161D01*
X171316304Y-104408161D02*
X171221066Y-104503400D01*
X171221066Y-104503400D02*
X171078209Y-104551019D01*
X171078209Y-104551019D02*
X170840114Y-104551019D01*
X171411923Y-112583780D02*
X171364304Y-112631400D01*
X171364304Y-112631400D02*
X171221447Y-112679019D01*
X171221447Y-112679019D02*
X171126209Y-112679019D01*
X171126209Y-112679019D02*
X170983352Y-112631400D01*
X170983352Y-112631400D02*
X170888114Y-112536161D01*
X170888114Y-112536161D02*
X170840495Y-112440923D01*
X170840495Y-112440923D02*
X170792876Y-112250447D01*
X170792876Y-112250447D02*
X170792876Y-112107590D01*
X170792876Y-112107590D02*
X170840495Y-111917114D01*
X170840495Y-111917114D02*
X170888114Y-111821876D01*
X170888114Y-111821876D02*
X170983352Y-111726638D01*
X170983352Y-111726638D02*
X171126209Y-111679019D01*
X171126209Y-111679019D02*
X171221447Y-111679019D01*
X171221447Y-111679019D02*
X171364304Y-111726638D01*
X171364304Y-111726638D02*
X171411923Y-111774257D01*
D10*
X165696876Y-126419495D02*
X165696876Y-125619495D01*
X165696876Y-125924257D02*
X165773066Y-125886161D01*
X165773066Y-125886161D02*
X165925447Y-125886161D01*
X165925447Y-125886161D02*
X166001638Y-125924257D01*
X166001638Y-125924257D02*
X166039733Y-125962352D01*
X166039733Y-125962352D02*
X166077828Y-126038542D01*
X166077828Y-126038542D02*
X166077828Y-126267114D01*
X166077828Y-126267114D02*
X166039733Y-126343304D01*
X166039733Y-126343304D02*
X166001638Y-126381400D01*
X166001638Y-126381400D02*
X165925447Y-126419495D01*
X165925447Y-126419495D02*
X165773066Y-126419495D01*
X165773066Y-126419495D02*
X165696876Y-126381400D01*
X166344495Y-125886161D02*
X166534971Y-126419495D01*
X166725448Y-125886161D02*
X166534971Y-126419495D01*
X166534971Y-126419495D02*
X166458781Y-126609971D01*
X166458781Y-126609971D02*
X166420686Y-126648066D01*
X166420686Y-126648066D02*
X166344495Y-126686161D01*
X167639734Y-126419495D02*
X167639734Y-125619495D01*
X167639734Y-125619495D02*
X167906400Y-126190923D01*
X167906400Y-126190923D02*
X168173067Y-125619495D01*
X168173067Y-125619495D02*
X168173067Y-126419495D01*
X168896877Y-125886161D02*
X168896877Y-126419495D01*
X168706401Y-125581400D02*
X168515924Y-126152828D01*
X168515924Y-126152828D02*
X169011163Y-126152828D01*
X169239734Y-126419495D02*
X169658782Y-125886161D01*
X169239734Y-125886161D02*
X169658782Y-126419495D01*
X170382591Y-126419495D02*
X169925448Y-126419495D01*
X170154020Y-126419495D02*
X170154020Y-125619495D01*
X170154020Y-125619495D02*
X170077829Y-125733780D01*
X170077829Y-125733780D02*
X170001639Y-125809971D01*
X170001639Y-125809971D02*
X169925448Y-125848066D01*
X170725449Y-126419495D02*
X170725449Y-125886161D01*
X170725449Y-125962352D02*
X170763544Y-125924257D01*
X170763544Y-125924257D02*
X170839734Y-125886161D01*
X170839734Y-125886161D02*
X170954020Y-125886161D01*
X170954020Y-125886161D02*
X171030211Y-125924257D01*
X171030211Y-125924257D02*
X171068306Y-126000447D01*
X171068306Y-126000447D02*
X171068306Y-126419495D01*
X171068306Y-126000447D02*
X171106401Y-125924257D01*
X171106401Y-125924257D02*
X171182592Y-125886161D01*
X171182592Y-125886161D02*
X171296877Y-125886161D01*
X171296877Y-125886161D02*
X171373068Y-125924257D01*
X171373068Y-125924257D02*
X171411163Y-126000447D01*
X171411163Y-126000447D02*
X171411163Y-126419495D01*
X172134973Y-125886161D02*
X172134973Y-126419495D01*
X171792116Y-125886161D02*
X171792116Y-126305209D01*
X171792116Y-126305209D02*
X171830211Y-126381400D01*
X171830211Y-126381400D02*
X171906401Y-126419495D01*
X171906401Y-126419495D02*
X172020687Y-126419495D01*
X172020687Y-126419495D02*
X172096878Y-126381400D01*
X172096878Y-126381400D02*
X172134973Y-126343304D01*
X172515926Y-126419495D02*
X172515926Y-125886161D01*
X172515926Y-125962352D02*
X172554021Y-125924257D01*
X172554021Y-125924257D02*
X172630211Y-125886161D01*
X172630211Y-125886161D02*
X172744497Y-125886161D01*
X172744497Y-125886161D02*
X172820688Y-125924257D01*
X172820688Y-125924257D02*
X172858783Y-126000447D01*
X172858783Y-126000447D02*
X172858783Y-126419495D01*
X172858783Y-126000447D02*
X172896878Y-125924257D01*
X172896878Y-125924257D02*
X172973069Y-125886161D01*
X172973069Y-125886161D02*
X173087354Y-125886161D01*
X173087354Y-125886161D02*
X173163545Y-125924257D01*
X173163545Y-125924257D02*
X173201640Y-126000447D01*
X173201640Y-126000447D02*
X173201640Y-126419495D01*
X174039736Y-126419495D02*
X173773069Y-126038542D01*
X173582593Y-126419495D02*
X173582593Y-125619495D01*
X173582593Y-125619495D02*
X173887355Y-125619495D01*
X173887355Y-125619495D02*
X173963545Y-125657590D01*
X173963545Y-125657590D02*
X174001640Y-125695685D01*
X174001640Y-125695685D02*
X174039736Y-125771876D01*
X174039736Y-125771876D02*
X174039736Y-125886161D01*
X174039736Y-125886161D02*
X174001640Y-125962352D01*
X174001640Y-125962352D02*
X173963545Y-126000447D01*
X173963545Y-126000447D02*
X173887355Y-126038542D01*
X173887355Y-126038542D02*
X173582593Y-126038542D01*
X174687355Y-126381400D02*
X174611164Y-126419495D01*
X174611164Y-126419495D02*
X174458783Y-126419495D01*
X174458783Y-126419495D02*
X174382593Y-126381400D01*
X174382593Y-126381400D02*
X174344497Y-126305209D01*
X174344497Y-126305209D02*
X174344497Y-126000447D01*
X174344497Y-126000447D02*
X174382593Y-125924257D01*
X174382593Y-125924257D02*
X174458783Y-125886161D01*
X174458783Y-125886161D02*
X174611164Y-125886161D01*
X174611164Y-125886161D02*
X174687355Y-125924257D01*
X174687355Y-125924257D02*
X174725450Y-126000447D01*
X174725450Y-126000447D02*
X174725450Y-126076638D01*
X174725450Y-126076638D02*
X174344497Y-126152828D01*
X174992116Y-125619495D02*
X175525450Y-125619495D01*
X175525450Y-125619495D02*
X174992116Y-126419495D01*
X174992116Y-126419495D02*
X175525450Y-126419495D01*
D11*
X170840495Y-114711019D02*
X170840495Y-113711019D01*
X170840495Y-113711019D02*
X171078590Y-113711019D01*
X171078590Y-113711019D02*
X171221447Y-113758638D01*
X171221447Y-113758638D02*
X171316685Y-113853876D01*
X171316685Y-113853876D02*
X171364304Y-113949114D01*
X171364304Y-113949114D02*
X171411923Y-114139590D01*
X171411923Y-114139590D02*
X171411923Y-114282447D01*
X171411923Y-114282447D02*
X171364304Y-114472923D01*
X171364304Y-114472923D02*
X171316685Y-114568161D01*
X171316685Y-114568161D02*
X171221447Y-114663400D01*
X171221447Y-114663400D02*
X171078590Y-114711019D01*
X171078590Y-114711019D02*
X170840495Y-114711019D01*
D12*
X157986304Y-108546923D02*
X157986304Y-108070733D01*
X158272019Y-108642161D02*
X157272019Y-108308828D01*
X157272019Y-108308828D02*
X158272019Y-107975495D01*
X157272019Y-107785018D02*
X157272019Y-107213590D01*
X158272019Y-107499304D02*
X157272019Y-107499304D01*
X158272019Y-106880256D02*
X157272019Y-106880256D01*
X157272019Y-106880256D02*
X157986304Y-106546923D01*
X157986304Y-106546923D02*
X157272019Y-106213590D01*
X157272019Y-106213590D02*
X158272019Y-106213590D01*
X157748209Y-105737399D02*
X157748209Y-105404066D01*
X158272019Y-105261209D02*
X158272019Y-105737399D01*
X158272019Y-105737399D02*
X157272019Y-105737399D01*
X157272019Y-105737399D02*
X157272019Y-105261209D01*
X157319638Y-104308828D02*
X157272019Y-104404066D01*
X157272019Y-104404066D02*
X157272019Y-104546923D01*
X157272019Y-104546923D02*
X157319638Y-104689780D01*
X157319638Y-104689780D02*
X157414876Y-104785018D01*
X157414876Y-104785018D02*
X157510114Y-104832637D01*
X157510114Y-104832637D02*
X157700590Y-104880256D01*
X157700590Y-104880256D02*
X157843447Y-104880256D01*
X157843447Y-104880256D02*
X158033923Y-104832637D01*
X158033923Y-104832637D02*
X158129161Y-104785018D01*
X158129161Y-104785018D02*
X158224400Y-104689780D01*
X158224400Y-104689780D02*
X158272019Y-104546923D01*
X158272019Y-104546923D02*
X158272019Y-104451685D01*
X158272019Y-104451685D02*
X158224400Y-104308828D01*
X158224400Y-104308828D02*
X158176780Y-104261209D01*
X158176780Y-104261209D02*
X157843447Y-104261209D01*
X157843447Y-104261209D02*
X157843447Y-104451685D01*
X157986304Y-103880256D02*
X157986304Y-103404066D01*
X158272019Y-103975494D02*
X157272019Y-103642161D01*
X157272019Y-103642161D02*
X158272019Y-103308828D01*
X157700590Y-102832637D02*
X157652971Y-102927875D01*
X157652971Y-102927875D02*
X157605352Y-102975494D01*
X157605352Y-102975494D02*
X157510114Y-103023113D01*
X157510114Y-103023113D02*
X157462495Y-103023113D01*
X157462495Y-103023113D02*
X157367257Y-102975494D01*
X157367257Y-102975494D02*
X157319638Y-102927875D01*
X157319638Y-102927875D02*
X157272019Y-102832637D01*
X157272019Y-102832637D02*
X157272019Y-102642161D01*
X157272019Y-102642161D02*
X157319638Y-102546923D01*
X157319638Y-102546923D02*
X157367257Y-102499304D01*
X157367257Y-102499304D02*
X157462495Y-102451685D01*
X157462495Y-102451685D02*
X157510114Y-102451685D01*
X157510114Y-102451685D02*
X157605352Y-102499304D01*
X157605352Y-102499304D02*
X157652971Y-102546923D01*
X157652971Y-102546923D02*
X157700590Y-102642161D01*
X157700590Y-102642161D02*
X157700590Y-102832637D01*
X157700590Y-102832637D02*
X157748209Y-102927875D01*
X157748209Y-102927875D02*
X157795828Y-102975494D01*
X157795828Y-102975494D02*
X157891066Y-103023113D01*
X157891066Y-103023113D02*
X158081542Y-103023113D01*
X158081542Y-103023113D02*
X158176780Y-102975494D01*
X158176780Y-102975494D02*
X158224400Y-102927875D01*
X158224400Y-102927875D02*
X158272019Y-102832637D01*
X158272019Y-102832637D02*
X158272019Y-102642161D01*
X158272019Y-102642161D02*
X158224400Y-102546923D01*
X158224400Y-102546923D02*
X158176780Y-102499304D01*
X158176780Y-102499304D02*
X158081542Y-102451685D01*
X158081542Y-102451685D02*
X157891066Y-102451685D01*
X157891066Y-102451685D02*
X157795828Y-102499304D01*
X157795828Y-102499304D02*
X157748209Y-102546923D01*
X157748209Y-102546923D02*
X157700590Y-102642161D01*
D11*
X171173828Y-110123209D02*
X171316685Y-110170828D01*
X171316685Y-110170828D02*
X171364304Y-110218447D01*
X171364304Y-110218447D02*
X171411923Y-110313685D01*
X171411923Y-110313685D02*
X171411923Y-110456542D01*
X171411923Y-110456542D02*
X171364304Y-110551780D01*
X171364304Y-110551780D02*
X171316685Y-110599400D01*
X171316685Y-110599400D02*
X171221447Y-110647019D01*
X171221447Y-110647019D02*
X170840495Y-110647019D01*
X170840495Y-110647019D02*
X170840495Y-109647019D01*
X170840495Y-109647019D02*
X171173828Y-109647019D01*
X171173828Y-109647019D02*
X171269066Y-109694638D01*
X171269066Y-109694638D02*
X171316685Y-109742257D01*
X171316685Y-109742257D02*
X171364304Y-109837495D01*
X171364304Y-109837495D02*
X171364304Y-109932733D01*
X171364304Y-109932733D02*
X171316685Y-110027971D01*
X171316685Y-110027971D02*
X171269066Y-110075590D01*
X171269066Y-110075590D02*
X171173828Y-110123209D01*
X171173828Y-110123209D02*
X170840495Y-110123209D01*
%TO.C,R1*%
X150221019Y-93664066D02*
X149744828Y-93997399D01*
X150221019Y-94235494D02*
X149221019Y-94235494D01*
X149221019Y-94235494D02*
X149221019Y-93854542D01*
X149221019Y-93854542D02*
X149268638Y-93759304D01*
X149268638Y-93759304D02*
X149316257Y-93711685D01*
X149316257Y-93711685D02*
X149411495Y-93664066D01*
X149411495Y-93664066D02*
X149554352Y-93664066D01*
X149554352Y-93664066D02*
X149649590Y-93711685D01*
X149649590Y-93711685D02*
X149697209Y-93759304D01*
X149697209Y-93759304D02*
X149744828Y-93854542D01*
X149744828Y-93854542D02*
X149744828Y-94235494D01*
X150221019Y-92711685D02*
X150221019Y-93283113D01*
X150221019Y-92997399D02*
X149221019Y-92997399D01*
X149221019Y-92997399D02*
X149363876Y-93092637D01*
X149363876Y-93092637D02*
X149459114Y-93187875D01*
X149459114Y-93187875D02*
X149506733Y-93283113D01*
%TO.C,C2*%
X167371733Y-94372780D02*
X167324114Y-94420400D01*
X167324114Y-94420400D02*
X167181257Y-94468019D01*
X167181257Y-94468019D02*
X167086019Y-94468019D01*
X167086019Y-94468019D02*
X166943162Y-94420400D01*
X166943162Y-94420400D02*
X166847924Y-94325161D01*
X166847924Y-94325161D02*
X166800305Y-94229923D01*
X166800305Y-94229923D02*
X166752686Y-94039447D01*
X166752686Y-94039447D02*
X166752686Y-93896590D01*
X166752686Y-93896590D02*
X166800305Y-93706114D01*
X166800305Y-93706114D02*
X166847924Y-93610876D01*
X166847924Y-93610876D02*
X166943162Y-93515638D01*
X166943162Y-93515638D02*
X167086019Y-93468019D01*
X167086019Y-93468019D02*
X167181257Y-93468019D01*
X167181257Y-93468019D02*
X167324114Y-93515638D01*
X167324114Y-93515638D02*
X167371733Y-93563257D01*
X167752686Y-93563257D02*
X167800305Y-93515638D01*
X167800305Y-93515638D02*
X167895543Y-93468019D01*
X167895543Y-93468019D02*
X168133638Y-93468019D01*
X168133638Y-93468019D02*
X168228876Y-93515638D01*
X168228876Y-93515638D02*
X168276495Y-93563257D01*
X168276495Y-93563257D02*
X168324114Y-93658495D01*
X168324114Y-93658495D02*
X168324114Y-93753733D01*
X168324114Y-93753733D02*
X168276495Y-93896590D01*
X168276495Y-93896590D02*
X167705067Y-94468019D01*
X167705067Y-94468019D02*
X168324114Y-94468019D01*
%TO.C,C1*%
X167371733Y-89318180D02*
X167324114Y-89365800D01*
X167324114Y-89365800D02*
X167181257Y-89413419D01*
X167181257Y-89413419D02*
X167086019Y-89413419D01*
X167086019Y-89413419D02*
X166943162Y-89365800D01*
X166943162Y-89365800D02*
X166847924Y-89270561D01*
X166847924Y-89270561D02*
X166800305Y-89175323D01*
X166800305Y-89175323D02*
X166752686Y-88984847D01*
X166752686Y-88984847D02*
X166752686Y-88841990D01*
X166752686Y-88841990D02*
X166800305Y-88651514D01*
X166800305Y-88651514D02*
X166847924Y-88556276D01*
X166847924Y-88556276D02*
X166943162Y-88461038D01*
X166943162Y-88461038D02*
X167086019Y-88413419D01*
X167086019Y-88413419D02*
X167181257Y-88413419D01*
X167181257Y-88413419D02*
X167324114Y-88461038D01*
X167324114Y-88461038D02*
X167371733Y-88508657D01*
X168324114Y-89413419D02*
X167752686Y-89413419D01*
X168038400Y-89413419D02*
X168038400Y-88413419D01*
X168038400Y-88413419D02*
X167943162Y-88556276D01*
X167943162Y-88556276D02*
X167847924Y-88651514D01*
X167847924Y-88651514D02*
X167752686Y-88699133D01*
%TO.C,G\u002A\u002A\u002A*%
G36*
X172539858Y-122279710D02*
G01*
X173167275Y-122279710D01*
X173243068Y-122353811D01*
X173318860Y-122427912D01*
X173318860Y-122698339D01*
X173318860Y-122968766D01*
X172818703Y-122968766D01*
X172318546Y-122968766D01*
X172325672Y-122832143D01*
X172332798Y-122695520D01*
X172588224Y-122688776D01*
X172710404Y-122683819D01*
X172790236Y-122676118D01*
X172832853Y-122664932D01*
X172843649Y-122651947D01*
X172835735Y-122616196D01*
X172807586Y-122591384D01*
X172752597Y-122575739D01*
X172664161Y-122567488D01*
X172535672Y-122564859D01*
X172518966Y-122564837D01*
X172402113Y-122565469D01*
X172323751Y-122568397D01*
X172274857Y-122575168D01*
X172246406Y-122587330D01*
X172229374Y-122606429D01*
X172224266Y-122615365D01*
X172210785Y-122667327D01*
X172205086Y-122747311D01*
X172206433Y-122840214D01*
X172214090Y-122930933D01*
X172227323Y-123004368D01*
X172245201Y-123045222D01*
X172286095Y-123061545D01*
X172371728Y-123074899D01*
X172499392Y-123084914D01*
X172553665Y-123087568D01*
X172831769Y-123099448D01*
X172831769Y-123242012D01*
X172831769Y-123384575D01*
X172368439Y-123390705D01*
X172207282Y-123392502D01*
X172086298Y-123392657D01*
X171998150Y-123390605D01*
X171935504Y-123385783D01*
X171891021Y-123377628D01*
X171857368Y-123365574D01*
X171827295Y-123349113D01*
X171780155Y-123315443D01*
X171746196Y-123275993D01*
X171723813Y-123223264D01*
X171711400Y-123149755D01*
X171707354Y-123047969D01*
X171710070Y-122910404D01*
X171713784Y-122818592D01*
X171719999Y-122673331D01*
X171727576Y-122556785D01*
X171741353Y-122465800D01*
X171766165Y-122397222D01*
X171806850Y-122347895D01*
X171868243Y-122314663D01*
X171955182Y-122294372D01*
X172072503Y-122283867D01*
X172225044Y-122279992D01*
X172417639Y-122279592D01*
X172539858Y-122279710D01*
G37*
G36*
X170377570Y-122463854D02*
G01*
X170381427Y-122563382D01*
X170386926Y-122624671D01*
X170397021Y-122656987D01*
X170414665Y-122669594D01*
X170442811Y-122671759D01*
X170443836Y-122671759D01*
X170479800Y-122666867D01*
X170500128Y-122644199D01*
X170512227Y-122591769D01*
X170517233Y-122552956D01*
X170531491Y-122457560D01*
X170551272Y-122395900D01*
X170583384Y-122354208D01*
X170632392Y-122320034D01*
X170665882Y-122304589D01*
X170711022Y-122293535D01*
X170775542Y-122286201D01*
X170867171Y-122281912D01*
X170993640Y-122279999D01*
X171096162Y-122279710D01*
X171491671Y-122279710D01*
X171484545Y-122416333D01*
X171477419Y-122552956D01*
X171217464Y-122559746D01*
X171082687Y-122565775D01*
X170989214Y-122576760D01*
X170930945Y-122594385D01*
X170901774Y-122620335D01*
X170895286Y-122648681D01*
X170910071Y-122664172D01*
X170957938Y-122675416D01*
X171044154Y-122683263D01*
X171134879Y-122687353D01*
X171243925Y-122691628D01*
X171316667Y-122697600D01*
X171364300Y-122708377D01*
X171398020Y-122727067D01*
X171429021Y-122756780D01*
X171443766Y-122773116D01*
X171473563Y-122808297D01*
X171493299Y-122841278D01*
X171505045Y-122882535D01*
X171510872Y-122942546D01*
X171512853Y-123031789D01*
X171513060Y-123123584D01*
X171513060Y-123396455D01*
X171263574Y-123396455D01*
X171014089Y-123396455D01*
X171014089Y-123230131D01*
X171010975Y-123127499D01*
X170996949Y-123055625D01*
X170964985Y-123009385D01*
X170908057Y-122983653D01*
X170819139Y-122973304D01*
X170691205Y-122973215D01*
X170662825Y-122973910D01*
X170408196Y-122980646D01*
X170396315Y-123182610D01*
X170384435Y-123384575D01*
X170140890Y-123391346D01*
X169897344Y-123398117D01*
X169897344Y-122827034D01*
X169897344Y-122255950D01*
X170134024Y-122255950D01*
X170370705Y-122255950D01*
X170377570Y-122463854D01*
G37*
G36*
X173787655Y-122284784D02*
G01*
X174019795Y-122291591D01*
X174031675Y-122650371D01*
X174038408Y-122807696D01*
X174047024Y-122922258D01*
X174058059Y-122998797D01*
X174072050Y-123042052D01*
X174076766Y-123049084D01*
X174097847Y-123066468D01*
X174132225Y-123077496D01*
X174188700Y-123083116D01*
X174276070Y-123084274D01*
X174385653Y-123082352D01*
X174661329Y-123075688D01*
X174667844Y-122677699D01*
X174674359Y-122279710D01*
X174911389Y-122279710D01*
X175148420Y-122279710D01*
X175148420Y-122980646D01*
X175148283Y-123181940D01*
X175147642Y-123341114D01*
X175146154Y-123463572D01*
X175143477Y-123554714D01*
X175139267Y-123619943D01*
X175133182Y-123664659D01*
X175124878Y-123694266D01*
X175114013Y-123714164D01*
X175100899Y-123729102D01*
X175082523Y-123744802D01*
X175058733Y-123756612D01*
X175023053Y-123765083D01*
X174969007Y-123770765D01*
X174890120Y-123774207D01*
X174779915Y-123775959D01*
X174631917Y-123776572D01*
X174541341Y-123776623D01*
X174029304Y-123776623D01*
X174036430Y-123640000D01*
X174043556Y-123503377D01*
X174315355Y-123496617D01*
X174455634Y-123490488D01*
X174553783Y-123479383D01*
X174615047Y-123462057D01*
X174644671Y-123437265D01*
X174649449Y-123417306D01*
X174626895Y-123410869D01*
X174564053Y-123405239D01*
X174468153Y-123400744D01*
X174346427Y-123397711D01*
X174206105Y-123396468D01*
X174189633Y-123396455D01*
X174030168Y-123396196D01*
X173910823Y-123394922D01*
X173824198Y-123391889D01*
X173762893Y-123386352D01*
X173719508Y-123377567D01*
X173686642Y-123364789D01*
X173656895Y-123347273D01*
X173649081Y-123342068D01*
X173568345Y-123287682D01*
X173561930Y-122782830D01*
X173555515Y-122277978D01*
X173787655Y-122284784D01*
G37*
G36*
X166414511Y-121847904D02*
G01*
X167426778Y-121847904D01*
X167447480Y-121945885D01*
X167501319Y-122020583D01*
X167577853Y-122067505D01*
X167666644Y-122082156D01*
X167757253Y-122060044D01*
X167819695Y-122017032D01*
X167878215Y-121933166D01*
X167890458Y-121843733D01*
X168139856Y-121843733D01*
X168160615Y-121943455D01*
X168214203Y-122019309D01*
X168290447Y-122066876D01*
X168379172Y-122081737D01*
X168470203Y-122059474D01*
X168534521Y-122015144D01*
X168579767Y-121943061D01*
X168595006Y-121851868D01*
X168580589Y-121759013D01*
X168536867Y-121681948D01*
X168527645Y-121672682D01*
X168445558Y-121624571D01*
X168355846Y-121615264D01*
X168269543Y-121639893D01*
X168197681Y-121693594D01*
X168151290Y-121771499D01*
X168139856Y-121843733D01*
X167890458Y-121843733D01*
X167891679Y-121834817D01*
X167877553Y-121768413D01*
X167826755Y-121682045D01*
X167744208Y-121630143D01*
X167643043Y-121614416D01*
X167550397Y-121635870D01*
X167478340Y-121694196D01*
X167435262Y-121780334D01*
X167426778Y-121847904D01*
X166414511Y-121847904D01*
X166511474Y-121705318D01*
X166690817Y-121517516D01*
X166897669Y-121363881D01*
X167128933Y-121247662D01*
X167378729Y-121172684D01*
X167649091Y-121139221D01*
X167912809Y-121150585D01*
X168165714Y-121204146D01*
X168403637Y-121297275D01*
X168622409Y-121427340D01*
X168817860Y-121591714D01*
X168985821Y-121787765D01*
X169122124Y-122012865D01*
X169222599Y-122264382D01*
X169246747Y-122350992D01*
X169265833Y-122464489D01*
X169275549Y-122604823D01*
X169276330Y-122758100D01*
X169268614Y-122910425D01*
X169252838Y-123047902D01*
X169229439Y-123156636D01*
X169220600Y-123182610D01*
X169094785Y-123452698D01*
X168941163Y-123685440D01*
X168760404Y-123880012D01*
X168553180Y-124035591D01*
X168499536Y-124067062D01*
X168405523Y-124118226D01*
X168329591Y-124154847D01*
X168256619Y-124182402D01*
X168171486Y-124206366D01*
X168059069Y-124232215D01*
X168020263Y-124240618D01*
X167891779Y-124260212D01*
X167745788Y-124270087D01*
X167604122Y-124269469D01*
X167497531Y-124259162D01*
X167235502Y-124197979D01*
X167004611Y-124105772D01*
X166796936Y-123978579D01*
X166605242Y-123813129D01*
X166436370Y-123614068D01*
X166303559Y-123392475D01*
X166208931Y-123155030D01*
X166154609Y-122908409D01*
X166150596Y-122824367D01*
X166764195Y-122824367D01*
X166766404Y-122979741D01*
X166771791Y-123106392D01*
X166780100Y-123196593D01*
X166784437Y-123221924D01*
X166840439Y-123380102D01*
X166930147Y-123509488D01*
X167047126Y-123606719D01*
X167184937Y-123668436D01*
X167337145Y-123691277D01*
X167497314Y-123671883D01*
X167587851Y-123641418D01*
X167644961Y-123621772D01*
X167693668Y-123620896D01*
X167756813Y-123639486D01*
X167777383Y-123647200D01*
X167927805Y-123681525D01*
X168087463Y-123678353D01*
X168236941Y-123638100D01*
X168238798Y-123637306D01*
X168316968Y-123593946D01*
X168394801Y-123534948D01*
X168461523Y-123470488D01*
X168506359Y-123410740D01*
X168519234Y-123372496D01*
X168535078Y-123323250D01*
X168548935Y-123305014D01*
X168559316Y-123280858D01*
X168567224Y-123228918D01*
X168572880Y-123144954D01*
X168576505Y-123024724D01*
X168578321Y-122863990D01*
X168578635Y-122735949D01*
X168578635Y-122196549D01*
X168370731Y-122189683D01*
X168162826Y-122182818D01*
X168162826Y-122682714D01*
X168162566Y-122849904D01*
X168161406Y-122976143D01*
X168158775Y-123067998D01*
X168154103Y-123132039D01*
X168146821Y-123174833D01*
X168136357Y-123202949D01*
X168122142Y-123222955D01*
X168115305Y-123230131D01*
X168047705Y-123272259D01*
X167976451Y-123267007D01*
X167935702Y-123243965D01*
X167920423Y-123229825D01*
X167908772Y-123208484D01*
X167900134Y-123173659D01*
X167893896Y-123119071D01*
X167889445Y-123038436D01*
X167886167Y-122925475D01*
X167883449Y-122773905D01*
X167882330Y-122697473D01*
X167875081Y-122184668D01*
X167674426Y-122184668D01*
X167473771Y-122184668D01*
X167473771Y-122658761D01*
X167472201Y-122857057D01*
X167467532Y-123011657D01*
X167459824Y-123121412D01*
X167449135Y-123185175D01*
X167445937Y-123193942D01*
X167397511Y-123251883D01*
X167329765Y-123271020D01*
X167254654Y-123248326D01*
X167247873Y-123244083D01*
X167188645Y-123205275D01*
X167188645Y-122694047D01*
X167188645Y-122182818D01*
X166980740Y-122189683D01*
X166772835Y-122196549D01*
X166765420Y-122647998D01*
X166764195Y-122824367D01*
X166150596Y-122824367D01*
X166142713Y-122659291D01*
X166169448Y-122441263D01*
X166247694Y-122170439D01*
X166362735Y-121924041D01*
X166414511Y-121847904D01*
G37*
G36*
X165635411Y-122653372D02*
G01*
X165843817Y-122653372D01*
X165847799Y-122761915D01*
X165863378Y-122882183D01*
X165869702Y-122919898D01*
X165934662Y-123208871D01*
X166024735Y-123462819D01*
X166143509Y-123689086D01*
X166294572Y-123895013D01*
X166404547Y-124014217D01*
X166631270Y-124210377D01*
X166877283Y-124365269D01*
X167138692Y-124477822D01*
X167411606Y-124546963D01*
X167692132Y-124571620D01*
X167976379Y-124550718D01*
X168186587Y-124505358D01*
X168458375Y-124410095D01*
X168699981Y-124282224D01*
X168919529Y-124117256D01*
X168967423Y-124073909D01*
X169058143Y-123982577D01*
X169149594Y-123879355D01*
X169232406Y-123775833D01*
X169297211Y-123683602D01*
X169329959Y-123625375D01*
X169358121Y-123563566D01*
X169966320Y-123557232D01*
X170574519Y-123550898D01*
X170581420Y-123354874D01*
X170588321Y-123158850D01*
X170706163Y-123158850D01*
X170824005Y-123158850D01*
X170824005Y-123360814D01*
X170824005Y-123562779D01*
X171261594Y-123562779D01*
X171432607Y-123561719D01*
X171559481Y-123558401D01*
X171645554Y-123552619D01*
X171694165Y-123544165D01*
X171708417Y-123535081D01*
X171726705Y-123519655D01*
X171771338Y-123526682D01*
X171797104Y-123535081D01*
X171853973Y-123545540D01*
X171956752Y-123553591D01*
X172103889Y-123559167D01*
X172293832Y-123562201D01*
X172442305Y-123562779D01*
X173008051Y-123562779D01*
X173014952Y-123366754D01*
X173021853Y-123170730D01*
X173185786Y-123170730D01*
X173349718Y-123170730D01*
X173382378Y-123265065D01*
X173445997Y-123384556D01*
X173540484Y-123479030D01*
X173655778Y-123540948D01*
X173779841Y-123562779D01*
X173865352Y-123562779D01*
X173865352Y-123778129D01*
X173865352Y-123993480D01*
X174453425Y-123986034D01*
X175041498Y-123978588D01*
X175146367Y-123907306D01*
X175198319Y-123870877D01*
X175240601Y-123835826D01*
X175274259Y-123797002D01*
X175300336Y-123749253D01*
X175319879Y-123687426D01*
X175333933Y-123606369D01*
X175343542Y-123500930D01*
X175349753Y-123365957D01*
X175353609Y-123196297D01*
X175356157Y-122986799D01*
X175357247Y-122867783D01*
X175364110Y-122089626D01*
X174924192Y-122089626D01*
X174484274Y-122089626D01*
X174477760Y-122487615D01*
X174471245Y-122885604D01*
X174346502Y-122892786D01*
X174221760Y-122899967D01*
X174221760Y-122494797D01*
X174221760Y-122089626D01*
X173796050Y-122089626D01*
X173630992Y-122090600D01*
X173509172Y-122093710D01*
X173426343Y-122099235D01*
X173378257Y-122107458D01*
X173360742Y-122118424D01*
X173344008Y-122134245D01*
X173302964Y-122131269D01*
X173255023Y-122118424D01*
X173200372Y-122109441D01*
X173107003Y-122102056D01*
X172982878Y-122096278D01*
X172835955Y-122092119D01*
X172674196Y-122089587D01*
X172505560Y-122088693D01*
X172338010Y-122089446D01*
X172179503Y-122091858D01*
X172038002Y-122095936D01*
X171921467Y-122101693D01*
X171837857Y-122109137D01*
X171799180Y-122116601D01*
X171739085Y-122131435D01*
X171708473Y-122121273D01*
X171705475Y-122117159D01*
X171683190Y-122110110D01*
X171624416Y-122103848D01*
X171527445Y-122098318D01*
X171390569Y-122093465D01*
X171212077Y-122089235D01*
X170990261Y-122085571D01*
X170723413Y-122082420D01*
X170586655Y-122081140D01*
X169484160Y-122071538D01*
X169411071Y-121920199D01*
X169340367Y-121782360D01*
X169269035Y-121663876D01*
X169220356Y-121592279D01*
X169193704Y-121560847D01*
X169142540Y-121505372D01*
X169075856Y-121435513D01*
X169041965Y-121400715D01*
X168817359Y-121204242D01*
X168570584Y-121049402D01*
X168304237Y-120937268D01*
X168020915Y-120868913D01*
X167723213Y-120845412D01*
X167699496Y-120845495D01*
X167408339Y-120870884D01*
X167130385Y-120939400D01*
X166869597Y-121047919D01*
X166629937Y-121193318D01*
X166415368Y-121372471D01*
X166229853Y-121582257D01*
X166077355Y-121819549D01*
X165961836Y-122081225D01*
X165910096Y-122256099D01*
X165874102Y-122414664D01*
X165852297Y-122542355D01*
X165843817Y-122653372D01*
X165635411Y-122653372D01*
X165656248Y-122395069D01*
X165721964Y-122111168D01*
X165828960Y-121832660D01*
X165975669Y-121565344D01*
X166066503Y-121433534D01*
X166250957Y-121219449D01*
X166464315Y-121037249D01*
X166709758Y-120884888D01*
X166990466Y-120760322D01*
X167236166Y-120681077D01*
X167433355Y-120642679D01*
X167655574Y-120626993D01*
X167886210Y-120633831D01*
X168108654Y-120663008D01*
X168235416Y-120692302D01*
X168505165Y-120781339D01*
X168741159Y-120891138D01*
X168954940Y-121028085D01*
X169158047Y-121198566D01*
X169169156Y-121209060D01*
X169240152Y-121283881D01*
X169319918Y-121379667D01*
X169401436Y-121486568D01*
X169477688Y-121594733D01*
X169541657Y-121694309D01*
X169586323Y-121775446D01*
X169602815Y-121817789D01*
X169617370Y-121875781D01*
X170689958Y-121876225D01*
X170942916Y-121876490D01*
X171232446Y-121877070D01*
X171547599Y-121877926D01*
X171877426Y-121879019D01*
X172210979Y-121880311D01*
X172537309Y-121881765D01*
X172845468Y-121883341D01*
X173033733Y-121884430D01*
X173312530Y-121886141D01*
X173548681Y-121887597D01*
X173747064Y-121888812D01*
X173912553Y-121889802D01*
X174050026Y-121890579D01*
X174164356Y-121891160D01*
X174260421Y-121891556D01*
X174343096Y-121891784D01*
X174417256Y-121891857D01*
X174487777Y-121891789D01*
X174559535Y-121891595D01*
X174637406Y-121891288D01*
X174726266Y-121890884D01*
X174830989Y-121890396D01*
X174927994Y-121889961D01*
X175099511Y-121889357D01*
X175229938Y-121889616D01*
X175325706Y-121891311D01*
X175393245Y-121895014D01*
X175438986Y-121901297D01*
X175469358Y-121910732D01*
X175490792Y-121923891D01*
X175509719Y-121941348D01*
X175510127Y-121941756D01*
X175524603Y-121957088D01*
X175536279Y-121974432D01*
X175545504Y-121998782D01*
X175552627Y-122035133D01*
X175557999Y-122088477D01*
X175561969Y-122163809D01*
X175564886Y-122266124D01*
X175567101Y-122400414D01*
X175568963Y-122571674D01*
X175570822Y-122784899D01*
X175571047Y-122811719D01*
X175572745Y-123031691D01*
X175573622Y-123209611D01*
X175573441Y-123350947D01*
X175571962Y-123461164D01*
X175568950Y-123545728D01*
X175564164Y-123610106D01*
X175557368Y-123659764D01*
X175548323Y-123700168D01*
X175536791Y-123736785D01*
X175529948Y-123755567D01*
X175451083Y-123912385D01*
X175343204Y-124033850D01*
X175201396Y-124125581D01*
X175065258Y-124192433D01*
X174430220Y-124192433D01*
X173795182Y-124192433D01*
X173730877Y-124128143D01*
X173691356Y-124078936D01*
X173668912Y-124019838D01*
X173657162Y-123933112D01*
X173656216Y-123920688D01*
X173645860Y-123777522D01*
X173523941Y-123719083D01*
X173432319Y-123672229D01*
X173368904Y-123630001D01*
X173317497Y-123580103D01*
X173279761Y-123533738D01*
X173229898Y-123469057D01*
X173216771Y-123566926D01*
X173196151Y-123642649D01*
X173161868Y-123705473D01*
X173153673Y-123714769D01*
X173141449Y-123726119D01*
X173126737Y-123735595D01*
X173105457Y-123743353D01*
X173073529Y-123749550D01*
X173026875Y-123754346D01*
X172961415Y-123757896D01*
X172873068Y-123760358D01*
X172757756Y-123761890D01*
X172611398Y-123762649D01*
X172429916Y-123762793D01*
X172209229Y-123762479D01*
X171945259Y-123761864D01*
X171934152Y-123761836D01*
X171701497Y-123761251D01*
X171482333Y-123760684D01*
X171281443Y-123760151D01*
X171103609Y-123759663D01*
X170953616Y-123759235D01*
X170836245Y-123758881D01*
X170756280Y-123758612D01*
X170718504Y-123758443D01*
X170717082Y-123758431D01*
X170680758Y-123758711D01*
X170604065Y-123759763D01*
X170494144Y-123761473D01*
X170358140Y-123763727D01*
X170203196Y-123766412D01*
X170087429Y-123768483D01*
X169505296Y-123779034D01*
X169423016Y-123899686D01*
X169232933Y-124136924D01*
X169009807Y-124340782D01*
X168755887Y-124509705D01*
X168473422Y-124642135D01*
X168241425Y-124717317D01*
X168029967Y-124761991D01*
X167813058Y-124786403D01*
X167605174Y-124789788D01*
X167420789Y-124771380D01*
X167378729Y-124762984D01*
X167115226Y-124694621D01*
X166888811Y-124614378D01*
X166689520Y-124517019D01*
X166507385Y-124397307D01*
X166332441Y-124250005D01*
X166250104Y-124169993D01*
X166065661Y-123962086D01*
X165918098Y-123745238D01*
X165803239Y-123510928D01*
X165716905Y-123250633D01*
X165654925Y-122955868D01*
X165633379Y-122678568D01*
X165635411Y-122653372D01*
G37*
D13*
%TO.C,J1*%
X173082400Y-103265400D02*
X174142400Y-103265400D01*
X173082400Y-104325400D02*
X173082400Y-103265400D01*
X173082400Y-105325400D02*
X173082400Y-119385400D01*
X173082400Y-105325400D02*
X175202400Y-105325400D01*
X173082400Y-119385400D02*
X175202400Y-119385400D01*
X175202400Y-105325400D02*
X175202400Y-119385400D01*
%TO.C,R1*%
X149758400Y-89457400D02*
X149758400Y-90227400D01*
X151128400Y-90227400D02*
X148388400Y-90227400D01*
X148388400Y-90227400D02*
X148388400Y-96767400D01*
X151128400Y-96767400D02*
X151128400Y-90227400D01*
X148388400Y-96767400D02*
X151128400Y-96767400D01*
X149758400Y-97537400D02*
X149758400Y-96767400D01*
%TO.C,U1*%
X155211000Y-87697000D02*
X155211000Y-123377000D01*
X155211000Y-123377000D02*
X160511000Y-123377000D01*
X156861000Y-87697000D02*
X155211000Y-87697000D01*
X160511000Y-87697000D02*
X158861000Y-87697000D01*
X160511000Y-123377000D02*
X160511000Y-87697000D01*
X156861000Y-87697000D02*
G75*
G03*
X158861000Y-87697000I1000000J0D01*
G01*
%TO.C,C2*%
X164731000Y-92610000D02*
X164731000Y-92925000D01*
X164731000Y-92610000D02*
X169971000Y-92610000D01*
X164731000Y-95035000D02*
X164731000Y-95350000D01*
X164731000Y-95350000D02*
X169971000Y-95350000D01*
X169971000Y-92610000D02*
X169971000Y-92925000D01*
X169971000Y-95035000D02*
X169971000Y-95350000D01*
%TO.C,C1*%
X164731000Y-87607000D02*
X164731000Y-87922000D01*
X164731000Y-87607000D02*
X169971000Y-87607000D01*
X164731000Y-90032000D02*
X164731000Y-90347000D01*
X164731000Y-90347000D02*
X169971000Y-90347000D01*
X169971000Y-87607000D02*
X169971000Y-87922000D01*
X169971000Y-90032000D02*
X169971000Y-90347000D01*
%TD*%
M02*
